G04 #@! TF.FileFunction,Copper,L3,Inr,Plane*
%FSLAX46Y46*%
G04 Gerber Fmt 4.6, Leading zero omitted, Abs format (unit mm)*
G04 Created by KiCad (PCBNEW 4.0.7) date Wednesday, December 20, 2017 'AMt' 12:52:48 AM*
%MOMM*%
%LPD*%
G01*
G04 APERTURE LIST*
%ADD10C,0.100000*%
%ADD11C,1.204800*%
%ADD12C,0.672800*%
%ADD13C,0.609600*%
%ADD14C,0.203200*%
G04 APERTURE END LIST*
D10*
D11*
X58140000Y3870000D03*
X58140000Y12130000D03*
X64090000Y12490000D03*
X64090000Y3510000D03*
D12*
X57550000Y10800000D03*
X58250000Y10400000D03*
X58250000Y9600000D03*
X58250000Y8800000D03*
X57550000Y9200000D03*
X57550000Y8400000D03*
X57550000Y7600000D03*
X57550000Y6800000D03*
X58250000Y7200000D03*
X58250000Y6400000D03*
X58250000Y5600000D03*
X57550000Y5200000D03*
D13*
X54750000Y12000000D03*
X55500000Y4750000D03*
X19283410Y6250000D03*
X12500000Y10000000D03*
X11500000Y10000000D03*
X17250000Y6250000D03*
X14250000Y6250000D03*
X12500000Y12000000D03*
X11500000Y12000000D03*
X4750000Y12000000D03*
X3750000Y12000000D03*
X3750000Y10000000D03*
X4750000Y10000000D03*
X6750000Y6031802D03*
X3750000Y6000000D03*
X7500000Y11000000D03*
X16750000Y11000000D03*
X15250000Y11000000D03*
X17750000Y12500000D03*
X8500000Y8283410D03*
X750000Y8250000D03*
X750000Y7000000D03*
X25000000Y12500000D03*
X2750000Y7000000D03*
X1750000Y7000000D03*
X2750000Y6000000D03*
X1750000Y6000000D03*
X14000000Y10250000D03*
X14000000Y9500000D03*
X14000000Y8500000D03*
X13500000Y9000000D03*
X7750000Y7000000D03*
X7750000Y6031802D03*
X10750000Y6750000D03*
X23000000Y12500000D03*
X10000000Y6750000D03*
X20250000Y12500000D03*
X55750000Y12000000D03*
X55000000Y12750000D03*
X55750000Y12750000D03*
X56500000Y12750000D03*
X10000000Y8750000D03*
X10000000Y11000000D03*
X10000000Y10250000D03*
X10000000Y9500000D03*
X55462415Y8509890D03*
X2250000Y10250000D03*
X2250000Y9500000D03*
X2250000Y8500000D03*
X2750000Y9000000D03*
X24000000Y12500000D03*
X6500000Y11000000D03*
X14250000Y11000000D03*
D14*
X750000Y8250000D02*
X750000Y12750000D01*
X750000Y12750000D02*
X1500000Y13500000D01*
X1500000Y13500000D02*
X9000000Y13500000D01*
X9000000Y13500000D02*
X17750000Y13500000D01*
X58750000Y13500000D02*
X17750000Y13500000D01*
X17750000Y12500000D02*
X17750000Y13500000D01*
X58250000Y8800000D02*
X58744974Y8800000D01*
X58744974Y8800000D02*
X59250000Y9305026D01*
X59250000Y9305026D02*
X59250000Y13000000D01*
X59250000Y13000000D02*
X58750000Y13500000D01*
X750000Y7000000D02*
X1300000Y7550000D01*
X16300000Y13150000D02*
X17500000Y11950000D01*
X1300000Y7550000D02*
X1300000Y12750000D01*
X1700000Y13150000D02*
X16300000Y13150000D01*
X1300000Y12750000D02*
X1700000Y13150000D01*
X17500000Y11950000D02*
X18000000Y11950000D01*
X18000000Y11950000D02*
X19200000Y13150000D01*
X19200000Y13150000D02*
X24350000Y13150000D01*
X24350000Y13150000D02*
X24695201Y12804799D01*
X24695201Y12804799D02*
X25000000Y12500000D01*
X6500000Y11000000D02*
X7350000Y11850000D01*
X7350000Y11850000D02*
X10400000Y11850000D01*
X10400000Y11850000D02*
X11250000Y11000000D01*
X11250000Y11000000D02*
X14250000Y11000000D01*
G36*
X65766000Y13299520D02*
X65766000Y2700480D01*
X65549520Y2484000D01*
X53450480Y2484000D01*
X53234000Y2700480D01*
X53234000Y4351316D01*
X56310238Y4351316D01*
X56330736Y4239634D01*
X56372536Y4134060D01*
X56434046Y4038615D01*
X56512923Y3956935D01*
X56606162Y3892132D01*
X56710213Y3846673D01*
X56821112Y3822291D01*
X56934635Y3819913D01*
X57046458Y3839630D01*
X57152321Y3880692D01*
X57248193Y3941534D01*
X57330421Y4019839D01*
X57395874Y4112624D01*
X57442058Y4216355D01*
X57467214Y4327081D01*
X57469025Y4456774D01*
X57446970Y4568159D01*
X57403701Y4673139D01*
X57340864Y4767716D01*
X57260855Y4848286D01*
X57166719Y4911781D01*
X57062044Y4955783D01*
X56950815Y4978615D01*
X56837270Y4979408D01*
X56725733Y4958131D01*
X56620453Y4915595D01*
X56525441Y4853420D01*
X56444314Y4773975D01*
X56380163Y4680285D01*
X56335432Y4575919D01*
X56311824Y4464853D01*
X56310238Y4351316D01*
X53234000Y4351316D01*
X53234000Y7650000D01*
X53233991Y7650087D01*
X53233997Y7651647D01*
X53233978Y7657232D01*
X53231841Y7678287D01*
X53231989Y7699454D01*
X53231329Y7706179D01*
X53215008Y7861456D01*
X53206196Y7904385D01*
X53197969Y7947514D01*
X53196015Y7953983D01*
X53149846Y8103133D01*
X53132844Y8143581D01*
X53116413Y8184248D01*
X53113240Y8190215D01*
X53038979Y8327557D01*
X53014447Y8363928D01*
X52990430Y8400630D01*
X52986159Y8405867D01*
X52938974Y8462905D01*
X54902880Y8462905D01*
X54922663Y8355119D01*
X54963004Y8253228D01*
X55022368Y8161113D01*
X55098493Y8082283D01*
X55188480Y8019741D01*
X55288901Y7975868D01*
X55395931Y7952336D01*
X55505493Y7950041D01*
X55613415Y7969070D01*
X55715585Y8008699D01*
X55808111Y8067419D01*
X55887471Y8142992D01*
X55950640Y8232540D01*
X55995213Y8332652D01*
X56019491Y8439515D01*
X56021239Y8564683D01*
X55999954Y8672183D01*
X55958194Y8773500D01*
X55897549Y8864777D01*
X55820331Y8942536D01*
X55729480Y9003816D01*
X55628456Y9046283D01*
X55521108Y9068318D01*
X55411524Y9069083D01*
X55303879Y9048549D01*
X55202272Y9007497D01*
X55110574Y8947491D01*
X55032278Y8870818D01*
X54970365Y8780397D01*
X54927195Y8679672D01*
X54904410Y8572480D01*
X54902880Y8462905D01*
X52938974Y8462905D01*
X52886636Y8526170D01*
X52855498Y8557091D01*
X52824816Y8588423D01*
X52819608Y8592731D01*
X52698615Y8691411D01*
X52662071Y8715690D01*
X52625883Y8740469D01*
X52619938Y8743683D01*
X52482081Y8816983D01*
X52441574Y8833679D01*
X52401203Y8850982D01*
X52394747Y8852980D01*
X52245277Y8898107D01*
X52202263Y8906624D01*
X52159339Y8915748D01*
X52152617Y8916454D01*
X51997231Y8931690D01*
X51976932Y8931690D01*
X51956758Y8933953D01*
X51950000Y8934000D01*
X21200000Y8934000D01*
X21199858Y8933986D01*
X21196524Y8933995D01*
X21192335Y8933977D01*
X21171491Y8931843D01*
X21150546Y8931989D01*
X21143821Y8931329D01*
X20988544Y8915008D01*
X20945615Y8906196D01*
X20902486Y8897969D01*
X20896017Y8896015D01*
X20746867Y8849846D01*
X20706419Y8832844D01*
X20665752Y8816413D01*
X20659792Y8813244D01*
X20659788Y8813242D01*
X20659785Y8813240D01*
X20522443Y8738979D01*
X20486072Y8714447D01*
X20449370Y8690430D01*
X20444133Y8686159D01*
X20323830Y8586636D01*
X20292909Y8555498D01*
X20261577Y8524816D01*
X20257269Y8519608D01*
X20158589Y8398615D01*
X20134310Y8362071D01*
X20109531Y8325883D01*
X20106317Y8319938D01*
X20033017Y8182081D01*
X20016321Y8141574D01*
X19999018Y8101203D01*
X19997020Y8094747D01*
X19951893Y7945277D01*
X19943376Y7902263D01*
X19934252Y7859339D01*
X19933546Y7852617D01*
X19918310Y7697231D01*
X19918310Y7676932D01*
X19916047Y7656758D01*
X19916000Y7650000D01*
X19916000Y5851600D01*
X13534000Y5851600D01*
X13534000Y7650000D01*
X13533988Y7650122D01*
X13533988Y7653380D01*
X13533910Y7664550D01*
X13531612Y7686413D01*
X13531612Y7708400D01*
X13530906Y7715121D01*
X13513502Y7870280D01*
X13504375Y7913216D01*
X13495861Y7956220D01*
X13493862Y7962676D01*
X13446652Y8111501D01*
X13429372Y8151817D01*
X13412655Y8192377D01*
X13409441Y8198322D01*
X13334224Y8335142D01*
X13309450Y8371324D01*
X13285164Y8407877D01*
X13280856Y8413084D01*
X13180496Y8532688D01*
X13149419Y8563121D01*
X13226065Y8509851D01*
X13326486Y8465978D01*
X13433516Y8442446D01*
X13442439Y8442259D01*
X13460248Y8345229D01*
X13500589Y8243338D01*
X13559953Y8151223D01*
X13636078Y8072393D01*
X13726065Y8009851D01*
X13826486Y7965978D01*
X13933516Y7942446D01*
X14043078Y7940151D01*
X14151000Y7959180D01*
X14253170Y7998809D01*
X14345696Y8057529D01*
X14425056Y8133102D01*
X14488225Y8222650D01*
X14532798Y8322762D01*
X14557076Y8429625D01*
X14558824Y8554793D01*
X14537539Y8662293D01*
X14495779Y8763610D01*
X14435134Y8854887D01*
X14357916Y8932646D01*
X14267065Y8993926D01*
X14254078Y8999385D01*
X14345696Y9057529D01*
X14425056Y9133102D01*
X14488225Y9222650D01*
X14532798Y9322762D01*
X14557076Y9429625D01*
X14558824Y9554793D01*
X14537539Y9662293D01*
X14495779Y9763610D01*
X14435134Y9854887D01*
X14415835Y9874321D01*
X14425056Y9883102D01*
X14488225Y9972650D01*
X14532798Y10072762D01*
X14557076Y10179625D01*
X14558824Y10304793D01*
X14537539Y10412293D01*
X14502057Y10498377D01*
X14503170Y10498809D01*
X14595696Y10557529D01*
X14675056Y10633102D01*
X14738225Y10722650D01*
X14782798Y10822762D01*
X14807076Y10929625D01*
X14808824Y11054793D01*
X14787539Y11162293D01*
X14745779Y11263610D01*
X14685134Y11354887D01*
X14607916Y11432646D01*
X14517065Y11493926D01*
X14416041Y11536393D01*
X14308693Y11558428D01*
X14199109Y11559193D01*
X14091464Y11538659D01*
X13989857Y11497607D01*
X13898159Y11437601D01*
X13819863Y11360928D01*
X13816215Y11355600D01*
X11397295Y11355600D01*
X10651447Y12101447D01*
X10626007Y12122344D01*
X10600902Y12143410D01*
X10599270Y12144308D01*
X10597819Y12145499D01*
X10568827Y12161044D01*
X10540086Y12176845D01*
X10538302Y12177411D01*
X10536655Y12178294D01*
X10505208Y12187908D01*
X10473933Y12197829D01*
X10472080Y12198037D01*
X10470287Y12198585D01*
X10437542Y12201911D01*
X10404965Y12205565D01*
X10401312Y12205591D01*
X10401241Y12205598D01*
X10401175Y12205592D01*
X10400000Y12205600D01*
X7350000Y12205600D01*
X7317278Y12202392D01*
X7284587Y12199532D01*
X7282792Y12199011D01*
X7280930Y12198828D01*
X7249464Y12189328D01*
X7217942Y12180170D01*
X7216283Y12179310D01*
X7214491Y12178769D01*
X7185442Y12163323D01*
X7156327Y12148231D01*
X7154869Y12147067D01*
X7153214Y12146187D01*
X7127736Y12125408D01*
X7102089Y12104934D01*
X7099482Y12102363D01*
X7099432Y12102323D01*
X7099394Y12102277D01*
X7098553Y12101448D01*
X6555556Y11558450D01*
X6449109Y11559193D01*
X6341464Y11538659D01*
X6239857Y11497607D01*
X6148159Y11437601D01*
X6069863Y11360928D01*
X6007950Y11270507D01*
X5964780Y11169782D01*
X5941995Y11062590D01*
X5940465Y10953015D01*
X5960248Y10845229D01*
X6000589Y10743338D01*
X6059953Y10651223D01*
X6136078Y10572393D01*
X6226065Y10509851D01*
X6326486Y10465978D01*
X6433516Y10442446D01*
X6543078Y10440151D01*
X6651000Y10459180D01*
X6753170Y10498809D01*
X6845696Y10557529D01*
X6925056Y10633102D01*
X6988225Y10722650D01*
X7032798Y10822762D01*
X7057076Y10929625D01*
X7058824Y11054793D01*
X7058636Y11055742D01*
X7497295Y11494400D01*
X9734956Y11494400D01*
X9648159Y11437601D01*
X9569863Y11360928D01*
X9507950Y11270507D01*
X9464780Y11169782D01*
X9441995Y11062590D01*
X9440465Y10953015D01*
X9460248Y10845229D01*
X9500589Y10743338D01*
X9559953Y10651223D01*
X9584769Y10625525D01*
X9569863Y10610928D01*
X9507950Y10520507D01*
X9464780Y10419782D01*
X9441995Y10312590D01*
X9440465Y10203015D01*
X9460248Y10095229D01*
X9500589Y9993338D01*
X9559953Y9901223D01*
X9584769Y9875525D01*
X9569863Y9860928D01*
X9507950Y9770507D01*
X9464780Y9669782D01*
X9441995Y9562590D01*
X9440465Y9453015D01*
X9460248Y9345229D01*
X9500589Y9243338D01*
X9559953Y9151223D01*
X9584769Y9125525D01*
X9569863Y9110928D01*
X9507950Y9020507D01*
X9464780Y8919782D01*
X9441995Y8812590D01*
X9440465Y8703015D01*
X9460248Y8595229D01*
X9500589Y8493338D01*
X9559953Y8401223D01*
X9636078Y8322393D01*
X9726065Y8259851D01*
X9826486Y8215978D01*
X9933516Y8192446D01*
X10043078Y8190151D01*
X10151000Y8209180D01*
X10253170Y8248809D01*
X10345696Y8307529D01*
X10425056Y8383102D01*
X10488225Y8472650D01*
X10532798Y8572762D01*
X10557076Y8679625D01*
X10558824Y8804793D01*
X10537539Y8912293D01*
X10495779Y9013610D01*
X10435134Y9104887D01*
X10415835Y9124321D01*
X10425056Y9133102D01*
X10488225Y9222650D01*
X10532798Y9322762D01*
X10557076Y9429625D01*
X10558824Y9554793D01*
X10537539Y9662293D01*
X10495779Y9763610D01*
X10435134Y9854887D01*
X10415835Y9874321D01*
X10425056Y9883102D01*
X10488225Y9972650D01*
X10532798Y10072762D01*
X10557076Y10179625D01*
X10558824Y10304793D01*
X10537539Y10412293D01*
X10495779Y10513610D01*
X10435134Y10604887D01*
X10415835Y10624321D01*
X10425056Y10633102D01*
X10488225Y10722650D01*
X10532798Y10822762D01*
X10557076Y10929625D01*
X10558824Y11054793D01*
X10537539Y11162293D01*
X10504392Y11242714D01*
X10998553Y10748552D01*
X11024000Y10727650D01*
X11049098Y10706590D01*
X11050733Y10705691D01*
X11052182Y10704501D01*
X11081152Y10688967D01*
X11109914Y10673155D01*
X11111698Y10672589D01*
X11113345Y10671706D01*
X11144792Y10662092D01*
X11176067Y10652171D01*
X11177920Y10651963D01*
X11179713Y10651415D01*
X11212458Y10648089D01*
X11245035Y10644435D01*
X11248688Y10644409D01*
X11248759Y10644402D01*
X11248825Y10644408D01*
X11250000Y10644400D01*
X13604044Y10644400D01*
X13569863Y10610928D01*
X13507950Y10520507D01*
X13464780Y10419782D01*
X13441995Y10312590D01*
X13440465Y10203015D01*
X13460248Y10095229D01*
X13500589Y9993338D01*
X13559953Y9901223D01*
X13584769Y9875525D01*
X13569863Y9860928D01*
X13507950Y9770507D01*
X13464780Y9669782D01*
X13441995Y9562590D01*
X13441928Y9557823D01*
X13341464Y9538659D01*
X13239857Y9497607D01*
X13148159Y9437601D01*
X13069863Y9360928D01*
X13007950Y9270507D01*
X12964780Y9169782D01*
X12941995Y9062590D01*
X12940465Y8953015D01*
X12960248Y8845229D01*
X13000589Y8743338D01*
X13059953Y8651223D01*
X13102234Y8607440D01*
X12991327Y8696611D01*
X12954602Y8720643D01*
X12918253Y8745161D01*
X12912286Y8748334D01*
X12773920Y8820670D01*
X12733219Y8837114D01*
X12692810Y8854101D01*
X12686340Y8856055D01*
X12536559Y8900138D01*
X12493461Y8908359D01*
X12450498Y8917179D01*
X12443774Y8917838D01*
X12443772Y8917838D01*
X12288282Y8931989D01*
X12244414Y8931682D01*
X12200546Y8931989D01*
X12193821Y8931329D01*
X12038544Y8915008D01*
X11995615Y8906196D01*
X11952486Y8897969D01*
X11946017Y8896015D01*
X11796867Y8849846D01*
X11756419Y8832844D01*
X11715752Y8816413D01*
X11709792Y8813244D01*
X11709788Y8813242D01*
X11709785Y8813240D01*
X11572443Y8738979D01*
X11536072Y8714447D01*
X11499370Y8690430D01*
X11494133Y8686159D01*
X11373830Y8586636D01*
X11342909Y8555498D01*
X11311577Y8524816D01*
X11307269Y8519608D01*
X11208589Y8398615D01*
X11184310Y8362071D01*
X11159531Y8325883D01*
X11156317Y8319938D01*
X11083017Y8182081D01*
X11066321Y8141574D01*
X11049018Y8101203D01*
X11047020Y8094747D01*
X11001893Y7945277D01*
X10993376Y7902263D01*
X10984252Y7859339D01*
X10983546Y7852617D01*
X10968310Y7697231D01*
X10968310Y7676932D01*
X10966047Y7656758D01*
X10966000Y7650000D01*
X10966000Y7265392D01*
X10916041Y7286393D01*
X10808693Y7308428D01*
X10699109Y7309193D01*
X10591464Y7288659D01*
X10489857Y7247607D01*
X10398159Y7187601D01*
X10375262Y7165179D01*
X10357916Y7182646D01*
X10267065Y7243926D01*
X10166041Y7286393D01*
X10058693Y7308428D01*
X9949109Y7309193D01*
X9841464Y7288659D01*
X9739857Y7247607D01*
X9648159Y7187601D01*
X9569863Y7110928D01*
X9507950Y7020507D01*
X9464780Y6919782D01*
X9441995Y6812590D01*
X9440465Y6703015D01*
X9460248Y6595229D01*
X9500589Y6493338D01*
X9559953Y6401223D01*
X9636078Y6322393D01*
X9726065Y6259851D01*
X9826486Y6215978D01*
X9933516Y6192446D01*
X10043078Y6190151D01*
X10151000Y6209180D01*
X10253170Y6248809D01*
X10345696Y6307529D01*
X10374210Y6334683D01*
X10386078Y6322393D01*
X10476065Y6259851D01*
X10576486Y6215978D01*
X10683516Y6192446D01*
X10793078Y6190151D01*
X10901000Y6209180D01*
X10966000Y6234392D01*
X10966000Y5851600D01*
X8281478Y5851600D01*
X8282798Y5854564D01*
X8307076Y5961427D01*
X8308824Y6086595D01*
X8287539Y6194095D01*
X8245779Y6295412D01*
X8185134Y6386689D01*
X8107916Y6464448D01*
X8030891Y6516402D01*
X8095696Y6557529D01*
X8175056Y6633102D01*
X8238225Y6722650D01*
X8282798Y6822762D01*
X8307076Y6929625D01*
X8308824Y7054793D01*
X8287539Y7162293D01*
X8245779Y7263610D01*
X8185134Y7354887D01*
X8107916Y7432646D01*
X8017065Y7493926D01*
X7916041Y7536393D01*
X7808693Y7558428D01*
X7699109Y7559193D01*
X7591464Y7538659D01*
X7489857Y7497607D01*
X7398159Y7437601D01*
X7319863Y7360928D01*
X7257950Y7270507D01*
X7214780Y7169782D01*
X7191995Y7062590D01*
X7190465Y6953015D01*
X7210248Y6845229D01*
X7250589Y6743338D01*
X7309953Y6651223D01*
X7386078Y6572393D01*
X7468260Y6515276D01*
X7398159Y6469403D01*
X7319863Y6392730D01*
X7257950Y6302309D01*
X7214780Y6201584D01*
X7191995Y6094392D01*
X7190465Y5984817D01*
X7210248Y5877031D01*
X7220317Y5851600D01*
X3289350Y5851600D01*
X3307076Y5929625D01*
X3308824Y6054793D01*
X3287539Y6162293D01*
X3245779Y6263610D01*
X3185134Y6354887D01*
X3107916Y6432646D01*
X3017065Y6493926D01*
X3004078Y6499385D01*
X3095696Y6557529D01*
X3175056Y6633102D01*
X3238225Y6722650D01*
X3282798Y6822762D01*
X3307076Y6929625D01*
X3308824Y7054793D01*
X3287539Y7162293D01*
X3245779Y7263610D01*
X3185134Y7354887D01*
X3107916Y7432646D01*
X3017065Y7493926D01*
X2916041Y7536393D01*
X2808693Y7558428D01*
X2699109Y7559193D01*
X2591464Y7538659D01*
X2489857Y7497607D01*
X2398159Y7437601D01*
X2319863Y7360928D01*
X2257950Y7270507D01*
X2250297Y7252650D01*
X2245779Y7263610D01*
X2185134Y7354887D01*
X2107916Y7432646D01*
X2017065Y7493926D01*
X1916041Y7536393D01*
X1808693Y7558428D01*
X1699109Y7559193D01*
X1655600Y7550893D01*
X1655600Y10203015D01*
X1690465Y10203015D01*
X1710248Y10095229D01*
X1750589Y9993338D01*
X1809953Y9901223D01*
X1834769Y9875525D01*
X1819863Y9860928D01*
X1757950Y9770507D01*
X1714780Y9669782D01*
X1691995Y9562590D01*
X1690465Y9453015D01*
X1710248Y9345229D01*
X1750589Y9243338D01*
X1809953Y9151223D01*
X1886078Y9072393D01*
X1976065Y9009851D01*
X1997252Y9000595D01*
X1989857Y8997607D01*
X1898159Y8937601D01*
X1819863Y8860928D01*
X1757950Y8770507D01*
X1714780Y8669782D01*
X1691995Y8562590D01*
X1690465Y8453015D01*
X1710248Y8345229D01*
X1750589Y8243338D01*
X1809953Y8151223D01*
X1886078Y8072393D01*
X1976065Y8009851D01*
X2076486Y7965978D01*
X2183516Y7942446D01*
X2293078Y7940151D01*
X2401000Y7959180D01*
X2503170Y7998809D01*
X2595696Y8057529D01*
X2675056Y8133102D01*
X2738225Y8222650D01*
X2744358Y8236425D01*
X7940465Y8236425D01*
X7960248Y8128639D01*
X8000589Y8026748D01*
X8059953Y7934633D01*
X8136078Y7855803D01*
X8226065Y7793261D01*
X8326486Y7749388D01*
X8433516Y7725856D01*
X8543078Y7723561D01*
X8651000Y7742590D01*
X8753170Y7782219D01*
X8845696Y7840939D01*
X8925056Y7916512D01*
X8988225Y8006060D01*
X9032798Y8106172D01*
X9057076Y8213035D01*
X9058824Y8338203D01*
X9037539Y8445703D01*
X8995779Y8547020D01*
X8935134Y8638297D01*
X8857916Y8716056D01*
X8767065Y8777336D01*
X8666041Y8819803D01*
X8558693Y8841838D01*
X8449109Y8842603D01*
X8341464Y8822069D01*
X8239857Y8781017D01*
X8148159Y8721011D01*
X8069863Y8644338D01*
X8007950Y8553917D01*
X7964780Y8453192D01*
X7941995Y8346000D01*
X7940465Y8236425D01*
X2744358Y8236425D01*
X2782798Y8322762D01*
X2807076Y8429625D01*
X2807258Y8442651D01*
X2901000Y8459180D01*
X3003170Y8498809D01*
X3095696Y8557529D01*
X3175056Y8633102D01*
X3238225Y8722650D01*
X3282798Y8822762D01*
X3307076Y8929625D01*
X3308824Y9054793D01*
X3287539Y9162293D01*
X3245779Y9263610D01*
X3185134Y9354887D01*
X3107916Y9432646D01*
X3017065Y9493926D01*
X2916041Y9536393D01*
X2808693Y9558428D01*
X2808103Y9558432D01*
X2787539Y9662293D01*
X2745779Y9763610D01*
X2685134Y9854887D01*
X2665835Y9874321D01*
X2675056Y9883102D01*
X2738225Y9972650D01*
X2782798Y10072762D01*
X2807076Y10179625D01*
X2808824Y10304793D01*
X2787539Y10412293D01*
X2745779Y10513610D01*
X2685134Y10604887D01*
X2607916Y10682646D01*
X2517065Y10743926D01*
X2416041Y10786393D01*
X2308693Y10808428D01*
X2199109Y10809193D01*
X2091464Y10788659D01*
X1989857Y10747607D01*
X1898159Y10687601D01*
X1819863Y10610928D01*
X1757950Y10520507D01*
X1714780Y10419782D01*
X1691995Y10312590D01*
X1690465Y10203015D01*
X1655600Y10203015D01*
X1655600Y12602706D01*
X1847294Y12794400D01*
X16152706Y12794400D01*
X17248553Y11698553D01*
X17273966Y11677678D01*
X17299098Y11656590D01*
X17300734Y11655691D01*
X17302181Y11654502D01*
X17331153Y11638967D01*
X17359914Y11623155D01*
X17361696Y11622590D01*
X17363344Y11621706D01*
X17394764Y11612100D01*
X17426067Y11602171D01*
X17427925Y11601963D01*
X17429713Y11601416D01*
X17462364Y11598100D01*
X17495035Y11594435D01*
X17498698Y11594409D01*
X17498759Y11594403D01*
X17498816Y11594408D01*
X17500000Y11594400D01*
X18000000Y11594400D01*
X18032772Y11597613D01*
X18065413Y11600469D01*
X18067203Y11600989D01*
X18069070Y11601172D01*
X18100564Y11610681D01*
X18132059Y11619830D01*
X18133719Y11620691D01*
X18135509Y11621231D01*
X18164519Y11636656D01*
X18193674Y11651769D01*
X18195134Y11652935D01*
X18196786Y11653813D01*
X18222248Y11674579D01*
X18247912Y11695067D01*
X18250514Y11697633D01*
X18250568Y11697677D01*
X18250609Y11697727D01*
X18251447Y11698553D01*
X19347294Y12794400D01*
X19774310Y12794400D01*
X19757950Y12770507D01*
X19714780Y12669782D01*
X19691995Y12562590D01*
X19690465Y12453015D01*
X19710248Y12345229D01*
X19750589Y12243338D01*
X19809953Y12151223D01*
X19886078Y12072393D01*
X19976065Y12009851D01*
X20076486Y11965978D01*
X20183516Y11942446D01*
X20293078Y11940151D01*
X20401000Y11959180D01*
X20503170Y11998809D01*
X20595696Y12057529D01*
X20675056Y12133102D01*
X20738225Y12222650D01*
X20782798Y12322762D01*
X20807076Y12429625D01*
X20808824Y12554793D01*
X20787539Y12662293D01*
X20745779Y12763610D01*
X20725322Y12794400D01*
X22524310Y12794400D01*
X22507950Y12770507D01*
X22464780Y12669782D01*
X22441995Y12562590D01*
X22440465Y12453015D01*
X22460248Y12345229D01*
X22500589Y12243338D01*
X22559953Y12151223D01*
X22636078Y12072393D01*
X22726065Y12009851D01*
X22826486Y11965978D01*
X22933516Y11942446D01*
X23043078Y11940151D01*
X23151000Y11959180D01*
X23253170Y11998809D01*
X23345696Y12057529D01*
X23425056Y12133102D01*
X23488225Y12222650D01*
X23499105Y12247086D01*
X23500589Y12243338D01*
X23559953Y12151223D01*
X23636078Y12072393D01*
X23726065Y12009851D01*
X23826486Y11965978D01*
X23933516Y11942446D01*
X24043078Y11940151D01*
X24151000Y11959180D01*
X24253170Y11998809D01*
X24345696Y12057529D01*
X24425056Y12133102D01*
X24488225Y12222650D01*
X24499105Y12247086D01*
X24500589Y12243338D01*
X24559953Y12151223D01*
X24636078Y12072393D01*
X24726065Y12009851D01*
X24826486Y11965978D01*
X24933516Y11942446D01*
X25043078Y11940151D01*
X25151000Y11959180D01*
X25253170Y11998809D01*
X25345696Y12057529D01*
X25425056Y12133102D01*
X25488225Y12222650D01*
X25532798Y12322762D01*
X25557076Y12429625D01*
X25558824Y12554793D01*
X25537539Y12662293D01*
X25495779Y12763610D01*
X25435134Y12854887D01*
X25357916Y12932646D01*
X25267065Y12993926D01*
X25166041Y13036393D01*
X25058693Y13058428D01*
X24949109Y13059193D01*
X24944567Y13058327D01*
X24858494Y13144400D01*
X54604044Y13144400D01*
X54569863Y13110928D01*
X54507950Y13020507D01*
X54464780Y12919782D01*
X54441995Y12812590D01*
X54440465Y12703015D01*
X54460248Y12595229D01*
X54500589Y12493338D01*
X54559953Y12401223D01*
X54636078Y12322393D01*
X54726065Y12259851D01*
X54826486Y12215978D01*
X54933516Y12192446D01*
X55043078Y12190151D01*
X55151000Y12209180D01*
X55247749Y12246706D01*
X55214780Y12169782D01*
X55191995Y12062590D01*
X55190465Y11953015D01*
X55210248Y11845229D01*
X55250589Y11743338D01*
X55309953Y11651223D01*
X55386078Y11572393D01*
X55476065Y11509851D01*
X55576486Y11465978D01*
X55683516Y11442446D01*
X55793078Y11440151D01*
X55901000Y11459180D01*
X56003170Y11498809D01*
X56095696Y11557529D01*
X56161176Y11619884D01*
X56160042Y11538704D01*
X56185850Y11398088D01*
X56238478Y11265163D01*
X56315923Y11144992D01*
X56415235Y11042153D01*
X56532630Y10960561D01*
X56663637Y10903325D01*
X56803266Y10872626D01*
X56946199Y10869632D01*
X57086991Y10894457D01*
X57220280Y10946157D01*
X57340989Y11022761D01*
X57444519Y11121352D01*
X57526929Y11238174D01*
X57585077Y11368779D01*
X57616751Y11508190D01*
X57619031Y11671482D01*
X57591262Y11811724D01*
X57536783Y11943901D01*
X57457668Y12062979D01*
X57356930Y12164422D01*
X57238408Y12244366D01*
X57106614Y12299767D01*
X56966570Y12328514D01*
X56868452Y12329199D01*
X56925056Y12383102D01*
X56988225Y12472650D01*
X57032798Y12572762D01*
X57057076Y12679625D01*
X57058824Y12804793D01*
X57037539Y12912293D01*
X56995779Y13013610D01*
X56935134Y13104887D01*
X56895896Y13144400D01*
X58602706Y13144400D01*
X58894400Y12852706D01*
X58894400Y9452320D01*
X58779307Y9337227D01*
X58812927Y9412739D01*
X58838579Y9525645D01*
X58840426Y9657892D01*
X58817936Y9771470D01*
X58773815Y9878517D01*
X58709741Y9974956D01*
X58685478Y9999389D01*
X58699093Y10012354D01*
X58765834Y10106966D01*
X58812927Y10212739D01*
X58838579Y10325645D01*
X58840426Y10457892D01*
X58817936Y10571470D01*
X58773815Y10678517D01*
X58709741Y10774956D01*
X58628156Y10857112D01*
X58532167Y10921858D01*
X58425431Y10966726D01*
X58312012Y10990007D01*
X58196232Y10990815D01*
X58082499Y10969120D01*
X57975146Y10925746D01*
X57878263Y10862348D01*
X57795539Y10781338D01*
X57730125Y10685804D01*
X57684513Y10579383D01*
X57660440Y10466130D01*
X57658824Y10350358D01*
X57679725Y10236476D01*
X57722348Y10128823D01*
X57785068Y10031500D01*
X57815054Y10000449D01*
X57795539Y9981338D01*
X57730125Y9885804D01*
X57684513Y9779383D01*
X57683646Y9775303D01*
X57612012Y9790007D01*
X57496232Y9790815D01*
X57382499Y9769120D01*
X57275146Y9725746D01*
X57178263Y9662348D01*
X57095539Y9581338D01*
X57030125Y9485804D01*
X56984513Y9379383D01*
X56960440Y9266130D01*
X56958824Y9150358D01*
X56979725Y9036476D01*
X57022348Y8928823D01*
X57085068Y8831500D01*
X57086418Y8830102D01*
X56978158Y8721842D01*
X56956405Y8689528D01*
X56948400Y8650000D01*
X56948400Y7350000D01*
X56955868Y7311769D01*
X56978158Y7278158D01*
X57087182Y7169134D01*
X57030125Y7085804D01*
X56984513Y6979383D01*
X56960440Y6866130D01*
X56958824Y6750358D01*
X56979725Y6636476D01*
X57022348Y6528823D01*
X57085068Y6431500D01*
X57165498Y6348212D01*
X57260574Y6282133D01*
X57366674Y6235779D01*
X57479756Y6210916D01*
X57595514Y6208491D01*
X57648400Y6217816D01*
X57648400Y5350000D01*
X57655868Y5311769D01*
X57678158Y5278158D01*
X57928158Y5028158D01*
X57960472Y5006405D01*
X58000000Y4998400D01*
X58500000Y4998400D01*
X58538231Y5005868D01*
X58571842Y5028158D01*
X58821842Y5278158D01*
X58843595Y5310472D01*
X58851600Y5350000D01*
X58851600Y6650000D01*
X58844132Y6688231D01*
X58821842Y6721842D01*
X58712427Y6831257D01*
X58765834Y6906966D01*
X58812927Y7012739D01*
X58838579Y7125645D01*
X58840426Y7257892D01*
X58817936Y7371470D01*
X58773815Y7478517D01*
X58709741Y7574956D01*
X58628156Y7657112D01*
X58532167Y7721858D01*
X58425431Y7766726D01*
X58312012Y7790007D01*
X58196232Y7790815D01*
X58151600Y7782301D01*
X58151600Y8217107D01*
X58179756Y8210916D01*
X58295514Y8208491D01*
X58409539Y8228597D01*
X58517486Y8270467D01*
X58615245Y8332507D01*
X58699093Y8412354D01*
X58721699Y8444400D01*
X58744974Y8444400D01*
X58777746Y8447613D01*
X58810387Y8450469D01*
X58812177Y8450989D01*
X58814044Y8451172D01*
X58845538Y8460681D01*
X58877033Y8469830D01*
X58878693Y8470691D01*
X58880483Y8471231D01*
X58909493Y8486656D01*
X58938648Y8501769D01*
X58940108Y8502935D01*
X58941760Y8503813D01*
X58967222Y8524579D01*
X58992886Y8545067D01*
X58995488Y8547633D01*
X58995542Y8547677D01*
X58995583Y8547727D01*
X58996421Y8548553D01*
X59501447Y9053579D01*
X59522344Y9079019D01*
X59543410Y9104124D01*
X59544308Y9105756D01*
X59545499Y9107207D01*
X59561044Y9136199D01*
X59576845Y9164940D01*
X59577411Y9166724D01*
X59578294Y9168371D01*
X59587908Y9199818D01*
X59597829Y9231093D01*
X59598037Y9232946D01*
X59598585Y9234739D01*
X59601911Y9267484D01*
X59605565Y9300061D01*
X59605591Y9303714D01*
X59605598Y9303785D01*
X59605592Y9303851D01*
X59605600Y9305026D01*
X59605600Y13000000D01*
X59602392Y13032722D01*
X59599532Y13065413D01*
X59599011Y13067208D01*
X59598828Y13069070D01*
X59589328Y13100536D01*
X59580170Y13132058D01*
X59579310Y13133717D01*
X59578769Y13135509D01*
X59563334Y13164537D01*
X59548231Y13193674D01*
X59547065Y13195134D01*
X59546187Y13196786D01*
X59525401Y13222272D01*
X59504933Y13247911D01*
X59502368Y13250513D01*
X59502323Y13250568D01*
X59502272Y13250610D01*
X59501447Y13251447D01*
X59236894Y13516000D01*
X65549520Y13516000D01*
X65766000Y13299520D01*
X65766000Y13299520D01*
G37*
X65766000Y13299520D02*
X65766000Y2700480D01*
X65549520Y2484000D01*
X53450480Y2484000D01*
X53234000Y2700480D01*
X53234000Y4351316D01*
X56310238Y4351316D01*
X56330736Y4239634D01*
X56372536Y4134060D01*
X56434046Y4038615D01*
X56512923Y3956935D01*
X56606162Y3892132D01*
X56710213Y3846673D01*
X56821112Y3822291D01*
X56934635Y3819913D01*
X57046458Y3839630D01*
X57152321Y3880692D01*
X57248193Y3941534D01*
X57330421Y4019839D01*
X57395874Y4112624D01*
X57442058Y4216355D01*
X57467214Y4327081D01*
X57469025Y4456774D01*
X57446970Y4568159D01*
X57403701Y4673139D01*
X57340864Y4767716D01*
X57260855Y4848286D01*
X57166719Y4911781D01*
X57062044Y4955783D01*
X56950815Y4978615D01*
X56837270Y4979408D01*
X56725733Y4958131D01*
X56620453Y4915595D01*
X56525441Y4853420D01*
X56444314Y4773975D01*
X56380163Y4680285D01*
X56335432Y4575919D01*
X56311824Y4464853D01*
X56310238Y4351316D01*
X53234000Y4351316D01*
X53234000Y7650000D01*
X53233991Y7650087D01*
X53233997Y7651647D01*
X53233978Y7657232D01*
X53231841Y7678287D01*
X53231989Y7699454D01*
X53231329Y7706179D01*
X53215008Y7861456D01*
X53206196Y7904385D01*
X53197969Y7947514D01*
X53196015Y7953983D01*
X53149846Y8103133D01*
X53132844Y8143581D01*
X53116413Y8184248D01*
X53113240Y8190215D01*
X53038979Y8327557D01*
X53014447Y8363928D01*
X52990430Y8400630D01*
X52986159Y8405867D01*
X52938974Y8462905D01*
X54902880Y8462905D01*
X54922663Y8355119D01*
X54963004Y8253228D01*
X55022368Y8161113D01*
X55098493Y8082283D01*
X55188480Y8019741D01*
X55288901Y7975868D01*
X55395931Y7952336D01*
X55505493Y7950041D01*
X55613415Y7969070D01*
X55715585Y8008699D01*
X55808111Y8067419D01*
X55887471Y8142992D01*
X55950640Y8232540D01*
X55995213Y8332652D01*
X56019491Y8439515D01*
X56021239Y8564683D01*
X55999954Y8672183D01*
X55958194Y8773500D01*
X55897549Y8864777D01*
X55820331Y8942536D01*
X55729480Y9003816D01*
X55628456Y9046283D01*
X55521108Y9068318D01*
X55411524Y9069083D01*
X55303879Y9048549D01*
X55202272Y9007497D01*
X55110574Y8947491D01*
X55032278Y8870818D01*
X54970365Y8780397D01*
X54927195Y8679672D01*
X54904410Y8572480D01*
X54902880Y8462905D01*
X52938974Y8462905D01*
X52886636Y8526170D01*
X52855498Y8557091D01*
X52824816Y8588423D01*
X52819608Y8592731D01*
X52698615Y8691411D01*
X52662071Y8715690D01*
X52625883Y8740469D01*
X52619938Y8743683D01*
X52482081Y8816983D01*
X52441574Y8833679D01*
X52401203Y8850982D01*
X52394747Y8852980D01*
X52245277Y8898107D01*
X52202263Y8906624D01*
X52159339Y8915748D01*
X52152617Y8916454D01*
X51997231Y8931690D01*
X51976932Y8931690D01*
X51956758Y8933953D01*
X51950000Y8934000D01*
X21200000Y8934000D01*
X21199858Y8933986D01*
X21196524Y8933995D01*
X21192335Y8933977D01*
X21171491Y8931843D01*
X21150546Y8931989D01*
X21143821Y8931329D01*
X20988544Y8915008D01*
X20945615Y8906196D01*
X20902486Y8897969D01*
X20896017Y8896015D01*
X20746867Y8849846D01*
X20706419Y8832844D01*
X20665752Y8816413D01*
X20659792Y8813244D01*
X20659788Y8813242D01*
X20659785Y8813240D01*
X20522443Y8738979D01*
X20486072Y8714447D01*
X20449370Y8690430D01*
X20444133Y8686159D01*
X20323830Y8586636D01*
X20292909Y8555498D01*
X20261577Y8524816D01*
X20257269Y8519608D01*
X20158589Y8398615D01*
X20134310Y8362071D01*
X20109531Y8325883D01*
X20106317Y8319938D01*
X20033017Y8182081D01*
X20016321Y8141574D01*
X19999018Y8101203D01*
X19997020Y8094747D01*
X19951893Y7945277D01*
X19943376Y7902263D01*
X19934252Y7859339D01*
X19933546Y7852617D01*
X19918310Y7697231D01*
X19918310Y7676932D01*
X19916047Y7656758D01*
X19916000Y7650000D01*
X19916000Y5851600D01*
X13534000Y5851600D01*
X13534000Y7650000D01*
X13533988Y7650122D01*
X13533988Y7653380D01*
X13533910Y7664550D01*
X13531612Y7686413D01*
X13531612Y7708400D01*
X13530906Y7715121D01*
X13513502Y7870280D01*
X13504375Y7913216D01*
X13495861Y7956220D01*
X13493862Y7962676D01*
X13446652Y8111501D01*
X13429372Y8151817D01*
X13412655Y8192377D01*
X13409441Y8198322D01*
X13334224Y8335142D01*
X13309450Y8371324D01*
X13285164Y8407877D01*
X13280856Y8413084D01*
X13180496Y8532688D01*
X13149419Y8563121D01*
X13226065Y8509851D01*
X13326486Y8465978D01*
X13433516Y8442446D01*
X13442439Y8442259D01*
X13460248Y8345229D01*
X13500589Y8243338D01*
X13559953Y8151223D01*
X13636078Y8072393D01*
X13726065Y8009851D01*
X13826486Y7965978D01*
X13933516Y7942446D01*
X14043078Y7940151D01*
X14151000Y7959180D01*
X14253170Y7998809D01*
X14345696Y8057529D01*
X14425056Y8133102D01*
X14488225Y8222650D01*
X14532798Y8322762D01*
X14557076Y8429625D01*
X14558824Y8554793D01*
X14537539Y8662293D01*
X14495779Y8763610D01*
X14435134Y8854887D01*
X14357916Y8932646D01*
X14267065Y8993926D01*
X14254078Y8999385D01*
X14345696Y9057529D01*
X14425056Y9133102D01*
X14488225Y9222650D01*
X14532798Y9322762D01*
X14557076Y9429625D01*
X14558824Y9554793D01*
X14537539Y9662293D01*
X14495779Y9763610D01*
X14435134Y9854887D01*
X14415835Y9874321D01*
X14425056Y9883102D01*
X14488225Y9972650D01*
X14532798Y10072762D01*
X14557076Y10179625D01*
X14558824Y10304793D01*
X14537539Y10412293D01*
X14502057Y10498377D01*
X14503170Y10498809D01*
X14595696Y10557529D01*
X14675056Y10633102D01*
X14738225Y10722650D01*
X14782798Y10822762D01*
X14807076Y10929625D01*
X14808824Y11054793D01*
X14787539Y11162293D01*
X14745779Y11263610D01*
X14685134Y11354887D01*
X14607916Y11432646D01*
X14517065Y11493926D01*
X14416041Y11536393D01*
X14308693Y11558428D01*
X14199109Y11559193D01*
X14091464Y11538659D01*
X13989857Y11497607D01*
X13898159Y11437601D01*
X13819863Y11360928D01*
X13816215Y11355600D01*
X11397295Y11355600D01*
X10651447Y12101447D01*
X10626007Y12122344D01*
X10600902Y12143410D01*
X10599270Y12144308D01*
X10597819Y12145499D01*
X10568827Y12161044D01*
X10540086Y12176845D01*
X10538302Y12177411D01*
X10536655Y12178294D01*
X10505208Y12187908D01*
X10473933Y12197829D01*
X10472080Y12198037D01*
X10470287Y12198585D01*
X10437542Y12201911D01*
X10404965Y12205565D01*
X10401312Y12205591D01*
X10401241Y12205598D01*
X10401175Y12205592D01*
X10400000Y12205600D01*
X7350000Y12205600D01*
X7317278Y12202392D01*
X7284587Y12199532D01*
X7282792Y12199011D01*
X7280930Y12198828D01*
X7249464Y12189328D01*
X7217942Y12180170D01*
X7216283Y12179310D01*
X7214491Y12178769D01*
X7185442Y12163323D01*
X7156327Y12148231D01*
X7154869Y12147067D01*
X7153214Y12146187D01*
X7127736Y12125408D01*
X7102089Y12104934D01*
X7099482Y12102363D01*
X7099432Y12102323D01*
X7099394Y12102277D01*
X7098553Y12101448D01*
X6555556Y11558450D01*
X6449109Y11559193D01*
X6341464Y11538659D01*
X6239857Y11497607D01*
X6148159Y11437601D01*
X6069863Y11360928D01*
X6007950Y11270507D01*
X5964780Y11169782D01*
X5941995Y11062590D01*
X5940465Y10953015D01*
X5960248Y10845229D01*
X6000589Y10743338D01*
X6059953Y10651223D01*
X6136078Y10572393D01*
X6226065Y10509851D01*
X6326486Y10465978D01*
X6433516Y10442446D01*
X6543078Y10440151D01*
X6651000Y10459180D01*
X6753170Y10498809D01*
X6845696Y10557529D01*
X6925056Y10633102D01*
X6988225Y10722650D01*
X7032798Y10822762D01*
X7057076Y10929625D01*
X7058824Y11054793D01*
X7058636Y11055742D01*
X7497295Y11494400D01*
X9734956Y11494400D01*
X9648159Y11437601D01*
X9569863Y11360928D01*
X9507950Y11270507D01*
X9464780Y11169782D01*
X9441995Y11062590D01*
X9440465Y10953015D01*
X9460248Y10845229D01*
X9500589Y10743338D01*
X9559953Y10651223D01*
X9584769Y10625525D01*
X9569863Y10610928D01*
X9507950Y10520507D01*
X9464780Y10419782D01*
X9441995Y10312590D01*
X9440465Y10203015D01*
X9460248Y10095229D01*
X9500589Y9993338D01*
X9559953Y9901223D01*
X9584769Y9875525D01*
X9569863Y9860928D01*
X9507950Y9770507D01*
X9464780Y9669782D01*
X9441995Y9562590D01*
X9440465Y9453015D01*
X9460248Y9345229D01*
X9500589Y9243338D01*
X9559953Y9151223D01*
X9584769Y9125525D01*
X9569863Y9110928D01*
X9507950Y9020507D01*
X9464780Y8919782D01*
X9441995Y8812590D01*
X9440465Y8703015D01*
X9460248Y8595229D01*
X9500589Y8493338D01*
X9559953Y8401223D01*
X9636078Y8322393D01*
X9726065Y8259851D01*
X9826486Y8215978D01*
X9933516Y8192446D01*
X10043078Y8190151D01*
X10151000Y8209180D01*
X10253170Y8248809D01*
X10345696Y8307529D01*
X10425056Y8383102D01*
X10488225Y8472650D01*
X10532798Y8572762D01*
X10557076Y8679625D01*
X10558824Y8804793D01*
X10537539Y8912293D01*
X10495779Y9013610D01*
X10435134Y9104887D01*
X10415835Y9124321D01*
X10425056Y9133102D01*
X10488225Y9222650D01*
X10532798Y9322762D01*
X10557076Y9429625D01*
X10558824Y9554793D01*
X10537539Y9662293D01*
X10495779Y9763610D01*
X10435134Y9854887D01*
X10415835Y9874321D01*
X10425056Y9883102D01*
X10488225Y9972650D01*
X10532798Y10072762D01*
X10557076Y10179625D01*
X10558824Y10304793D01*
X10537539Y10412293D01*
X10495779Y10513610D01*
X10435134Y10604887D01*
X10415835Y10624321D01*
X10425056Y10633102D01*
X10488225Y10722650D01*
X10532798Y10822762D01*
X10557076Y10929625D01*
X10558824Y11054793D01*
X10537539Y11162293D01*
X10504392Y11242714D01*
X10998553Y10748552D01*
X11024000Y10727650D01*
X11049098Y10706590D01*
X11050733Y10705691D01*
X11052182Y10704501D01*
X11081152Y10688967D01*
X11109914Y10673155D01*
X11111698Y10672589D01*
X11113345Y10671706D01*
X11144792Y10662092D01*
X11176067Y10652171D01*
X11177920Y10651963D01*
X11179713Y10651415D01*
X11212458Y10648089D01*
X11245035Y10644435D01*
X11248688Y10644409D01*
X11248759Y10644402D01*
X11248825Y10644408D01*
X11250000Y10644400D01*
X13604044Y10644400D01*
X13569863Y10610928D01*
X13507950Y10520507D01*
X13464780Y10419782D01*
X13441995Y10312590D01*
X13440465Y10203015D01*
X13460248Y10095229D01*
X13500589Y9993338D01*
X13559953Y9901223D01*
X13584769Y9875525D01*
X13569863Y9860928D01*
X13507950Y9770507D01*
X13464780Y9669782D01*
X13441995Y9562590D01*
X13441928Y9557823D01*
X13341464Y9538659D01*
X13239857Y9497607D01*
X13148159Y9437601D01*
X13069863Y9360928D01*
X13007950Y9270507D01*
X12964780Y9169782D01*
X12941995Y9062590D01*
X12940465Y8953015D01*
X12960248Y8845229D01*
X13000589Y8743338D01*
X13059953Y8651223D01*
X13102234Y8607440D01*
X12991327Y8696611D01*
X12954602Y8720643D01*
X12918253Y8745161D01*
X12912286Y8748334D01*
X12773920Y8820670D01*
X12733219Y8837114D01*
X12692810Y8854101D01*
X12686340Y8856055D01*
X12536559Y8900138D01*
X12493461Y8908359D01*
X12450498Y8917179D01*
X12443774Y8917838D01*
X12443772Y8917838D01*
X12288282Y8931989D01*
X12244414Y8931682D01*
X12200546Y8931989D01*
X12193821Y8931329D01*
X12038544Y8915008D01*
X11995615Y8906196D01*
X11952486Y8897969D01*
X11946017Y8896015D01*
X11796867Y8849846D01*
X11756419Y8832844D01*
X11715752Y8816413D01*
X11709792Y8813244D01*
X11709788Y8813242D01*
X11709785Y8813240D01*
X11572443Y8738979D01*
X11536072Y8714447D01*
X11499370Y8690430D01*
X11494133Y8686159D01*
X11373830Y8586636D01*
X11342909Y8555498D01*
X11311577Y8524816D01*
X11307269Y8519608D01*
X11208589Y8398615D01*
X11184310Y8362071D01*
X11159531Y8325883D01*
X11156317Y8319938D01*
X11083017Y8182081D01*
X11066321Y8141574D01*
X11049018Y8101203D01*
X11047020Y8094747D01*
X11001893Y7945277D01*
X10993376Y7902263D01*
X10984252Y7859339D01*
X10983546Y7852617D01*
X10968310Y7697231D01*
X10968310Y7676932D01*
X10966047Y7656758D01*
X10966000Y7650000D01*
X10966000Y7265392D01*
X10916041Y7286393D01*
X10808693Y7308428D01*
X10699109Y7309193D01*
X10591464Y7288659D01*
X10489857Y7247607D01*
X10398159Y7187601D01*
X10375262Y7165179D01*
X10357916Y7182646D01*
X10267065Y7243926D01*
X10166041Y7286393D01*
X10058693Y7308428D01*
X9949109Y7309193D01*
X9841464Y7288659D01*
X9739857Y7247607D01*
X9648159Y7187601D01*
X9569863Y7110928D01*
X9507950Y7020507D01*
X9464780Y6919782D01*
X9441995Y6812590D01*
X9440465Y6703015D01*
X9460248Y6595229D01*
X9500589Y6493338D01*
X9559953Y6401223D01*
X9636078Y6322393D01*
X9726065Y6259851D01*
X9826486Y6215978D01*
X9933516Y6192446D01*
X10043078Y6190151D01*
X10151000Y6209180D01*
X10253170Y6248809D01*
X10345696Y6307529D01*
X10374210Y6334683D01*
X10386078Y6322393D01*
X10476065Y6259851D01*
X10576486Y6215978D01*
X10683516Y6192446D01*
X10793078Y6190151D01*
X10901000Y6209180D01*
X10966000Y6234392D01*
X10966000Y5851600D01*
X8281478Y5851600D01*
X8282798Y5854564D01*
X8307076Y5961427D01*
X8308824Y6086595D01*
X8287539Y6194095D01*
X8245779Y6295412D01*
X8185134Y6386689D01*
X8107916Y6464448D01*
X8030891Y6516402D01*
X8095696Y6557529D01*
X8175056Y6633102D01*
X8238225Y6722650D01*
X8282798Y6822762D01*
X8307076Y6929625D01*
X8308824Y7054793D01*
X8287539Y7162293D01*
X8245779Y7263610D01*
X8185134Y7354887D01*
X8107916Y7432646D01*
X8017065Y7493926D01*
X7916041Y7536393D01*
X7808693Y7558428D01*
X7699109Y7559193D01*
X7591464Y7538659D01*
X7489857Y7497607D01*
X7398159Y7437601D01*
X7319863Y7360928D01*
X7257950Y7270507D01*
X7214780Y7169782D01*
X7191995Y7062590D01*
X7190465Y6953015D01*
X7210248Y6845229D01*
X7250589Y6743338D01*
X7309953Y6651223D01*
X7386078Y6572393D01*
X7468260Y6515276D01*
X7398159Y6469403D01*
X7319863Y6392730D01*
X7257950Y6302309D01*
X7214780Y6201584D01*
X7191995Y6094392D01*
X7190465Y5984817D01*
X7210248Y5877031D01*
X7220317Y5851600D01*
X3289350Y5851600D01*
X3307076Y5929625D01*
X3308824Y6054793D01*
X3287539Y6162293D01*
X3245779Y6263610D01*
X3185134Y6354887D01*
X3107916Y6432646D01*
X3017065Y6493926D01*
X3004078Y6499385D01*
X3095696Y6557529D01*
X3175056Y6633102D01*
X3238225Y6722650D01*
X3282798Y6822762D01*
X3307076Y6929625D01*
X3308824Y7054793D01*
X3287539Y7162293D01*
X3245779Y7263610D01*
X3185134Y7354887D01*
X3107916Y7432646D01*
X3017065Y7493926D01*
X2916041Y7536393D01*
X2808693Y7558428D01*
X2699109Y7559193D01*
X2591464Y7538659D01*
X2489857Y7497607D01*
X2398159Y7437601D01*
X2319863Y7360928D01*
X2257950Y7270507D01*
X2250297Y7252650D01*
X2245779Y7263610D01*
X2185134Y7354887D01*
X2107916Y7432646D01*
X2017065Y7493926D01*
X1916041Y7536393D01*
X1808693Y7558428D01*
X1699109Y7559193D01*
X1655600Y7550893D01*
X1655600Y10203015D01*
X1690465Y10203015D01*
X1710248Y10095229D01*
X1750589Y9993338D01*
X1809953Y9901223D01*
X1834769Y9875525D01*
X1819863Y9860928D01*
X1757950Y9770507D01*
X1714780Y9669782D01*
X1691995Y9562590D01*
X1690465Y9453015D01*
X1710248Y9345229D01*
X1750589Y9243338D01*
X1809953Y9151223D01*
X1886078Y9072393D01*
X1976065Y9009851D01*
X1997252Y9000595D01*
X1989857Y8997607D01*
X1898159Y8937601D01*
X1819863Y8860928D01*
X1757950Y8770507D01*
X1714780Y8669782D01*
X1691995Y8562590D01*
X1690465Y8453015D01*
X1710248Y8345229D01*
X1750589Y8243338D01*
X1809953Y8151223D01*
X1886078Y8072393D01*
X1976065Y8009851D01*
X2076486Y7965978D01*
X2183516Y7942446D01*
X2293078Y7940151D01*
X2401000Y7959180D01*
X2503170Y7998809D01*
X2595696Y8057529D01*
X2675056Y8133102D01*
X2738225Y8222650D01*
X2744358Y8236425D01*
X7940465Y8236425D01*
X7960248Y8128639D01*
X8000589Y8026748D01*
X8059953Y7934633D01*
X8136078Y7855803D01*
X8226065Y7793261D01*
X8326486Y7749388D01*
X8433516Y7725856D01*
X8543078Y7723561D01*
X8651000Y7742590D01*
X8753170Y7782219D01*
X8845696Y7840939D01*
X8925056Y7916512D01*
X8988225Y8006060D01*
X9032798Y8106172D01*
X9057076Y8213035D01*
X9058824Y8338203D01*
X9037539Y8445703D01*
X8995779Y8547020D01*
X8935134Y8638297D01*
X8857916Y8716056D01*
X8767065Y8777336D01*
X8666041Y8819803D01*
X8558693Y8841838D01*
X8449109Y8842603D01*
X8341464Y8822069D01*
X8239857Y8781017D01*
X8148159Y8721011D01*
X8069863Y8644338D01*
X8007950Y8553917D01*
X7964780Y8453192D01*
X7941995Y8346000D01*
X7940465Y8236425D01*
X2744358Y8236425D01*
X2782798Y8322762D01*
X2807076Y8429625D01*
X2807258Y8442651D01*
X2901000Y8459180D01*
X3003170Y8498809D01*
X3095696Y8557529D01*
X3175056Y8633102D01*
X3238225Y8722650D01*
X3282798Y8822762D01*
X3307076Y8929625D01*
X3308824Y9054793D01*
X3287539Y9162293D01*
X3245779Y9263610D01*
X3185134Y9354887D01*
X3107916Y9432646D01*
X3017065Y9493926D01*
X2916041Y9536393D01*
X2808693Y9558428D01*
X2808103Y9558432D01*
X2787539Y9662293D01*
X2745779Y9763610D01*
X2685134Y9854887D01*
X2665835Y9874321D01*
X2675056Y9883102D01*
X2738225Y9972650D01*
X2782798Y10072762D01*
X2807076Y10179625D01*
X2808824Y10304793D01*
X2787539Y10412293D01*
X2745779Y10513610D01*
X2685134Y10604887D01*
X2607916Y10682646D01*
X2517065Y10743926D01*
X2416041Y10786393D01*
X2308693Y10808428D01*
X2199109Y10809193D01*
X2091464Y10788659D01*
X1989857Y10747607D01*
X1898159Y10687601D01*
X1819863Y10610928D01*
X1757950Y10520507D01*
X1714780Y10419782D01*
X1691995Y10312590D01*
X1690465Y10203015D01*
X1655600Y10203015D01*
X1655600Y12602706D01*
X1847294Y12794400D01*
X16152706Y12794400D01*
X17248553Y11698553D01*
X17273966Y11677678D01*
X17299098Y11656590D01*
X17300734Y11655691D01*
X17302181Y11654502D01*
X17331153Y11638967D01*
X17359914Y11623155D01*
X17361696Y11622590D01*
X17363344Y11621706D01*
X17394764Y11612100D01*
X17426067Y11602171D01*
X17427925Y11601963D01*
X17429713Y11601416D01*
X17462364Y11598100D01*
X17495035Y11594435D01*
X17498698Y11594409D01*
X17498759Y11594403D01*
X17498816Y11594408D01*
X17500000Y11594400D01*
X18000000Y11594400D01*
X18032772Y11597613D01*
X18065413Y11600469D01*
X18067203Y11600989D01*
X18069070Y11601172D01*
X18100564Y11610681D01*
X18132059Y11619830D01*
X18133719Y11620691D01*
X18135509Y11621231D01*
X18164519Y11636656D01*
X18193674Y11651769D01*
X18195134Y11652935D01*
X18196786Y11653813D01*
X18222248Y11674579D01*
X18247912Y11695067D01*
X18250514Y11697633D01*
X18250568Y11697677D01*
X18250609Y11697727D01*
X18251447Y11698553D01*
X19347294Y12794400D01*
X19774310Y12794400D01*
X19757950Y12770507D01*
X19714780Y12669782D01*
X19691995Y12562590D01*
X19690465Y12453015D01*
X19710248Y12345229D01*
X19750589Y12243338D01*
X19809953Y12151223D01*
X19886078Y12072393D01*
X19976065Y12009851D01*
X20076486Y11965978D01*
X20183516Y11942446D01*
X20293078Y11940151D01*
X20401000Y11959180D01*
X20503170Y11998809D01*
X20595696Y12057529D01*
X20675056Y12133102D01*
X20738225Y12222650D01*
X20782798Y12322762D01*
X20807076Y12429625D01*
X20808824Y12554793D01*
X20787539Y12662293D01*
X20745779Y12763610D01*
X20725322Y12794400D01*
X22524310Y12794400D01*
X22507950Y12770507D01*
X22464780Y12669782D01*
X22441995Y12562590D01*
X22440465Y12453015D01*
X22460248Y12345229D01*
X22500589Y12243338D01*
X22559953Y12151223D01*
X22636078Y12072393D01*
X22726065Y12009851D01*
X22826486Y11965978D01*
X22933516Y11942446D01*
X23043078Y11940151D01*
X23151000Y11959180D01*
X23253170Y11998809D01*
X23345696Y12057529D01*
X23425056Y12133102D01*
X23488225Y12222650D01*
X23499105Y12247086D01*
X23500589Y12243338D01*
X23559953Y12151223D01*
X23636078Y12072393D01*
X23726065Y12009851D01*
X23826486Y11965978D01*
X23933516Y11942446D01*
X24043078Y11940151D01*
X24151000Y11959180D01*
X24253170Y11998809D01*
X24345696Y12057529D01*
X24425056Y12133102D01*
X24488225Y12222650D01*
X24499105Y12247086D01*
X24500589Y12243338D01*
X24559953Y12151223D01*
X24636078Y12072393D01*
X24726065Y12009851D01*
X24826486Y11965978D01*
X24933516Y11942446D01*
X25043078Y11940151D01*
X25151000Y11959180D01*
X25253170Y11998809D01*
X25345696Y12057529D01*
X25425056Y12133102D01*
X25488225Y12222650D01*
X25532798Y12322762D01*
X25557076Y12429625D01*
X25558824Y12554793D01*
X25537539Y12662293D01*
X25495779Y12763610D01*
X25435134Y12854887D01*
X25357916Y12932646D01*
X25267065Y12993926D01*
X25166041Y13036393D01*
X25058693Y13058428D01*
X24949109Y13059193D01*
X24944567Y13058327D01*
X24858494Y13144400D01*
X54604044Y13144400D01*
X54569863Y13110928D01*
X54507950Y13020507D01*
X54464780Y12919782D01*
X54441995Y12812590D01*
X54440465Y12703015D01*
X54460248Y12595229D01*
X54500589Y12493338D01*
X54559953Y12401223D01*
X54636078Y12322393D01*
X54726065Y12259851D01*
X54826486Y12215978D01*
X54933516Y12192446D01*
X55043078Y12190151D01*
X55151000Y12209180D01*
X55247749Y12246706D01*
X55214780Y12169782D01*
X55191995Y12062590D01*
X55190465Y11953015D01*
X55210248Y11845229D01*
X55250589Y11743338D01*
X55309953Y11651223D01*
X55386078Y11572393D01*
X55476065Y11509851D01*
X55576486Y11465978D01*
X55683516Y11442446D01*
X55793078Y11440151D01*
X55901000Y11459180D01*
X56003170Y11498809D01*
X56095696Y11557529D01*
X56161176Y11619884D01*
X56160042Y11538704D01*
X56185850Y11398088D01*
X56238478Y11265163D01*
X56315923Y11144992D01*
X56415235Y11042153D01*
X56532630Y10960561D01*
X56663637Y10903325D01*
X56803266Y10872626D01*
X56946199Y10869632D01*
X57086991Y10894457D01*
X57220280Y10946157D01*
X57340989Y11022761D01*
X57444519Y11121352D01*
X57526929Y11238174D01*
X57585077Y11368779D01*
X57616751Y11508190D01*
X57619031Y11671482D01*
X57591262Y11811724D01*
X57536783Y11943901D01*
X57457668Y12062979D01*
X57356930Y12164422D01*
X57238408Y12244366D01*
X57106614Y12299767D01*
X56966570Y12328514D01*
X56868452Y12329199D01*
X56925056Y12383102D01*
X56988225Y12472650D01*
X57032798Y12572762D01*
X57057076Y12679625D01*
X57058824Y12804793D01*
X57037539Y12912293D01*
X56995779Y13013610D01*
X56935134Y13104887D01*
X56895896Y13144400D01*
X58602706Y13144400D01*
X58894400Y12852706D01*
X58894400Y9452320D01*
X58779307Y9337227D01*
X58812927Y9412739D01*
X58838579Y9525645D01*
X58840426Y9657892D01*
X58817936Y9771470D01*
X58773815Y9878517D01*
X58709741Y9974956D01*
X58685478Y9999389D01*
X58699093Y10012354D01*
X58765834Y10106966D01*
X58812927Y10212739D01*
X58838579Y10325645D01*
X58840426Y10457892D01*
X58817936Y10571470D01*
X58773815Y10678517D01*
X58709741Y10774956D01*
X58628156Y10857112D01*
X58532167Y10921858D01*
X58425431Y10966726D01*
X58312012Y10990007D01*
X58196232Y10990815D01*
X58082499Y10969120D01*
X57975146Y10925746D01*
X57878263Y10862348D01*
X57795539Y10781338D01*
X57730125Y10685804D01*
X57684513Y10579383D01*
X57660440Y10466130D01*
X57658824Y10350358D01*
X57679725Y10236476D01*
X57722348Y10128823D01*
X57785068Y10031500D01*
X57815054Y10000449D01*
X57795539Y9981338D01*
X57730125Y9885804D01*
X57684513Y9779383D01*
X57683646Y9775303D01*
X57612012Y9790007D01*
X57496232Y9790815D01*
X57382499Y9769120D01*
X57275146Y9725746D01*
X57178263Y9662348D01*
X57095539Y9581338D01*
X57030125Y9485804D01*
X56984513Y9379383D01*
X56960440Y9266130D01*
X56958824Y9150358D01*
X56979725Y9036476D01*
X57022348Y8928823D01*
X57085068Y8831500D01*
X57086418Y8830102D01*
X56978158Y8721842D01*
X56956405Y8689528D01*
X56948400Y8650000D01*
X56948400Y7350000D01*
X56955868Y7311769D01*
X56978158Y7278158D01*
X57087182Y7169134D01*
X57030125Y7085804D01*
X56984513Y6979383D01*
X56960440Y6866130D01*
X56958824Y6750358D01*
X56979725Y6636476D01*
X57022348Y6528823D01*
X57085068Y6431500D01*
X57165498Y6348212D01*
X57260574Y6282133D01*
X57366674Y6235779D01*
X57479756Y6210916D01*
X57595514Y6208491D01*
X57648400Y6217816D01*
X57648400Y5350000D01*
X57655868Y5311769D01*
X57678158Y5278158D01*
X57928158Y5028158D01*
X57960472Y5006405D01*
X58000000Y4998400D01*
X58500000Y4998400D01*
X58538231Y5005868D01*
X58571842Y5028158D01*
X58821842Y5278158D01*
X58843595Y5310472D01*
X58851600Y5350000D01*
X58851600Y6650000D01*
X58844132Y6688231D01*
X58821842Y6721842D01*
X58712427Y6831257D01*
X58765834Y6906966D01*
X58812927Y7012739D01*
X58838579Y7125645D01*
X58840426Y7257892D01*
X58817936Y7371470D01*
X58773815Y7478517D01*
X58709741Y7574956D01*
X58628156Y7657112D01*
X58532167Y7721858D01*
X58425431Y7766726D01*
X58312012Y7790007D01*
X58196232Y7790815D01*
X58151600Y7782301D01*
X58151600Y8217107D01*
X58179756Y8210916D01*
X58295514Y8208491D01*
X58409539Y8228597D01*
X58517486Y8270467D01*
X58615245Y8332507D01*
X58699093Y8412354D01*
X58721699Y8444400D01*
X58744974Y8444400D01*
X58777746Y8447613D01*
X58810387Y8450469D01*
X58812177Y8450989D01*
X58814044Y8451172D01*
X58845538Y8460681D01*
X58877033Y8469830D01*
X58878693Y8470691D01*
X58880483Y8471231D01*
X58909493Y8486656D01*
X58938648Y8501769D01*
X58940108Y8502935D01*
X58941760Y8503813D01*
X58967222Y8524579D01*
X58992886Y8545067D01*
X58995488Y8547633D01*
X58995542Y8547677D01*
X58995583Y8547727D01*
X58996421Y8548553D01*
X59501447Y9053579D01*
X59522344Y9079019D01*
X59543410Y9104124D01*
X59544308Y9105756D01*
X59545499Y9107207D01*
X59561044Y9136199D01*
X59576845Y9164940D01*
X59577411Y9166724D01*
X59578294Y9168371D01*
X59587908Y9199818D01*
X59597829Y9231093D01*
X59598037Y9232946D01*
X59598585Y9234739D01*
X59601911Y9267484D01*
X59605565Y9300061D01*
X59605591Y9303714D01*
X59605598Y9303785D01*
X59605592Y9303851D01*
X59605600Y9305026D01*
X59605600Y13000000D01*
X59602392Y13032722D01*
X59599532Y13065413D01*
X59599011Y13067208D01*
X59598828Y13069070D01*
X59589328Y13100536D01*
X59580170Y13132058D01*
X59579310Y13133717D01*
X59578769Y13135509D01*
X59563334Y13164537D01*
X59548231Y13193674D01*
X59547065Y13195134D01*
X59546187Y13196786D01*
X59525401Y13222272D01*
X59504933Y13247911D01*
X59502368Y13250513D01*
X59502323Y13250568D01*
X59502272Y13250610D01*
X59501447Y13251447D01*
X59236894Y13516000D01*
X65549520Y13516000D01*
X65766000Y13299520D01*
M02*
