G04 #@! TF.FileFunction,Copper,L4,Bot,Signal*
%FSLAX46Y46*%
G04 Gerber Fmt 4.6, Leading zero omitted, Abs format (unit mm)*
G04 Created by KiCad (PCBNEW 4.0.7) date Wednesday, December 20, 2017 'AMt' 12:52:48 AM*
%MOMM*%
%LPD*%
G01*
G04 APERTURE LIST*
%ADD10C,0.100000*%
%ADD11C,0.152400*%
%ADD12R,0.700000X3.200000*%
%ADD13R,0.700000X4.300000*%
%ADD14C,1.204800*%
%ADD15C,0.672800*%
%ADD16C,0.609600*%
%ADD17C,0.500000*%
%ADD18C,0.203200*%
%ADD19C,0.236000*%
%ADD20C,0.235000*%
G04 APERTURE END LIST*
D10*
D11*
X60965467Y12249998D02*
X60265467Y12249998D01*
X60265467Y11983332D01*
X60298800Y11916665D01*
X60332133Y11883332D01*
X60398800Y11849998D01*
X60498800Y11849998D01*
X60565467Y11883332D01*
X60598800Y11916665D01*
X60632133Y11983332D01*
X60632133Y12249998D01*
X60898800Y11149998D02*
X60932133Y11183332D01*
X60965467Y11283332D01*
X60965467Y11349998D01*
X60932133Y11449998D01*
X60865467Y11516665D01*
X60798800Y11549998D01*
X60665467Y11583332D01*
X60565467Y11583332D01*
X60432133Y11549998D01*
X60365467Y11516665D01*
X60298800Y11449998D01*
X60265467Y11349998D01*
X60265467Y11283332D01*
X60298800Y11183332D01*
X60332133Y11149998D01*
X60965467Y10849998D02*
X60265467Y10849998D01*
X60932133Y10249999D02*
X60965467Y10316665D01*
X60965467Y10449999D01*
X60932133Y10516665D01*
X60865467Y10549999D01*
X60598800Y10549999D01*
X60532133Y10516665D01*
X60498800Y10449999D01*
X60498800Y10316665D01*
X60532133Y10249999D01*
X60598800Y10216665D01*
X60665467Y10216665D01*
X60732133Y10549999D01*
X60965467Y9383332D02*
X60265467Y9383332D01*
X60765467Y9149999D01*
X60265467Y8916666D01*
X60965467Y8916666D01*
X60965467Y8583332D02*
X60498800Y8583332D01*
X60265467Y8583332D02*
X60298800Y8616666D01*
X60332133Y8583332D01*
X60298800Y8549999D01*
X60265467Y8583332D01*
X60332133Y8583332D01*
X60498800Y8249999D02*
X60965467Y8249999D01*
X60565467Y8249999D02*
X60532133Y8216666D01*
X60498800Y8149999D01*
X60498800Y8049999D01*
X60532133Y7983333D01*
X60598800Y7949999D01*
X60965467Y7949999D01*
X60965467Y7616666D02*
X60498800Y7616666D01*
X60265467Y7616666D02*
X60298800Y7650000D01*
X60332133Y7616666D01*
X60298800Y7583333D01*
X60265467Y7616666D01*
X60332133Y7616666D01*
X60598800Y6516667D02*
X60632133Y6416667D01*
X60665467Y6383334D01*
X60732133Y6350000D01*
X60832133Y6350000D01*
X60898800Y6383334D01*
X60932133Y6416667D01*
X60965467Y6483334D01*
X60965467Y6750000D01*
X60265467Y6750000D01*
X60265467Y6516667D01*
X60298800Y6450000D01*
X60332133Y6416667D01*
X60398800Y6383334D01*
X60465467Y6383334D01*
X60532133Y6416667D01*
X60565467Y6450000D01*
X60598800Y6516667D01*
X60598800Y6750000D01*
X60965467Y6050000D02*
X60498800Y6050000D01*
X60632133Y6050000D02*
X60565467Y6016667D01*
X60532133Y5983334D01*
X60498800Y5916667D01*
X60498800Y5850000D01*
X60965467Y5616667D02*
X60498800Y5616667D01*
X60265467Y5616667D02*
X60298800Y5650001D01*
X60332133Y5616667D01*
X60298800Y5583334D01*
X60265467Y5616667D01*
X60332133Y5616667D01*
X60965467Y4983334D02*
X60265467Y4983334D01*
X60932133Y4983334D02*
X60965467Y5050001D01*
X60965467Y5183334D01*
X60932133Y5250001D01*
X60898800Y5283334D01*
X60832133Y5316668D01*
X60632133Y5316668D01*
X60565467Y5283334D01*
X60532133Y5250001D01*
X60498800Y5183334D01*
X60498800Y5050001D01*
X60532133Y4983334D01*
X60498800Y4350001D02*
X61065467Y4350001D01*
X61132133Y4383335D01*
X61165467Y4416668D01*
X61198800Y4483335D01*
X61198800Y4583335D01*
X61165467Y4650001D01*
X60932133Y4350001D02*
X60965467Y4416668D01*
X60965467Y4550001D01*
X60932133Y4616668D01*
X60898800Y4650001D01*
X60832133Y4683335D01*
X60632133Y4683335D01*
X60565467Y4650001D01*
X60532133Y4616668D01*
X60498800Y4550001D01*
X60498800Y4416668D01*
X60532133Y4350001D01*
X60932133Y3750002D02*
X60965467Y3816668D01*
X60965467Y3950002D01*
X60932133Y4016668D01*
X60865467Y4050002D01*
X60598800Y4050002D01*
X60532133Y4016668D01*
X60498800Y3950002D01*
X60498800Y3816668D01*
X60532133Y3750002D01*
X60598800Y3716668D01*
X60665467Y3716668D01*
X60732133Y4050002D01*
X62167867Y11983331D02*
X61834533Y12216665D01*
X62167867Y12383331D02*
X61467867Y12383331D01*
X61467867Y12116665D01*
X61501200Y12049998D01*
X61534533Y12016665D01*
X61601200Y11983331D01*
X61701200Y11983331D01*
X61767867Y12016665D01*
X61801200Y12049998D01*
X61834533Y12116665D01*
X61834533Y12383331D01*
X62134533Y11416665D02*
X62167867Y11483331D01*
X62167867Y11616665D01*
X62134533Y11683331D01*
X62067867Y11716665D01*
X61801200Y11716665D01*
X61734533Y11683331D01*
X61701200Y11616665D01*
X61701200Y11483331D01*
X61734533Y11416665D01*
X61801200Y11383331D01*
X61867867Y11383331D01*
X61934533Y11716665D01*
X61701200Y11149998D02*
X62167867Y10983331D01*
X61701200Y10816665D01*
X62167867Y9649999D02*
X62167867Y10049999D01*
X62167867Y9849999D02*
X61467867Y9849999D01*
X61567867Y9916665D01*
X61634533Y9983332D01*
X61667867Y10049999D01*
X61901200Y8816665D02*
X61901200Y8283332D01*
X62167867Y7416665D02*
X61701200Y7416665D01*
X61467867Y7416665D02*
X61501200Y7449999D01*
X61534533Y7416665D01*
X61501200Y7383332D01*
X61467867Y7416665D01*
X61534533Y7416665D01*
X62167867Y7083332D02*
X61467867Y7083332D01*
X62167867Y6783332D02*
X61801200Y6783332D01*
X61734533Y6816666D01*
X61701200Y6883332D01*
X61701200Y6983332D01*
X61734533Y7049999D01*
X61767867Y7083332D01*
X62167867Y6149999D02*
X61801200Y6149999D01*
X61734533Y6183333D01*
X61701200Y6249999D01*
X61701200Y6383333D01*
X61734533Y6449999D01*
X62134533Y6149999D02*
X62167867Y6216666D01*
X62167867Y6383333D01*
X62134533Y6449999D01*
X62067867Y6483333D01*
X62001200Y6483333D01*
X61934533Y6449999D01*
X61901200Y6383333D01*
X61901200Y6216666D01*
X61867867Y6149999D01*
X62167867Y5816666D02*
X61701200Y5816666D01*
X61834533Y5816666D02*
X61767867Y5783333D01*
X61734533Y5750000D01*
X61701200Y5683333D01*
X61701200Y5616666D01*
X61701200Y5483333D02*
X61701200Y5216667D01*
X61467867Y5383333D02*
X62067867Y5383333D01*
X62134533Y5350000D01*
X62167867Y5283333D01*
X62167867Y5216667D01*
X61701200Y5050000D02*
X62167867Y4916667D01*
X61834533Y4783333D01*
X62167867Y4650000D01*
X61701200Y4516667D01*
X62167867Y4250000D02*
X61701200Y4250000D01*
X61467867Y4250000D02*
X61501200Y4283334D01*
X61534533Y4250000D01*
X61501200Y4216667D01*
X61467867Y4250000D01*
X61534533Y4250000D01*
X61701200Y3616667D02*
X62267867Y3616667D01*
X62334533Y3650001D01*
X62367867Y3683334D01*
X62401200Y3750001D01*
X62401200Y3850001D01*
X62367867Y3916667D01*
X62134533Y3616667D02*
X62167867Y3683334D01*
X62167867Y3816667D01*
X62134533Y3883334D01*
X62101200Y3916667D01*
X62034533Y3950001D01*
X61834533Y3950001D01*
X61767867Y3916667D01*
X61734533Y3883334D01*
X61701200Y3816667D01*
X61701200Y3683334D01*
X61734533Y3616667D01*
D12*
X750000Y4000000D03*
D13*
X1750000Y3450000D03*
X2750000Y3450000D03*
X3750000Y3450000D03*
X4750000Y3450000D03*
X5750000Y3450000D03*
X6750000Y3450000D03*
X7750000Y3450000D03*
X8750000Y3450000D03*
X9750000Y3450000D03*
X10750000Y3450000D03*
X13750000Y3450000D03*
X14750000Y3450000D03*
X15750000Y3450000D03*
X16750000Y3450000D03*
X17750000Y3450000D03*
X18750000Y3450000D03*
X19750000Y3450000D03*
D14*
X58140000Y3870000D03*
X58140000Y12130000D03*
X64090000Y12490000D03*
X64090000Y3510000D03*
D15*
X57550000Y10800000D03*
X58250000Y10400000D03*
X58250000Y9600000D03*
X58250000Y8800000D03*
X57550000Y9200000D03*
X57550000Y8400000D03*
X57550000Y7600000D03*
X57550000Y6800000D03*
X58250000Y7200000D03*
X58250000Y6400000D03*
X58250000Y5600000D03*
X57550000Y5200000D03*
D16*
X54750000Y12000000D03*
X55500000Y4750000D03*
X19283410Y6250000D03*
X12500000Y10000000D03*
X11500000Y10000000D03*
X17250000Y6250000D03*
X14250000Y6250000D03*
X12500000Y12000000D03*
X11500000Y12000000D03*
X4750000Y12000000D03*
X3750000Y12000000D03*
X3750000Y10000000D03*
X4750000Y10000000D03*
X6750000Y6031802D03*
X3750000Y6000000D03*
X7500000Y11000000D03*
X16750000Y11000000D03*
X15250000Y11000000D03*
X17750000Y12500000D03*
X8500000Y8283410D03*
X750000Y8250000D03*
X750000Y7000000D03*
X25000000Y12500000D03*
X2750000Y7000000D03*
X1750000Y7000000D03*
X2750000Y6000000D03*
X1750000Y6000000D03*
X14000000Y10250000D03*
X14000000Y9500000D03*
X14000000Y8500000D03*
X13500000Y9000000D03*
X7750000Y7000000D03*
X7750000Y6031802D03*
X10750000Y6750000D03*
X23000000Y12500000D03*
X10000000Y6750000D03*
X20250000Y12500000D03*
X55750000Y12000000D03*
X55000000Y12750000D03*
X55750000Y12750000D03*
X56500000Y12750000D03*
X10000000Y8750000D03*
X10000000Y11000000D03*
X10000000Y10250000D03*
X10000000Y9500000D03*
X55462415Y8509890D03*
X2250000Y10250000D03*
X2250000Y9500000D03*
X2250000Y8500000D03*
X2750000Y9000000D03*
X24000000Y12500000D03*
X6500000Y11000000D03*
X14250000Y11000000D03*
D17*
X13750000Y3450000D02*
X13750000Y5803200D01*
X13750000Y5803200D02*
X14196800Y6250000D01*
X14196800Y6250000D02*
X14250000Y6250000D01*
X16750000Y3450000D02*
X16750000Y5803200D01*
X17196800Y6250000D02*
X17250000Y6250000D01*
X16750000Y5803200D02*
X17196800Y6250000D01*
X3750000Y3450000D02*
X3750000Y6000000D01*
D18*
X8500000Y8283410D02*
X3783410Y8283410D01*
X3783410Y8283410D02*
X3250000Y7750000D01*
X750000Y8250000D02*
X1250000Y7750000D01*
X1250000Y7750000D02*
X3250000Y7750000D01*
X750000Y4000000D02*
X750000Y7000000D01*
X2750000Y6000000D02*
X2750000Y7000000D01*
X1750000Y6000000D02*
X1750000Y7000000D01*
D17*
X2750000Y3450000D02*
X2750000Y6000000D01*
X1750000Y3450000D02*
X1750000Y6000000D01*
D18*
X9750000Y3450000D02*
X9750000Y5803200D01*
X9750000Y5803200D02*
X9521398Y6031802D01*
X9521398Y6031802D02*
X8521398Y6031802D01*
X8750000Y3450000D02*
X8750000Y5803200D01*
X8181052Y6031802D02*
X7750000Y6031802D01*
X8750000Y5803200D02*
X8521398Y6031802D01*
X8521398Y6031802D02*
X8181052Y6031802D01*
X10750000Y3450000D02*
X10750000Y6750000D01*
D19*
X15068500Y7825178D02*
X15068500Y5568500D01*
X54075178Y11681500D02*
X18924823Y11681499D01*
X56971815Y8181499D02*
X56431500Y8721814D01*
X56431500Y8721814D02*
X56431500Y9325178D01*
X57550000Y8400000D02*
X57331499Y8181499D01*
X57331499Y8181499D02*
X56971815Y8181499D01*
X56431500Y9325178D02*
X54075178Y11681500D01*
X18924823Y11681499D02*
X15068500Y7825178D01*
X14750000Y5250000D02*
X14750000Y3450000D01*
X15068500Y5568500D02*
X14750000Y5250000D01*
D20*
X15431500Y6624822D02*
X15431500Y7674822D01*
D19*
X56068500Y8571458D02*
X56068500Y9174822D01*
X57550000Y7600000D02*
X57331499Y7818501D01*
X56068500Y9174822D02*
X53924822Y11318500D01*
X57331499Y7818501D02*
X56821457Y7818501D01*
X53924822Y11318500D02*
X19075179Y11318501D01*
X56821457Y7818501D02*
X56068500Y8571458D01*
X19075179Y11318501D02*
X15431500Y7674822D01*
X15431500Y6624822D02*
X15431500Y5568500D01*
X15750000Y5250000D02*
X15750000Y3450000D01*
X15431500Y5568500D02*
X15750000Y5250000D01*
X58031499Y6181499D02*
X58250000Y6400000D01*
X55075179Y6181499D02*
X58031499Y6181499D01*
X17750000Y3450000D02*
X17750000Y5250000D01*
X17750000Y5250000D02*
X18068500Y5568500D01*
X18068500Y5568500D02*
X18068500Y8575178D01*
X18068500Y8575178D02*
X19674822Y10181500D01*
X54431500Y8825178D02*
X54431500Y6825178D01*
X54431500Y6825178D02*
X55075179Y6181499D01*
X19674822Y10181500D02*
X53075178Y10181500D01*
X53075178Y10181500D02*
X54431500Y8825178D01*
D20*
X18431500Y8424822D02*
X18431500Y7374822D01*
D19*
X58250000Y5600000D02*
X58031499Y5818501D01*
X58031499Y5818501D02*
X54924821Y5818501D01*
X54068500Y8674822D02*
X52924822Y9818500D01*
X54068500Y6674822D02*
X54068500Y8674822D01*
X54924821Y5818501D02*
X54068500Y6674822D01*
X18750000Y5250000D02*
X18750000Y3450000D01*
X52924822Y9818500D02*
X19825178Y9818500D01*
X19825178Y9818500D02*
X18431500Y8424822D01*
X18431500Y5568500D02*
X18750000Y5250000D01*
X18431500Y7374822D02*
X18431500Y5568500D01*
D18*
G36*
X13886078Y10572393D02*
X13976065Y10509851D01*
X14076486Y10465978D01*
X14183516Y10442446D01*
X14293078Y10440151D01*
X14397715Y10458601D01*
X14398400Y10457916D01*
X14398400Y8042084D01*
X14207916Y7851600D01*
X13515597Y7851600D01*
X13513502Y7870280D01*
X13504375Y7913216D01*
X13495861Y7956220D01*
X13493862Y7962676D01*
X13446652Y8111501D01*
X13429372Y8151817D01*
X13412655Y8192377D01*
X13409441Y8198322D01*
X13334224Y8335142D01*
X13309450Y8371324D01*
X13285164Y8407877D01*
X13280856Y8413084D01*
X13180496Y8532688D01*
X13149148Y8563387D01*
X13118244Y8594507D01*
X13113007Y8598778D01*
X12991327Y8696611D01*
X12954602Y8720643D01*
X12918253Y8745161D01*
X12912286Y8748334D01*
X12773920Y8820670D01*
X12733219Y8837114D01*
X12692810Y8854101D01*
X12686340Y8856055D01*
X12536559Y8900138D01*
X12493461Y8908359D01*
X12450498Y8917179D01*
X12443774Y8917838D01*
X12443772Y8917838D01*
X12288282Y8931989D01*
X12244414Y8931682D01*
X12200546Y8931989D01*
X12193821Y8931329D01*
X12038544Y8915008D01*
X11995615Y8906196D01*
X11952486Y8897969D01*
X11946017Y8896015D01*
X11796867Y8849846D01*
X11756419Y8832844D01*
X11715752Y8816413D01*
X11709792Y8813244D01*
X11709788Y8813242D01*
X11709785Y8813240D01*
X11572443Y8738979D01*
X11536072Y8714447D01*
X11499370Y8690430D01*
X11494133Y8686159D01*
X11373830Y8586636D01*
X11342909Y8555498D01*
X11311577Y8524816D01*
X11307269Y8519608D01*
X11208589Y8398615D01*
X11184310Y8362071D01*
X11159531Y8325883D01*
X11156317Y8319938D01*
X11083017Y8182081D01*
X11066321Y8141574D01*
X11049018Y8101203D01*
X11047020Y8094747D01*
X11001893Y7945277D01*
X10993376Y7902263D01*
X10984252Y7859339D01*
X10983546Y7852617D01*
X10968310Y7697231D01*
X10968310Y7676932D01*
X10966047Y7656758D01*
X10966000Y7650000D01*
X10966000Y7609684D01*
X10707916Y7351600D01*
X9750000Y7351600D01*
X9721695Y7347578D01*
X9695631Y7335829D01*
X9678158Y7321842D01*
X9428158Y7071842D01*
X9410988Y7048983D01*
X9400865Y7022245D01*
X9398400Y7000000D01*
X9398400Y6500000D01*
X9402422Y6471695D01*
X9414171Y6445631D01*
X9428158Y6428158D01*
X9898400Y5957916D01*
X9898400Y5351600D01*
X9601600Y5351600D01*
X9601600Y5750000D01*
X9597578Y5778305D01*
X9585829Y5804369D01*
X9567284Y5826128D01*
X9543411Y5841859D01*
X9516102Y5850316D01*
X9500000Y5851600D01*
X9000000Y5851600D01*
X8971695Y5847578D01*
X8945631Y5835829D01*
X8923872Y5817284D01*
X8908141Y5793411D01*
X8899684Y5766102D01*
X8898400Y5750000D01*
X8898400Y5351600D01*
X8601600Y5351600D01*
X8601600Y5750000D01*
X8597578Y5778305D01*
X8585829Y5804369D01*
X8567284Y5826128D01*
X8543411Y5841859D01*
X8516102Y5850316D01*
X8500000Y5851600D01*
X8125529Y5851600D01*
X8100000Y5855228D01*
X7538456Y5855228D01*
X7351600Y6042084D01*
X7351600Y7207916D01*
X8042084Y7898400D01*
X8094943Y7898400D01*
X8136078Y7855803D01*
X8226065Y7793261D01*
X8326486Y7749388D01*
X8433516Y7725856D01*
X8543078Y7723561D01*
X8651000Y7742590D01*
X8753170Y7782219D01*
X8845696Y7840939D01*
X8906036Y7898400D01*
X9750000Y7898400D01*
X9778305Y7902422D01*
X9804369Y7914171D01*
X9821842Y7928158D01*
X10089684Y8196000D01*
X10200000Y8196000D01*
X10295578Y8214669D01*
X10379605Y8270395D01*
X11179605Y9070395D01*
X11233988Y9151180D01*
X11254000Y9250000D01*
X11254000Y9360316D01*
X11292084Y9398400D01*
X12750000Y9398400D01*
X12778305Y9402422D01*
X12804369Y9414171D01*
X12821842Y9428158D01*
X13071842Y9678158D01*
X13089012Y9701017D01*
X13099135Y9727755D01*
X13101600Y9750000D01*
X13101600Y10457916D01*
X13292084Y10648400D01*
X13812679Y10648400D01*
X13886078Y10572393D01*
X13886078Y10572393D01*
G37*
X13886078Y10572393D02*
X13976065Y10509851D01*
X14076486Y10465978D01*
X14183516Y10442446D01*
X14293078Y10440151D01*
X14397715Y10458601D01*
X14398400Y10457916D01*
X14398400Y8042084D01*
X14207916Y7851600D01*
X13515597Y7851600D01*
X13513502Y7870280D01*
X13504375Y7913216D01*
X13495861Y7956220D01*
X13493862Y7962676D01*
X13446652Y8111501D01*
X13429372Y8151817D01*
X13412655Y8192377D01*
X13409441Y8198322D01*
X13334224Y8335142D01*
X13309450Y8371324D01*
X13285164Y8407877D01*
X13280856Y8413084D01*
X13180496Y8532688D01*
X13149148Y8563387D01*
X13118244Y8594507D01*
X13113007Y8598778D01*
X12991327Y8696611D01*
X12954602Y8720643D01*
X12918253Y8745161D01*
X12912286Y8748334D01*
X12773920Y8820670D01*
X12733219Y8837114D01*
X12692810Y8854101D01*
X12686340Y8856055D01*
X12536559Y8900138D01*
X12493461Y8908359D01*
X12450498Y8917179D01*
X12443774Y8917838D01*
X12443772Y8917838D01*
X12288282Y8931989D01*
X12244414Y8931682D01*
X12200546Y8931989D01*
X12193821Y8931329D01*
X12038544Y8915008D01*
X11995615Y8906196D01*
X11952486Y8897969D01*
X11946017Y8896015D01*
X11796867Y8849846D01*
X11756419Y8832844D01*
X11715752Y8816413D01*
X11709792Y8813244D01*
X11709788Y8813242D01*
X11709785Y8813240D01*
X11572443Y8738979D01*
X11536072Y8714447D01*
X11499370Y8690430D01*
X11494133Y8686159D01*
X11373830Y8586636D01*
X11342909Y8555498D01*
X11311577Y8524816D01*
X11307269Y8519608D01*
X11208589Y8398615D01*
X11184310Y8362071D01*
X11159531Y8325883D01*
X11156317Y8319938D01*
X11083017Y8182081D01*
X11066321Y8141574D01*
X11049018Y8101203D01*
X11047020Y8094747D01*
X11001893Y7945277D01*
X10993376Y7902263D01*
X10984252Y7859339D01*
X10983546Y7852617D01*
X10968310Y7697231D01*
X10968310Y7676932D01*
X10966047Y7656758D01*
X10966000Y7650000D01*
X10966000Y7609684D01*
X10707916Y7351600D01*
X9750000Y7351600D01*
X9721695Y7347578D01*
X9695631Y7335829D01*
X9678158Y7321842D01*
X9428158Y7071842D01*
X9410988Y7048983D01*
X9400865Y7022245D01*
X9398400Y7000000D01*
X9398400Y6500000D01*
X9402422Y6471695D01*
X9414171Y6445631D01*
X9428158Y6428158D01*
X9898400Y5957916D01*
X9898400Y5351600D01*
X9601600Y5351600D01*
X9601600Y5750000D01*
X9597578Y5778305D01*
X9585829Y5804369D01*
X9567284Y5826128D01*
X9543411Y5841859D01*
X9516102Y5850316D01*
X9500000Y5851600D01*
X9000000Y5851600D01*
X8971695Y5847578D01*
X8945631Y5835829D01*
X8923872Y5817284D01*
X8908141Y5793411D01*
X8899684Y5766102D01*
X8898400Y5750000D01*
X8898400Y5351600D01*
X8601600Y5351600D01*
X8601600Y5750000D01*
X8597578Y5778305D01*
X8585829Y5804369D01*
X8567284Y5826128D01*
X8543411Y5841859D01*
X8516102Y5850316D01*
X8500000Y5851600D01*
X8125529Y5851600D01*
X8100000Y5855228D01*
X7538456Y5855228D01*
X7351600Y6042084D01*
X7351600Y7207916D01*
X8042084Y7898400D01*
X8094943Y7898400D01*
X8136078Y7855803D01*
X8226065Y7793261D01*
X8326486Y7749388D01*
X8433516Y7725856D01*
X8543078Y7723561D01*
X8651000Y7742590D01*
X8753170Y7782219D01*
X8845696Y7840939D01*
X8906036Y7898400D01*
X9750000Y7898400D01*
X9778305Y7902422D01*
X9804369Y7914171D01*
X9821842Y7928158D01*
X10089684Y8196000D01*
X10200000Y8196000D01*
X10295578Y8214669D01*
X10379605Y8270395D01*
X11179605Y9070395D01*
X11233988Y9151180D01*
X11254000Y9250000D01*
X11254000Y9360316D01*
X11292084Y9398400D01*
X12750000Y9398400D01*
X12778305Y9402422D01*
X12804369Y9414171D01*
X12821842Y9428158D01*
X13071842Y9678158D01*
X13089012Y9701017D01*
X13099135Y9727755D01*
X13101600Y9750000D01*
X13101600Y10457916D01*
X13292084Y10648400D01*
X13812679Y10648400D01*
X13886078Y10572393D01*
G36*
X3148400Y7207916D02*
X3148400Y6042084D01*
X2957916Y5851600D01*
X1542084Y5851600D01*
X1351600Y6042084D01*
X1351600Y7207916D01*
X1538084Y7394400D01*
X2961916Y7394400D01*
X3148400Y7207916D01*
X3148400Y7207916D01*
G37*
X3148400Y7207916D02*
X3148400Y6042084D01*
X2957916Y5851600D01*
X1542084Y5851600D01*
X1351600Y6042084D01*
X1351600Y7207916D01*
X1538084Y7394400D01*
X2961916Y7394400D01*
X3148400Y7207916D01*
G36*
X56898400Y13457916D02*
X56898400Y12542084D01*
X56642675Y12286359D01*
X56550623Y12249168D01*
X56430996Y12170886D01*
X56328852Y12070859D01*
X56248082Y11952898D01*
X56202227Y11845911D01*
X56157916Y11801600D01*
X55342084Y11801600D01*
X55289856Y11853828D01*
X55307076Y11929625D01*
X55308824Y12054793D01*
X55287539Y12162293D01*
X55245779Y12263610D01*
X55185134Y12354887D01*
X55107916Y12432646D01*
X55017065Y12493926D01*
X54916041Y12536393D01*
X54808693Y12558428D01*
X54699109Y12559193D01*
X54602853Y12540831D01*
X54321842Y12821842D01*
X54298983Y12839012D01*
X54272245Y12849135D01*
X54250000Y12851600D01*
X25437318Y12851600D01*
X25435134Y12854887D01*
X25357916Y12932646D01*
X25267065Y12993926D01*
X25166041Y13036393D01*
X25058693Y13058428D01*
X24949109Y13059193D01*
X24841464Y13038659D01*
X24739857Y12997607D01*
X24648159Y12937601D01*
X24569863Y12860928D01*
X24563476Y12851600D01*
X24437318Y12851600D01*
X24435134Y12854887D01*
X24357916Y12932646D01*
X24267065Y12993926D01*
X24166041Y13036393D01*
X24058693Y13058428D01*
X23949109Y13059193D01*
X23841464Y13038659D01*
X23739857Y12997607D01*
X23648159Y12937601D01*
X23569863Y12860928D01*
X23563476Y12851600D01*
X23437318Y12851600D01*
X23435134Y12854887D01*
X23357916Y12932646D01*
X23267065Y12993926D01*
X23166041Y13036393D01*
X23058693Y13058428D01*
X22949109Y13059193D01*
X22841464Y13038659D01*
X22739857Y12997607D01*
X22648159Y12937601D01*
X22569863Y12860928D01*
X22563476Y12851600D01*
X20687318Y12851600D01*
X20685134Y12854887D01*
X20607916Y12932646D01*
X20517065Y12993926D01*
X20416041Y13036393D01*
X20308693Y13058428D01*
X20199109Y13059193D01*
X20091464Y13038659D01*
X19989857Y12997607D01*
X19898159Y12937601D01*
X19819863Y12860928D01*
X19813476Y12851600D01*
X18187318Y12851600D01*
X18185134Y12854887D01*
X18107916Y12932646D01*
X18017065Y12993926D01*
X17916041Y13036393D01*
X17808693Y13058428D01*
X17699109Y13059193D01*
X17591464Y13038659D01*
X17489857Y12997607D01*
X17398159Y12937601D01*
X17319863Y12860928D01*
X17313476Y12851600D01*
X11250000Y12851600D01*
X11221695Y12847578D01*
X11195631Y12835829D01*
X11178158Y12821842D01*
X10928158Y12571842D01*
X10910988Y12548983D01*
X10900865Y12522245D01*
X10898400Y12500000D01*
X10898400Y9292084D01*
X10157916Y8551600D01*
X9842084Y8551600D01*
X9601600Y8792084D01*
X9601600Y13457916D01*
X9659684Y13516000D01*
X56840316Y13516000D01*
X56898400Y13457916D01*
X56898400Y13457916D01*
G37*
X56898400Y13457916D02*
X56898400Y12542084D01*
X56642675Y12286359D01*
X56550623Y12249168D01*
X56430996Y12170886D01*
X56328852Y12070859D01*
X56248082Y11952898D01*
X56202227Y11845911D01*
X56157916Y11801600D01*
X55342084Y11801600D01*
X55289856Y11853828D01*
X55307076Y11929625D01*
X55308824Y12054793D01*
X55287539Y12162293D01*
X55245779Y12263610D01*
X55185134Y12354887D01*
X55107916Y12432646D01*
X55017065Y12493926D01*
X54916041Y12536393D01*
X54808693Y12558428D01*
X54699109Y12559193D01*
X54602853Y12540831D01*
X54321842Y12821842D01*
X54298983Y12839012D01*
X54272245Y12849135D01*
X54250000Y12851600D01*
X25437318Y12851600D01*
X25435134Y12854887D01*
X25357916Y12932646D01*
X25267065Y12993926D01*
X25166041Y13036393D01*
X25058693Y13058428D01*
X24949109Y13059193D01*
X24841464Y13038659D01*
X24739857Y12997607D01*
X24648159Y12937601D01*
X24569863Y12860928D01*
X24563476Y12851600D01*
X24437318Y12851600D01*
X24435134Y12854887D01*
X24357916Y12932646D01*
X24267065Y12993926D01*
X24166041Y13036393D01*
X24058693Y13058428D01*
X23949109Y13059193D01*
X23841464Y13038659D01*
X23739857Y12997607D01*
X23648159Y12937601D01*
X23569863Y12860928D01*
X23563476Y12851600D01*
X23437318Y12851600D01*
X23435134Y12854887D01*
X23357916Y12932646D01*
X23267065Y12993926D01*
X23166041Y13036393D01*
X23058693Y13058428D01*
X22949109Y13059193D01*
X22841464Y13038659D01*
X22739857Y12997607D01*
X22648159Y12937601D01*
X22569863Y12860928D01*
X22563476Y12851600D01*
X20687318Y12851600D01*
X20685134Y12854887D01*
X20607916Y12932646D01*
X20517065Y12993926D01*
X20416041Y13036393D01*
X20308693Y13058428D01*
X20199109Y13059193D01*
X20091464Y13038659D01*
X19989857Y12997607D01*
X19898159Y12937601D01*
X19819863Y12860928D01*
X19813476Y12851600D01*
X18187318Y12851600D01*
X18185134Y12854887D01*
X18107916Y12932646D01*
X18017065Y12993926D01*
X17916041Y13036393D01*
X17808693Y13058428D01*
X17699109Y13059193D01*
X17591464Y13038659D01*
X17489857Y12997607D01*
X17398159Y12937601D01*
X17319863Y12860928D01*
X17313476Y12851600D01*
X11250000Y12851600D01*
X11221695Y12847578D01*
X11195631Y12835829D01*
X11178158Y12821842D01*
X10928158Y12571842D01*
X10910988Y12548983D01*
X10900865Y12522245D01*
X10898400Y12500000D01*
X10898400Y9292084D01*
X10157916Y8551600D01*
X9842084Y8551600D01*
X9601600Y8792084D01*
X9601600Y13457916D01*
X9659684Y13516000D01*
X56840316Y13516000D01*
X56898400Y13457916D01*
G36*
X9148400Y13457916D02*
X9148400Y8542084D01*
X9039932Y8433616D01*
X9037539Y8445703D01*
X8995779Y8547020D01*
X8935134Y8638297D01*
X8857916Y8716056D01*
X8767065Y8777336D01*
X8666041Y8819803D01*
X8558693Y8841838D01*
X8449109Y8842603D01*
X8341464Y8822069D01*
X8239857Y8781017D01*
X8148159Y8721011D01*
X8069863Y8644338D01*
X8066215Y8639010D01*
X3783410Y8639010D01*
X3750688Y8635802D01*
X3717997Y8632942D01*
X3716202Y8632421D01*
X3714340Y8632238D01*
X3682874Y8622738D01*
X3651352Y8613580D01*
X3649693Y8612720D01*
X3647901Y8612179D01*
X3618852Y8596733D01*
X3589737Y8581641D01*
X3588279Y8580477D01*
X3586624Y8579597D01*
X3561116Y8558793D01*
X3535499Y8538343D01*
X3532897Y8535778D01*
X3532842Y8535733D01*
X3532800Y8535682D01*
X3531963Y8534857D01*
X3102706Y8105600D01*
X2646176Y8105600D01*
X2675056Y8133102D01*
X2738225Y8222650D01*
X2782798Y8322762D01*
X2807076Y8429625D01*
X2807258Y8442651D01*
X2901000Y8459180D01*
X3003170Y8498809D01*
X3095696Y8557529D01*
X3175056Y8633102D01*
X3238225Y8722650D01*
X3282798Y8822762D01*
X3307076Y8929625D01*
X3308824Y9054793D01*
X3287539Y9162293D01*
X3245779Y9263610D01*
X3185134Y9354887D01*
X3107916Y9432646D01*
X3017065Y9493926D01*
X2916041Y9536393D01*
X2808693Y9558428D01*
X2808103Y9558432D01*
X2787539Y9662293D01*
X2745779Y9763610D01*
X2685134Y9854887D01*
X2665835Y9874321D01*
X2675056Y9883102D01*
X2738225Y9972650D01*
X2782798Y10072762D01*
X2807076Y10179625D01*
X2808824Y10304793D01*
X2787539Y10412293D01*
X2745779Y10513610D01*
X2685134Y10604887D01*
X2607916Y10682646D01*
X2517065Y10743926D01*
X2416041Y10786393D01*
X2308693Y10808428D01*
X2199109Y10809193D01*
X2091464Y10788659D01*
X1989857Y10747607D01*
X1898159Y10687601D01*
X1819863Y10610928D01*
X1757950Y10520507D01*
X1714780Y10419782D01*
X1691995Y10312590D01*
X1690465Y10203015D01*
X1710248Y10095229D01*
X1750589Y9993338D01*
X1809953Y9901223D01*
X1834769Y9875525D01*
X1819863Y9860928D01*
X1757950Y9770507D01*
X1714780Y9669782D01*
X1691995Y9562590D01*
X1690465Y9453015D01*
X1710248Y9345229D01*
X1750589Y9243338D01*
X1809953Y9151223D01*
X1886078Y9072393D01*
X1976065Y9009851D01*
X1997252Y9000595D01*
X1989857Y8997607D01*
X1898159Y8937601D01*
X1819863Y8860928D01*
X1757950Y8770507D01*
X1714780Y8669782D01*
X1691995Y8562590D01*
X1690465Y8453015D01*
X1710248Y8345229D01*
X1750589Y8243338D01*
X1809953Y8151223D01*
X1854010Y8105600D01*
X1397294Y8105600D01*
X1307299Y8195595D01*
X1308824Y8304793D01*
X1287539Y8412293D01*
X1245779Y8513610D01*
X1185134Y8604887D01*
X1107916Y8682646D01*
X1017065Y8743926D01*
X916041Y8786393D01*
X808693Y8808428D01*
X699109Y8809193D01*
X591464Y8788659D01*
X584000Y8785643D01*
X584000Y10953015D01*
X5940465Y10953015D01*
X5960248Y10845229D01*
X6000589Y10743338D01*
X6059953Y10651223D01*
X6136078Y10572393D01*
X6226065Y10509851D01*
X6326486Y10465978D01*
X6433516Y10442446D01*
X6543078Y10440151D01*
X6651000Y10459180D01*
X6753170Y10498809D01*
X6845696Y10557529D01*
X6925056Y10633102D01*
X6988225Y10722650D01*
X7032798Y10822762D01*
X7057076Y10929625D01*
X7058824Y11054793D01*
X7037539Y11162293D01*
X6995779Y11263610D01*
X6935134Y11354887D01*
X6857916Y11432646D01*
X6767065Y11493926D01*
X6666041Y11536393D01*
X6558693Y11558428D01*
X6449109Y11559193D01*
X6341464Y11538659D01*
X6239857Y11497607D01*
X6148159Y11437601D01*
X6069863Y11360928D01*
X6007950Y11270507D01*
X5964780Y11169782D01*
X5941995Y11062590D01*
X5940465Y10953015D01*
X584000Y10953015D01*
X584000Y13299520D01*
X800480Y13516000D01*
X9090316Y13516000D01*
X9148400Y13457916D01*
X9148400Y13457916D01*
G37*
X9148400Y13457916D02*
X9148400Y8542084D01*
X9039932Y8433616D01*
X9037539Y8445703D01*
X8995779Y8547020D01*
X8935134Y8638297D01*
X8857916Y8716056D01*
X8767065Y8777336D01*
X8666041Y8819803D01*
X8558693Y8841838D01*
X8449109Y8842603D01*
X8341464Y8822069D01*
X8239857Y8781017D01*
X8148159Y8721011D01*
X8069863Y8644338D01*
X8066215Y8639010D01*
X3783410Y8639010D01*
X3750688Y8635802D01*
X3717997Y8632942D01*
X3716202Y8632421D01*
X3714340Y8632238D01*
X3682874Y8622738D01*
X3651352Y8613580D01*
X3649693Y8612720D01*
X3647901Y8612179D01*
X3618852Y8596733D01*
X3589737Y8581641D01*
X3588279Y8580477D01*
X3586624Y8579597D01*
X3561116Y8558793D01*
X3535499Y8538343D01*
X3532897Y8535778D01*
X3532842Y8535733D01*
X3532800Y8535682D01*
X3531963Y8534857D01*
X3102706Y8105600D01*
X2646176Y8105600D01*
X2675056Y8133102D01*
X2738225Y8222650D01*
X2782798Y8322762D01*
X2807076Y8429625D01*
X2807258Y8442651D01*
X2901000Y8459180D01*
X3003170Y8498809D01*
X3095696Y8557529D01*
X3175056Y8633102D01*
X3238225Y8722650D01*
X3282798Y8822762D01*
X3307076Y8929625D01*
X3308824Y9054793D01*
X3287539Y9162293D01*
X3245779Y9263610D01*
X3185134Y9354887D01*
X3107916Y9432646D01*
X3017065Y9493926D01*
X2916041Y9536393D01*
X2808693Y9558428D01*
X2808103Y9558432D01*
X2787539Y9662293D01*
X2745779Y9763610D01*
X2685134Y9854887D01*
X2665835Y9874321D01*
X2675056Y9883102D01*
X2738225Y9972650D01*
X2782798Y10072762D01*
X2807076Y10179625D01*
X2808824Y10304793D01*
X2787539Y10412293D01*
X2745779Y10513610D01*
X2685134Y10604887D01*
X2607916Y10682646D01*
X2517065Y10743926D01*
X2416041Y10786393D01*
X2308693Y10808428D01*
X2199109Y10809193D01*
X2091464Y10788659D01*
X1989857Y10747607D01*
X1898159Y10687601D01*
X1819863Y10610928D01*
X1757950Y10520507D01*
X1714780Y10419782D01*
X1691995Y10312590D01*
X1690465Y10203015D01*
X1710248Y10095229D01*
X1750589Y9993338D01*
X1809953Y9901223D01*
X1834769Y9875525D01*
X1819863Y9860928D01*
X1757950Y9770507D01*
X1714780Y9669782D01*
X1691995Y9562590D01*
X1690465Y9453015D01*
X1710248Y9345229D01*
X1750589Y9243338D01*
X1809953Y9151223D01*
X1886078Y9072393D01*
X1976065Y9009851D01*
X1997252Y9000595D01*
X1989857Y8997607D01*
X1898159Y8937601D01*
X1819863Y8860928D01*
X1757950Y8770507D01*
X1714780Y8669782D01*
X1691995Y8562590D01*
X1690465Y8453015D01*
X1710248Y8345229D01*
X1750589Y8243338D01*
X1809953Y8151223D01*
X1854010Y8105600D01*
X1397294Y8105600D01*
X1307299Y8195595D01*
X1308824Y8304793D01*
X1287539Y8412293D01*
X1245779Y8513610D01*
X1185134Y8604887D01*
X1107916Y8682646D01*
X1017065Y8743926D01*
X916041Y8786393D01*
X808693Y8808428D01*
X699109Y8809193D01*
X591464Y8788659D01*
X584000Y8785643D01*
X584000Y10953015D01*
X5940465Y10953015D01*
X5960248Y10845229D01*
X6000589Y10743338D01*
X6059953Y10651223D01*
X6136078Y10572393D01*
X6226065Y10509851D01*
X6326486Y10465978D01*
X6433516Y10442446D01*
X6543078Y10440151D01*
X6651000Y10459180D01*
X6753170Y10498809D01*
X6845696Y10557529D01*
X6925056Y10633102D01*
X6988225Y10722650D01*
X7032798Y10822762D01*
X7057076Y10929625D01*
X7058824Y11054793D01*
X7037539Y11162293D01*
X6995779Y11263610D01*
X6935134Y11354887D01*
X6857916Y11432646D01*
X6767065Y11493926D01*
X6666041Y11536393D01*
X6558693Y11558428D01*
X6449109Y11559193D01*
X6341464Y11538659D01*
X6239857Y11497607D01*
X6148159Y11437601D01*
X6069863Y11360928D01*
X6007950Y11270507D01*
X5964780Y11169782D01*
X5941995Y11062590D01*
X5940465Y10953015D01*
X584000Y10953015D01*
X584000Y13299520D01*
X800480Y13516000D01*
X9090316Y13516000D01*
X9148400Y13457916D01*
G36*
X65766000Y13299520D02*
X65766000Y2700480D01*
X65549520Y2484000D01*
X53450480Y2484000D01*
X53234000Y2700480D01*
X53234000Y4840316D01*
X53292084Y4898400D01*
X56594177Y4898400D01*
X56525441Y4853420D01*
X56444314Y4773975D01*
X56380163Y4680285D01*
X56335432Y4575919D01*
X56311824Y4464853D01*
X56310238Y4351316D01*
X56330736Y4239634D01*
X56372536Y4134060D01*
X56434046Y4038615D01*
X56512923Y3956935D01*
X56606162Y3892132D01*
X56710213Y3846673D01*
X56821112Y3822291D01*
X56934635Y3819913D01*
X57046458Y3839630D01*
X57152321Y3880692D01*
X57248193Y3941534D01*
X57330421Y4019839D01*
X57395874Y4112624D01*
X57442058Y4216355D01*
X57467214Y4327081D01*
X57469025Y4456774D01*
X57446970Y4568159D01*
X57403701Y4673139D01*
X57340864Y4767716D01*
X57260855Y4848286D01*
X57166719Y4911781D01*
X57088391Y4944707D01*
X57292084Y5148400D01*
X57807916Y5148400D01*
X57928158Y5028158D01*
X57960472Y5006405D01*
X58000000Y4998400D01*
X58500000Y4998400D01*
X58538231Y5005868D01*
X58571842Y5028158D01*
X58821842Y5278158D01*
X58843595Y5310472D01*
X58851600Y5350000D01*
X58851600Y10250000D01*
X58847578Y10278305D01*
X58835829Y10304369D01*
X58834206Y10306397D01*
X58838579Y10325645D01*
X58840426Y10457892D01*
X58817936Y10571470D01*
X58773815Y10678517D01*
X58709741Y10774956D01*
X58628156Y10857112D01*
X58532167Y10921858D01*
X58425431Y10966726D01*
X58312012Y10990007D01*
X58196232Y10990815D01*
X58082499Y10969120D01*
X57975146Y10925746D01*
X57878263Y10862348D01*
X57795539Y10781338D01*
X57730125Y10685804D01*
X57694035Y10601600D01*
X57542084Y10601600D01*
X57351600Y10792084D01*
X57351600Y11032866D01*
X57444519Y11121352D01*
X57526929Y11238174D01*
X57585077Y11368779D01*
X57616751Y11508190D01*
X57619031Y11671482D01*
X57591262Y11811724D01*
X57536783Y11943901D01*
X57457668Y12062979D01*
X57356930Y12164422D01*
X57351600Y12168017D01*
X57351600Y12803999D01*
X59828600Y12803999D01*
X59828600Y3196002D01*
X62741400Y3196002D01*
X62741400Y12803999D01*
X59828600Y12803999D01*
X57351600Y12803999D01*
X57351600Y13457916D01*
X57409684Y13516000D01*
X65549520Y13516000D01*
X65766000Y13299520D01*
X65766000Y13299520D01*
G37*
X65766000Y13299520D02*
X65766000Y2700480D01*
X65549520Y2484000D01*
X53450480Y2484000D01*
X53234000Y2700480D01*
X53234000Y4840316D01*
X53292084Y4898400D01*
X56594177Y4898400D01*
X56525441Y4853420D01*
X56444314Y4773975D01*
X56380163Y4680285D01*
X56335432Y4575919D01*
X56311824Y4464853D01*
X56310238Y4351316D01*
X56330736Y4239634D01*
X56372536Y4134060D01*
X56434046Y4038615D01*
X56512923Y3956935D01*
X56606162Y3892132D01*
X56710213Y3846673D01*
X56821112Y3822291D01*
X56934635Y3819913D01*
X57046458Y3839630D01*
X57152321Y3880692D01*
X57248193Y3941534D01*
X57330421Y4019839D01*
X57395874Y4112624D01*
X57442058Y4216355D01*
X57467214Y4327081D01*
X57469025Y4456774D01*
X57446970Y4568159D01*
X57403701Y4673139D01*
X57340864Y4767716D01*
X57260855Y4848286D01*
X57166719Y4911781D01*
X57088391Y4944707D01*
X57292084Y5148400D01*
X57807916Y5148400D01*
X57928158Y5028158D01*
X57960472Y5006405D01*
X58000000Y4998400D01*
X58500000Y4998400D01*
X58538231Y5005868D01*
X58571842Y5028158D01*
X58821842Y5278158D01*
X58843595Y5310472D01*
X58851600Y5350000D01*
X58851600Y10250000D01*
X58847578Y10278305D01*
X58835829Y10304369D01*
X58834206Y10306397D01*
X58838579Y10325645D01*
X58840426Y10457892D01*
X58817936Y10571470D01*
X58773815Y10678517D01*
X58709741Y10774956D01*
X58628156Y10857112D01*
X58532167Y10921858D01*
X58425431Y10966726D01*
X58312012Y10990007D01*
X58196232Y10990815D01*
X58082499Y10969120D01*
X57975146Y10925746D01*
X57878263Y10862348D01*
X57795539Y10781338D01*
X57730125Y10685804D01*
X57694035Y10601600D01*
X57542084Y10601600D01*
X57351600Y10792084D01*
X57351600Y11032866D01*
X57444519Y11121352D01*
X57526929Y11238174D01*
X57585077Y11368779D01*
X57616751Y11508190D01*
X57619031Y11671482D01*
X57591262Y11811724D01*
X57536783Y11943901D01*
X57457668Y12062979D01*
X57356930Y12164422D01*
X57351600Y12168017D01*
X57351600Y12803999D01*
X59828600Y12803999D01*
X59828600Y3196002D01*
X62741400Y3196002D01*
X62741400Y12803999D01*
X59828600Y12803999D01*
X57351600Y12803999D01*
X57351600Y13457916D01*
X57409684Y13516000D01*
X65549520Y13516000D01*
X65766000Y13299520D01*
M02*
