G04 #@! TF.FileFunction,Paste,Top*
%FSLAX46Y46*%
G04 Gerber Fmt 4.6, Leading zero omitted, Abs format (unit mm)*
G04 Created by KiCad (PCBNEW 4.0.7) date Thursday, January 18, 2018 'PMt' 01:39:02 PM*
%MOMM*%
%LPD*%
G01*
G04 APERTURE LIST*
%ADD10C,0.100000*%
%ADD11R,0.700000X0.250000*%
%ADD12R,0.250000X0.700000*%
%ADD13R,0.495000X0.795000*%
%ADD14R,0.797560X0.797560*%
%ADD15R,0.900000X0.500000*%
%ADD16R,0.700000X0.300000*%
G04 APERTURE END LIST*
D10*
D11*
X10600000Y12250000D03*
X10600000Y11750000D03*
X10600000Y11250000D03*
X10600000Y10750000D03*
X10600000Y10250000D03*
X10600000Y9750000D03*
D12*
X11250000Y9100000D03*
X11750000Y9100000D03*
X12250000Y9100000D03*
X12750000Y9100000D03*
D11*
X13400000Y9750000D03*
X13400000Y10250000D03*
X13400000Y10750000D03*
X13400000Y11250000D03*
X13400000Y11750000D03*
X13400000Y12250000D03*
D12*
X12750000Y12900000D03*
X12250000Y12900000D03*
X11750000Y12900000D03*
X11250000Y12900000D03*
D13*
X12412500Y10337500D03*
X12412500Y11662500D03*
X11587500Y10337500D03*
X11587500Y11662500D03*
D14*
X9000000Y8750700D03*
X9000000Y10249300D03*
X1250000Y8750700D03*
X1250000Y10249300D03*
X18500000Y11750700D03*
X18500000Y13249300D03*
D15*
X15000000Y8750000D03*
X15000000Y10250000D03*
X7250000Y8750000D03*
X7250000Y10250000D03*
X9000000Y11750000D03*
X9000000Y13250000D03*
X15000000Y13250000D03*
X15000000Y11750000D03*
X1250000Y11750000D03*
X1250000Y13250000D03*
X7250000Y13250000D03*
X7250000Y11750000D03*
X20250000Y13250000D03*
X20250000Y11750000D03*
X16750000Y13250000D03*
X16750000Y11750000D03*
D11*
X2850000Y12250000D03*
X2850000Y11750000D03*
X2850000Y11250000D03*
X2850000Y10750000D03*
X2850000Y10250000D03*
X2850000Y9750000D03*
D12*
X3500000Y9100000D03*
X4000000Y9100000D03*
X4500000Y9100000D03*
X5000000Y9100000D03*
D11*
X5650000Y9750000D03*
X5650000Y10250000D03*
X5650000Y10750000D03*
X5650000Y11250000D03*
X5650000Y11750000D03*
X5650000Y12250000D03*
D12*
X5000000Y12900000D03*
X4500000Y12900000D03*
X4000000Y12900000D03*
X3500000Y12900000D03*
D13*
X4662500Y10337500D03*
X4662500Y11662500D03*
X3837500Y10337500D03*
X3837500Y11662500D03*
D16*
X56230000Y5250000D03*
X56230000Y5750000D03*
X56230000Y6250000D03*
X56230000Y6750000D03*
X56230000Y7250000D03*
X56230000Y7750000D03*
X56230000Y8250000D03*
X56230000Y10750000D03*
X56230000Y9750000D03*
X56230000Y9250000D03*
X56230000Y8750000D03*
X56230000Y10250000D03*
M02*
