M48
;DRILL file {KiCad 4.0.7} date Wednesday, December 20, 2017 'AMt' 12:52:54 AM
;FORMAT={-:-/ absolute / metric / decimal}
FMAT,2
METRIC,TZ
T1C0.305
T2C0.368
T3C0.900
%
G90
G05
M71
T1
X0.75Y8.25
X0.75Y7.
X1.75Y7.
X1.75Y6.
X2.25Y10.25
X2.25Y9.5
X2.25Y8.5
X2.75Y9.
X2.75Y7.
X2.75Y6.
X3.75Y12.
X3.75Y10.
X3.75Y6.
X4.75Y12.
X4.75Y10.
X6.5Y11.
X6.75Y6.032
X7.5Y11.
X7.75Y7.
X7.75Y6.032
X8.5Y8.283
X10.Y11.
X10.Y10.25
X10.Y9.5
X10.Y8.75
X10.Y6.75
X10.75Y6.75
X11.5Y12.
X11.5Y10.
X12.5Y12.
X12.5Y10.
X13.5Y9.
X14.Y10.25
X14.Y9.5
X14.Y8.5
X14.25Y11.
X14.25Y6.25
X15.25Y11.
X16.75Y11.
X17.25Y6.25
X17.75Y12.5
X19.283Y6.25
X20.25Y12.5
X23.Y12.5
X24.Y12.5
X25.Y12.5
X54.75Y12.
X55.Y12.75
X55.462Y8.51
X55.5Y4.75
X55.75Y12.75
X55.75Y12.
X56.5Y12.75
T2
X57.55Y10.8
X57.55Y9.2
X57.55Y8.4
X57.55Y7.6
X57.55Y6.8
X57.55Y5.2
X58.25Y10.4
X58.25Y9.6
X58.25Y8.8
X58.25Y7.2
X58.25Y6.4
X58.25Y5.6
T3
X58.14Y12.13
X58.14Y3.87
X64.09Y12.49
X64.09Y3.51
T0
M30
