G04 #@! TF.FileFunction,Copper,L2,Inr,Plane*
%FSLAX46Y46*%
G04 Gerber Fmt 4.6, Leading zero omitted, Abs format (unit mm)*
G04 Created by KiCad (PCBNEW 4.0.7) date Wednesday, December 20, 2017 'AMt' 12:52:48 AM*
%MOMM*%
%LPD*%
G01*
G04 APERTURE LIST*
%ADD10C,0.100000*%
%ADD11C,1.204800*%
%ADD12C,0.672800*%
%ADD13C,0.609600*%
%ADD14C,0.203200*%
G04 APERTURE END LIST*
D10*
D11*
X58140000Y3870000D03*
X58140000Y12130000D03*
X64090000Y12490000D03*
X64090000Y3510000D03*
D12*
X57550000Y10800000D03*
X58250000Y10400000D03*
X58250000Y9600000D03*
X58250000Y8800000D03*
X57550000Y9200000D03*
X57550000Y8400000D03*
X57550000Y7600000D03*
X57550000Y6800000D03*
X58250000Y7200000D03*
X58250000Y6400000D03*
X58250000Y5600000D03*
X57550000Y5200000D03*
D13*
X54750000Y12000000D03*
X55500000Y4750000D03*
X19283410Y6250000D03*
X12500000Y10000000D03*
X11500000Y10000000D03*
X17250000Y6250000D03*
X14250000Y6250000D03*
X12500000Y12000000D03*
X11500000Y12000000D03*
X4750000Y12000000D03*
X3750000Y12000000D03*
X3750000Y10000000D03*
X4750000Y10000000D03*
X6750000Y6031802D03*
X3750000Y6000000D03*
X7500000Y11000000D03*
X16750000Y11000000D03*
X15250000Y11000000D03*
X17750000Y12500000D03*
X8500000Y8283410D03*
X750000Y8250000D03*
X750000Y7000000D03*
X25000000Y12500000D03*
X2750000Y7000000D03*
X1750000Y7000000D03*
X2750000Y6000000D03*
X1750000Y6000000D03*
X14000000Y10250000D03*
X14000000Y9500000D03*
X14000000Y8500000D03*
X13500000Y9000000D03*
X7750000Y7000000D03*
X7750000Y6031802D03*
X10750000Y6750000D03*
X23000000Y12500000D03*
X10000000Y6750000D03*
X20250000Y12500000D03*
X55750000Y12000000D03*
X55000000Y12750000D03*
X55750000Y12750000D03*
X56500000Y12750000D03*
X10000000Y8750000D03*
X10000000Y11000000D03*
X10000000Y10250000D03*
X10000000Y9500000D03*
X55462415Y8509890D03*
X2250000Y10250000D03*
X2250000Y9500000D03*
X2250000Y8500000D03*
X2750000Y9000000D03*
X24000000Y12500000D03*
X6500000Y11000000D03*
X14250000Y11000000D03*
D14*
X13950000Y11600000D02*
X22100000Y11600000D01*
X22100000Y11600000D02*
X23000000Y12500000D01*
X12900000Y10550000D02*
X13950000Y11600000D01*
X11250000Y10550000D02*
X12900000Y10550000D01*
X10950000Y10250000D02*
X11250000Y10550000D01*
X10950000Y7381052D02*
X10950000Y10250000D01*
X10750000Y6750000D02*
X10750000Y7181052D01*
X10750000Y7181052D02*
X10950000Y7381052D01*
X23000000Y12500000D02*
X22568948Y12500000D01*
X13800000Y11950000D02*
X19700000Y11950000D01*
X19700000Y11950000D02*
X20250000Y12500000D01*
X12750000Y10900000D02*
X13800000Y11950000D01*
X11100000Y10900000D02*
X12750000Y10900000D01*
X10600000Y10400000D02*
X11100000Y10900000D01*
X10600000Y7550000D02*
X10600000Y10400000D01*
X10304799Y7254799D02*
X10600000Y7550000D01*
X10000000Y6750000D02*
X10304799Y7054799D01*
X10304799Y7054799D02*
X10304799Y7254799D01*
X55750000Y12000000D02*
X55750000Y10250000D01*
X55750000Y10250000D02*
X56800000Y9200000D01*
X55750000Y12750000D02*
X55750000Y12000000D01*
X55750000Y12750000D02*
X55000000Y12750000D01*
X56500000Y12750000D02*
X55750000Y12750000D01*
X57550000Y9200000D02*
X56800000Y9200000D01*
X55462415Y8509890D02*
X55462415Y9287585D01*
X54000000Y12500000D02*
X53750000Y12750000D01*
X53750000Y12750000D02*
X53750000Y13500000D01*
X55462415Y9287585D02*
X54750000Y10000000D01*
X54750000Y11000000D02*
X54000000Y11750000D01*
X53750000Y13500000D02*
X58750000Y13500000D01*
X54750000Y10000000D02*
X54750000Y11000000D01*
X54000000Y11750000D02*
X54000000Y12500000D01*
X58750000Y13500000D02*
X59250000Y13000000D01*
X59250000Y13000000D02*
X59250000Y8200000D01*
X59250000Y8200000D02*
X58250000Y7200000D01*
X18150000Y11250000D02*
X22750000Y11250000D01*
X22750000Y11250000D02*
X24000000Y12500000D01*
X17350000Y10450000D02*
X18150000Y11250000D01*
X14800000Y10450000D02*
X17350000Y10450000D01*
X14250000Y11000000D02*
X14800000Y10450000D01*
G36*
X65766000Y13299520D02*
X65766000Y2700480D01*
X65549520Y2484000D01*
X53450480Y2484000D01*
X53234000Y2700480D01*
X53234000Y4351316D01*
X56310238Y4351316D01*
X56330736Y4239634D01*
X56372536Y4134060D01*
X56434046Y4038615D01*
X56512923Y3956935D01*
X56606162Y3892132D01*
X56710213Y3846673D01*
X56821112Y3822291D01*
X56934635Y3819913D01*
X57046458Y3839630D01*
X57152321Y3880692D01*
X57248193Y3941534D01*
X57330421Y4019839D01*
X57395874Y4112624D01*
X57442058Y4216355D01*
X57467214Y4327081D01*
X57469025Y4456774D01*
X57446970Y4568159D01*
X57403701Y4673139D01*
X57340864Y4767716D01*
X57260855Y4848286D01*
X57166719Y4911781D01*
X57062044Y4955783D01*
X56950815Y4978615D01*
X56837270Y4979408D01*
X56725733Y4958131D01*
X56620453Y4915595D01*
X56525441Y4853420D01*
X56444314Y4773975D01*
X56380163Y4680285D01*
X56335432Y4575919D01*
X56311824Y4464853D01*
X56310238Y4351316D01*
X53234000Y4351316D01*
X53234000Y7650000D01*
X53233991Y7650087D01*
X53233997Y7651647D01*
X53233978Y7657232D01*
X53231841Y7678287D01*
X53231989Y7699454D01*
X53231329Y7706179D01*
X53215008Y7861456D01*
X53206196Y7904385D01*
X53197969Y7947514D01*
X53196015Y7953983D01*
X53149846Y8103133D01*
X53132844Y8143581D01*
X53116413Y8184248D01*
X53113240Y8190215D01*
X53038979Y8327557D01*
X53014447Y8363928D01*
X52990430Y8400630D01*
X52986159Y8405867D01*
X52886636Y8526170D01*
X52855498Y8557091D01*
X52824816Y8588423D01*
X52819608Y8592731D01*
X52698615Y8691411D01*
X52662071Y8715690D01*
X52625883Y8740469D01*
X52619938Y8743683D01*
X52482081Y8816983D01*
X52441574Y8833679D01*
X52401203Y8850982D01*
X52394747Y8852980D01*
X52245277Y8898107D01*
X52202263Y8906624D01*
X52159339Y8915748D01*
X52152617Y8916454D01*
X51997231Y8931690D01*
X51976932Y8931690D01*
X51956758Y8933953D01*
X51950000Y8934000D01*
X21200000Y8934000D01*
X21199858Y8933986D01*
X21196524Y8933995D01*
X21192335Y8933977D01*
X21171491Y8931843D01*
X21150546Y8931989D01*
X21143821Y8931329D01*
X20988544Y8915008D01*
X20945615Y8906196D01*
X20902486Y8897969D01*
X20896017Y8896015D01*
X20746867Y8849846D01*
X20706419Y8832844D01*
X20665752Y8816413D01*
X20659792Y8813244D01*
X20659788Y8813242D01*
X20659785Y8813240D01*
X20522443Y8738979D01*
X20486072Y8714447D01*
X20449370Y8690430D01*
X20444133Y8686159D01*
X20323830Y8586636D01*
X20292909Y8555498D01*
X20261577Y8524816D01*
X20257269Y8519608D01*
X20158589Y8398615D01*
X20134310Y8362071D01*
X20109531Y8325883D01*
X20106317Y8319938D01*
X20033017Y8182081D01*
X20016321Y8141574D01*
X19999018Y8101203D01*
X19997020Y8094747D01*
X19951893Y7945277D01*
X19943376Y7902263D01*
X19934252Y7859339D01*
X19933546Y7852617D01*
X19918310Y7697231D01*
X19918310Y7676932D01*
X19916047Y7656758D01*
X19916000Y7650000D01*
X19916000Y5851600D01*
X13534000Y5851600D01*
X13534000Y7650000D01*
X13533988Y7650122D01*
X13533988Y7653380D01*
X13533910Y7664550D01*
X13531612Y7686413D01*
X13531612Y7708400D01*
X13530906Y7715121D01*
X13513502Y7870280D01*
X13504375Y7913216D01*
X13495861Y7956220D01*
X13493862Y7962676D01*
X13446652Y8111501D01*
X13429372Y8151817D01*
X13412655Y8192377D01*
X13409441Y8198322D01*
X13334224Y8335142D01*
X13309450Y8371324D01*
X13285164Y8407877D01*
X13280856Y8413084D01*
X13180496Y8532688D01*
X13149419Y8563121D01*
X13226065Y8509851D01*
X13326486Y8465978D01*
X13433516Y8442446D01*
X13442439Y8442259D01*
X13460248Y8345229D01*
X13500589Y8243338D01*
X13559953Y8151223D01*
X13636078Y8072393D01*
X13726065Y8009851D01*
X13826486Y7965978D01*
X13933516Y7942446D01*
X14043078Y7940151D01*
X14151000Y7959180D01*
X14253170Y7998809D01*
X14345696Y8057529D01*
X14425056Y8133102D01*
X14488225Y8222650D01*
X14532798Y8322762D01*
X14557076Y8429625D01*
X14558824Y8554793D01*
X14537539Y8662293D01*
X14495779Y8763610D01*
X14435134Y8854887D01*
X14357916Y8932646D01*
X14267065Y8993926D01*
X14254078Y8999385D01*
X14345696Y9057529D01*
X14425056Y9133102D01*
X14488225Y9222650D01*
X14532798Y9322762D01*
X14557076Y9429625D01*
X14558824Y9554793D01*
X14537539Y9662293D01*
X14495779Y9763610D01*
X14435134Y9854887D01*
X14415835Y9874321D01*
X14425056Y9883102D01*
X14488225Y9972650D01*
X14532798Y10072762D01*
X14557076Y10179625D01*
X14557241Y10191417D01*
X14573966Y10177678D01*
X14599098Y10156590D01*
X14600734Y10155691D01*
X14602181Y10154502D01*
X14631153Y10138967D01*
X14659914Y10123155D01*
X14661696Y10122590D01*
X14663344Y10121706D01*
X14694764Y10112100D01*
X14726067Y10102171D01*
X14727925Y10101963D01*
X14729713Y10101416D01*
X14762364Y10098100D01*
X14795035Y10094435D01*
X14798698Y10094409D01*
X14798759Y10094403D01*
X14798816Y10094408D01*
X14800000Y10094400D01*
X17350000Y10094400D01*
X17382772Y10097613D01*
X17415413Y10100469D01*
X17417203Y10100989D01*
X17419070Y10101172D01*
X17450564Y10110681D01*
X17482059Y10119830D01*
X17483719Y10120691D01*
X17485509Y10121231D01*
X17514519Y10136656D01*
X17543674Y10151769D01*
X17545134Y10152935D01*
X17546786Y10153813D01*
X17572248Y10174579D01*
X17597912Y10195067D01*
X17600514Y10197633D01*
X17600568Y10197677D01*
X17600609Y10197727D01*
X17601447Y10198553D01*
X18297294Y10894400D01*
X22750000Y10894400D01*
X22782772Y10897613D01*
X22815413Y10900469D01*
X22817203Y10900989D01*
X22819070Y10901172D01*
X22850564Y10910681D01*
X22882059Y10919830D01*
X22883719Y10920691D01*
X22885509Y10921231D01*
X22914519Y10936656D01*
X22943674Y10951769D01*
X22945134Y10952935D01*
X22946786Y10953813D01*
X22972248Y10974579D01*
X22997912Y10995067D01*
X23000514Y10997633D01*
X23000568Y10997677D01*
X23000609Y10997727D01*
X23001447Y10998553D01*
X23945097Y11942203D01*
X24043078Y11940151D01*
X24151000Y11959180D01*
X24253170Y11998809D01*
X24345696Y12057529D01*
X24425056Y12133102D01*
X24488225Y12222650D01*
X24498621Y12246000D01*
X24499535Y12246000D01*
X24500589Y12243338D01*
X24559953Y12151223D01*
X24636078Y12072393D01*
X24726065Y12009851D01*
X24826486Y11965978D01*
X24933516Y11942446D01*
X25043078Y11940151D01*
X25151000Y11959180D01*
X25253170Y11998809D01*
X25345696Y12057529D01*
X25425056Y12133102D01*
X25488225Y12222650D01*
X25498621Y12246000D01*
X53644400Y12246000D01*
X53644400Y11750000D01*
X53647613Y11717228D01*
X53650469Y11684587D01*
X53650989Y11682797D01*
X53651172Y11680930D01*
X53660681Y11649436D01*
X53669830Y11617941D01*
X53670691Y11616281D01*
X53671231Y11614491D01*
X53686656Y11585481D01*
X53701769Y11556326D01*
X53702935Y11554866D01*
X53703813Y11553214D01*
X53724579Y11527752D01*
X53745067Y11502088D01*
X53747633Y11499486D01*
X53747677Y11499432D01*
X53747727Y11499391D01*
X53748553Y11498553D01*
X54394400Y10852706D01*
X54394400Y10000000D01*
X54397613Y9967228D01*
X54400469Y9934587D01*
X54400989Y9932797D01*
X54401172Y9930930D01*
X54410681Y9899436D01*
X54419830Y9867941D01*
X54420691Y9866281D01*
X54421231Y9864491D01*
X54436656Y9835481D01*
X54451769Y9806326D01*
X54452935Y9804866D01*
X54453813Y9803214D01*
X54474579Y9777752D01*
X54495067Y9752088D01*
X54497633Y9749486D01*
X54497677Y9749432D01*
X54497727Y9749391D01*
X54498553Y9748553D01*
X55106815Y9140291D01*
X55106815Y8943810D01*
X55032278Y8870818D01*
X54970365Y8780397D01*
X54927195Y8679672D01*
X54904410Y8572480D01*
X54902880Y8462905D01*
X54922663Y8355119D01*
X54963004Y8253228D01*
X55022368Y8161113D01*
X55098493Y8082283D01*
X55188480Y8019741D01*
X55246000Y7994611D01*
X55246000Y7750000D01*
X55264669Y7654422D01*
X55320395Y7570395D01*
X56239190Y6651600D01*
X55850000Y6651600D01*
X55813073Y6644652D01*
X55779157Y6622828D01*
X55756405Y6589528D01*
X55748400Y6550000D01*
X55748400Y5450000D01*
X55755348Y5413073D01*
X55777172Y5379157D01*
X55810472Y5356405D01*
X55850000Y5348400D01*
X56600000Y5348400D01*
X56636927Y5355348D01*
X56670843Y5377172D01*
X56693595Y5410472D01*
X56701600Y5450000D01*
X56701600Y6189190D01*
X56820395Y6070395D01*
X56901180Y6016012D01*
X57000000Y5996000D01*
X57648400Y5996000D01*
X57648400Y5350000D01*
X57655868Y5311769D01*
X57678158Y5278158D01*
X57928158Y5028158D01*
X57960472Y5006405D01*
X58000000Y4998400D01*
X58500000Y4998400D01*
X58538231Y5005868D01*
X58571842Y5028158D01*
X58821842Y5278158D01*
X58843595Y5310472D01*
X58851600Y5350000D01*
X58851600Y6650000D01*
X58844132Y6688231D01*
X58821842Y6721842D01*
X58712427Y6831257D01*
X58765834Y6906966D01*
X58812927Y7012739D01*
X58838579Y7125645D01*
X58840426Y7257892D01*
X58835527Y7282633D01*
X59501447Y7948553D01*
X59522326Y7973971D01*
X59543410Y7999098D01*
X59544309Y8000733D01*
X59545499Y8002182D01*
X59561033Y8031152D01*
X59576845Y8059914D01*
X59577411Y8061698D01*
X59578294Y8063345D01*
X59587908Y8094792D01*
X59597829Y8126067D01*
X59598037Y8127920D01*
X59598585Y8129713D01*
X59601911Y8162458D01*
X59605565Y8195035D01*
X59605591Y8198688D01*
X59605598Y8198759D01*
X59605592Y8198825D01*
X59605600Y8200000D01*
X59605600Y13000000D01*
X59602392Y13032722D01*
X59599532Y13065413D01*
X59599011Y13067208D01*
X59598828Y13069070D01*
X59589328Y13100536D01*
X59580170Y13132058D01*
X59579310Y13133717D01*
X59578769Y13135509D01*
X59563334Y13164537D01*
X59548231Y13193674D01*
X59547065Y13195134D01*
X59546187Y13196786D01*
X59525401Y13222272D01*
X59504933Y13247911D01*
X59502368Y13250513D01*
X59502323Y13250568D01*
X59502272Y13250610D01*
X59501447Y13251447D01*
X59236894Y13516000D01*
X65549520Y13516000D01*
X65766000Y13299520D01*
X65766000Y13299520D01*
G37*
X65766000Y13299520D02*
X65766000Y2700480D01*
X65549520Y2484000D01*
X53450480Y2484000D01*
X53234000Y2700480D01*
X53234000Y4351316D01*
X56310238Y4351316D01*
X56330736Y4239634D01*
X56372536Y4134060D01*
X56434046Y4038615D01*
X56512923Y3956935D01*
X56606162Y3892132D01*
X56710213Y3846673D01*
X56821112Y3822291D01*
X56934635Y3819913D01*
X57046458Y3839630D01*
X57152321Y3880692D01*
X57248193Y3941534D01*
X57330421Y4019839D01*
X57395874Y4112624D01*
X57442058Y4216355D01*
X57467214Y4327081D01*
X57469025Y4456774D01*
X57446970Y4568159D01*
X57403701Y4673139D01*
X57340864Y4767716D01*
X57260855Y4848286D01*
X57166719Y4911781D01*
X57062044Y4955783D01*
X56950815Y4978615D01*
X56837270Y4979408D01*
X56725733Y4958131D01*
X56620453Y4915595D01*
X56525441Y4853420D01*
X56444314Y4773975D01*
X56380163Y4680285D01*
X56335432Y4575919D01*
X56311824Y4464853D01*
X56310238Y4351316D01*
X53234000Y4351316D01*
X53234000Y7650000D01*
X53233991Y7650087D01*
X53233997Y7651647D01*
X53233978Y7657232D01*
X53231841Y7678287D01*
X53231989Y7699454D01*
X53231329Y7706179D01*
X53215008Y7861456D01*
X53206196Y7904385D01*
X53197969Y7947514D01*
X53196015Y7953983D01*
X53149846Y8103133D01*
X53132844Y8143581D01*
X53116413Y8184248D01*
X53113240Y8190215D01*
X53038979Y8327557D01*
X53014447Y8363928D01*
X52990430Y8400630D01*
X52986159Y8405867D01*
X52886636Y8526170D01*
X52855498Y8557091D01*
X52824816Y8588423D01*
X52819608Y8592731D01*
X52698615Y8691411D01*
X52662071Y8715690D01*
X52625883Y8740469D01*
X52619938Y8743683D01*
X52482081Y8816983D01*
X52441574Y8833679D01*
X52401203Y8850982D01*
X52394747Y8852980D01*
X52245277Y8898107D01*
X52202263Y8906624D01*
X52159339Y8915748D01*
X52152617Y8916454D01*
X51997231Y8931690D01*
X51976932Y8931690D01*
X51956758Y8933953D01*
X51950000Y8934000D01*
X21200000Y8934000D01*
X21199858Y8933986D01*
X21196524Y8933995D01*
X21192335Y8933977D01*
X21171491Y8931843D01*
X21150546Y8931989D01*
X21143821Y8931329D01*
X20988544Y8915008D01*
X20945615Y8906196D01*
X20902486Y8897969D01*
X20896017Y8896015D01*
X20746867Y8849846D01*
X20706419Y8832844D01*
X20665752Y8816413D01*
X20659792Y8813244D01*
X20659788Y8813242D01*
X20659785Y8813240D01*
X20522443Y8738979D01*
X20486072Y8714447D01*
X20449370Y8690430D01*
X20444133Y8686159D01*
X20323830Y8586636D01*
X20292909Y8555498D01*
X20261577Y8524816D01*
X20257269Y8519608D01*
X20158589Y8398615D01*
X20134310Y8362071D01*
X20109531Y8325883D01*
X20106317Y8319938D01*
X20033017Y8182081D01*
X20016321Y8141574D01*
X19999018Y8101203D01*
X19997020Y8094747D01*
X19951893Y7945277D01*
X19943376Y7902263D01*
X19934252Y7859339D01*
X19933546Y7852617D01*
X19918310Y7697231D01*
X19918310Y7676932D01*
X19916047Y7656758D01*
X19916000Y7650000D01*
X19916000Y5851600D01*
X13534000Y5851600D01*
X13534000Y7650000D01*
X13533988Y7650122D01*
X13533988Y7653380D01*
X13533910Y7664550D01*
X13531612Y7686413D01*
X13531612Y7708400D01*
X13530906Y7715121D01*
X13513502Y7870280D01*
X13504375Y7913216D01*
X13495861Y7956220D01*
X13493862Y7962676D01*
X13446652Y8111501D01*
X13429372Y8151817D01*
X13412655Y8192377D01*
X13409441Y8198322D01*
X13334224Y8335142D01*
X13309450Y8371324D01*
X13285164Y8407877D01*
X13280856Y8413084D01*
X13180496Y8532688D01*
X13149419Y8563121D01*
X13226065Y8509851D01*
X13326486Y8465978D01*
X13433516Y8442446D01*
X13442439Y8442259D01*
X13460248Y8345229D01*
X13500589Y8243338D01*
X13559953Y8151223D01*
X13636078Y8072393D01*
X13726065Y8009851D01*
X13826486Y7965978D01*
X13933516Y7942446D01*
X14043078Y7940151D01*
X14151000Y7959180D01*
X14253170Y7998809D01*
X14345696Y8057529D01*
X14425056Y8133102D01*
X14488225Y8222650D01*
X14532798Y8322762D01*
X14557076Y8429625D01*
X14558824Y8554793D01*
X14537539Y8662293D01*
X14495779Y8763610D01*
X14435134Y8854887D01*
X14357916Y8932646D01*
X14267065Y8993926D01*
X14254078Y8999385D01*
X14345696Y9057529D01*
X14425056Y9133102D01*
X14488225Y9222650D01*
X14532798Y9322762D01*
X14557076Y9429625D01*
X14558824Y9554793D01*
X14537539Y9662293D01*
X14495779Y9763610D01*
X14435134Y9854887D01*
X14415835Y9874321D01*
X14425056Y9883102D01*
X14488225Y9972650D01*
X14532798Y10072762D01*
X14557076Y10179625D01*
X14557241Y10191417D01*
X14573966Y10177678D01*
X14599098Y10156590D01*
X14600734Y10155691D01*
X14602181Y10154502D01*
X14631153Y10138967D01*
X14659914Y10123155D01*
X14661696Y10122590D01*
X14663344Y10121706D01*
X14694764Y10112100D01*
X14726067Y10102171D01*
X14727925Y10101963D01*
X14729713Y10101416D01*
X14762364Y10098100D01*
X14795035Y10094435D01*
X14798698Y10094409D01*
X14798759Y10094403D01*
X14798816Y10094408D01*
X14800000Y10094400D01*
X17350000Y10094400D01*
X17382772Y10097613D01*
X17415413Y10100469D01*
X17417203Y10100989D01*
X17419070Y10101172D01*
X17450564Y10110681D01*
X17482059Y10119830D01*
X17483719Y10120691D01*
X17485509Y10121231D01*
X17514519Y10136656D01*
X17543674Y10151769D01*
X17545134Y10152935D01*
X17546786Y10153813D01*
X17572248Y10174579D01*
X17597912Y10195067D01*
X17600514Y10197633D01*
X17600568Y10197677D01*
X17600609Y10197727D01*
X17601447Y10198553D01*
X18297294Y10894400D01*
X22750000Y10894400D01*
X22782772Y10897613D01*
X22815413Y10900469D01*
X22817203Y10900989D01*
X22819070Y10901172D01*
X22850564Y10910681D01*
X22882059Y10919830D01*
X22883719Y10920691D01*
X22885509Y10921231D01*
X22914519Y10936656D01*
X22943674Y10951769D01*
X22945134Y10952935D01*
X22946786Y10953813D01*
X22972248Y10974579D01*
X22997912Y10995067D01*
X23000514Y10997633D01*
X23000568Y10997677D01*
X23000609Y10997727D01*
X23001447Y10998553D01*
X23945097Y11942203D01*
X24043078Y11940151D01*
X24151000Y11959180D01*
X24253170Y11998809D01*
X24345696Y12057529D01*
X24425056Y12133102D01*
X24488225Y12222650D01*
X24498621Y12246000D01*
X24499535Y12246000D01*
X24500589Y12243338D01*
X24559953Y12151223D01*
X24636078Y12072393D01*
X24726065Y12009851D01*
X24826486Y11965978D01*
X24933516Y11942446D01*
X25043078Y11940151D01*
X25151000Y11959180D01*
X25253170Y11998809D01*
X25345696Y12057529D01*
X25425056Y12133102D01*
X25488225Y12222650D01*
X25498621Y12246000D01*
X53644400Y12246000D01*
X53644400Y11750000D01*
X53647613Y11717228D01*
X53650469Y11684587D01*
X53650989Y11682797D01*
X53651172Y11680930D01*
X53660681Y11649436D01*
X53669830Y11617941D01*
X53670691Y11616281D01*
X53671231Y11614491D01*
X53686656Y11585481D01*
X53701769Y11556326D01*
X53702935Y11554866D01*
X53703813Y11553214D01*
X53724579Y11527752D01*
X53745067Y11502088D01*
X53747633Y11499486D01*
X53747677Y11499432D01*
X53747727Y11499391D01*
X53748553Y11498553D01*
X54394400Y10852706D01*
X54394400Y10000000D01*
X54397613Y9967228D01*
X54400469Y9934587D01*
X54400989Y9932797D01*
X54401172Y9930930D01*
X54410681Y9899436D01*
X54419830Y9867941D01*
X54420691Y9866281D01*
X54421231Y9864491D01*
X54436656Y9835481D01*
X54451769Y9806326D01*
X54452935Y9804866D01*
X54453813Y9803214D01*
X54474579Y9777752D01*
X54495067Y9752088D01*
X54497633Y9749486D01*
X54497677Y9749432D01*
X54497727Y9749391D01*
X54498553Y9748553D01*
X55106815Y9140291D01*
X55106815Y8943810D01*
X55032278Y8870818D01*
X54970365Y8780397D01*
X54927195Y8679672D01*
X54904410Y8572480D01*
X54902880Y8462905D01*
X54922663Y8355119D01*
X54963004Y8253228D01*
X55022368Y8161113D01*
X55098493Y8082283D01*
X55188480Y8019741D01*
X55246000Y7994611D01*
X55246000Y7750000D01*
X55264669Y7654422D01*
X55320395Y7570395D01*
X56239190Y6651600D01*
X55850000Y6651600D01*
X55813073Y6644652D01*
X55779157Y6622828D01*
X55756405Y6589528D01*
X55748400Y6550000D01*
X55748400Y5450000D01*
X55755348Y5413073D01*
X55777172Y5379157D01*
X55810472Y5356405D01*
X55850000Y5348400D01*
X56600000Y5348400D01*
X56636927Y5355348D01*
X56670843Y5377172D01*
X56693595Y5410472D01*
X56701600Y5450000D01*
X56701600Y6189190D01*
X56820395Y6070395D01*
X56901180Y6016012D01*
X57000000Y5996000D01*
X57648400Y5996000D01*
X57648400Y5350000D01*
X57655868Y5311769D01*
X57678158Y5278158D01*
X57928158Y5028158D01*
X57960472Y5006405D01*
X58000000Y4998400D01*
X58500000Y4998400D01*
X58538231Y5005868D01*
X58571842Y5028158D01*
X58821842Y5278158D01*
X58843595Y5310472D01*
X58851600Y5350000D01*
X58851600Y6650000D01*
X58844132Y6688231D01*
X58821842Y6721842D01*
X58712427Y6831257D01*
X58765834Y6906966D01*
X58812927Y7012739D01*
X58838579Y7125645D01*
X58840426Y7257892D01*
X58835527Y7282633D01*
X59501447Y7948553D01*
X59522326Y7973971D01*
X59543410Y7999098D01*
X59544309Y8000733D01*
X59545499Y8002182D01*
X59561033Y8031152D01*
X59576845Y8059914D01*
X59577411Y8061698D01*
X59578294Y8063345D01*
X59587908Y8094792D01*
X59597829Y8126067D01*
X59598037Y8127920D01*
X59598585Y8129713D01*
X59601911Y8162458D01*
X59605565Y8195035D01*
X59605591Y8198688D01*
X59605598Y8198759D01*
X59605592Y8198825D01*
X59605600Y8200000D01*
X59605600Y13000000D01*
X59602392Y13032722D01*
X59599532Y13065413D01*
X59599011Y13067208D01*
X59598828Y13069070D01*
X59589328Y13100536D01*
X59580170Y13132058D01*
X59579310Y13133717D01*
X59578769Y13135509D01*
X59563334Y13164537D01*
X59548231Y13193674D01*
X59547065Y13195134D01*
X59546187Y13196786D01*
X59525401Y13222272D01*
X59504933Y13247911D01*
X59502368Y13250513D01*
X59502323Y13250568D01*
X59502272Y13250610D01*
X59501447Y13251447D01*
X59236894Y13516000D01*
X65549520Y13516000D01*
X65766000Y13299520D01*
G36*
X13577752Y12225421D02*
X13552088Y12204933D01*
X13549486Y12202367D01*
X13549432Y12202323D01*
X13549391Y12202273D01*
X13548553Y12201447D01*
X12602706Y11255600D01*
X11100000Y11255600D01*
X11067278Y11252392D01*
X11034587Y11249532D01*
X11032792Y11249011D01*
X11030930Y11248828D01*
X10999464Y11239328D01*
X10967942Y11230170D01*
X10966283Y11229310D01*
X10964491Y11228769D01*
X10935463Y11213334D01*
X10906326Y11198231D01*
X10904866Y11197065D01*
X10903214Y11196187D01*
X10877728Y11175401D01*
X10852089Y11154933D01*
X10849487Y11152368D01*
X10849432Y11152323D01*
X10849390Y11152272D01*
X10848553Y11151447D01*
X10536599Y10839493D01*
X10557076Y10929625D01*
X10558824Y11054793D01*
X10537539Y11162293D01*
X10495779Y11263610D01*
X10435134Y11354887D01*
X10357916Y11432646D01*
X10267065Y11493926D01*
X10166041Y11536393D01*
X10058693Y11558428D01*
X9949109Y11559193D01*
X9841464Y11538659D01*
X9739857Y11497607D01*
X9648159Y11437601D01*
X9569863Y11360928D01*
X9507950Y11270507D01*
X9464780Y11169782D01*
X9441995Y11062590D01*
X9440465Y10953015D01*
X9460248Y10845229D01*
X9500589Y10743338D01*
X9559953Y10651223D01*
X9584769Y10625525D01*
X9569863Y10610928D01*
X9507950Y10520507D01*
X9464780Y10419782D01*
X9441995Y10312590D01*
X9440465Y10203015D01*
X9460248Y10095229D01*
X9500589Y9993338D01*
X9559953Y9901223D01*
X9584769Y9875525D01*
X9569863Y9860928D01*
X9507950Y9770507D01*
X9464780Y9669782D01*
X9441995Y9562590D01*
X9440465Y9453015D01*
X9460248Y9345229D01*
X9500589Y9243338D01*
X9559953Y9151223D01*
X9584769Y9125525D01*
X9569863Y9110928D01*
X9507950Y9020507D01*
X9464780Y8919782D01*
X9441995Y8812590D01*
X9440465Y8703015D01*
X9460248Y8595229D01*
X9500589Y8493338D01*
X9559953Y8401223D01*
X9636078Y8322393D01*
X9726065Y8259851D01*
X9826486Y8215978D01*
X9933516Y8192446D01*
X10043078Y8190151D01*
X10151000Y8209180D01*
X10244400Y8245407D01*
X10244400Y7697294D01*
X10053352Y7506246D01*
X10032455Y7480806D01*
X10011389Y7455701D01*
X10010491Y7454069D01*
X10009300Y7452618D01*
X9993755Y7423626D01*
X9977954Y7394885D01*
X9977388Y7393101D01*
X9976505Y7391454D01*
X9966891Y7360007D01*
X9956970Y7328732D01*
X9956762Y7326879D01*
X9956214Y7325086D01*
X9954596Y7309155D01*
X9949109Y7309193D01*
X9841464Y7288659D01*
X9739857Y7247607D01*
X9648159Y7187601D01*
X9569863Y7110928D01*
X9507950Y7020507D01*
X9464780Y6919782D01*
X9441995Y6812590D01*
X9440465Y6703015D01*
X9460248Y6595229D01*
X9500589Y6493338D01*
X9559953Y6401223D01*
X9636078Y6322393D01*
X9726065Y6259851D01*
X9826486Y6215978D01*
X9933516Y6192446D01*
X10043078Y6190151D01*
X10151000Y6209180D01*
X10253170Y6248809D01*
X10345696Y6307529D01*
X10374210Y6334683D01*
X10386078Y6322393D01*
X10476065Y6259851D01*
X10576486Y6215978D01*
X10683516Y6192446D01*
X10793078Y6190151D01*
X10901000Y6209180D01*
X10966000Y6234392D01*
X10966000Y5851600D01*
X8281478Y5851600D01*
X8282798Y5854564D01*
X8307076Y5961427D01*
X8308824Y6086595D01*
X8287539Y6194095D01*
X8245779Y6295412D01*
X8185134Y6386689D01*
X8107916Y6464448D01*
X8030891Y6516402D01*
X8095696Y6557529D01*
X8175056Y6633102D01*
X8238225Y6722650D01*
X8282798Y6822762D01*
X8307076Y6929625D01*
X8308824Y7054793D01*
X8287539Y7162293D01*
X8245779Y7263610D01*
X8185134Y7354887D01*
X8107916Y7432646D01*
X8017065Y7493926D01*
X7916041Y7536393D01*
X7808693Y7558428D01*
X7699109Y7559193D01*
X7591464Y7538659D01*
X7489857Y7497607D01*
X7398159Y7437601D01*
X7319863Y7360928D01*
X7257950Y7270507D01*
X7214780Y7169782D01*
X7191995Y7062590D01*
X7190465Y6953015D01*
X7210248Y6845229D01*
X7250589Y6743338D01*
X7309953Y6651223D01*
X7386078Y6572393D01*
X7468260Y6515276D01*
X7398159Y6469403D01*
X7319863Y6392730D01*
X7257950Y6302309D01*
X7214780Y6201584D01*
X7191995Y6094392D01*
X7190465Y5984817D01*
X7210248Y5877031D01*
X7220317Y5851600D01*
X3289350Y5851600D01*
X3307076Y5929625D01*
X3308824Y6054793D01*
X3287539Y6162293D01*
X3245779Y6263610D01*
X3185134Y6354887D01*
X3107916Y6432646D01*
X3017065Y6493926D01*
X3004078Y6499385D01*
X3095696Y6557529D01*
X3175056Y6633102D01*
X3238225Y6722650D01*
X3282798Y6822762D01*
X3307076Y6929625D01*
X3308824Y7054793D01*
X3287539Y7162293D01*
X3245779Y7263610D01*
X3185134Y7354887D01*
X3107916Y7432646D01*
X3017065Y7493926D01*
X3012131Y7496000D01*
X4250000Y7496000D01*
X4345578Y7514669D01*
X4429605Y7570395D01*
X4679605Y7820395D01*
X4733988Y7901180D01*
X4754000Y8000000D01*
X4754000Y8236425D01*
X7940465Y8236425D01*
X7960248Y8128639D01*
X8000589Y8026748D01*
X8059953Y7934633D01*
X8136078Y7855803D01*
X8226065Y7793261D01*
X8326486Y7749388D01*
X8433516Y7725856D01*
X8543078Y7723561D01*
X8651000Y7742590D01*
X8753170Y7782219D01*
X8845696Y7840939D01*
X8925056Y7916512D01*
X8988225Y8006060D01*
X9032798Y8106172D01*
X9057076Y8213035D01*
X9058824Y8338203D01*
X9037539Y8445703D01*
X8995779Y8547020D01*
X8935134Y8638297D01*
X8857916Y8716056D01*
X8767065Y8777336D01*
X8666041Y8819803D01*
X8558693Y8841838D01*
X8449109Y8842603D01*
X8341464Y8822069D01*
X8239857Y8781017D01*
X8148159Y8721011D01*
X8069863Y8644338D01*
X8007950Y8553917D01*
X7964780Y8453192D01*
X7941995Y8346000D01*
X7940465Y8236425D01*
X4754000Y8236425D01*
X4754000Y9250000D01*
X4735331Y9345578D01*
X4679605Y9429605D01*
X4429605Y9679605D01*
X4348820Y9733988D01*
X4250000Y9754000D01*
X3605210Y9754000D01*
X3504000Y9855210D01*
X3504000Y10953015D01*
X5940465Y10953015D01*
X5960248Y10845229D01*
X6000589Y10743338D01*
X6059953Y10651223D01*
X6136078Y10572393D01*
X6226065Y10509851D01*
X6326486Y10465978D01*
X6433516Y10442446D01*
X6543078Y10440151D01*
X6651000Y10459180D01*
X6753170Y10498809D01*
X6845696Y10557529D01*
X6925056Y10633102D01*
X6988225Y10722650D01*
X7032798Y10822762D01*
X7057076Y10929625D01*
X7058824Y11054793D01*
X7037539Y11162293D01*
X6995779Y11263610D01*
X6935134Y11354887D01*
X6857916Y11432646D01*
X6767065Y11493926D01*
X6666041Y11536393D01*
X6558693Y11558428D01*
X6449109Y11559193D01*
X6341464Y11538659D01*
X6239857Y11497607D01*
X6148159Y11437601D01*
X6069863Y11360928D01*
X6007950Y11270507D01*
X5964780Y11169782D01*
X5941995Y11062590D01*
X5940465Y10953015D01*
X3504000Y10953015D01*
X3504000Y12144790D01*
X3605210Y12246000D01*
X13602985Y12246000D01*
X13577752Y12225421D01*
X13577752Y12225421D01*
G37*
X13577752Y12225421D02*
X13552088Y12204933D01*
X13549486Y12202367D01*
X13549432Y12202323D01*
X13549391Y12202273D01*
X13548553Y12201447D01*
X12602706Y11255600D01*
X11100000Y11255600D01*
X11067278Y11252392D01*
X11034587Y11249532D01*
X11032792Y11249011D01*
X11030930Y11248828D01*
X10999464Y11239328D01*
X10967942Y11230170D01*
X10966283Y11229310D01*
X10964491Y11228769D01*
X10935463Y11213334D01*
X10906326Y11198231D01*
X10904866Y11197065D01*
X10903214Y11196187D01*
X10877728Y11175401D01*
X10852089Y11154933D01*
X10849487Y11152368D01*
X10849432Y11152323D01*
X10849390Y11152272D01*
X10848553Y11151447D01*
X10536599Y10839493D01*
X10557076Y10929625D01*
X10558824Y11054793D01*
X10537539Y11162293D01*
X10495779Y11263610D01*
X10435134Y11354887D01*
X10357916Y11432646D01*
X10267065Y11493926D01*
X10166041Y11536393D01*
X10058693Y11558428D01*
X9949109Y11559193D01*
X9841464Y11538659D01*
X9739857Y11497607D01*
X9648159Y11437601D01*
X9569863Y11360928D01*
X9507950Y11270507D01*
X9464780Y11169782D01*
X9441995Y11062590D01*
X9440465Y10953015D01*
X9460248Y10845229D01*
X9500589Y10743338D01*
X9559953Y10651223D01*
X9584769Y10625525D01*
X9569863Y10610928D01*
X9507950Y10520507D01*
X9464780Y10419782D01*
X9441995Y10312590D01*
X9440465Y10203015D01*
X9460248Y10095229D01*
X9500589Y9993338D01*
X9559953Y9901223D01*
X9584769Y9875525D01*
X9569863Y9860928D01*
X9507950Y9770507D01*
X9464780Y9669782D01*
X9441995Y9562590D01*
X9440465Y9453015D01*
X9460248Y9345229D01*
X9500589Y9243338D01*
X9559953Y9151223D01*
X9584769Y9125525D01*
X9569863Y9110928D01*
X9507950Y9020507D01*
X9464780Y8919782D01*
X9441995Y8812590D01*
X9440465Y8703015D01*
X9460248Y8595229D01*
X9500589Y8493338D01*
X9559953Y8401223D01*
X9636078Y8322393D01*
X9726065Y8259851D01*
X9826486Y8215978D01*
X9933516Y8192446D01*
X10043078Y8190151D01*
X10151000Y8209180D01*
X10244400Y8245407D01*
X10244400Y7697294D01*
X10053352Y7506246D01*
X10032455Y7480806D01*
X10011389Y7455701D01*
X10010491Y7454069D01*
X10009300Y7452618D01*
X9993755Y7423626D01*
X9977954Y7394885D01*
X9977388Y7393101D01*
X9976505Y7391454D01*
X9966891Y7360007D01*
X9956970Y7328732D01*
X9956762Y7326879D01*
X9956214Y7325086D01*
X9954596Y7309155D01*
X9949109Y7309193D01*
X9841464Y7288659D01*
X9739857Y7247607D01*
X9648159Y7187601D01*
X9569863Y7110928D01*
X9507950Y7020507D01*
X9464780Y6919782D01*
X9441995Y6812590D01*
X9440465Y6703015D01*
X9460248Y6595229D01*
X9500589Y6493338D01*
X9559953Y6401223D01*
X9636078Y6322393D01*
X9726065Y6259851D01*
X9826486Y6215978D01*
X9933516Y6192446D01*
X10043078Y6190151D01*
X10151000Y6209180D01*
X10253170Y6248809D01*
X10345696Y6307529D01*
X10374210Y6334683D01*
X10386078Y6322393D01*
X10476065Y6259851D01*
X10576486Y6215978D01*
X10683516Y6192446D01*
X10793078Y6190151D01*
X10901000Y6209180D01*
X10966000Y6234392D01*
X10966000Y5851600D01*
X8281478Y5851600D01*
X8282798Y5854564D01*
X8307076Y5961427D01*
X8308824Y6086595D01*
X8287539Y6194095D01*
X8245779Y6295412D01*
X8185134Y6386689D01*
X8107916Y6464448D01*
X8030891Y6516402D01*
X8095696Y6557529D01*
X8175056Y6633102D01*
X8238225Y6722650D01*
X8282798Y6822762D01*
X8307076Y6929625D01*
X8308824Y7054793D01*
X8287539Y7162293D01*
X8245779Y7263610D01*
X8185134Y7354887D01*
X8107916Y7432646D01*
X8017065Y7493926D01*
X7916041Y7536393D01*
X7808693Y7558428D01*
X7699109Y7559193D01*
X7591464Y7538659D01*
X7489857Y7497607D01*
X7398159Y7437601D01*
X7319863Y7360928D01*
X7257950Y7270507D01*
X7214780Y7169782D01*
X7191995Y7062590D01*
X7190465Y6953015D01*
X7210248Y6845229D01*
X7250589Y6743338D01*
X7309953Y6651223D01*
X7386078Y6572393D01*
X7468260Y6515276D01*
X7398159Y6469403D01*
X7319863Y6392730D01*
X7257950Y6302309D01*
X7214780Y6201584D01*
X7191995Y6094392D01*
X7190465Y5984817D01*
X7210248Y5877031D01*
X7220317Y5851600D01*
X3289350Y5851600D01*
X3307076Y5929625D01*
X3308824Y6054793D01*
X3287539Y6162293D01*
X3245779Y6263610D01*
X3185134Y6354887D01*
X3107916Y6432646D01*
X3017065Y6493926D01*
X3004078Y6499385D01*
X3095696Y6557529D01*
X3175056Y6633102D01*
X3238225Y6722650D01*
X3282798Y6822762D01*
X3307076Y6929625D01*
X3308824Y7054793D01*
X3287539Y7162293D01*
X3245779Y7263610D01*
X3185134Y7354887D01*
X3107916Y7432646D01*
X3017065Y7493926D01*
X3012131Y7496000D01*
X4250000Y7496000D01*
X4345578Y7514669D01*
X4429605Y7570395D01*
X4679605Y7820395D01*
X4733988Y7901180D01*
X4754000Y8000000D01*
X4754000Y8236425D01*
X7940465Y8236425D01*
X7960248Y8128639D01*
X8000589Y8026748D01*
X8059953Y7934633D01*
X8136078Y7855803D01*
X8226065Y7793261D01*
X8326486Y7749388D01*
X8433516Y7725856D01*
X8543078Y7723561D01*
X8651000Y7742590D01*
X8753170Y7782219D01*
X8845696Y7840939D01*
X8925056Y7916512D01*
X8988225Y8006060D01*
X9032798Y8106172D01*
X9057076Y8213035D01*
X9058824Y8338203D01*
X9037539Y8445703D01*
X8995779Y8547020D01*
X8935134Y8638297D01*
X8857916Y8716056D01*
X8767065Y8777336D01*
X8666041Y8819803D01*
X8558693Y8841838D01*
X8449109Y8842603D01*
X8341464Y8822069D01*
X8239857Y8781017D01*
X8148159Y8721011D01*
X8069863Y8644338D01*
X8007950Y8553917D01*
X7964780Y8453192D01*
X7941995Y8346000D01*
X7940465Y8236425D01*
X4754000Y8236425D01*
X4754000Y9250000D01*
X4735331Y9345578D01*
X4679605Y9429605D01*
X4429605Y9679605D01*
X4348820Y9733988D01*
X4250000Y9754000D01*
X3605210Y9754000D01*
X3504000Y9855210D01*
X3504000Y10953015D01*
X5940465Y10953015D01*
X5960248Y10845229D01*
X6000589Y10743338D01*
X6059953Y10651223D01*
X6136078Y10572393D01*
X6226065Y10509851D01*
X6326486Y10465978D01*
X6433516Y10442446D01*
X6543078Y10440151D01*
X6651000Y10459180D01*
X6753170Y10498809D01*
X6845696Y10557529D01*
X6925056Y10633102D01*
X6988225Y10722650D01*
X7032798Y10822762D01*
X7057076Y10929625D01*
X7058824Y11054793D01*
X7037539Y11162293D01*
X6995779Y11263610D01*
X6935134Y11354887D01*
X6857916Y11432646D01*
X6767065Y11493926D01*
X6666041Y11536393D01*
X6558693Y11558428D01*
X6449109Y11559193D01*
X6341464Y11538659D01*
X6239857Y11497607D01*
X6148159Y11437601D01*
X6069863Y11360928D01*
X6007950Y11270507D01*
X5964780Y11169782D01*
X5941995Y11062590D01*
X5940465Y10953015D01*
X3504000Y10953015D01*
X3504000Y12144790D01*
X3605210Y12246000D01*
X13602985Y12246000D01*
X13577752Y12225421D01*
G36*
X58894400Y12852706D02*
X58894400Y8347294D01*
X58332838Y7785732D01*
X58312012Y7790007D01*
X58254000Y7790412D01*
X58254000Y8209361D01*
X58295514Y8208491D01*
X58409539Y8228597D01*
X58517486Y8270467D01*
X58615245Y8332507D01*
X58699093Y8412354D01*
X58765834Y8506966D01*
X58812927Y8612739D01*
X58838579Y8725645D01*
X58840426Y8857892D01*
X58817936Y8971470D01*
X58773815Y9078517D01*
X58709741Y9174956D01*
X58685478Y9199389D01*
X58699093Y9212354D01*
X58765834Y9306966D01*
X58812927Y9412739D01*
X58838579Y9525645D01*
X58840426Y9657892D01*
X58817936Y9771470D01*
X58773815Y9878517D01*
X58709741Y9974956D01*
X58685478Y9999389D01*
X58699093Y10012354D01*
X58765834Y10106966D01*
X58812927Y10212739D01*
X58838579Y10325645D01*
X58840426Y10457892D01*
X58817936Y10571470D01*
X58773815Y10678517D01*
X58709741Y10774956D01*
X58628156Y10857112D01*
X58532167Y10921858D01*
X58425431Y10966726D01*
X58312012Y10990007D01*
X58196232Y10990815D01*
X58082499Y10969120D01*
X57975146Y10925746D01*
X57878263Y10862348D01*
X57795539Y10781338D01*
X57730125Y10685804D01*
X57684513Y10579383D01*
X57660440Y10466130D01*
X57658824Y10350358D01*
X57679725Y10236476D01*
X57722348Y10128823D01*
X57785068Y10031500D01*
X57815054Y10000449D01*
X57806912Y9992475D01*
X57750000Y10004000D01*
X57355210Y10004000D01*
X57254000Y10105210D01*
X57254000Y10967556D01*
X57340989Y11022761D01*
X57444519Y11121352D01*
X57526929Y11238174D01*
X57585077Y11368779D01*
X57616751Y11508190D01*
X57619031Y11671482D01*
X57591262Y11811724D01*
X57536783Y11943901D01*
X57457668Y12062979D01*
X57356930Y12164422D01*
X57254000Y12233849D01*
X57254000Y13000000D01*
X57235331Y13095578D01*
X57202953Y13144400D01*
X58602706Y13144400D01*
X58894400Y12852706D01*
X58894400Y12852706D01*
G37*
X58894400Y12852706D02*
X58894400Y8347294D01*
X58332838Y7785732D01*
X58312012Y7790007D01*
X58254000Y7790412D01*
X58254000Y8209361D01*
X58295514Y8208491D01*
X58409539Y8228597D01*
X58517486Y8270467D01*
X58615245Y8332507D01*
X58699093Y8412354D01*
X58765834Y8506966D01*
X58812927Y8612739D01*
X58838579Y8725645D01*
X58840426Y8857892D01*
X58817936Y8971470D01*
X58773815Y9078517D01*
X58709741Y9174956D01*
X58685478Y9199389D01*
X58699093Y9212354D01*
X58765834Y9306966D01*
X58812927Y9412739D01*
X58838579Y9525645D01*
X58840426Y9657892D01*
X58817936Y9771470D01*
X58773815Y9878517D01*
X58709741Y9974956D01*
X58685478Y9999389D01*
X58699093Y10012354D01*
X58765834Y10106966D01*
X58812927Y10212739D01*
X58838579Y10325645D01*
X58840426Y10457892D01*
X58817936Y10571470D01*
X58773815Y10678517D01*
X58709741Y10774956D01*
X58628156Y10857112D01*
X58532167Y10921858D01*
X58425431Y10966726D01*
X58312012Y10990007D01*
X58196232Y10990815D01*
X58082499Y10969120D01*
X57975146Y10925746D01*
X57878263Y10862348D01*
X57795539Y10781338D01*
X57730125Y10685804D01*
X57684513Y10579383D01*
X57660440Y10466130D01*
X57658824Y10350358D01*
X57679725Y10236476D01*
X57722348Y10128823D01*
X57785068Y10031500D01*
X57815054Y10000449D01*
X57806912Y9992475D01*
X57750000Y10004000D01*
X57355210Y10004000D01*
X57254000Y10105210D01*
X57254000Y10967556D01*
X57340989Y11022761D01*
X57444519Y11121352D01*
X57526929Y11238174D01*
X57585077Y11368779D01*
X57616751Y11508190D01*
X57619031Y11671482D01*
X57591262Y11811724D01*
X57536783Y11943901D01*
X57457668Y12062979D01*
X57356930Y12164422D01*
X57254000Y12233849D01*
X57254000Y13000000D01*
X57235331Y13095578D01*
X57202953Y13144400D01*
X58602706Y13144400D01*
X58894400Y12852706D01*
G36*
X13710248Y10845229D02*
X13747652Y10750756D01*
X13739857Y10747607D01*
X13648159Y10687601D01*
X13569863Y10610928D01*
X13507950Y10520507D01*
X13464780Y10419782D01*
X13441995Y10312590D01*
X13440465Y10203015D01*
X13460248Y10095229D01*
X13500589Y9993338D01*
X13559953Y9901223D01*
X13584769Y9875525D01*
X13569863Y9860928D01*
X13507950Y9770507D01*
X13464780Y9669782D01*
X13441995Y9562590D01*
X13441928Y9557823D01*
X13341464Y9538659D01*
X13239857Y9497607D01*
X13148159Y9437601D01*
X13069863Y9360928D01*
X13007950Y9270507D01*
X12964780Y9169782D01*
X12941995Y9062590D01*
X12940465Y8953015D01*
X12960248Y8845229D01*
X13000589Y8743338D01*
X13059953Y8651223D01*
X13102234Y8607440D01*
X12991327Y8696611D01*
X12954602Y8720643D01*
X12918253Y8745161D01*
X12912286Y8748334D01*
X12773920Y8820670D01*
X12733219Y8837114D01*
X12692810Y8854101D01*
X12686340Y8856055D01*
X12536559Y8900138D01*
X12493461Y8908359D01*
X12450498Y8917179D01*
X12443774Y8917838D01*
X12443772Y8917838D01*
X12288282Y8931989D01*
X12244414Y8931682D01*
X12200546Y8931989D01*
X12193821Y8931329D01*
X12038544Y8915008D01*
X11995615Y8906196D01*
X11952486Y8897969D01*
X11946017Y8896015D01*
X11796867Y8849846D01*
X11756419Y8832844D01*
X11715752Y8816413D01*
X11709792Y8813244D01*
X11709788Y8813242D01*
X11709785Y8813240D01*
X11572443Y8738979D01*
X11536072Y8714447D01*
X11499370Y8690430D01*
X11494133Y8686159D01*
X11373830Y8586636D01*
X11342909Y8555498D01*
X11311577Y8524816D01*
X11307269Y8519608D01*
X11305600Y8517562D01*
X11305600Y10102706D01*
X11397294Y10194400D01*
X12900000Y10194400D01*
X12932772Y10197613D01*
X12965413Y10200469D01*
X12967203Y10200989D01*
X12969070Y10201172D01*
X13000564Y10210681D01*
X13032059Y10219830D01*
X13033719Y10220691D01*
X13035509Y10221231D01*
X13064519Y10236656D01*
X13093674Y10251769D01*
X13095134Y10252935D01*
X13096786Y10253813D01*
X13122248Y10274579D01*
X13147912Y10295067D01*
X13150514Y10297633D01*
X13150568Y10297677D01*
X13150609Y10297727D01*
X13151447Y10298553D01*
X13708368Y10855474D01*
X13710248Y10845229D01*
X13710248Y10845229D01*
G37*
X13710248Y10845229D02*
X13747652Y10750756D01*
X13739857Y10747607D01*
X13648159Y10687601D01*
X13569863Y10610928D01*
X13507950Y10520507D01*
X13464780Y10419782D01*
X13441995Y10312590D01*
X13440465Y10203015D01*
X13460248Y10095229D01*
X13500589Y9993338D01*
X13559953Y9901223D01*
X13584769Y9875525D01*
X13569863Y9860928D01*
X13507950Y9770507D01*
X13464780Y9669782D01*
X13441995Y9562590D01*
X13441928Y9557823D01*
X13341464Y9538659D01*
X13239857Y9497607D01*
X13148159Y9437601D01*
X13069863Y9360928D01*
X13007950Y9270507D01*
X12964780Y9169782D01*
X12941995Y9062590D01*
X12940465Y8953015D01*
X12960248Y8845229D01*
X13000589Y8743338D01*
X13059953Y8651223D01*
X13102234Y8607440D01*
X12991327Y8696611D01*
X12954602Y8720643D01*
X12918253Y8745161D01*
X12912286Y8748334D01*
X12773920Y8820670D01*
X12733219Y8837114D01*
X12692810Y8854101D01*
X12686340Y8856055D01*
X12536559Y8900138D01*
X12493461Y8908359D01*
X12450498Y8917179D01*
X12443774Y8917838D01*
X12443772Y8917838D01*
X12288282Y8931989D01*
X12244414Y8931682D01*
X12200546Y8931989D01*
X12193821Y8931329D01*
X12038544Y8915008D01*
X11995615Y8906196D01*
X11952486Y8897969D01*
X11946017Y8896015D01*
X11796867Y8849846D01*
X11756419Y8832844D01*
X11715752Y8816413D01*
X11709792Y8813244D01*
X11709788Y8813242D01*
X11709785Y8813240D01*
X11572443Y8738979D01*
X11536072Y8714447D01*
X11499370Y8690430D01*
X11494133Y8686159D01*
X11373830Y8586636D01*
X11342909Y8555498D01*
X11311577Y8524816D01*
X11307269Y8519608D01*
X11305600Y8517562D01*
X11305600Y10102706D01*
X11397294Y10194400D01*
X12900000Y10194400D01*
X12932772Y10197613D01*
X12965413Y10200469D01*
X12967203Y10200989D01*
X12969070Y10201172D01*
X13000564Y10210681D01*
X13032059Y10219830D01*
X13033719Y10220691D01*
X13035509Y10221231D01*
X13064519Y10236656D01*
X13093674Y10251769D01*
X13095134Y10252935D01*
X13096786Y10253813D01*
X13122248Y10274579D01*
X13147912Y10295067D01*
X13150514Y10297633D01*
X13150568Y10297677D01*
X13150609Y10297727D01*
X13151447Y10298553D01*
X13708368Y10855474D01*
X13710248Y10845229D01*
G36*
X17202706Y10805600D02*
X14947294Y10805600D01*
X14807299Y10945595D01*
X14808824Y11054793D01*
X14787539Y11162293D01*
X14753697Y11244400D01*
X17641506Y11244400D01*
X17202706Y10805600D01*
X17202706Y10805600D01*
G37*
X17202706Y10805600D02*
X14947294Y10805600D01*
X14807299Y10945595D01*
X14808824Y11054793D01*
X14787539Y11162293D01*
X14753697Y11244400D01*
X17641506Y11244400D01*
X17202706Y10805600D01*
G36*
X56898400Y12957916D02*
X56898400Y12328990D01*
X56823609Y12329512D01*
X56683177Y12302723D01*
X56550623Y12249168D01*
X56430996Y12170886D01*
X56328852Y12070859D01*
X56248082Y11952898D01*
X56191762Y11821494D01*
X56162038Y11681654D01*
X56160042Y11538704D01*
X56185850Y11398088D01*
X56238478Y11265163D01*
X56315923Y11144992D01*
X56415235Y11042153D01*
X56532630Y10960561D01*
X56663637Y10903325D01*
X56803266Y10872626D01*
X56898400Y10870633D01*
X56898400Y10000000D01*
X56902422Y9971695D01*
X56914171Y9945631D01*
X56928158Y9928158D01*
X57178158Y9678158D01*
X57201017Y9660988D01*
X57227755Y9650865D01*
X57250000Y9648400D01*
X57660193Y9648400D01*
X57658824Y9550358D01*
X57679725Y9436476D01*
X57722348Y9328823D01*
X57785068Y9231500D01*
X57815054Y9200449D01*
X57795539Y9181338D01*
X57730125Y9085804D01*
X57694035Y9001600D01*
X57300000Y9001600D01*
X57261769Y8994132D01*
X57228158Y8971842D01*
X56978158Y8721842D01*
X56956405Y8689528D01*
X56948400Y8650000D01*
X56948400Y7350000D01*
X56955868Y7311769D01*
X56978158Y7278158D01*
X57228158Y7028158D01*
X57260472Y7006405D01*
X57300000Y6998400D01*
X57694800Y6998400D01*
X57722348Y6928823D01*
X57785068Y6831500D01*
X57786418Y6830102D01*
X57678158Y6721842D01*
X57656405Y6689528D01*
X57648400Y6650000D01*
X57648400Y6351600D01*
X57042084Y6351600D01*
X55601600Y7792084D01*
X55601600Y7966987D01*
X55613415Y7969070D01*
X55715585Y8008699D01*
X55808111Y8067419D01*
X55887471Y8142992D01*
X55950640Y8232540D01*
X55995213Y8332652D01*
X56019491Y8439515D01*
X56021239Y8564683D01*
X55999954Y8672183D01*
X55958194Y8773500D01*
X55897549Y8864777D01*
X55820331Y8942536D01*
X55818015Y8944098D01*
X55818015Y9287585D01*
X55814802Y9320357D01*
X55811946Y9352998D01*
X55811426Y9354788D01*
X55811243Y9356655D01*
X55801734Y9388149D01*
X55792585Y9419644D01*
X55791724Y9421304D01*
X55791184Y9423094D01*
X55775759Y9452104D01*
X55760646Y9481259D01*
X55759480Y9482719D01*
X55758602Y9484371D01*
X55737836Y9509833D01*
X55717348Y9535497D01*
X55714782Y9538099D01*
X55714738Y9538153D01*
X55714688Y9538194D01*
X55713862Y9539032D01*
X55105600Y10147294D01*
X55105600Y11000000D01*
X55102387Y11032772D01*
X55101600Y11041767D01*
X55101600Y11563151D01*
X55175056Y11633102D01*
X55238225Y11722650D01*
X55282798Y11822762D01*
X55307076Y11929625D01*
X55308824Y12054793D01*
X55287539Y12162293D01*
X55245779Y12263610D01*
X55185134Y12354887D01*
X55107916Y12432646D01*
X55017065Y12493926D01*
X54916041Y12536393D01*
X54808693Y12558428D01*
X54699109Y12559193D01*
X54602853Y12540831D01*
X54601600Y12542084D01*
X54601600Y12957916D01*
X54788084Y13144400D01*
X56711916Y13144400D01*
X56898400Y12957916D01*
X56898400Y12957916D01*
G37*
X56898400Y12957916D02*
X56898400Y12328990D01*
X56823609Y12329512D01*
X56683177Y12302723D01*
X56550623Y12249168D01*
X56430996Y12170886D01*
X56328852Y12070859D01*
X56248082Y11952898D01*
X56191762Y11821494D01*
X56162038Y11681654D01*
X56160042Y11538704D01*
X56185850Y11398088D01*
X56238478Y11265163D01*
X56315923Y11144992D01*
X56415235Y11042153D01*
X56532630Y10960561D01*
X56663637Y10903325D01*
X56803266Y10872626D01*
X56898400Y10870633D01*
X56898400Y10000000D01*
X56902422Y9971695D01*
X56914171Y9945631D01*
X56928158Y9928158D01*
X57178158Y9678158D01*
X57201017Y9660988D01*
X57227755Y9650865D01*
X57250000Y9648400D01*
X57660193Y9648400D01*
X57658824Y9550358D01*
X57679725Y9436476D01*
X57722348Y9328823D01*
X57785068Y9231500D01*
X57815054Y9200449D01*
X57795539Y9181338D01*
X57730125Y9085804D01*
X57694035Y9001600D01*
X57300000Y9001600D01*
X57261769Y8994132D01*
X57228158Y8971842D01*
X56978158Y8721842D01*
X56956405Y8689528D01*
X56948400Y8650000D01*
X56948400Y7350000D01*
X56955868Y7311769D01*
X56978158Y7278158D01*
X57228158Y7028158D01*
X57260472Y7006405D01*
X57300000Y6998400D01*
X57694800Y6998400D01*
X57722348Y6928823D01*
X57785068Y6831500D01*
X57786418Y6830102D01*
X57678158Y6721842D01*
X57656405Y6689528D01*
X57648400Y6650000D01*
X57648400Y6351600D01*
X57042084Y6351600D01*
X55601600Y7792084D01*
X55601600Y7966987D01*
X55613415Y7969070D01*
X55715585Y8008699D01*
X55808111Y8067419D01*
X55887471Y8142992D01*
X55950640Y8232540D01*
X55995213Y8332652D01*
X56019491Y8439515D01*
X56021239Y8564683D01*
X55999954Y8672183D01*
X55958194Y8773500D01*
X55897549Y8864777D01*
X55820331Y8942536D01*
X55818015Y8944098D01*
X55818015Y9287585D01*
X55814802Y9320357D01*
X55811946Y9352998D01*
X55811426Y9354788D01*
X55811243Y9356655D01*
X55801734Y9388149D01*
X55792585Y9419644D01*
X55791724Y9421304D01*
X55791184Y9423094D01*
X55775759Y9452104D01*
X55760646Y9481259D01*
X55759480Y9482719D01*
X55758602Y9484371D01*
X55737836Y9509833D01*
X55717348Y9535497D01*
X55714782Y9538099D01*
X55714738Y9538153D01*
X55714688Y9538194D01*
X55713862Y9539032D01*
X55105600Y10147294D01*
X55105600Y11000000D01*
X55102387Y11032772D01*
X55101600Y11041767D01*
X55101600Y11563151D01*
X55175056Y11633102D01*
X55238225Y11722650D01*
X55282798Y11822762D01*
X55307076Y11929625D01*
X55308824Y12054793D01*
X55287539Y12162293D01*
X55245779Y12263610D01*
X55185134Y12354887D01*
X55107916Y12432646D01*
X55017065Y12493926D01*
X54916041Y12536393D01*
X54808693Y12558428D01*
X54699109Y12559193D01*
X54602853Y12540831D01*
X54601600Y12542084D01*
X54601600Y12957916D01*
X54788084Y13144400D01*
X56711916Y13144400D01*
X56898400Y12957916D01*
G36*
X54106316Y13500000D02*
X53928158Y13321842D01*
X53910988Y13298983D01*
X53900865Y13272245D01*
X53898400Y13250000D01*
X53898400Y12601600D01*
X25549556Y12601600D01*
X25537539Y12662293D01*
X25495779Y12763610D01*
X25435134Y12854887D01*
X25357916Y12932646D01*
X25267065Y12993926D01*
X25166041Y13036393D01*
X25058693Y13058428D01*
X24949109Y13059193D01*
X24841464Y13038659D01*
X24739857Y12997607D01*
X24648159Y12937601D01*
X24569863Y12860928D01*
X24507950Y12770507D01*
X24500297Y12752650D01*
X24495779Y12763610D01*
X24435134Y12854887D01*
X24357916Y12932646D01*
X24267065Y12993926D01*
X24166041Y13036393D01*
X24058693Y13058428D01*
X23949109Y13059193D01*
X23841464Y13038659D01*
X23739857Y12997607D01*
X23648159Y12937601D01*
X23569863Y12860928D01*
X23507950Y12770507D01*
X23500297Y12752650D01*
X23495779Y12763610D01*
X23435134Y12854887D01*
X23357916Y12932646D01*
X23267065Y12993926D01*
X23166041Y13036393D01*
X23058693Y13058428D01*
X22949109Y13059193D01*
X22841464Y13038659D01*
X22739857Y12997607D01*
X22648159Y12937601D01*
X22569863Y12860928D01*
X22566018Y12855313D01*
X22499878Y12848828D01*
X22433439Y12828769D01*
X22372162Y12796187D01*
X22318380Y12752323D01*
X22274142Y12698849D01*
X22241133Y12637801D01*
X22229927Y12601600D01*
X20799556Y12601600D01*
X20787539Y12662293D01*
X20745779Y12763610D01*
X20685134Y12854887D01*
X20607916Y12932646D01*
X20517065Y12993926D01*
X20416041Y13036393D01*
X20308693Y13058428D01*
X20199109Y13059193D01*
X20091464Y13038659D01*
X19989857Y12997607D01*
X19898159Y12937601D01*
X19819863Y12860928D01*
X19757950Y12770507D01*
X19714780Y12669782D01*
X19700287Y12601600D01*
X18299556Y12601600D01*
X18287539Y12662293D01*
X18245779Y12763610D01*
X18185134Y12854887D01*
X18107916Y12932646D01*
X18017065Y12993926D01*
X17916041Y13036393D01*
X17808693Y13058428D01*
X17699109Y13059193D01*
X17591464Y13038659D01*
X17489857Y12997607D01*
X17398159Y12937601D01*
X17319863Y12860928D01*
X17257950Y12770507D01*
X17214780Y12669782D01*
X17200287Y12601600D01*
X3500000Y12601600D01*
X3471695Y12597578D01*
X3445631Y12585829D01*
X3428158Y12571842D01*
X3178158Y12321842D01*
X3160988Y12298983D01*
X3150865Y12272245D01*
X3148400Y12250000D01*
X3148400Y9750000D01*
X3152422Y9721695D01*
X3164171Y9695631D01*
X3178158Y9678158D01*
X3428158Y9428158D01*
X3451017Y9410988D01*
X3477755Y9400865D01*
X3500000Y9398400D01*
X4207916Y9398400D01*
X4398400Y9207916D01*
X4398400Y8042084D01*
X4207916Y7851600D01*
X2292084Y7851600D01*
X2101600Y8042084D01*
X2101600Y13457916D01*
X2159684Y13516000D01*
X54090316Y13516000D01*
X54106316Y13500000D01*
X54106316Y13500000D01*
G37*
X54106316Y13500000D02*
X53928158Y13321842D01*
X53910988Y13298983D01*
X53900865Y13272245D01*
X53898400Y13250000D01*
X53898400Y12601600D01*
X25549556Y12601600D01*
X25537539Y12662293D01*
X25495779Y12763610D01*
X25435134Y12854887D01*
X25357916Y12932646D01*
X25267065Y12993926D01*
X25166041Y13036393D01*
X25058693Y13058428D01*
X24949109Y13059193D01*
X24841464Y13038659D01*
X24739857Y12997607D01*
X24648159Y12937601D01*
X24569863Y12860928D01*
X24507950Y12770507D01*
X24500297Y12752650D01*
X24495779Y12763610D01*
X24435134Y12854887D01*
X24357916Y12932646D01*
X24267065Y12993926D01*
X24166041Y13036393D01*
X24058693Y13058428D01*
X23949109Y13059193D01*
X23841464Y13038659D01*
X23739857Y12997607D01*
X23648159Y12937601D01*
X23569863Y12860928D01*
X23507950Y12770507D01*
X23500297Y12752650D01*
X23495779Y12763610D01*
X23435134Y12854887D01*
X23357916Y12932646D01*
X23267065Y12993926D01*
X23166041Y13036393D01*
X23058693Y13058428D01*
X22949109Y13059193D01*
X22841464Y13038659D01*
X22739857Y12997607D01*
X22648159Y12937601D01*
X22569863Y12860928D01*
X22566018Y12855313D01*
X22499878Y12848828D01*
X22433439Y12828769D01*
X22372162Y12796187D01*
X22318380Y12752323D01*
X22274142Y12698849D01*
X22241133Y12637801D01*
X22229927Y12601600D01*
X20799556Y12601600D01*
X20787539Y12662293D01*
X20745779Y12763610D01*
X20685134Y12854887D01*
X20607916Y12932646D01*
X20517065Y12993926D01*
X20416041Y13036393D01*
X20308693Y13058428D01*
X20199109Y13059193D01*
X20091464Y13038659D01*
X19989857Y12997607D01*
X19898159Y12937601D01*
X19819863Y12860928D01*
X19757950Y12770507D01*
X19714780Y12669782D01*
X19700287Y12601600D01*
X18299556Y12601600D01*
X18287539Y12662293D01*
X18245779Y12763610D01*
X18185134Y12854887D01*
X18107916Y12932646D01*
X18017065Y12993926D01*
X17916041Y13036393D01*
X17808693Y13058428D01*
X17699109Y13059193D01*
X17591464Y13038659D01*
X17489857Y12997607D01*
X17398159Y12937601D01*
X17319863Y12860928D01*
X17257950Y12770507D01*
X17214780Y12669782D01*
X17200287Y12601600D01*
X3500000Y12601600D01*
X3471695Y12597578D01*
X3445631Y12585829D01*
X3428158Y12571842D01*
X3178158Y12321842D01*
X3160988Y12298983D01*
X3150865Y12272245D01*
X3148400Y12250000D01*
X3148400Y9750000D01*
X3152422Y9721695D01*
X3164171Y9695631D01*
X3178158Y9678158D01*
X3428158Y9428158D01*
X3451017Y9410988D01*
X3477755Y9400865D01*
X3500000Y9398400D01*
X4207916Y9398400D01*
X4398400Y9207916D01*
X4398400Y8042084D01*
X4207916Y7851600D01*
X2292084Y7851600D01*
X2101600Y8042084D01*
X2101600Y13457916D01*
X2159684Y13516000D01*
X54090316Y13516000D01*
X54106316Y13500000D01*
M02*
