G04 #@! TF.FileFunction,Soldermask,Bot*
%FSLAX46Y46*%
G04 Gerber Fmt 4.6, Leading zero omitted, Abs format (unit mm)*
G04 Created by KiCad (PCBNEW 4.0.7) date Wednesday, December 20, 2017 'AMt' 12:53:12 AM*
%MOMM*%
%LPD*%
G01*
G04 APERTURE LIST*
%ADD10C,0.100000*%
G04 APERTURE END LIST*
D10*
G36*
X1478627Y2412966D02*
X1604152Y2387200D01*
X1722278Y2337545D01*
X1828512Y2265889D01*
X1918799Y2174969D01*
X1989711Y2068238D01*
X2038540Y1949769D01*
X2063377Y1824333D01*
X2063377Y1824327D01*
X2063428Y1824069D01*
X2061385Y1677711D01*
X2061326Y1677452D01*
X2061326Y1677446D01*
X2032998Y1552759D01*
X1980878Y1435695D01*
X1907015Y1330988D01*
X1814223Y1242623D01*
X1706028Y1173960D01*
X1586561Y1127622D01*
X1460374Y1105372D01*
X1332258Y1108056D01*
X1207110Y1135572D01*
X1089688Y1186872D01*
X984470Y1260000D01*
X895457Y1352176D01*
X826040Y1459889D01*
X778870Y1579028D01*
X755739Y1705059D01*
X757528Y1833184D01*
X784170Y1958525D01*
X834651Y2076303D01*
X907044Y2182032D01*
X998596Y2271686D01*
X1105813Y2341847D01*
X1224627Y2389851D01*
X1350494Y2413862D01*
X1478627Y2412966D01*
X1478627Y2412966D01*
G37*
G36*
X7428627Y2772966D02*
X7554152Y2747200D01*
X7672278Y2697545D01*
X7778512Y2625889D01*
X7868799Y2534969D01*
X7939711Y2428238D01*
X7988540Y2309769D01*
X8013377Y2184333D01*
X8013377Y2184327D01*
X8013428Y2184069D01*
X8011385Y2037711D01*
X8011326Y2037452D01*
X8011326Y2037446D01*
X7982998Y1912759D01*
X7930878Y1795695D01*
X7857015Y1690988D01*
X7764223Y1602623D01*
X7656028Y1533960D01*
X7536561Y1487622D01*
X7410374Y1465372D01*
X7282258Y1468056D01*
X7157110Y1495572D01*
X7039688Y1546872D01*
X6934470Y1620000D01*
X6845457Y1712176D01*
X6776040Y1819889D01*
X6728870Y1939028D01*
X6705739Y2065059D01*
X6707528Y2193184D01*
X6734170Y2318525D01*
X6784651Y2436303D01*
X6857044Y2542032D01*
X6948596Y2631686D01*
X7055813Y2701847D01*
X7174627Y2749851D01*
X7300494Y2773862D01*
X7428627Y2772966D01*
X7428627Y2772966D01*
G37*
G36*
X8665247Y3175651D02*
X8766296Y3154909D01*
X8861390Y3114935D01*
X8946909Y3057252D01*
X9019594Y2984057D01*
X9076679Y2898137D01*
X9115987Y2802768D01*
X9135971Y2701841D01*
X9135971Y2701835D01*
X9136022Y2701577D01*
X9134377Y2583756D01*
X9134319Y2583501D01*
X9134319Y2583491D01*
X9111525Y2483165D01*
X9069569Y2388931D01*
X9010106Y2304637D01*
X8935406Y2233500D01*
X8848308Y2178226D01*
X8752137Y2140924D01*
X8650552Y2123012D01*
X8547416Y2125172D01*
X8446671Y2147322D01*
X8352140Y2188622D01*
X8267440Y2247490D01*
X8195783Y2321694D01*
X8139900Y2408405D01*
X8101928Y2504314D01*
X8083307Y2605771D01*
X8084747Y2708914D01*
X8106195Y2809817D01*
X8146833Y2904631D01*
X8205111Y2989744D01*
X8278812Y3061918D01*
X8365122Y3118397D01*
X8460773Y3157043D01*
X8562096Y3176372D01*
X8665247Y3175651D01*
X8665247Y3175651D01*
G37*
G36*
X7990688Y9437144D02*
X8065112Y9421867D01*
X8135151Y9392425D01*
X8198134Y9349943D01*
X8251668Y9296033D01*
X8293710Y9232755D01*
X8322661Y9162514D01*
X8337366Y9088251D01*
X8337366Y9088239D01*
X8337416Y9087986D01*
X8336204Y9001211D01*
X8336147Y9000961D01*
X8336147Y9000945D01*
X8319376Y8927129D01*
X8288473Y8857719D01*
X8244680Y8795638D01*
X8189663Y8743246D01*
X8125513Y8702535D01*
X8054687Y8675064D01*
X7979867Y8661871D01*
X7903908Y8663462D01*
X7829705Y8679777D01*
X7760089Y8710191D01*
X7697702Y8753551D01*
X7696408Y8754891D01*
X7687861Y8761547D01*
X7677797Y8765559D01*
X7667015Y8766608D01*
X7656367Y8764612D01*
X7646696Y8759729D01*
X7638769Y8752344D01*
X7633213Y8743044D01*
X7630468Y8732564D01*
X7630947Y8720667D01*
X7637366Y8688250D01*
X7637366Y8688239D01*
X7637416Y8687986D01*
X7636204Y8601211D01*
X7636147Y8600961D01*
X7636147Y8600945D01*
X7619376Y8527129D01*
X7588473Y8457719D01*
X7544680Y8395638D01*
X7489663Y8343246D01*
X7425514Y8302536D01*
X7383132Y8286097D01*
X7373683Y8280797D01*
X7366085Y8273075D01*
X7360939Y8263542D01*
X7358653Y8252952D01*
X7359408Y8242145D01*
X7363143Y8231975D01*
X7369564Y8223249D01*
X7382136Y8214711D01*
X7435150Y8192426D01*
X7498134Y8149943D01*
X7551668Y8096033D01*
X7593710Y8032755D01*
X7622661Y7962514D01*
X7637366Y7888251D01*
X7637366Y7888239D01*
X7637416Y7887986D01*
X7636204Y7801211D01*
X7636147Y7800961D01*
X7636147Y7800946D01*
X7631217Y7779249D01*
X7630327Y7768452D01*
X7632480Y7757834D01*
X7637506Y7748237D01*
X7645007Y7740420D01*
X7654388Y7735002D01*
X7664908Y7732412D01*
X7675732Y7732856D01*
X7686005Y7736297D01*
X7695697Y7743212D01*
X7706079Y7753379D01*
X7769646Y7794977D01*
X7840093Y7823439D01*
X7914719Y7837675D01*
X7990688Y7837144D01*
X8065112Y7821867D01*
X8135151Y7792425D01*
X8198134Y7749943D01*
X8251668Y7696033D01*
X8293710Y7632755D01*
X8322661Y7562514D01*
X8337366Y7488251D01*
X8337366Y7488239D01*
X8337416Y7487986D01*
X8336204Y7401211D01*
X8336147Y7400961D01*
X8336147Y7400945D01*
X8319376Y7327129D01*
X8288473Y7257719D01*
X8244680Y7195638D01*
X8189663Y7143246D01*
X8125514Y7102536D01*
X8083132Y7086097D01*
X8073683Y7080797D01*
X8066085Y7073075D01*
X8060939Y7063542D01*
X8058653Y7052952D01*
X8059408Y7042145D01*
X8063143Y7031975D01*
X8069564Y7023249D01*
X8082136Y7014711D01*
X8135150Y6992426D01*
X8198134Y6949943D01*
X8251668Y6896033D01*
X8293710Y6832755D01*
X8322661Y6762514D01*
X8337366Y6688251D01*
X8337366Y6688239D01*
X8337416Y6687986D01*
X8336204Y6601211D01*
X8336147Y6600961D01*
X8336147Y6600945D01*
X8319376Y6527129D01*
X8288473Y6457719D01*
X8244680Y6395638D01*
X8189663Y6343246D01*
X8125514Y6302536D01*
X8083132Y6286097D01*
X8073683Y6280797D01*
X8066085Y6273075D01*
X8060939Y6263542D01*
X8058653Y6252952D01*
X8059408Y6242145D01*
X8063143Y6231975D01*
X8069564Y6223249D01*
X8082136Y6214711D01*
X8135150Y6192426D01*
X8198134Y6149943D01*
X8251668Y6096033D01*
X8293710Y6032755D01*
X8322661Y5962514D01*
X8337366Y5888251D01*
X8337366Y5888239D01*
X8337416Y5887986D01*
X8336204Y5801211D01*
X8336147Y5800961D01*
X8336147Y5800945D01*
X8319376Y5727129D01*
X8288473Y5657719D01*
X8244680Y5595638D01*
X8189663Y5543246D01*
X8125514Y5502536D01*
X8083132Y5486097D01*
X8073683Y5480797D01*
X8066085Y5473075D01*
X8060939Y5463542D01*
X8058653Y5452952D01*
X8059408Y5442145D01*
X8063143Y5431975D01*
X8069564Y5423249D01*
X8082136Y5414711D01*
X8135150Y5392426D01*
X8198134Y5349943D01*
X8251668Y5296033D01*
X8293710Y5232755D01*
X8322661Y5162514D01*
X8337366Y5088251D01*
X8337366Y5088239D01*
X8337416Y5087986D01*
X8336204Y5001211D01*
X8336147Y5000961D01*
X8336147Y5000945D01*
X8319376Y4927129D01*
X8288473Y4857719D01*
X8244680Y4795638D01*
X8189663Y4743246D01*
X8125513Y4702535D01*
X8054687Y4675064D01*
X7979867Y4661871D01*
X7903908Y4663462D01*
X7829705Y4679777D01*
X7760089Y4710191D01*
X7697702Y4753551D01*
X7696408Y4754891D01*
X7687861Y4761547D01*
X7677797Y4765559D01*
X7667015Y4766608D01*
X7656367Y4764612D01*
X7646696Y4759729D01*
X7638769Y4752344D01*
X7633213Y4743044D01*
X7630468Y4732564D01*
X7630947Y4720667D01*
X7637366Y4688250D01*
X7637366Y4688239D01*
X7637416Y4687986D01*
X7636204Y4601211D01*
X7636147Y4600961D01*
X7636147Y4600945D01*
X7619376Y4527129D01*
X7588473Y4457719D01*
X7544680Y4395638D01*
X7489663Y4343246D01*
X7425514Y4302536D01*
X7383132Y4286097D01*
X7373683Y4280797D01*
X7366085Y4273075D01*
X7360939Y4263542D01*
X7358653Y4252952D01*
X7359408Y4242145D01*
X7363143Y4231975D01*
X7369564Y4223249D01*
X7382136Y4214711D01*
X7435150Y4192426D01*
X7498134Y4149943D01*
X7551668Y4096033D01*
X7593710Y4032755D01*
X7622661Y3962514D01*
X7637366Y3888251D01*
X7637366Y3888239D01*
X7637416Y3887986D01*
X7636204Y3801211D01*
X7636147Y3800961D01*
X7636147Y3800946D01*
X7631217Y3779249D01*
X7630327Y3768452D01*
X7632480Y3757834D01*
X7637506Y3748237D01*
X7645007Y3740420D01*
X7654388Y3735002D01*
X7664908Y3732412D01*
X7675732Y3732856D01*
X7686005Y3736297D01*
X7695697Y3743212D01*
X7706079Y3753379D01*
X7769646Y3794977D01*
X7840093Y3823439D01*
X7914719Y3837675D01*
X7990688Y3837144D01*
X8065112Y3821867D01*
X8135151Y3792425D01*
X8198134Y3749943D01*
X8251668Y3696033D01*
X8293710Y3632755D01*
X8322661Y3562514D01*
X8337366Y3488251D01*
X8337366Y3488239D01*
X8337416Y3487986D01*
X8336204Y3401211D01*
X8336147Y3400961D01*
X8336147Y3400945D01*
X8319376Y3327129D01*
X8288473Y3257719D01*
X8244680Y3195638D01*
X8189663Y3143246D01*
X8125513Y3102535D01*
X8054687Y3075064D01*
X7979867Y3061871D01*
X7903908Y3063462D01*
X7829705Y3079777D01*
X7760089Y3110191D01*
X7697702Y3153551D01*
X7644928Y3208201D01*
X7603769Y3272065D01*
X7575804Y3342697D01*
X7562089Y3417430D01*
X7563149Y3493390D01*
X7569227Y3521984D01*
X7569966Y3532792D01*
X7567664Y3543378D01*
X7562505Y3552904D01*
X7554896Y3560616D01*
X7545439Y3565902D01*
X7534885Y3568345D01*
X7524067Y3567750D01*
X7513844Y3564166D01*
X7505018Y3557869D01*
X7489663Y3543246D01*
X7425513Y3502535D01*
X7354687Y3475064D01*
X7279867Y3461871D01*
X7203908Y3463462D01*
X7129705Y3479777D01*
X7060089Y3510191D01*
X6997702Y3553551D01*
X6944928Y3608201D01*
X6903769Y3672065D01*
X6875804Y3742697D01*
X6862089Y3817430D01*
X6863149Y3893389D01*
X6878946Y3967706D01*
X6908876Y4037537D01*
X6951798Y4100223D01*
X7006079Y4153379D01*
X7069646Y4194977D01*
X7116773Y4214017D01*
X7126147Y4219448D01*
X7133637Y4227276D01*
X7138649Y4236880D01*
X7140787Y4247501D01*
X7139882Y4258297D01*
X7136005Y4268413D01*
X7129463Y4277048D01*
X7117764Y4284994D01*
X7060089Y4310191D01*
X6997702Y4353551D01*
X6944928Y4408201D01*
X6903769Y4472065D01*
X6875804Y4542697D01*
X6862089Y4617430D01*
X6863149Y4693389D01*
X6878946Y4767706D01*
X6908876Y4837537D01*
X6951798Y4900223D01*
X7006079Y4953379D01*
X7069646Y4994977D01*
X7116773Y5014017D01*
X7126147Y5019448D01*
X7133637Y5027276D01*
X7138649Y5036880D01*
X7140787Y5047501D01*
X7140331Y5052952D01*
X7358653Y5052952D01*
X7359408Y5042145D01*
X7363143Y5031975D01*
X7369564Y5023249D01*
X7382136Y5014711D01*
X7435150Y4992426D01*
X7498134Y4949943D01*
X7504144Y4943891D01*
X7512783Y4937354D01*
X7522902Y4933483D01*
X7533698Y4932584D01*
X7544317Y4934728D01*
X7553919Y4939746D01*
X7561742Y4947240D01*
X7567168Y4956617D01*
X7569767Y4967135D01*
X7569331Y4977969D01*
X7562089Y5017430D01*
X7563149Y5093390D01*
X7569227Y5121984D01*
X7569966Y5132792D01*
X7567664Y5143378D01*
X7562505Y5152904D01*
X7554896Y5160616D01*
X7545439Y5165902D01*
X7534885Y5168345D01*
X7524067Y5167750D01*
X7513844Y5164166D01*
X7505018Y5157869D01*
X7489663Y5143246D01*
X7425514Y5102536D01*
X7383132Y5086097D01*
X7373683Y5080797D01*
X7366085Y5073075D01*
X7360939Y5063542D01*
X7358653Y5052952D01*
X7140331Y5052952D01*
X7139882Y5058297D01*
X7136005Y5068413D01*
X7129463Y5077048D01*
X7117764Y5084994D01*
X7060089Y5110191D01*
X6997702Y5153551D01*
X6944928Y5208201D01*
X6903769Y5272065D01*
X6875804Y5342697D01*
X6871078Y5368452D01*
X7630327Y5368452D01*
X7632480Y5357834D01*
X7637506Y5348237D01*
X7645007Y5340420D01*
X7654388Y5335002D01*
X7664908Y5332412D01*
X7675732Y5332856D01*
X7686005Y5336297D01*
X7695697Y5343212D01*
X7706079Y5353379D01*
X7769646Y5394977D01*
X7816773Y5414017D01*
X7826147Y5419448D01*
X7833637Y5427276D01*
X7838649Y5436880D01*
X7840787Y5447501D01*
X7839882Y5458297D01*
X7836005Y5468413D01*
X7829463Y5477048D01*
X7817764Y5484994D01*
X7760089Y5510191D01*
X7697702Y5553551D01*
X7696408Y5554891D01*
X7687861Y5561547D01*
X7677797Y5565559D01*
X7667015Y5566608D01*
X7656367Y5564612D01*
X7646696Y5559729D01*
X7638769Y5552344D01*
X7633213Y5543044D01*
X7630468Y5532564D01*
X7630947Y5520667D01*
X7637366Y5488250D01*
X7637366Y5488239D01*
X7637416Y5487986D01*
X7636204Y5401211D01*
X7636147Y5400961D01*
X7636147Y5400946D01*
X7631217Y5379249D01*
X7630327Y5368452D01*
X6871078Y5368452D01*
X6862089Y5417430D01*
X6863149Y5493389D01*
X6878946Y5567706D01*
X6908876Y5637537D01*
X6951798Y5700223D01*
X7006079Y5753379D01*
X7069646Y5794977D01*
X7140093Y5823439D01*
X7214719Y5837675D01*
X7290688Y5837144D01*
X7365112Y5821867D01*
X7435151Y5792425D01*
X7498134Y5749943D01*
X7504144Y5743891D01*
X7512783Y5737354D01*
X7522902Y5733483D01*
X7533698Y5732584D01*
X7544317Y5734728D01*
X7553919Y5739746D01*
X7561742Y5747240D01*
X7567168Y5756617D01*
X7569767Y5767135D01*
X7569331Y5777969D01*
X7562089Y5817430D01*
X7563149Y5893389D01*
X7578946Y5967706D01*
X7608876Y6037537D01*
X7651798Y6100223D01*
X7706079Y6153379D01*
X7769646Y6194977D01*
X7816773Y6214017D01*
X7826147Y6219448D01*
X7833637Y6227276D01*
X7838649Y6236880D01*
X7840787Y6247501D01*
X7839882Y6258297D01*
X7836005Y6268413D01*
X7829463Y6277048D01*
X7817764Y6284994D01*
X7760089Y6310191D01*
X7697702Y6353551D01*
X7644928Y6408201D01*
X7603769Y6472065D01*
X7575804Y6542697D01*
X7562089Y6617430D01*
X7563149Y6693390D01*
X7569227Y6721984D01*
X7569966Y6732792D01*
X7567664Y6743378D01*
X7562505Y6752904D01*
X7554896Y6760616D01*
X7545439Y6765902D01*
X7534885Y6768345D01*
X7524067Y6767750D01*
X7513844Y6764166D01*
X7505018Y6757869D01*
X7489663Y6743246D01*
X7425513Y6702535D01*
X7354687Y6675064D01*
X7279867Y6661871D01*
X7203908Y6663462D01*
X7129705Y6679777D01*
X7060089Y6710191D01*
X6997702Y6753551D01*
X6944928Y6808201D01*
X6903769Y6872065D01*
X6875804Y6942697D01*
X6871078Y6968452D01*
X7630327Y6968452D01*
X7632480Y6957834D01*
X7637506Y6948237D01*
X7645007Y6940420D01*
X7654388Y6935002D01*
X7664908Y6932412D01*
X7675732Y6932856D01*
X7686005Y6936297D01*
X7695697Y6943212D01*
X7706079Y6953379D01*
X7769646Y6994977D01*
X7816773Y7014017D01*
X7826147Y7019448D01*
X7833637Y7027276D01*
X7838649Y7036880D01*
X7840787Y7047501D01*
X7839882Y7058297D01*
X7836005Y7068413D01*
X7829463Y7077048D01*
X7817764Y7084994D01*
X7760089Y7110191D01*
X7697702Y7153551D01*
X7696408Y7154891D01*
X7687861Y7161547D01*
X7677797Y7165559D01*
X7667015Y7166608D01*
X7656367Y7164612D01*
X7646696Y7159729D01*
X7638769Y7152344D01*
X7633213Y7143044D01*
X7630468Y7132564D01*
X7630947Y7120667D01*
X7637366Y7088250D01*
X7637366Y7088239D01*
X7637416Y7087986D01*
X7636204Y7001211D01*
X7636147Y7000961D01*
X7636147Y7000946D01*
X7631217Y6979249D01*
X7630327Y6968452D01*
X6871078Y6968452D01*
X6862089Y7017430D01*
X6863149Y7093389D01*
X6878946Y7167706D01*
X6908876Y7237537D01*
X6951798Y7300223D01*
X7006079Y7353379D01*
X7069646Y7394977D01*
X7116773Y7414017D01*
X7126147Y7419448D01*
X7133637Y7427276D01*
X7138649Y7436880D01*
X7140787Y7447501D01*
X7140331Y7452952D01*
X7358653Y7452952D01*
X7359408Y7442145D01*
X7363143Y7431975D01*
X7369564Y7423249D01*
X7382136Y7414711D01*
X7435150Y7392426D01*
X7498134Y7349943D01*
X7504144Y7343891D01*
X7512783Y7337354D01*
X7522902Y7333483D01*
X7533698Y7332584D01*
X7544317Y7334728D01*
X7553919Y7339746D01*
X7561742Y7347240D01*
X7567168Y7356617D01*
X7569767Y7367135D01*
X7569331Y7377969D01*
X7562089Y7417430D01*
X7563149Y7493390D01*
X7569227Y7521984D01*
X7569966Y7532792D01*
X7567664Y7543378D01*
X7562505Y7552904D01*
X7554896Y7560616D01*
X7545439Y7565902D01*
X7534885Y7568345D01*
X7524067Y7567750D01*
X7513844Y7564166D01*
X7505018Y7557869D01*
X7489663Y7543246D01*
X7425514Y7502536D01*
X7383132Y7486097D01*
X7373683Y7480797D01*
X7366085Y7473075D01*
X7360939Y7463542D01*
X7358653Y7452952D01*
X7140331Y7452952D01*
X7139882Y7458297D01*
X7136005Y7468413D01*
X7129463Y7477048D01*
X7117764Y7484994D01*
X7060089Y7510191D01*
X6997702Y7553551D01*
X6944928Y7608201D01*
X6903769Y7672065D01*
X6875804Y7742697D01*
X6862089Y7817430D01*
X6863149Y7893389D01*
X6878946Y7967706D01*
X6908876Y8037537D01*
X6951798Y8100223D01*
X7006079Y8153379D01*
X7069646Y8194977D01*
X7116773Y8214017D01*
X7126147Y8219448D01*
X7133637Y8227276D01*
X7138649Y8236880D01*
X7140787Y8247501D01*
X7139882Y8258297D01*
X7136005Y8268413D01*
X7129463Y8277048D01*
X7117764Y8284994D01*
X7060089Y8310191D01*
X6997702Y8353551D01*
X6944928Y8408201D01*
X6903769Y8472065D01*
X6875804Y8542697D01*
X6862089Y8617430D01*
X6863149Y8693389D01*
X6878946Y8767706D01*
X6908876Y8837537D01*
X6951798Y8900223D01*
X7006079Y8953379D01*
X7069646Y8994977D01*
X7140093Y9023439D01*
X7214719Y9037675D01*
X7290688Y9037144D01*
X7365112Y9021867D01*
X7435151Y8992425D01*
X7498134Y8949943D01*
X7504144Y8943891D01*
X7512783Y8937354D01*
X7522902Y8933483D01*
X7533698Y8932584D01*
X7544317Y8934728D01*
X7553919Y8939746D01*
X7561742Y8947240D01*
X7567168Y8956617D01*
X7569767Y8967135D01*
X7569331Y8977969D01*
X7562089Y9017430D01*
X7563149Y9093389D01*
X7578946Y9167706D01*
X7608876Y9237537D01*
X7651798Y9300223D01*
X7706079Y9353379D01*
X7769646Y9394977D01*
X7840093Y9423439D01*
X7914719Y9437675D01*
X7990688Y9437144D01*
X7990688Y9437144D01*
G37*
G36*
X8649492Y10225751D02*
X8721725Y10210924D01*
X8789701Y10182350D01*
X8850835Y10141114D01*
X8902789Y10088796D01*
X8943596Y10027377D01*
X8971695Y9959204D01*
X8985965Y9887133D01*
X8985965Y9887127D01*
X8986016Y9886869D01*
X8984840Y9802647D01*
X8984782Y9802392D01*
X8984782Y9802382D01*
X8968506Y9730738D01*
X8938516Y9663381D01*
X8896009Y9603123D01*
X8842611Y9552273D01*
X8780349Y9512761D01*
X8711604Y9486097D01*
X8638989Y9473293D01*
X8565262Y9474837D01*
X8493248Y9490670D01*
X8425673Y9520193D01*
X8365128Y9562273D01*
X8313905Y9615316D01*
X8273958Y9677301D01*
X8246816Y9745854D01*
X8233504Y9818389D01*
X8234533Y9892113D01*
X8249864Y9964241D01*
X8278914Y10032018D01*
X8320573Y10092860D01*
X8373257Y10144452D01*
X8434953Y10184825D01*
X8503327Y10212450D01*
X8575757Y10226267D01*
X8649492Y10225751D01*
X8649492Y10225751D01*
G37*
G36*
X7428627Y11032966D02*
X7554152Y11007200D01*
X7672278Y10957545D01*
X7778512Y10885889D01*
X7868799Y10794969D01*
X7939711Y10688238D01*
X7988540Y10569769D01*
X8013377Y10444333D01*
X8013377Y10444327D01*
X8013428Y10444069D01*
X8011385Y10297711D01*
X8011326Y10297452D01*
X8011326Y10297446D01*
X7982998Y10172759D01*
X7930878Y10055695D01*
X7857015Y9950988D01*
X7764223Y9862623D01*
X7656028Y9793960D01*
X7536561Y9747622D01*
X7410374Y9725372D01*
X7282258Y9728056D01*
X7157110Y9755572D01*
X7039688Y9806872D01*
X6934470Y9880000D01*
X6845457Y9972176D01*
X6776040Y10079889D01*
X6728870Y10199028D01*
X6705739Y10325059D01*
X6707528Y10453184D01*
X6734170Y10578525D01*
X6784651Y10696303D01*
X6857044Y10802032D01*
X6948596Y10891686D01*
X7055813Y10961847D01*
X7174627Y11009851D01*
X7300494Y11033862D01*
X7428627Y11032966D01*
X7428627Y11032966D01*
G37*
G36*
X1478627Y11392966D02*
X1604152Y11367200D01*
X1722278Y11317545D01*
X1828512Y11245889D01*
X1918799Y11154969D01*
X1989711Y11048238D01*
X2038540Y10929769D01*
X2063377Y10804333D01*
X2063377Y10804327D01*
X2063428Y10804069D01*
X2061385Y10657711D01*
X2061326Y10657452D01*
X2061326Y10657446D01*
X2032998Y10532759D01*
X1980878Y10415695D01*
X1907015Y10310988D01*
X1814223Y10222623D01*
X1706028Y10153960D01*
X1586561Y10107622D01*
X1460374Y10085372D01*
X1332258Y10088056D01*
X1207110Y10115572D01*
X1089688Y10166872D01*
X984470Y10240000D01*
X895457Y10332176D01*
X826040Y10439889D01*
X778870Y10559028D01*
X755739Y10685059D01*
X757528Y10813184D01*
X784170Y10938525D01*
X834651Y11056303D01*
X907044Y11162032D01*
X998596Y11251686D01*
X1105813Y11321847D01*
X1224627Y11369851D01*
X1350494Y11393862D01*
X1478627Y11392966D01*
X1478627Y11392966D01*
G37*
G36*
X38508497Y17686907D02*
X38508498Y17686907D01*
X38510061Y17686896D01*
X38717005Y17663683D01*
X38915499Y17600717D01*
X39097983Y17500396D01*
X39257505Y17366541D01*
X39387991Y17204250D01*
X39484468Y17019705D01*
X39543263Y16819936D01*
X39543265Y16819911D01*
X39543268Y16819902D01*
X39562138Y16612549D01*
X39540375Y16405487D01*
X39540373Y16405482D01*
X39540370Y16405450D01*
X39478791Y16206521D01*
X39379746Y16023341D01*
X39247008Y15862888D01*
X39085632Y15731273D01*
X38901765Y15633509D01*
X38702411Y15573321D01*
X38495163Y15553000D01*
X38484777Y15553000D01*
X38471503Y15553093D01*
X38471502Y15553093D01*
X38469939Y15553104D01*
X38262995Y15576317D01*
X38064501Y15639283D01*
X37882017Y15739604D01*
X37722495Y15873459D01*
X37592009Y16035750D01*
X37495532Y16220295D01*
X37436737Y16420064D01*
X37436735Y16420089D01*
X37436732Y16420098D01*
X37417862Y16627451D01*
X37439625Y16834513D01*
X37439627Y16834518D01*
X37439630Y16834550D01*
X37501209Y17033479D01*
X37600254Y17216659D01*
X37732992Y17377112D01*
X37894368Y17508727D01*
X38078235Y17606491D01*
X38277589Y17666679D01*
X38484837Y17687000D01*
X38495223Y17687000D01*
X38508497Y17686907D01*
X38508497Y17686907D01*
G37*
G36*
X33428497Y17686907D02*
X33428498Y17686907D01*
X33430061Y17686896D01*
X33637005Y17663683D01*
X33835499Y17600717D01*
X34017983Y17500396D01*
X34177505Y17366541D01*
X34307991Y17204250D01*
X34404468Y17019705D01*
X34463263Y16819936D01*
X34463265Y16819911D01*
X34463268Y16819902D01*
X34482138Y16612549D01*
X34460375Y16405487D01*
X34460373Y16405482D01*
X34460370Y16405450D01*
X34398791Y16206521D01*
X34299746Y16023341D01*
X34167008Y15862888D01*
X34005632Y15731273D01*
X33821765Y15633509D01*
X33622411Y15573321D01*
X33415163Y15553000D01*
X33404777Y15553000D01*
X33391503Y15553093D01*
X33391502Y15553093D01*
X33389939Y15553104D01*
X33182995Y15576317D01*
X32984501Y15639283D01*
X32802017Y15739604D01*
X32642495Y15873459D01*
X32512009Y16035750D01*
X32415532Y16220295D01*
X32356737Y16420064D01*
X32356735Y16420089D01*
X32356732Y16420098D01*
X32337862Y16627451D01*
X32359625Y16834513D01*
X32359627Y16834518D01*
X32359630Y16834550D01*
X32421209Y17033479D01*
X32520254Y17216659D01*
X32652992Y17377112D01*
X32814368Y17508727D01*
X32998235Y17606491D01*
X33197589Y17666679D01*
X33404837Y17687000D01*
X33415223Y17687000D01*
X33428497Y17686907D01*
X33428497Y17686907D01*
G37*
G36*
X28348497Y17686907D02*
X28348498Y17686907D01*
X28350061Y17686896D01*
X28557005Y17663683D01*
X28755499Y17600717D01*
X28937983Y17500396D01*
X29097505Y17366541D01*
X29227991Y17204250D01*
X29324468Y17019705D01*
X29383263Y16819936D01*
X29383265Y16819911D01*
X29383268Y16819902D01*
X29402138Y16612549D01*
X29380375Y16405487D01*
X29380373Y16405482D01*
X29380370Y16405450D01*
X29318791Y16206521D01*
X29219746Y16023341D01*
X29087008Y15862888D01*
X28925632Y15731273D01*
X28741765Y15633509D01*
X28542411Y15573321D01*
X28335163Y15553000D01*
X28324777Y15553000D01*
X28311503Y15553093D01*
X28311502Y15553093D01*
X28309939Y15553104D01*
X28102995Y15576317D01*
X27904501Y15639283D01*
X27722017Y15739604D01*
X27562495Y15873459D01*
X27432009Y16035750D01*
X27335532Y16220295D01*
X27276737Y16420064D01*
X27276735Y16420089D01*
X27276732Y16420098D01*
X27257862Y16627451D01*
X27279625Y16834513D01*
X27279627Y16834518D01*
X27279630Y16834550D01*
X27341209Y17033479D01*
X27440254Y17216659D01*
X27572992Y17377112D01*
X27734368Y17508727D01*
X27918235Y17606491D01*
X28117589Y17666679D01*
X28324837Y17687000D01*
X28335223Y17687000D01*
X28348497Y17686907D01*
X28348497Y17686907D01*
G37*
G36*
X72220457Y23048970D02*
X72806573Y22928658D01*
X73358152Y22696795D01*
X73854195Y22362210D01*
X74275796Y21937655D01*
X74606909Y21439290D01*
X74834916Y20886104D01*
X74951080Y20299430D01*
X74951080Y20299419D01*
X74951130Y20299166D01*
X74941588Y19615758D01*
X74941530Y19615503D01*
X74941530Y19615493D01*
X74809031Y19032297D01*
X74565666Y18485690D01*
X74220769Y17996766D01*
X73787474Y17584145D01*
X73282282Y17263541D01*
X72724445Y17047171D01*
X72135205Y16943272D01*
X71536999Y16955802D01*
X70952626Y17084286D01*
X70404336Y17323827D01*
X69913019Y17665301D01*
X69497382Y18095706D01*
X69173257Y18598648D01*
X68952999Y19154957D01*
X68844988Y19743467D01*
X68853341Y20341735D01*
X68977742Y20926995D01*
X69213452Y21476945D01*
X69551489Y21970636D01*
X69978981Y22389268D01*
X70479640Y22716890D01*
X71034409Y22941031D01*
X71622142Y23053147D01*
X72220457Y23048970D01*
X72220457Y23048970D01*
G37*
G36*
X7920457Y23048970D02*
X8506573Y22928658D01*
X9058152Y22696795D01*
X9554195Y22362210D01*
X9975796Y21937655D01*
X10306909Y21439290D01*
X10534916Y20886104D01*
X10651080Y20299430D01*
X10651080Y20299419D01*
X10651130Y20299166D01*
X10641588Y19615758D01*
X10641530Y19615503D01*
X10641530Y19615493D01*
X10509031Y19032297D01*
X10265666Y18485690D01*
X9920769Y17996766D01*
X9487474Y17584145D01*
X8982282Y17263541D01*
X8424445Y17047171D01*
X7835205Y16943272D01*
X7236999Y16955802D01*
X6652626Y17084286D01*
X6104336Y17323827D01*
X5613019Y17665301D01*
X5197382Y18095706D01*
X4873257Y18598648D01*
X4652999Y19154957D01*
X4544988Y19743467D01*
X4553341Y20341735D01*
X4677742Y20926995D01*
X4913452Y21476945D01*
X5251489Y21970636D01*
X5678981Y22389268D01*
X6179640Y22716890D01*
X6734409Y22941031D01*
X7322142Y23053147D01*
X7920457Y23048970D01*
X7920457Y23048970D01*
G37*
G36*
X39557000Y18093000D02*
X37423000Y18093000D01*
X37423000Y20227000D01*
X39557000Y20227000D01*
X39557000Y18093000D01*
X39557000Y18093000D01*
G37*
G36*
X29397000Y18093000D02*
X27263000Y18093000D01*
X27263000Y20227000D01*
X29397000Y20227000D01*
X29397000Y18093000D01*
X29397000Y18093000D01*
G37*
G36*
X34477000Y18093000D02*
X32343000Y18093000D01*
X32343000Y20227000D01*
X34477000Y20227000D01*
X34477000Y18093000D01*
X34477000Y18093000D01*
G37*
M02*
