M48
;DRILL file {KiCad 4.0.7} date Thursday, January 18, 2018 'PMt' 01:36:10 PM
;FORMAT={-:-/ absolute / metric / decimal}
FMAT,2
METRIC,TZ
T1C0.305
T2C0.368
T3C0.900
T4C1.016
T5C3.150
%
G90
G05
M71
T1
X0.75Y20.75
X0.75Y18.75
X0.75Y16.75
X0.75Y14.75
X0.75Y12.75
X0.75Y8.75
X0.75Y6.75
X0.75Y4.75
X0.75Y2.75
X1.25Y22.75
X3.25Y22.75
X3.25Y1.
X5.25Y1.
X6.Y12.
X7.25Y1.
X7.5Y12.5
X9.25Y1.
X10.25Y5.25
X11.Y8.5
X11.25Y22.75
X11.25Y5.25
X11.25Y1.
X11.75Y9.25
X12.5Y6.618
X12.5Y5.882
X13.25Y22.75
X13.25Y1.
X14.5Y21.5
X14.5Y20.5
X14.5Y10.
X15.25Y22.75
X15.25Y17.75
X15.25Y16.5
X15.25Y13.
X15.25Y1.
X15.5Y21.5
X15.5Y20.5
X16.Y11.75
X16.25Y13.75
X16.5Y21.5
X16.5Y20.5
X16.75Y10.
X17.25Y22.75
X17.25Y19.
X17.25Y18.
X17.25Y17.
X17.25Y1.
X18.25Y19.
X18.25Y18.
X18.25Y17.
X19.Y10.
X19.25Y22.75
X19.25Y1.
X21.25Y22.75
X21.25Y10.
X21.25Y1.
X21.75Y14.75
X21.75Y10.75
X23.25Y22.75
X23.25Y1.
X24.75Y1.
X25.25Y22.75
X26.Y2.25
X27.25Y22.75
X27.25Y3.5
X28.5Y4.75
X29.25Y22.75
X29.75Y6.
X31.25Y22.75
X31.75Y6.
X33.25Y22.75
X33.75Y6.
X35.25Y22.75
X35.75Y6.
X37.25Y22.75
X37.75Y6.
X39.25Y22.75
X39.75Y6.
X41.25Y22.75
X41.75Y6.
X43.75Y6.
X45.75Y16.25
X45.75Y15.25
X45.75Y6.
X46.75Y16.25
X46.75Y15.25
X47.75Y16.25
X47.75Y15.25
X47.75Y6.
X48.75Y16.25
X49.75Y6.
X51.75Y16.25
X51.75Y6.
X53.25Y14.25
X53.75Y16.25
X53.75Y15.25
X53.75Y6.
X54.75Y16.25
X54.75Y15.25
X55.75Y6.
X56.75Y20.
X56.75Y18.
X57.75Y6.
X58.75Y16.25
X58.75Y15.25
X59.75Y6.
X61.75Y6.
X62.25Y16.25
X62.25Y15.25
X63.75Y6.
X64.75Y16.25
X64.75Y15.25
X64.75Y10.75
X65.75Y6.
X67.75Y22.75
X67.75Y6.
X69.75Y22.75
X69.75Y6.
X71.75Y6.
X73.75Y6.
X74.5Y16.75
X74.5Y14.75
X74.5Y12.75
X74.5Y10.75
X74.5Y8.75
X74.5Y6.75
T2
X7.25Y8.65
X7.25Y7.85
X7.25Y7.05
X7.25Y5.45
X7.25Y4.65
X7.25Y3.85
X7.95Y9.05
X7.95Y7.45
X7.95Y6.65
X7.95Y5.85
X7.95Y5.05
X7.95Y3.45
T3
X1.41Y10.74
X1.41Y1.76
X7.36Y10.38
X7.36Y2.12
T4
X28.33Y19.16
X28.33Y16.62
X33.41Y19.16
X33.41Y16.62
X38.49Y19.16
X38.49Y16.62
T5
X7.6Y20.
X71.9Y20.
T0
M30
