G04 #@! TF.FileFunction,Copper,L1,Top,Signal*
%FSLAX46Y46*%
G04 Gerber Fmt 4.6, Leading zero omitted, Abs format (unit mm)*
G04 Created by KiCad (PCBNEW 4.0.7) date Wednesday, December 20, 2017 'AMt' 12:53:12 AM*
%MOMM*%
%LPD*%
G01*
G04 APERTURE LIST*
%ADD10C,0.100000*%
%ADD11R,0.800000X0.750000*%
%ADD12R,0.797560X0.797560*%
%ADD13R,2.032000X2.032000*%
%ADD14O,2.032000X2.032000*%
%ADD15R,0.900000X0.500000*%
%ADD16R,0.500000X0.900000*%
%ADD17R,0.700000X0.250000*%
%ADD18R,0.250000X0.700000*%
%ADD19R,0.825000X1.325000*%
%ADD20R,0.700000X3.000000*%
%ADD21C,6.000000*%
%ADD22C,1.204800*%
%ADD23R,0.700000X0.300000*%
%ADD24C,0.672800*%
%ADD25C,0.609600*%
%ADD26C,0.203200*%
%ADD27C,0.500000*%
%ADD28C,0.236000*%
G04 APERTURE END LIST*
D10*
D11*
X13750000Y13750000D03*
X12250000Y13750000D03*
D12*
X2999300Y15750000D03*
X1500700Y15750000D03*
X21750700Y15750000D03*
X23249300Y15750000D03*
X21750700Y19750000D03*
X23249300Y19750000D03*
D13*
X38490000Y19160000D03*
D14*
X38490000Y16620000D03*
D13*
X33410000Y19160000D03*
D14*
X33410000Y16620000D03*
D13*
X28330000Y19160000D03*
D14*
X28330000Y16620000D03*
D15*
X54250000Y14250000D03*
X54250000Y12750000D03*
X52250000Y12750000D03*
X52250000Y14250000D03*
X56250000Y14250000D03*
X56250000Y12750000D03*
D16*
X1500000Y13750000D03*
X3000000Y13750000D03*
X12250000Y19750000D03*
X13750000Y19750000D03*
X13750000Y17750000D03*
X12250000Y17750000D03*
X13750000Y15750000D03*
X12250000Y15750000D03*
X23250000Y13750000D03*
X21750000Y13750000D03*
X18500000Y13750000D03*
X17000000Y13750000D03*
X23250000Y17750000D03*
X21750000Y17750000D03*
D17*
X19150000Y16750000D03*
X19150000Y17250000D03*
X19150000Y17750000D03*
X19150000Y18250000D03*
X19150000Y18750000D03*
X19150000Y19250000D03*
D18*
X18500000Y19900000D03*
X18000000Y19900000D03*
X17500000Y19900000D03*
X17000000Y19900000D03*
D17*
X16350000Y19250000D03*
X16350000Y18750000D03*
X16350000Y18250000D03*
X16350000Y17750000D03*
X16350000Y17250000D03*
X16350000Y16750000D03*
D18*
X17000000Y16100000D03*
X17500000Y16100000D03*
X18000000Y16100000D03*
X18500000Y16100000D03*
D19*
X17337500Y18662500D03*
X17337500Y17337500D03*
X18162500Y18662500D03*
X18162500Y17337500D03*
D20*
X46750000Y18500000D03*
X47750000Y18500000D03*
X48750000Y18500000D03*
X49750000Y18500000D03*
X50750000Y18500000D03*
X51750000Y18500000D03*
X52750000Y18500000D03*
X53750000Y18500000D03*
X54750000Y18500000D03*
X55750000Y18500000D03*
X58750000Y18500000D03*
X59750000Y18500000D03*
X60750000Y18500000D03*
X61750000Y18500000D03*
X62750000Y18500000D03*
X63750000Y18500000D03*
X45750000Y18500000D03*
X64750000Y18500000D03*
D21*
X71900000Y20000000D03*
X7600000Y20000000D03*
D22*
X7360000Y10380000D03*
D23*
X9270000Y9000000D03*
X9270000Y8500000D03*
X9270000Y8000000D03*
X9270000Y7500000D03*
X9270000Y7000000D03*
X9270000Y6500000D03*
X9270000Y6000000D03*
X9270000Y3500000D03*
X9270000Y4500000D03*
X9270000Y5000000D03*
X9270000Y5500000D03*
X9270000Y4000000D03*
D22*
X7360000Y2120000D03*
X1410000Y1760000D03*
X1410000Y10740000D03*
D24*
X7950000Y3450000D03*
X7250000Y3850000D03*
X7250000Y4650000D03*
X7250000Y5450000D03*
X7950000Y5050000D03*
X7950000Y5850000D03*
X7950000Y6650000D03*
X7950000Y7450000D03*
X7250000Y7050000D03*
X7250000Y7850000D03*
X7250000Y8650000D03*
X7950000Y9050000D03*
D25*
X750000Y2750000D03*
X750000Y4750000D03*
X750000Y6750000D03*
X750000Y8750000D03*
X69750000Y22750000D03*
X67750000Y22750000D03*
X750000Y12750000D03*
X750000Y14750000D03*
X750000Y16750000D03*
X750000Y18750000D03*
X750000Y20750000D03*
X1250000Y22750000D03*
X3250000Y22750000D03*
X41250000Y22750000D03*
X39250000Y22750000D03*
X37250000Y22750000D03*
X35250000Y22750000D03*
X33250000Y22750000D03*
X31250000Y22750000D03*
X29250000Y22750000D03*
X27250000Y22750000D03*
X25250000Y22750000D03*
X23250000Y22750000D03*
X21250000Y22750000D03*
X19250000Y22750000D03*
X17250000Y22750000D03*
X15250000Y22750000D03*
X13250000Y22750000D03*
X11250000Y22750000D03*
X14500000Y10000000D03*
X21250000Y10000000D03*
X19000000Y10000000D03*
X16750000Y10000000D03*
X48750000Y16250000D03*
X51750000Y16250000D03*
X16250000Y13750000D03*
X15250000Y16500000D03*
X18250000Y17000000D03*
X18250000Y18000000D03*
X18250000Y19000000D03*
X17250000Y19000000D03*
X17250000Y18000000D03*
X17250000Y17000000D03*
X64750000Y10750000D03*
X74500000Y16750000D03*
X74500000Y14750000D03*
X74500000Y12750000D03*
X74500000Y10750000D03*
X74500000Y8750000D03*
X74500000Y6750000D03*
X73750000Y6000000D03*
X71750000Y6000000D03*
X69750000Y6000000D03*
X67750000Y6000000D03*
X65750000Y6000000D03*
X63750000Y6000000D03*
X61750000Y6000000D03*
X59750000Y6000000D03*
X57750000Y6000000D03*
X55750000Y6000000D03*
X53750000Y6000000D03*
X51750000Y6000000D03*
X49750000Y6000000D03*
X47750000Y6000000D03*
X45750000Y6000000D03*
X43750000Y6000000D03*
X41750000Y6000000D03*
X39750000Y6000000D03*
X37750000Y6000000D03*
X35750000Y6000000D03*
X33750000Y6000000D03*
X31750000Y6000000D03*
X29750000Y6000000D03*
X28500000Y4750000D03*
X27250000Y3500000D03*
X26000000Y2250000D03*
X24750000Y1000000D03*
X23250000Y1000000D03*
X21250000Y1000000D03*
X19250000Y1000000D03*
X17250000Y1000000D03*
X15250000Y1000000D03*
X13250000Y1000000D03*
X11250000Y1000000D03*
X9250000Y1000000D03*
X7250000Y1000000D03*
X5250000Y1000000D03*
X3250000Y1000000D03*
X64750000Y15250000D03*
X64750000Y16250000D03*
X58750000Y15250000D03*
X58750000Y16250000D03*
X53250000Y14250000D03*
X62250000Y15250000D03*
X62250000Y16250000D03*
X21750000Y10750000D03*
X21750000Y14750000D03*
X11250000Y5250000D03*
X10250000Y5250000D03*
X45750000Y15250000D03*
X46750000Y15250000D03*
X47750000Y15250000D03*
X45750000Y16250000D03*
X46750000Y16250000D03*
X47750000Y16250000D03*
X14500000Y20500000D03*
X14500000Y21500000D03*
X15500000Y21500000D03*
X15500000Y20500000D03*
X16500000Y21500000D03*
X16500000Y20500000D03*
X7500000Y12500000D03*
X56750000Y18000000D03*
X11750000Y9250000D03*
X15250000Y13000000D03*
X15250000Y17750000D03*
X16000000Y11750000D03*
X11000000Y8500000D03*
X56750000Y20000000D03*
X12500000Y6618300D03*
X12500000Y5881700D03*
X54750000Y15250000D03*
X53750000Y15250000D03*
X54750000Y16250000D03*
X53750000Y16250000D03*
X6000000Y12000000D03*
D26*
X14500000Y15250000D02*
X13750000Y14500000D01*
X13750000Y14500000D02*
X13750000Y13750000D01*
X17203200Y15250000D02*
X14500000Y15250000D01*
X17500000Y16100000D02*
X17500000Y15546800D01*
X17500000Y15546800D02*
X17203200Y15250000D01*
X750000Y6750000D02*
X750000Y8750000D01*
X750000Y4750000D02*
X750000Y6750000D01*
X750000Y2750000D02*
X750000Y4750000D01*
X1410000Y1760000D02*
X1410000Y2090000D01*
X1410000Y2090000D02*
X750000Y2750000D01*
D27*
X51750000Y18500000D02*
X51750000Y16250000D01*
D26*
X67750000Y22750000D02*
X67750000Y16000000D01*
X67750000Y16000000D02*
X67000000Y15250000D01*
X67000000Y15250000D02*
X64750000Y15250000D01*
X69750000Y22750000D02*
X67750000Y22750000D01*
X750000Y12750000D02*
X3000000Y12750000D01*
X3000000Y12750000D02*
X3000000Y13750000D01*
X1250000Y22750000D02*
X3250000Y22750000D01*
X750000Y20750000D02*
X750000Y22250000D01*
X750000Y22250000D02*
X1250000Y22750000D01*
X750000Y18750000D02*
X750000Y20750000D01*
X750000Y16750000D02*
X750000Y18750000D01*
X750000Y14750000D02*
X750000Y16750000D01*
X750000Y12750000D02*
X750000Y14750000D01*
X39250000Y22750000D02*
X41250000Y22750000D01*
X37250000Y22750000D02*
X39250000Y22750000D01*
X35250000Y22750000D02*
X37250000Y22750000D01*
X33250000Y22750000D02*
X35250000Y22750000D01*
X31250000Y22750000D02*
X33250000Y22750000D01*
X29250000Y22750000D02*
X31250000Y22750000D01*
X27250000Y22750000D02*
X29250000Y22750000D01*
X25250000Y22750000D02*
X27250000Y22750000D01*
X23250000Y22750000D02*
X25250000Y22750000D01*
X21250000Y22750000D02*
X23250000Y22750000D01*
X19250000Y22750000D02*
X21250000Y22750000D01*
X17250000Y22750000D02*
X19250000Y22750000D01*
X15250000Y22750000D02*
X17250000Y22750000D01*
X13250000Y22750000D02*
X15250000Y22750000D01*
X11250000Y22750000D02*
X13250000Y22750000D01*
X16750000Y10000000D02*
X14500000Y10000000D01*
X19000000Y10000000D02*
X16750000Y10000000D01*
X21250000Y10000000D02*
X19000000Y10000000D01*
D27*
X48750000Y18500000D02*
X48750000Y16250000D01*
D26*
X17000000Y13750000D02*
X16250000Y13750000D01*
X9270000Y3500000D02*
X8000000Y3500000D01*
X8000000Y3500000D02*
X7950000Y3450000D01*
X9270000Y9000000D02*
X8000000Y9000000D01*
X8000000Y9000000D02*
X7950000Y9050000D01*
X14568948Y16750000D02*
X12250000Y16750000D01*
X12250000Y15750000D02*
X12250000Y13750000D01*
X15250000Y16500000D02*
X14818948Y16500000D01*
X14818948Y16500000D02*
X14568948Y16750000D01*
X15546800Y16500000D02*
X15250000Y16500000D01*
X16350000Y16750000D02*
X15796800Y16750000D01*
X15796800Y16750000D02*
X15546800Y16500000D01*
X18162500Y17337500D02*
X18162500Y17087500D01*
X18162500Y17087500D02*
X18250000Y17000000D01*
X18162500Y17337500D02*
X18162500Y17912500D01*
X18162500Y17912500D02*
X18250000Y18000000D01*
X18162500Y18662500D02*
X18162500Y18087500D01*
X18162500Y18087500D02*
X18250000Y18000000D01*
X18162500Y18662500D02*
X18162500Y18912500D01*
X18162500Y18912500D02*
X18250000Y19000000D01*
X17337500Y18662500D02*
X17337500Y18912500D01*
X17337500Y18912500D02*
X17250000Y19000000D01*
X17337500Y18662500D02*
X17337500Y18087500D01*
X17337500Y18087500D02*
X17250000Y18000000D01*
X17337500Y17337500D02*
X17337500Y17912500D01*
X17337500Y17912500D02*
X17250000Y18000000D01*
X17337500Y17337500D02*
X17337500Y17087500D01*
X17337500Y17087500D02*
X17250000Y17000000D01*
X16350000Y16750000D02*
X17000000Y16750000D01*
X17000000Y16750000D02*
X17250000Y17000000D01*
X59750000Y18500000D02*
X59750000Y16796800D01*
X59750000Y16796800D02*
X59203200Y16250000D01*
X59203200Y16250000D02*
X59181052Y16250000D01*
X59181052Y16250000D02*
X58750000Y16250000D01*
X12250000Y16750000D02*
X12250000Y17750000D01*
X12250000Y15750000D02*
X12250000Y16750000D01*
X64750000Y18500000D02*
X64750000Y16250000D01*
X62750000Y18500000D02*
X62750000Y16750000D01*
X62750000Y16750000D02*
X62250000Y16250000D01*
X52250000Y14250000D02*
X53250000Y14250000D01*
X14000000Y11000000D02*
X13750000Y11250000D01*
X13750000Y11250000D02*
X5250000Y11250000D01*
X5250000Y11250000D02*
X3750000Y12750000D01*
X3750000Y12750000D02*
X3750000Y14397320D01*
X3750000Y14397320D02*
X2999300Y15148020D01*
X2999300Y15148020D02*
X2999300Y15750000D01*
X14000000Y10500000D02*
X10500000Y7000000D01*
X10500000Y7000000D02*
X9270000Y7000000D01*
X14250000Y10750000D02*
X14000000Y11000000D01*
X14000000Y11000000D02*
X14000000Y10500000D01*
X14000000Y10500000D02*
X14250000Y10750000D01*
X24398720Y16851280D02*
X26500000Y14750000D01*
X26500000Y14750000D02*
X28000000Y13250000D01*
X28330000Y16620000D02*
X26500000Y14790000D01*
X26500000Y14790000D02*
X26500000Y14750000D01*
X22500000Y16851280D02*
X22750000Y16851280D01*
X22750000Y16851280D02*
X24398720Y16851280D01*
X22500000Y17101280D02*
X22750000Y16851280D01*
X22250000Y16851280D02*
X22500000Y16851280D01*
X22500000Y17101280D02*
X22500000Y16851280D01*
X28000000Y13250000D02*
X51250000Y13250000D01*
X51500000Y13500000D02*
X53953200Y13500000D01*
X51250000Y13250000D02*
X51500000Y13500000D01*
X53953200Y13500000D02*
X54250000Y13796800D01*
X54250000Y13796800D02*
X54250000Y14250000D01*
X22250000Y16851280D02*
X21750700Y16351980D01*
X22500000Y17101280D02*
X22250000Y16851280D01*
X22500000Y18398720D02*
X22500000Y17101280D01*
X21750700Y16351980D02*
X21750700Y15750000D01*
X21750700Y19750000D02*
X21750700Y19148020D01*
X21750700Y19148020D02*
X22500000Y18398720D01*
X14250000Y10750000D02*
X21750000Y10750000D01*
X21750700Y15750000D02*
X21750700Y14750700D01*
X54750000Y18500000D02*
X54750000Y17238518D01*
X54750000Y17238518D02*
X55500000Y16488518D01*
X55500000Y16488518D02*
X55500000Y14846800D01*
X55500000Y14846800D02*
X54903200Y14250000D01*
X54903200Y14250000D02*
X54250000Y14250000D01*
X1500000Y13750000D02*
X1500000Y15749300D01*
X1500000Y15749300D02*
X1500700Y15750000D01*
X23249300Y15750000D02*
X23249300Y13750700D01*
X23249300Y13750700D02*
X23250000Y13750000D01*
X23250000Y17750000D02*
X23250000Y19749300D01*
X23250000Y19749300D02*
X23249300Y19750000D01*
X10250000Y5250000D02*
X11250000Y5250000D01*
X9270000Y5500000D02*
X10000000Y5500000D01*
X10000000Y5500000D02*
X10250000Y5250000D01*
X45750000Y16250000D02*
X45750000Y15250000D01*
X46750000Y16250000D02*
X46750000Y15250000D01*
X47750000Y16250000D02*
X47750000Y15250000D01*
X45750000Y18500000D02*
X45750000Y16250000D01*
X46750000Y18500000D02*
X46750000Y16250000D01*
X47750000Y18500000D02*
X47750000Y16250000D01*
X15500000Y20500000D02*
X16500000Y20500000D01*
X14500000Y20500000D02*
X15500000Y20500000D01*
X16350000Y19250000D02*
X16350000Y19650000D01*
X16350000Y19650000D02*
X15500000Y20500000D01*
X16600000Y19900000D02*
X16500000Y20000000D01*
X16500000Y20000000D02*
X16500000Y20500000D01*
X17000000Y19900000D02*
X16600000Y19900000D01*
X16500000Y20500000D02*
X16500000Y21500000D01*
X15500000Y20500000D02*
X15500000Y21500000D01*
X14500000Y21500000D02*
X14500000Y20500000D01*
X14500000Y20500000D02*
X12800000Y20500000D01*
X12800000Y20500000D02*
X12250000Y19950000D01*
X12250000Y19950000D02*
X12250000Y19750000D01*
X16350000Y18750000D02*
X16350000Y18250000D01*
X16350000Y19250000D02*
X16350000Y18750000D01*
X17000000Y19900000D02*
X17500000Y19900000D01*
X9270000Y5000000D02*
X8000000Y5000000D01*
X8000000Y5000000D02*
X7950000Y5050000D01*
X9270000Y7500000D02*
X8000000Y7500000D01*
X8000000Y7500000D02*
X7950000Y7450000D01*
X7500000Y12500000D02*
X7750000Y12250000D01*
X7750000Y12250000D02*
X15672974Y12250000D01*
X15672974Y12250000D02*
X15731775Y12308801D01*
X15731775Y12308801D02*
X16268225Y12308801D01*
X16268225Y12308801D02*
X16327026Y12250000D01*
X16327026Y12250000D02*
X51250000Y12250000D01*
X51250000Y12250000D02*
X51254001Y12245999D01*
X56995999Y12245999D02*
X57250000Y12500000D01*
X57250000Y12500000D02*
X57250000Y14500000D01*
X57250000Y14500000D02*
X56750000Y15000000D01*
X51254001Y12245999D02*
X56995999Y12245999D01*
X56750000Y15000000D02*
X56750000Y18000000D01*
X10573200Y9250000D02*
X11750000Y9250000D01*
X9270000Y8500000D02*
X9823200Y8500000D01*
X9823200Y8500000D02*
X10573200Y9250000D01*
X28000000Y12750000D02*
X15500000Y12750000D01*
X15250000Y13000000D02*
X15500000Y12750000D01*
X16350000Y17750000D02*
X15250000Y17750000D01*
X52250000Y12750000D02*
X28000000Y12750000D01*
X54250000Y12750000D02*
X52250000Y12750000D01*
X56250000Y12750000D02*
X54250000Y12750000D01*
X16000000Y11750000D02*
X57250000Y11750000D01*
X57250000Y11750000D02*
X57750000Y12250000D01*
X57500000Y19250000D02*
X57054799Y19695201D01*
X57750000Y12250000D02*
X57750000Y14750000D01*
X57750000Y14750000D02*
X57500000Y15000000D01*
X57500000Y15000000D02*
X57500000Y19250000D01*
X57054799Y19695201D02*
X56750000Y20000000D01*
X9270000Y8000000D02*
X10500000Y8000000D01*
X10500000Y8000000D02*
X11000000Y8500000D01*
D28*
X9863501Y6431499D02*
X12313199Y6431499D01*
X12313199Y6431499D02*
X12500000Y6618300D01*
X9270000Y6500000D02*
X9795000Y6500000D01*
X9795000Y6500000D02*
X9863501Y6431499D01*
X9863501Y6068501D02*
X12313199Y6068501D01*
X12313199Y6068501D02*
X12500000Y5881700D01*
X9270000Y6000000D02*
X9795000Y6000000D01*
X9795000Y6000000D02*
X9863501Y6068501D01*
X9270000Y4500000D02*
X9795000Y4500000D01*
X9795000Y4500000D02*
X9863500Y4431500D01*
X9863500Y4431500D02*
X24424822Y4431500D01*
X24424822Y4431500D02*
X28424822Y8431500D01*
X28424822Y8431500D02*
X58924822Y8431500D01*
X58924822Y8431500D02*
X61068500Y10575178D01*
X60750000Y17350000D02*
X60750000Y18500000D01*
X61068500Y10575178D02*
X61068500Y17031500D01*
X61068500Y17031500D02*
X60750000Y17350000D01*
X61750000Y18500000D02*
X61750000Y17350000D01*
X61750000Y17350000D02*
X61431500Y17031500D01*
X61431500Y10424822D02*
X59075178Y8068500D01*
X28575178Y8068500D02*
X24575178Y4068500D01*
X61431500Y17031500D02*
X61431500Y10424822D01*
X59075178Y8068500D02*
X28575178Y8068500D01*
X24575178Y4068500D02*
X9863500Y4068500D01*
X9863500Y4068500D02*
X9795000Y4000000D01*
X9795000Y4000000D02*
X9270000Y4000000D01*
D26*
X18000000Y19900000D02*
X18500000Y19900000D01*
X52750000Y18500000D02*
X52750000Y16796800D01*
X52750000Y16796800D02*
X53296800Y16250000D01*
X53296800Y16250000D02*
X53318948Y16250000D01*
X53318948Y16250000D02*
X53750000Y16250000D01*
X56250000Y14250000D02*
X56250000Y16750000D01*
X56250000Y16750000D02*
X55750000Y17250000D01*
X55750000Y17250000D02*
X55750000Y18500000D01*
X14203200Y17750000D02*
X13750000Y17750000D01*
X15643600Y17096800D02*
X14856400Y17096800D01*
X15796800Y17250000D02*
X15643600Y17096800D01*
X14856400Y17096800D02*
X14203200Y17750000D01*
X16350000Y17250000D02*
X15796800Y17250000D01*
X13750000Y19750000D02*
X13750000Y17750000D01*
X16600000Y16100000D02*
X16250000Y15750000D01*
X16250000Y15750000D02*
X13750000Y15750000D01*
X17000000Y16100000D02*
X16600000Y16100000D01*
X18900000Y16100000D02*
X21250000Y13750000D01*
X21250000Y13750000D02*
X21750000Y13750000D01*
X18500000Y16100000D02*
X18900000Y16100000D01*
X18500000Y15046800D02*
X18500000Y13750000D01*
X18000000Y16100000D02*
X18000000Y15546800D01*
X18000000Y15546800D02*
X18500000Y15046800D01*
X20750000Y17250000D02*
X21250000Y17750000D01*
X21250000Y17750000D02*
X21750000Y17750000D01*
X19150000Y17250000D02*
X20750000Y17250000D01*
X8827028Y11750000D02*
X6250000Y11750000D01*
X6250000Y11750000D02*
X6000000Y12000000D01*
X63750000Y18500000D02*
X63750000Y20203200D01*
X63750000Y20203200D02*
X63453200Y20500000D01*
X58250000Y15000000D02*
X58250000Y12000000D01*
X58000000Y15250000D02*
X58250000Y15000000D01*
X63453200Y20500000D02*
X58442798Y20500000D01*
X58442798Y20500000D02*
X58000000Y20057202D01*
X58000000Y20057202D02*
X58000000Y15250000D01*
X58250000Y12000000D02*
X57500000Y11250000D01*
X57500000Y11250000D02*
X22077028Y11250000D01*
X16327026Y11250000D02*
X16268225Y11191199D01*
X21422972Y11250000D02*
X16327026Y11250000D01*
X22077028Y11250000D02*
X22018226Y11308802D01*
X14000000Y11750000D02*
X8827028Y11750000D01*
X15731775Y11191199D02*
X15672974Y11250000D01*
X22018226Y11308802D02*
X21481774Y11308802D01*
X21481774Y11308802D02*
X21422972Y11250000D01*
X16268225Y11191199D02*
X15731775Y11191199D01*
X15672974Y11250000D02*
X14500000Y11250000D01*
X14500000Y11250000D02*
X14000000Y11750000D01*
G36*
X45898400Y16750000D02*
X45902422Y16721695D01*
X45914171Y16695631D01*
X45932716Y16673872D01*
X45956589Y16658141D01*
X45983898Y16649684D01*
X46000000Y16648400D01*
X46500000Y16648400D01*
X46528305Y16652422D01*
X46554369Y16664171D01*
X46576128Y16682716D01*
X46591859Y16706589D01*
X46600316Y16733898D01*
X46601600Y16750000D01*
X46601600Y17148400D01*
X46898400Y17148400D01*
X46898400Y16750000D01*
X46902422Y16721695D01*
X46914171Y16695631D01*
X46932716Y16673872D01*
X46956589Y16658141D01*
X46983898Y16649684D01*
X47000000Y16648400D01*
X47500000Y16648400D01*
X47528305Y16652422D01*
X47554369Y16664171D01*
X47576128Y16682716D01*
X47591859Y16706589D01*
X47600316Y16733898D01*
X47601600Y16750000D01*
X47601600Y17148400D01*
X47898400Y17148400D01*
X47898400Y16750000D01*
X47902422Y16721695D01*
X47914171Y16695631D01*
X47928158Y16678158D01*
X48148400Y16457916D01*
X48148400Y15042084D01*
X47957916Y14851600D01*
X45542084Y14851600D01*
X45351600Y15042084D01*
X45351600Y16457916D01*
X45571842Y16678158D01*
X45589012Y16701017D01*
X45599135Y16727755D01*
X45601600Y16750000D01*
X45601600Y17148400D01*
X45898400Y17148400D01*
X45898400Y16750000D01*
X45898400Y16750000D01*
G37*
X45898400Y16750000D02*
X45902422Y16721695D01*
X45914171Y16695631D01*
X45932716Y16673872D01*
X45956589Y16658141D01*
X45983898Y16649684D01*
X46000000Y16648400D01*
X46500000Y16648400D01*
X46528305Y16652422D01*
X46554369Y16664171D01*
X46576128Y16682716D01*
X46591859Y16706589D01*
X46600316Y16733898D01*
X46601600Y16750000D01*
X46601600Y17148400D01*
X46898400Y17148400D01*
X46898400Y16750000D01*
X46902422Y16721695D01*
X46914171Y16695631D01*
X46932716Y16673872D01*
X46956589Y16658141D01*
X46983898Y16649684D01*
X47000000Y16648400D01*
X47500000Y16648400D01*
X47528305Y16652422D01*
X47554369Y16664171D01*
X47576128Y16682716D01*
X47591859Y16706589D01*
X47600316Y16733898D01*
X47601600Y16750000D01*
X47601600Y17148400D01*
X47898400Y17148400D01*
X47898400Y16750000D01*
X47902422Y16721695D01*
X47914171Y16695631D01*
X47928158Y16678158D01*
X48148400Y16457916D01*
X48148400Y15042084D01*
X47957916Y14851600D01*
X45542084Y14851600D01*
X45351600Y15042084D01*
X45351600Y16457916D01*
X45571842Y16678158D01*
X45589012Y16701017D01*
X45599135Y16727755D01*
X45601600Y16750000D01*
X45601600Y17148400D01*
X45898400Y17148400D01*
X45898400Y16750000D01*
G36*
X43166000Y19600000D02*
X43166012Y19599883D01*
X43166012Y19596603D01*
X43166061Y19589622D01*
X43168358Y19567773D01*
X43168358Y19545792D01*
X43169065Y19539070D01*
X43179942Y19442096D01*
X43189059Y19399201D01*
X43197583Y19356153D01*
X43199582Y19349697D01*
X43229088Y19256682D01*
X43246368Y19216366D01*
X43263085Y19175806D01*
X43266299Y19169861D01*
X43313310Y19084348D01*
X43338096Y19048150D01*
X43362371Y19011612D01*
X43366679Y19006405D01*
X43429404Y18931653D01*
X43460752Y18900955D01*
X43491654Y18869836D01*
X43496891Y18865565D01*
X43572941Y18804419D01*
X43609631Y18780410D01*
X43646016Y18755868D01*
X43651983Y18752695D01*
X43738463Y18707485D01*
X43779155Y18691044D01*
X43819572Y18674054D01*
X43826041Y18672101D01*
X43919653Y18644549D01*
X43962707Y18636336D01*
X44005718Y18627507D01*
X44012444Y18626848D01*
X44109626Y18618004D01*
X44153491Y18618310D01*
X44197356Y18618004D01*
X44204082Y18618663D01*
X44301130Y18628863D01*
X44344118Y18637687D01*
X44387192Y18645904D01*
X44393661Y18647857D01*
X44398400Y18649324D01*
X44398400Y17000000D01*
X44402422Y16971695D01*
X44414171Y16945631D01*
X44428158Y16928158D01*
X44678158Y16678158D01*
X44701017Y16660988D01*
X44727755Y16650865D01*
X44750000Y16648400D01*
X45049388Y16648400D01*
X45016012Y16598820D01*
X44996000Y16500000D01*
X44996000Y15000000D01*
X45014669Y14904422D01*
X45070395Y14820395D01*
X45320395Y14570395D01*
X45401180Y14516012D01*
X45500000Y14496000D01*
X48000000Y14496000D01*
X48095578Y14514669D01*
X48179605Y14570395D01*
X48429605Y14820395D01*
X48483988Y14901180D01*
X48504000Y15000000D01*
X48504000Y15648400D01*
X51750000Y15648400D01*
X51778305Y15652422D01*
X51804369Y15664171D01*
X51821842Y15678158D01*
X51842560Y15698876D01*
X51901000Y15709180D01*
X52003170Y15748809D01*
X52095696Y15807529D01*
X52175056Y15883102D01*
X52238225Y15972650D01*
X52282798Y16072762D01*
X52307076Y16179625D01*
X52308824Y16304793D01*
X52290586Y16396902D01*
X52571842Y16678158D01*
X52589012Y16701017D01*
X52599135Y16727755D01*
X52601600Y16750000D01*
X52601600Y17148400D01*
X52898400Y17148400D01*
X52898400Y16750000D01*
X52902422Y16721695D01*
X52914171Y16695631D01*
X52932716Y16673872D01*
X52956589Y16658141D01*
X52983898Y16649684D01*
X53000000Y16648400D01*
X54837224Y16648400D01*
X55144400Y16341224D01*
X55144400Y15038084D01*
X54957916Y14851600D01*
X51500000Y14851600D01*
X51471695Y14847578D01*
X51445631Y14835829D01*
X51428158Y14821842D01*
X51178158Y14571842D01*
X51160988Y14548983D01*
X51150865Y14522245D01*
X51148400Y14500000D01*
X51148400Y13651294D01*
X51102706Y13605600D01*
X30351600Y13605600D01*
X30351600Y16628866D01*
X37213886Y16628866D01*
X37236350Y16382026D01*
X37306332Y16144250D01*
X37421164Y15924595D01*
X37576475Y15731428D01*
X37766347Y15572106D01*
X37983549Y15452698D01*
X38219807Y15377753D01*
X38466123Y15350124D01*
X38483855Y15350000D01*
X38496145Y15350000D01*
X38742823Y15374187D01*
X38980104Y15445827D01*
X39198952Y15562190D01*
X39391030Y15718845D01*
X39549023Y15909825D01*
X39666911Y16127855D01*
X39740206Y16364631D01*
X39766114Y16611134D01*
X39743650Y16857974D01*
X39673668Y17095750D01*
X39558836Y17315405D01*
X39403525Y17508572D01*
X39213653Y17667894D01*
X38996451Y17787302D01*
X38760193Y17862247D01*
X38523719Y17888772D01*
X39506000Y17888772D01*
X39546448Y17891998D01*
X39615053Y17913243D01*
X39675023Y17952761D01*
X39721609Y18007421D01*
X39751123Y18072895D01*
X39761228Y18144000D01*
X39761228Y20176000D01*
X39758002Y20216448D01*
X39736757Y20285053D01*
X39697239Y20345023D01*
X39642579Y20391609D01*
X39577105Y20421123D01*
X39506000Y20431228D01*
X37474000Y20431228D01*
X37433552Y20428002D01*
X37364947Y20406757D01*
X37304977Y20367239D01*
X37258391Y20312579D01*
X37228877Y20247105D01*
X37218772Y20176000D01*
X37218772Y18144000D01*
X37221998Y18103552D01*
X37243243Y18034947D01*
X37282761Y17974977D01*
X37337421Y17928391D01*
X37402895Y17898877D01*
X37474000Y17888772D01*
X38471331Y17888772D01*
X38237177Y17865813D01*
X37999896Y17794173D01*
X37781048Y17677810D01*
X37588970Y17521155D01*
X37430977Y17330175D01*
X37313089Y17112145D01*
X37239794Y16875369D01*
X37213886Y16628866D01*
X30351600Y16628866D01*
X30351600Y20176000D01*
X32138772Y20176000D01*
X32138772Y18144000D01*
X32141998Y18103552D01*
X32163243Y18034947D01*
X32202761Y17974977D01*
X32257421Y17928391D01*
X32322895Y17898877D01*
X32394000Y17888772D01*
X34426000Y17888772D01*
X34466448Y17891998D01*
X34535053Y17913243D01*
X34595023Y17952761D01*
X34641609Y18007421D01*
X34671123Y18072895D01*
X34681228Y18144000D01*
X34681228Y20176000D01*
X34678002Y20216448D01*
X34656757Y20285053D01*
X34617239Y20345023D01*
X34562579Y20391609D01*
X34497105Y20421123D01*
X34426000Y20431228D01*
X32394000Y20431228D01*
X32353552Y20428002D01*
X32284947Y20406757D01*
X32224977Y20367239D01*
X32178391Y20312579D01*
X32148877Y20247105D01*
X32138772Y20176000D01*
X30351600Y20176000D01*
X30351600Y20250000D01*
X30347578Y20278305D01*
X30335829Y20304369D01*
X30321842Y20321842D01*
X30071842Y20571842D01*
X30048983Y20589012D01*
X30022245Y20599135D01*
X30000000Y20601600D01*
X21250000Y20601600D01*
X21221695Y20597578D01*
X21195631Y20585829D01*
X21178158Y20571842D01*
X20928158Y20321842D01*
X20910988Y20298983D01*
X20900865Y20272245D01*
X20898400Y20250000D01*
X20898400Y18042084D01*
X20461916Y17605600D01*
X19603323Y17605600D01*
X19571105Y17620123D01*
X19500000Y17630228D01*
X18830228Y17630228D01*
X18830228Y19325000D01*
X18827002Y19365448D01*
X18805757Y19434053D01*
X18766239Y19494023D01*
X18711579Y19540609D01*
X18646105Y19570123D01*
X18575000Y19580228D01*
X18004000Y19580228D01*
X18004000Y21710316D01*
X18192084Y21898400D01*
X43166000Y21898400D01*
X43166000Y19600000D01*
X43166000Y19600000D01*
G37*
X43166000Y19600000D02*
X43166012Y19599883D01*
X43166012Y19596603D01*
X43166061Y19589622D01*
X43168358Y19567773D01*
X43168358Y19545792D01*
X43169065Y19539070D01*
X43179942Y19442096D01*
X43189059Y19399201D01*
X43197583Y19356153D01*
X43199582Y19349697D01*
X43229088Y19256682D01*
X43246368Y19216366D01*
X43263085Y19175806D01*
X43266299Y19169861D01*
X43313310Y19084348D01*
X43338096Y19048150D01*
X43362371Y19011612D01*
X43366679Y19006405D01*
X43429404Y18931653D01*
X43460752Y18900955D01*
X43491654Y18869836D01*
X43496891Y18865565D01*
X43572941Y18804419D01*
X43609631Y18780410D01*
X43646016Y18755868D01*
X43651983Y18752695D01*
X43738463Y18707485D01*
X43779155Y18691044D01*
X43819572Y18674054D01*
X43826041Y18672101D01*
X43919653Y18644549D01*
X43962707Y18636336D01*
X44005718Y18627507D01*
X44012444Y18626848D01*
X44109626Y18618004D01*
X44153491Y18618310D01*
X44197356Y18618004D01*
X44204082Y18618663D01*
X44301130Y18628863D01*
X44344118Y18637687D01*
X44387192Y18645904D01*
X44393661Y18647857D01*
X44398400Y18649324D01*
X44398400Y17000000D01*
X44402422Y16971695D01*
X44414171Y16945631D01*
X44428158Y16928158D01*
X44678158Y16678158D01*
X44701017Y16660988D01*
X44727755Y16650865D01*
X44750000Y16648400D01*
X45049388Y16648400D01*
X45016012Y16598820D01*
X44996000Y16500000D01*
X44996000Y15000000D01*
X45014669Y14904422D01*
X45070395Y14820395D01*
X45320395Y14570395D01*
X45401180Y14516012D01*
X45500000Y14496000D01*
X48000000Y14496000D01*
X48095578Y14514669D01*
X48179605Y14570395D01*
X48429605Y14820395D01*
X48483988Y14901180D01*
X48504000Y15000000D01*
X48504000Y15648400D01*
X51750000Y15648400D01*
X51778305Y15652422D01*
X51804369Y15664171D01*
X51821842Y15678158D01*
X51842560Y15698876D01*
X51901000Y15709180D01*
X52003170Y15748809D01*
X52095696Y15807529D01*
X52175056Y15883102D01*
X52238225Y15972650D01*
X52282798Y16072762D01*
X52307076Y16179625D01*
X52308824Y16304793D01*
X52290586Y16396902D01*
X52571842Y16678158D01*
X52589012Y16701017D01*
X52599135Y16727755D01*
X52601600Y16750000D01*
X52601600Y17148400D01*
X52898400Y17148400D01*
X52898400Y16750000D01*
X52902422Y16721695D01*
X52914171Y16695631D01*
X52932716Y16673872D01*
X52956589Y16658141D01*
X52983898Y16649684D01*
X53000000Y16648400D01*
X54837224Y16648400D01*
X55144400Y16341224D01*
X55144400Y15038084D01*
X54957916Y14851600D01*
X51500000Y14851600D01*
X51471695Y14847578D01*
X51445631Y14835829D01*
X51428158Y14821842D01*
X51178158Y14571842D01*
X51160988Y14548983D01*
X51150865Y14522245D01*
X51148400Y14500000D01*
X51148400Y13651294D01*
X51102706Y13605600D01*
X30351600Y13605600D01*
X30351600Y16628866D01*
X37213886Y16628866D01*
X37236350Y16382026D01*
X37306332Y16144250D01*
X37421164Y15924595D01*
X37576475Y15731428D01*
X37766347Y15572106D01*
X37983549Y15452698D01*
X38219807Y15377753D01*
X38466123Y15350124D01*
X38483855Y15350000D01*
X38496145Y15350000D01*
X38742823Y15374187D01*
X38980104Y15445827D01*
X39198952Y15562190D01*
X39391030Y15718845D01*
X39549023Y15909825D01*
X39666911Y16127855D01*
X39740206Y16364631D01*
X39766114Y16611134D01*
X39743650Y16857974D01*
X39673668Y17095750D01*
X39558836Y17315405D01*
X39403525Y17508572D01*
X39213653Y17667894D01*
X38996451Y17787302D01*
X38760193Y17862247D01*
X38523719Y17888772D01*
X39506000Y17888772D01*
X39546448Y17891998D01*
X39615053Y17913243D01*
X39675023Y17952761D01*
X39721609Y18007421D01*
X39751123Y18072895D01*
X39761228Y18144000D01*
X39761228Y20176000D01*
X39758002Y20216448D01*
X39736757Y20285053D01*
X39697239Y20345023D01*
X39642579Y20391609D01*
X39577105Y20421123D01*
X39506000Y20431228D01*
X37474000Y20431228D01*
X37433552Y20428002D01*
X37364947Y20406757D01*
X37304977Y20367239D01*
X37258391Y20312579D01*
X37228877Y20247105D01*
X37218772Y20176000D01*
X37218772Y18144000D01*
X37221998Y18103552D01*
X37243243Y18034947D01*
X37282761Y17974977D01*
X37337421Y17928391D01*
X37402895Y17898877D01*
X37474000Y17888772D01*
X38471331Y17888772D01*
X38237177Y17865813D01*
X37999896Y17794173D01*
X37781048Y17677810D01*
X37588970Y17521155D01*
X37430977Y17330175D01*
X37313089Y17112145D01*
X37239794Y16875369D01*
X37213886Y16628866D01*
X30351600Y16628866D01*
X30351600Y20176000D01*
X32138772Y20176000D01*
X32138772Y18144000D01*
X32141998Y18103552D01*
X32163243Y18034947D01*
X32202761Y17974977D01*
X32257421Y17928391D01*
X32322895Y17898877D01*
X32394000Y17888772D01*
X34426000Y17888772D01*
X34466448Y17891998D01*
X34535053Y17913243D01*
X34595023Y17952761D01*
X34641609Y18007421D01*
X34671123Y18072895D01*
X34681228Y18144000D01*
X34681228Y20176000D01*
X34678002Y20216448D01*
X34656757Y20285053D01*
X34617239Y20345023D01*
X34562579Y20391609D01*
X34497105Y20421123D01*
X34426000Y20431228D01*
X32394000Y20431228D01*
X32353552Y20428002D01*
X32284947Y20406757D01*
X32224977Y20367239D01*
X32178391Y20312579D01*
X32148877Y20247105D01*
X32138772Y20176000D01*
X30351600Y20176000D01*
X30351600Y20250000D01*
X30347578Y20278305D01*
X30335829Y20304369D01*
X30321842Y20321842D01*
X30071842Y20571842D01*
X30048983Y20589012D01*
X30022245Y20599135D01*
X30000000Y20601600D01*
X21250000Y20601600D01*
X21221695Y20597578D01*
X21195631Y20585829D01*
X21178158Y20571842D01*
X20928158Y20321842D01*
X20910988Y20298983D01*
X20900865Y20272245D01*
X20898400Y20250000D01*
X20898400Y18042084D01*
X20461916Y17605600D01*
X19603323Y17605600D01*
X19571105Y17620123D01*
X19500000Y17630228D01*
X18830228Y17630228D01*
X18830228Y19325000D01*
X18827002Y19365448D01*
X18805757Y19434053D01*
X18766239Y19494023D01*
X18711579Y19540609D01*
X18646105Y19570123D01*
X18575000Y19580228D01*
X18004000Y19580228D01*
X18004000Y21710316D01*
X18192084Y21898400D01*
X43166000Y21898400D01*
X43166000Y19600000D01*
G36*
X6085140Y22897660D02*
X5551165Y22548236D01*
X5095230Y22101752D01*
X4734701Y21575212D01*
X4483310Y20988672D01*
X4350632Y20364475D01*
X4341722Y19726395D01*
X4456919Y19098736D01*
X4691835Y18505406D01*
X5037522Y17969005D01*
X5480813Y17509964D01*
X6004823Y17145767D01*
X6589593Y16890288D01*
X7212849Y16753256D01*
X7850852Y16739892D01*
X7898400Y16748276D01*
X7898400Y12891878D01*
X7857916Y12932646D01*
X7767065Y12993926D01*
X7666041Y13036393D01*
X7558693Y13058428D01*
X7449109Y13059193D01*
X7341464Y13038659D01*
X7239857Y12997607D01*
X7148159Y12937601D01*
X7069863Y12860928D01*
X7007950Y12770507D01*
X6964780Y12669782D01*
X6941995Y12562590D01*
X6940465Y12453015D01*
X6960248Y12345229D01*
X7000589Y12243338D01*
X7059953Y12151223D01*
X7104010Y12105600D01*
X6548764Y12105600D01*
X6537539Y12162293D01*
X6495779Y12263610D01*
X6435134Y12354887D01*
X6357916Y12432646D01*
X6267065Y12493926D01*
X6166041Y12536393D01*
X6058693Y12558428D01*
X5949109Y12559193D01*
X5841464Y12538659D01*
X5739857Y12497607D01*
X5648159Y12437601D01*
X5569863Y12360928D01*
X5507950Y12270507D01*
X5464780Y12169782D01*
X5441995Y12062590D01*
X5440465Y11953015D01*
X5460248Y11845229D01*
X5500589Y11743338D01*
X5559953Y11651223D01*
X5604010Y11605600D01*
X5397294Y11605600D01*
X4105600Y12897294D01*
X4105600Y14397320D01*
X4102387Y14430092D01*
X4099531Y14462733D01*
X4099011Y14464523D01*
X4098828Y14466390D01*
X4089319Y14497884D01*
X4080170Y14529379D01*
X4079309Y14531039D01*
X4078769Y14532829D01*
X4063344Y14561839D01*
X4048231Y14590994D01*
X4047065Y14592454D01*
X4046187Y14594106D01*
X4025421Y14619568D01*
X4004933Y14645232D01*
X4002367Y14647834D01*
X4002323Y14647888D01*
X4002273Y14647929D01*
X4001447Y14648767D01*
X3520767Y15129447D01*
X3567103Y15159981D01*
X3613689Y15214641D01*
X3643203Y15280115D01*
X3653308Y15351220D01*
X3653308Y16148780D01*
X3650082Y16189228D01*
X3628837Y16257833D01*
X3589319Y16317803D01*
X3534659Y16364389D01*
X3469185Y16393903D01*
X3398080Y16404008D01*
X2600520Y16404008D01*
X2560072Y16400782D01*
X2491467Y16379537D01*
X2431497Y16340019D01*
X2384911Y16285359D01*
X2355397Y16219885D01*
X2345292Y16148780D01*
X2345292Y15351220D01*
X2348518Y15310772D01*
X2369763Y15242167D01*
X2409281Y15182197D01*
X2463941Y15135611D01*
X2529415Y15106097D01*
X2600520Y15095992D01*
X2648598Y15095992D01*
X2649769Y15082607D01*
X2650289Y15080817D01*
X2650472Y15078950D01*
X2659981Y15047456D01*
X2669130Y15015961D01*
X2669991Y15014301D01*
X2670531Y15012511D01*
X2685956Y14983501D01*
X2701069Y14954346D01*
X2702235Y14952886D01*
X2703113Y14951234D01*
X2723879Y14925772D01*
X2744367Y14900108D01*
X2746933Y14897506D01*
X2746977Y14897452D01*
X2747027Y14897411D01*
X2747853Y14896573D01*
X3394400Y14250026D01*
X3394400Y12750000D01*
X3397613Y12717228D01*
X3400469Y12684587D01*
X3400989Y12682797D01*
X3401172Y12680930D01*
X3410681Y12649436D01*
X3419830Y12617941D01*
X3420691Y12616281D01*
X3421231Y12614491D01*
X3436656Y12585481D01*
X3451769Y12556326D01*
X3452935Y12554866D01*
X3453813Y12553214D01*
X3474579Y12527752D01*
X3495067Y12502088D01*
X3497633Y12499486D01*
X3497677Y12499432D01*
X3497727Y12499391D01*
X3498553Y12498553D01*
X4998553Y10998553D01*
X5023966Y10977678D01*
X5049098Y10956590D01*
X5050734Y10955691D01*
X5052181Y10954502D01*
X5081153Y10938967D01*
X5109914Y10923155D01*
X5111696Y10922590D01*
X5113344Y10921706D01*
X5144764Y10912100D01*
X5176067Y10902171D01*
X5177925Y10901963D01*
X5179713Y10901416D01*
X5212364Y10898100D01*
X5245035Y10894435D01*
X5248698Y10894409D01*
X5248759Y10894403D01*
X5248816Y10894408D01*
X5250000Y10894400D01*
X7898400Y10894400D01*
X7898400Y8040800D01*
X7896232Y8040815D01*
X7816251Y8025558D01*
X7773815Y8128517D01*
X7709741Y8224956D01*
X7685478Y8249389D01*
X7699093Y8262354D01*
X7765834Y8356966D01*
X7812927Y8462739D01*
X7838579Y8575645D01*
X7840426Y8707892D01*
X7817936Y8821470D01*
X7773815Y8928517D01*
X7709741Y9024956D01*
X7628156Y9107112D01*
X7532167Y9171858D01*
X7425431Y9216726D01*
X7312012Y9240007D01*
X7196232Y9240815D01*
X7082499Y9219120D01*
X6975146Y9175746D01*
X6878263Y9112348D01*
X6795539Y9031338D01*
X6730125Y8935804D01*
X6684513Y8829383D01*
X6660440Y8716130D01*
X6658824Y8600358D01*
X6679725Y8486476D01*
X6722348Y8378823D01*
X6785068Y8281500D01*
X6815054Y8250449D01*
X6795539Y8231338D01*
X6730125Y8135804D01*
X6684513Y8029383D01*
X6660440Y7916130D01*
X6658824Y7800358D01*
X6679725Y7686476D01*
X6722348Y7578823D01*
X6785068Y7481500D01*
X6815054Y7450449D01*
X6795539Y7431338D01*
X6730125Y7335804D01*
X6684513Y7229383D01*
X6660440Y7116130D01*
X6658824Y7000358D01*
X6679725Y6886476D01*
X6722348Y6778823D01*
X6785068Y6681500D01*
X6865498Y6598212D01*
X6960574Y6532133D01*
X7066674Y6485779D01*
X7179756Y6460916D01*
X7295514Y6458491D01*
X7384587Y6474197D01*
X7422348Y6378823D01*
X7485068Y6281500D01*
X7515054Y6250449D01*
X7495539Y6231338D01*
X7430125Y6135804D01*
X7384513Y6029383D01*
X7383646Y6025303D01*
X7312012Y6040007D01*
X7196232Y6040815D01*
X7082499Y6019120D01*
X6975146Y5975746D01*
X6878263Y5912348D01*
X6795539Y5831338D01*
X6730125Y5735804D01*
X6684513Y5629383D01*
X6660440Y5516130D01*
X6658824Y5400358D01*
X6679725Y5286476D01*
X6722348Y5178823D01*
X6785068Y5081500D01*
X6786418Y5080102D01*
X6678158Y4971842D01*
X6656405Y4939528D01*
X6648400Y4900000D01*
X6648400Y3600000D01*
X6655868Y3561769D01*
X6678158Y3528158D01*
X6928158Y3278158D01*
X6960472Y3256405D01*
X7000000Y3248400D01*
X7500000Y3248400D01*
X7538231Y3255868D01*
X7571842Y3278158D01*
X7692084Y3398400D01*
X9457916Y3398400D01*
X9678158Y3178158D01*
X9701017Y3160988D01*
X9727755Y3150865D01*
X9750000Y3148400D01*
X25250000Y3148400D01*
X25278305Y3152422D01*
X25304369Y3164171D01*
X25321842Y3178158D01*
X29292084Y7148400D01*
X59750000Y7148400D01*
X59778305Y7152422D01*
X59804369Y7164171D01*
X59821842Y7178158D01*
X62321842Y9678158D01*
X62339012Y9701017D01*
X62349135Y9727755D01*
X62351600Y9750000D01*
X62351600Y14750000D01*
X62347578Y14778305D01*
X62335829Y14804369D01*
X62321842Y14821842D01*
X62101600Y15042084D01*
X62101600Y16457916D01*
X62292084Y16648400D01*
X62500000Y16648400D01*
X62528305Y16652422D01*
X62554369Y16664171D01*
X62576128Y16682716D01*
X62591859Y16706589D01*
X62600316Y16733898D01*
X62601600Y16750000D01*
X62601600Y17148400D01*
X62898400Y17148400D01*
X62898400Y16750000D01*
X62902422Y16721695D01*
X62914171Y16695631D01*
X62932716Y16673872D01*
X62956589Y16658141D01*
X62983898Y16649684D01*
X63000000Y16648400D01*
X64500000Y16648400D01*
X64528305Y16652422D01*
X64554369Y16664171D01*
X64576128Y16682716D01*
X64591859Y16706589D01*
X64600316Y16733898D01*
X64601600Y16750000D01*
X64601600Y17148400D01*
X64898400Y17148400D01*
X64898400Y16750000D01*
X64902422Y16721695D01*
X64914171Y16695631D01*
X64932716Y16673872D01*
X64956589Y16658141D01*
X64983898Y16649684D01*
X65000000Y16648400D01*
X65750000Y16648400D01*
X65778305Y16652422D01*
X65804369Y16664171D01*
X65821842Y16678158D01*
X66071842Y16928158D01*
X66089012Y16951017D01*
X66099135Y16977755D01*
X66101600Y17000000D01*
X66101600Y18649862D01*
X66119653Y18644549D01*
X66162707Y18636336D01*
X66205718Y18627507D01*
X66212444Y18626848D01*
X66309626Y18618004D01*
X66353491Y18618310D01*
X66397356Y18618004D01*
X66404082Y18618663D01*
X66501130Y18628863D01*
X66544118Y18637687D01*
X66587192Y18645904D01*
X66593661Y18647857D01*
X66686880Y18676713D01*
X66727300Y18693704D01*
X66767995Y18710146D01*
X66773962Y18713319D01*
X66859800Y18759732D01*
X66896159Y18784257D01*
X66932873Y18808282D01*
X66938110Y18812553D01*
X67013299Y18874755D01*
X67044197Y18905870D01*
X67075548Y18936570D01*
X67079856Y18941778D01*
X67141532Y19017399D01*
X67165797Y19053921D01*
X67190595Y19090137D01*
X67193809Y19096082D01*
X67239621Y19182243D01*
X67256338Y19222802D01*
X67273617Y19263116D01*
X67275615Y19269572D01*
X67303820Y19362990D01*
X67312341Y19406022D01*
X67321462Y19448934D01*
X67322168Y19455655D01*
X67331690Y19552772D01*
X67331690Y19573068D01*
X67333953Y19593242D01*
X67334000Y19600000D01*
X67334000Y23016000D01*
X70678042Y23016000D01*
X70385140Y22897660D01*
X69851165Y22548236D01*
X69395230Y22101752D01*
X69034701Y21575212D01*
X68783310Y20988672D01*
X68650632Y20364475D01*
X68641722Y19726395D01*
X68756919Y19098736D01*
X68991835Y18505406D01*
X69337522Y17969005D01*
X69780813Y17509964D01*
X70304823Y17145767D01*
X70889593Y16890288D01*
X71512849Y16753256D01*
X72150852Y16739892D01*
X72779299Y16850704D01*
X73374255Y17081472D01*
X73913056Y17423406D01*
X74375181Y17863481D01*
X74743027Y18384936D01*
X74916000Y18773440D01*
X74916000Y5700480D01*
X74699520Y5484000D01*
X30000000Y5484000D01*
X29955555Y5479642D01*
X29910968Y5475741D01*
X29908521Y5475030D01*
X29905991Y5474782D01*
X29863269Y5461883D01*
X29820258Y5449388D01*
X29817993Y5448214D01*
X29815562Y5447480D01*
X29776088Y5426492D01*
X29736395Y5405916D01*
X29734410Y5404331D01*
X29732158Y5403134D01*
X29697491Y5374860D01*
X29662572Y5346985D01*
X29659025Y5343488D01*
X29658957Y5343432D01*
X29658905Y5343369D01*
X29657760Y5342240D01*
X24799520Y484000D01*
X700480Y484000D01*
X484000Y700480D01*
X484000Y2588704D01*
X7880042Y2588704D01*
X7905850Y2448088D01*
X7958478Y2315163D01*
X8035923Y2194992D01*
X8135235Y2092153D01*
X8252630Y2010561D01*
X8383637Y1953325D01*
X8523266Y1922626D01*
X8666199Y1919632D01*
X8806991Y1944457D01*
X8940280Y1996157D01*
X9060989Y2072761D01*
X9164519Y2171352D01*
X9246929Y2288174D01*
X9305077Y2418779D01*
X9336751Y2558190D01*
X9339031Y2721482D01*
X9311262Y2861724D01*
X9256783Y2993901D01*
X9177668Y3112979D01*
X9076930Y3214422D01*
X8958408Y3294366D01*
X8826614Y3349767D01*
X8686570Y3378514D01*
X8543609Y3379512D01*
X8403177Y3352723D01*
X8270623Y3299168D01*
X8150996Y3220886D01*
X8048852Y3120859D01*
X7968082Y3002898D01*
X7911762Y2871494D01*
X7882038Y2731654D01*
X7880042Y2588704D01*
X484000Y2588704D01*
X484000Y16148780D01*
X846692Y16148780D01*
X846692Y15351220D01*
X849918Y15310772D01*
X871163Y15242167D01*
X910681Y15182197D01*
X965341Y15135611D01*
X1030815Y15106097D01*
X1101920Y15095992D01*
X1144400Y15095992D01*
X1144400Y14431826D01*
X1140947Y14430757D01*
X1080977Y14391239D01*
X1034391Y14336579D01*
X1004877Y14271105D01*
X994772Y14200000D01*
X994772Y13300000D01*
X997998Y13259552D01*
X1019243Y13190947D01*
X1058761Y13130977D01*
X1113421Y13084391D01*
X1178895Y13054877D01*
X1250000Y13044772D01*
X1750000Y13044772D01*
X1790448Y13047998D01*
X1859053Y13069243D01*
X1919023Y13108761D01*
X1965609Y13163421D01*
X1995123Y13228895D01*
X2005228Y13300000D01*
X2005228Y14200000D01*
X2002002Y14240448D01*
X1980757Y14309053D01*
X1941239Y14369023D01*
X1886579Y14415609D01*
X1855600Y14429574D01*
X1855600Y15095992D01*
X1899480Y15095992D01*
X1939928Y15099218D01*
X2008533Y15120463D01*
X2068503Y15159981D01*
X2115089Y15214641D01*
X2144603Y15280115D01*
X2154708Y15351220D01*
X2154708Y16148780D01*
X2151482Y16189228D01*
X2130237Y16257833D01*
X2090719Y16317803D01*
X2036059Y16364389D01*
X1970585Y16393903D01*
X1899480Y16404008D01*
X1101920Y16404008D01*
X1061472Y16400782D01*
X992867Y16379537D01*
X932897Y16340019D01*
X886311Y16285359D01*
X856797Y16219885D01*
X846692Y16148780D01*
X484000Y16148780D01*
X484000Y22799520D01*
X700480Y23016000D01*
X6378042Y23016000D01*
X6085140Y22897660D01*
X6085140Y22897660D01*
G37*
X6085140Y22897660D02*
X5551165Y22548236D01*
X5095230Y22101752D01*
X4734701Y21575212D01*
X4483310Y20988672D01*
X4350632Y20364475D01*
X4341722Y19726395D01*
X4456919Y19098736D01*
X4691835Y18505406D01*
X5037522Y17969005D01*
X5480813Y17509964D01*
X6004823Y17145767D01*
X6589593Y16890288D01*
X7212849Y16753256D01*
X7850852Y16739892D01*
X7898400Y16748276D01*
X7898400Y12891878D01*
X7857916Y12932646D01*
X7767065Y12993926D01*
X7666041Y13036393D01*
X7558693Y13058428D01*
X7449109Y13059193D01*
X7341464Y13038659D01*
X7239857Y12997607D01*
X7148159Y12937601D01*
X7069863Y12860928D01*
X7007950Y12770507D01*
X6964780Y12669782D01*
X6941995Y12562590D01*
X6940465Y12453015D01*
X6960248Y12345229D01*
X7000589Y12243338D01*
X7059953Y12151223D01*
X7104010Y12105600D01*
X6548764Y12105600D01*
X6537539Y12162293D01*
X6495779Y12263610D01*
X6435134Y12354887D01*
X6357916Y12432646D01*
X6267065Y12493926D01*
X6166041Y12536393D01*
X6058693Y12558428D01*
X5949109Y12559193D01*
X5841464Y12538659D01*
X5739857Y12497607D01*
X5648159Y12437601D01*
X5569863Y12360928D01*
X5507950Y12270507D01*
X5464780Y12169782D01*
X5441995Y12062590D01*
X5440465Y11953015D01*
X5460248Y11845229D01*
X5500589Y11743338D01*
X5559953Y11651223D01*
X5604010Y11605600D01*
X5397294Y11605600D01*
X4105600Y12897294D01*
X4105600Y14397320D01*
X4102387Y14430092D01*
X4099531Y14462733D01*
X4099011Y14464523D01*
X4098828Y14466390D01*
X4089319Y14497884D01*
X4080170Y14529379D01*
X4079309Y14531039D01*
X4078769Y14532829D01*
X4063344Y14561839D01*
X4048231Y14590994D01*
X4047065Y14592454D01*
X4046187Y14594106D01*
X4025421Y14619568D01*
X4004933Y14645232D01*
X4002367Y14647834D01*
X4002323Y14647888D01*
X4002273Y14647929D01*
X4001447Y14648767D01*
X3520767Y15129447D01*
X3567103Y15159981D01*
X3613689Y15214641D01*
X3643203Y15280115D01*
X3653308Y15351220D01*
X3653308Y16148780D01*
X3650082Y16189228D01*
X3628837Y16257833D01*
X3589319Y16317803D01*
X3534659Y16364389D01*
X3469185Y16393903D01*
X3398080Y16404008D01*
X2600520Y16404008D01*
X2560072Y16400782D01*
X2491467Y16379537D01*
X2431497Y16340019D01*
X2384911Y16285359D01*
X2355397Y16219885D01*
X2345292Y16148780D01*
X2345292Y15351220D01*
X2348518Y15310772D01*
X2369763Y15242167D01*
X2409281Y15182197D01*
X2463941Y15135611D01*
X2529415Y15106097D01*
X2600520Y15095992D01*
X2648598Y15095992D01*
X2649769Y15082607D01*
X2650289Y15080817D01*
X2650472Y15078950D01*
X2659981Y15047456D01*
X2669130Y15015961D01*
X2669991Y15014301D01*
X2670531Y15012511D01*
X2685956Y14983501D01*
X2701069Y14954346D01*
X2702235Y14952886D01*
X2703113Y14951234D01*
X2723879Y14925772D01*
X2744367Y14900108D01*
X2746933Y14897506D01*
X2746977Y14897452D01*
X2747027Y14897411D01*
X2747853Y14896573D01*
X3394400Y14250026D01*
X3394400Y12750000D01*
X3397613Y12717228D01*
X3400469Y12684587D01*
X3400989Y12682797D01*
X3401172Y12680930D01*
X3410681Y12649436D01*
X3419830Y12617941D01*
X3420691Y12616281D01*
X3421231Y12614491D01*
X3436656Y12585481D01*
X3451769Y12556326D01*
X3452935Y12554866D01*
X3453813Y12553214D01*
X3474579Y12527752D01*
X3495067Y12502088D01*
X3497633Y12499486D01*
X3497677Y12499432D01*
X3497727Y12499391D01*
X3498553Y12498553D01*
X4998553Y10998553D01*
X5023966Y10977678D01*
X5049098Y10956590D01*
X5050734Y10955691D01*
X5052181Y10954502D01*
X5081153Y10938967D01*
X5109914Y10923155D01*
X5111696Y10922590D01*
X5113344Y10921706D01*
X5144764Y10912100D01*
X5176067Y10902171D01*
X5177925Y10901963D01*
X5179713Y10901416D01*
X5212364Y10898100D01*
X5245035Y10894435D01*
X5248698Y10894409D01*
X5248759Y10894403D01*
X5248816Y10894408D01*
X5250000Y10894400D01*
X7898400Y10894400D01*
X7898400Y8040800D01*
X7896232Y8040815D01*
X7816251Y8025558D01*
X7773815Y8128517D01*
X7709741Y8224956D01*
X7685478Y8249389D01*
X7699093Y8262354D01*
X7765834Y8356966D01*
X7812927Y8462739D01*
X7838579Y8575645D01*
X7840426Y8707892D01*
X7817936Y8821470D01*
X7773815Y8928517D01*
X7709741Y9024956D01*
X7628156Y9107112D01*
X7532167Y9171858D01*
X7425431Y9216726D01*
X7312012Y9240007D01*
X7196232Y9240815D01*
X7082499Y9219120D01*
X6975146Y9175746D01*
X6878263Y9112348D01*
X6795539Y9031338D01*
X6730125Y8935804D01*
X6684513Y8829383D01*
X6660440Y8716130D01*
X6658824Y8600358D01*
X6679725Y8486476D01*
X6722348Y8378823D01*
X6785068Y8281500D01*
X6815054Y8250449D01*
X6795539Y8231338D01*
X6730125Y8135804D01*
X6684513Y8029383D01*
X6660440Y7916130D01*
X6658824Y7800358D01*
X6679725Y7686476D01*
X6722348Y7578823D01*
X6785068Y7481500D01*
X6815054Y7450449D01*
X6795539Y7431338D01*
X6730125Y7335804D01*
X6684513Y7229383D01*
X6660440Y7116130D01*
X6658824Y7000358D01*
X6679725Y6886476D01*
X6722348Y6778823D01*
X6785068Y6681500D01*
X6865498Y6598212D01*
X6960574Y6532133D01*
X7066674Y6485779D01*
X7179756Y6460916D01*
X7295514Y6458491D01*
X7384587Y6474197D01*
X7422348Y6378823D01*
X7485068Y6281500D01*
X7515054Y6250449D01*
X7495539Y6231338D01*
X7430125Y6135804D01*
X7384513Y6029383D01*
X7383646Y6025303D01*
X7312012Y6040007D01*
X7196232Y6040815D01*
X7082499Y6019120D01*
X6975146Y5975746D01*
X6878263Y5912348D01*
X6795539Y5831338D01*
X6730125Y5735804D01*
X6684513Y5629383D01*
X6660440Y5516130D01*
X6658824Y5400358D01*
X6679725Y5286476D01*
X6722348Y5178823D01*
X6785068Y5081500D01*
X6786418Y5080102D01*
X6678158Y4971842D01*
X6656405Y4939528D01*
X6648400Y4900000D01*
X6648400Y3600000D01*
X6655868Y3561769D01*
X6678158Y3528158D01*
X6928158Y3278158D01*
X6960472Y3256405D01*
X7000000Y3248400D01*
X7500000Y3248400D01*
X7538231Y3255868D01*
X7571842Y3278158D01*
X7692084Y3398400D01*
X9457916Y3398400D01*
X9678158Y3178158D01*
X9701017Y3160988D01*
X9727755Y3150865D01*
X9750000Y3148400D01*
X25250000Y3148400D01*
X25278305Y3152422D01*
X25304369Y3164171D01*
X25321842Y3178158D01*
X29292084Y7148400D01*
X59750000Y7148400D01*
X59778305Y7152422D01*
X59804369Y7164171D01*
X59821842Y7178158D01*
X62321842Y9678158D01*
X62339012Y9701017D01*
X62349135Y9727755D01*
X62351600Y9750000D01*
X62351600Y14750000D01*
X62347578Y14778305D01*
X62335829Y14804369D01*
X62321842Y14821842D01*
X62101600Y15042084D01*
X62101600Y16457916D01*
X62292084Y16648400D01*
X62500000Y16648400D01*
X62528305Y16652422D01*
X62554369Y16664171D01*
X62576128Y16682716D01*
X62591859Y16706589D01*
X62600316Y16733898D01*
X62601600Y16750000D01*
X62601600Y17148400D01*
X62898400Y17148400D01*
X62898400Y16750000D01*
X62902422Y16721695D01*
X62914171Y16695631D01*
X62932716Y16673872D01*
X62956589Y16658141D01*
X62983898Y16649684D01*
X63000000Y16648400D01*
X64500000Y16648400D01*
X64528305Y16652422D01*
X64554369Y16664171D01*
X64576128Y16682716D01*
X64591859Y16706589D01*
X64600316Y16733898D01*
X64601600Y16750000D01*
X64601600Y17148400D01*
X64898400Y17148400D01*
X64898400Y16750000D01*
X64902422Y16721695D01*
X64914171Y16695631D01*
X64932716Y16673872D01*
X64956589Y16658141D01*
X64983898Y16649684D01*
X65000000Y16648400D01*
X65750000Y16648400D01*
X65778305Y16652422D01*
X65804369Y16664171D01*
X65821842Y16678158D01*
X66071842Y16928158D01*
X66089012Y16951017D01*
X66099135Y16977755D01*
X66101600Y17000000D01*
X66101600Y18649862D01*
X66119653Y18644549D01*
X66162707Y18636336D01*
X66205718Y18627507D01*
X66212444Y18626848D01*
X66309626Y18618004D01*
X66353491Y18618310D01*
X66397356Y18618004D01*
X66404082Y18618663D01*
X66501130Y18628863D01*
X66544118Y18637687D01*
X66587192Y18645904D01*
X66593661Y18647857D01*
X66686880Y18676713D01*
X66727300Y18693704D01*
X66767995Y18710146D01*
X66773962Y18713319D01*
X66859800Y18759732D01*
X66896159Y18784257D01*
X66932873Y18808282D01*
X66938110Y18812553D01*
X67013299Y18874755D01*
X67044197Y18905870D01*
X67075548Y18936570D01*
X67079856Y18941778D01*
X67141532Y19017399D01*
X67165797Y19053921D01*
X67190595Y19090137D01*
X67193809Y19096082D01*
X67239621Y19182243D01*
X67256338Y19222802D01*
X67273617Y19263116D01*
X67275615Y19269572D01*
X67303820Y19362990D01*
X67312341Y19406022D01*
X67321462Y19448934D01*
X67322168Y19455655D01*
X67331690Y19552772D01*
X67331690Y19573068D01*
X67333953Y19593242D01*
X67334000Y19600000D01*
X67334000Y23016000D01*
X70678042Y23016000D01*
X70385140Y22897660D01*
X69851165Y22548236D01*
X69395230Y22101752D01*
X69034701Y21575212D01*
X68783310Y20988672D01*
X68650632Y20364475D01*
X68641722Y19726395D01*
X68756919Y19098736D01*
X68991835Y18505406D01*
X69337522Y17969005D01*
X69780813Y17509964D01*
X70304823Y17145767D01*
X70889593Y16890288D01*
X71512849Y16753256D01*
X72150852Y16739892D01*
X72779299Y16850704D01*
X73374255Y17081472D01*
X73913056Y17423406D01*
X74375181Y17863481D01*
X74743027Y18384936D01*
X74916000Y18773440D01*
X74916000Y5700480D01*
X74699520Y5484000D01*
X30000000Y5484000D01*
X29955555Y5479642D01*
X29910968Y5475741D01*
X29908521Y5475030D01*
X29905991Y5474782D01*
X29863269Y5461883D01*
X29820258Y5449388D01*
X29817993Y5448214D01*
X29815562Y5447480D01*
X29776088Y5426492D01*
X29736395Y5405916D01*
X29734410Y5404331D01*
X29732158Y5403134D01*
X29697491Y5374860D01*
X29662572Y5346985D01*
X29659025Y5343488D01*
X29658957Y5343432D01*
X29658905Y5343369D01*
X29657760Y5342240D01*
X24799520Y484000D01*
X700480Y484000D01*
X484000Y700480D01*
X484000Y2588704D01*
X7880042Y2588704D01*
X7905850Y2448088D01*
X7958478Y2315163D01*
X8035923Y2194992D01*
X8135235Y2092153D01*
X8252630Y2010561D01*
X8383637Y1953325D01*
X8523266Y1922626D01*
X8666199Y1919632D01*
X8806991Y1944457D01*
X8940280Y1996157D01*
X9060989Y2072761D01*
X9164519Y2171352D01*
X9246929Y2288174D01*
X9305077Y2418779D01*
X9336751Y2558190D01*
X9339031Y2721482D01*
X9311262Y2861724D01*
X9256783Y2993901D01*
X9177668Y3112979D01*
X9076930Y3214422D01*
X8958408Y3294366D01*
X8826614Y3349767D01*
X8686570Y3378514D01*
X8543609Y3379512D01*
X8403177Y3352723D01*
X8270623Y3299168D01*
X8150996Y3220886D01*
X8048852Y3120859D01*
X7968082Y3002898D01*
X7911762Y2871494D01*
X7882038Y2731654D01*
X7880042Y2588704D01*
X484000Y2588704D01*
X484000Y16148780D01*
X846692Y16148780D01*
X846692Y15351220D01*
X849918Y15310772D01*
X871163Y15242167D01*
X910681Y15182197D01*
X965341Y15135611D01*
X1030815Y15106097D01*
X1101920Y15095992D01*
X1144400Y15095992D01*
X1144400Y14431826D01*
X1140947Y14430757D01*
X1080977Y14391239D01*
X1034391Y14336579D01*
X1004877Y14271105D01*
X994772Y14200000D01*
X994772Y13300000D01*
X997998Y13259552D01*
X1019243Y13190947D01*
X1058761Y13130977D01*
X1113421Y13084391D01*
X1178895Y13054877D01*
X1250000Y13044772D01*
X1750000Y13044772D01*
X1790448Y13047998D01*
X1859053Y13069243D01*
X1919023Y13108761D01*
X1965609Y13163421D01*
X1995123Y13228895D01*
X2005228Y13300000D01*
X2005228Y14200000D01*
X2002002Y14240448D01*
X1980757Y14309053D01*
X1941239Y14369023D01*
X1886579Y14415609D01*
X1855600Y14429574D01*
X1855600Y15095992D01*
X1899480Y15095992D01*
X1939928Y15099218D01*
X2008533Y15120463D01*
X2068503Y15159981D01*
X2115089Y15214641D01*
X2144603Y15280115D01*
X2154708Y15351220D01*
X2154708Y16148780D01*
X2151482Y16189228D01*
X2130237Y16257833D01*
X2090719Y16317803D01*
X2036059Y16364389D01*
X1970585Y16393903D01*
X1899480Y16404008D01*
X1101920Y16404008D01*
X1061472Y16400782D01*
X992867Y16379537D01*
X932897Y16340019D01*
X886311Y16285359D01*
X856797Y16219885D01*
X846692Y16148780D01*
X484000Y16148780D01*
X484000Y22799520D01*
X700480Y23016000D01*
X6378042Y23016000D01*
X6085140Y22897660D01*
G36*
X43166000Y22351600D02*
X9850829Y22351600D01*
X9684214Y22519382D01*
X9155170Y22876227D01*
X8822663Y23016000D01*
X43166000Y23016000D01*
X43166000Y22351600D01*
X43166000Y22351600D01*
G37*
X43166000Y22351600D02*
X9850829Y22351600D01*
X9684214Y22519382D01*
X9155170Y22876227D01*
X8822663Y23016000D01*
X43166000Y23016000D01*
X43166000Y22351600D01*
G36*
X17648400Y21707916D02*
X17648400Y20362197D01*
X17629877Y20321105D01*
X17619772Y20250000D01*
X17619772Y19580228D01*
X16925000Y19580228D01*
X16884552Y19577002D01*
X16815947Y19555757D01*
X16755977Y19516239D01*
X16709391Y19461579D01*
X16679877Y19396105D01*
X16669772Y19325000D01*
X16669772Y18130228D01*
X16000000Y18130228D01*
X15959552Y18127002D01*
X15890947Y18105757D01*
X15890709Y18105600D01*
X15684426Y18105600D01*
X15607916Y18182646D01*
X15517065Y18243926D01*
X15416041Y18286393D01*
X15308693Y18308428D01*
X15199109Y18309193D01*
X15091464Y18288659D01*
X14989857Y18247607D01*
X14898159Y18187601D01*
X14819863Y18110928D01*
X14813476Y18101600D01*
X14542084Y18101600D01*
X14105600Y18538084D01*
X14105600Y19068174D01*
X14109053Y19069243D01*
X14169023Y19108761D01*
X14215609Y19163421D01*
X14245123Y19228895D01*
X14255228Y19300000D01*
X14255228Y20200000D01*
X14252002Y20240448D01*
X14230757Y20309053D01*
X14191239Y20369023D01*
X14136579Y20415609D01*
X14101600Y20431377D01*
X14101600Y21707916D01*
X14292084Y21898400D01*
X17457916Y21898400D01*
X17648400Y21707916D01*
X17648400Y21707916D01*
G37*
X17648400Y21707916D02*
X17648400Y20362197D01*
X17629877Y20321105D01*
X17619772Y20250000D01*
X17619772Y19580228D01*
X16925000Y19580228D01*
X16884552Y19577002D01*
X16815947Y19555757D01*
X16755977Y19516239D01*
X16709391Y19461579D01*
X16679877Y19396105D01*
X16669772Y19325000D01*
X16669772Y18130228D01*
X16000000Y18130228D01*
X15959552Y18127002D01*
X15890947Y18105757D01*
X15890709Y18105600D01*
X15684426Y18105600D01*
X15607916Y18182646D01*
X15517065Y18243926D01*
X15416041Y18286393D01*
X15308693Y18308428D01*
X15199109Y18309193D01*
X15091464Y18288659D01*
X14989857Y18247607D01*
X14898159Y18187601D01*
X14819863Y18110928D01*
X14813476Y18101600D01*
X14542084Y18101600D01*
X14105600Y18538084D01*
X14105600Y19068174D01*
X14109053Y19069243D01*
X14169023Y19108761D01*
X14215609Y19163421D01*
X14245123Y19228895D01*
X14255228Y19300000D01*
X14255228Y20200000D01*
X14252002Y20240448D01*
X14230757Y20309053D01*
X14191239Y20369023D01*
X14136579Y20415609D01*
X14101600Y20431377D01*
X14101600Y21707916D01*
X14292084Y21898400D01*
X17457916Y21898400D01*
X17648400Y21707916D01*
G36*
X59898400Y16750000D02*
X59902422Y16721695D01*
X59914171Y16695631D01*
X59928158Y16678158D01*
X60148400Y16457916D01*
X60148400Y11042084D01*
X58457916Y9351600D01*
X28000000Y9351600D01*
X27971695Y9347578D01*
X27945631Y9335829D01*
X27928158Y9321842D01*
X23957916Y5351600D01*
X13542084Y5351600D01*
X13351600Y5542084D01*
X13351600Y7000000D01*
X13347578Y7028305D01*
X13335829Y7054369D01*
X13321842Y7071842D01*
X12351600Y8042084D01*
X12351600Y8348706D01*
X14251447Y10248552D01*
X14251452Y10248558D01*
X14397294Y10394400D01*
X21316542Y10394400D01*
X21386078Y10322393D01*
X21476065Y10259851D01*
X21576486Y10215978D01*
X21683516Y10192446D01*
X21793078Y10190151D01*
X21901000Y10209180D01*
X22003170Y10248809D01*
X22095696Y10307529D01*
X22175056Y10383102D01*
X22238225Y10472650D01*
X22282798Y10572762D01*
X22307076Y10679625D01*
X22308824Y10804793D01*
X22291082Y10894400D01*
X57500000Y10894400D01*
X57532772Y10897613D01*
X57565413Y10900469D01*
X57567203Y10900989D01*
X57569070Y10901172D01*
X57600564Y10910681D01*
X57632059Y10919830D01*
X57633719Y10920691D01*
X57635509Y10921231D01*
X57664519Y10936656D01*
X57693674Y10951769D01*
X57695134Y10952935D01*
X57696786Y10953813D01*
X57722248Y10974579D01*
X57747912Y10995067D01*
X57750514Y10997633D01*
X57750568Y10997677D01*
X57750609Y10997727D01*
X57751447Y10998553D01*
X58501447Y11748553D01*
X58522322Y11773966D01*
X58543410Y11799098D01*
X58544309Y11800734D01*
X58545498Y11802181D01*
X58561033Y11831153D01*
X58576845Y11859914D01*
X58577410Y11861696D01*
X58578294Y11863344D01*
X58587900Y11894764D01*
X58597829Y11926067D01*
X58598037Y11927925D01*
X58598584Y11929713D01*
X58601905Y11962409D01*
X58605565Y11995035D01*
X58605591Y11998688D01*
X58605598Y11998759D01*
X58605592Y11998825D01*
X58605600Y12000000D01*
X58605600Y15000000D01*
X58602387Y15032768D01*
X58599531Y15065413D01*
X58599011Y15067203D01*
X58598828Y15069070D01*
X58589319Y15100564D01*
X58580170Y15132059D01*
X58579309Y15133719D01*
X58578769Y15135509D01*
X58563323Y15164558D01*
X58548230Y15193674D01*
X58547067Y15195131D01*
X58546187Y15196786D01*
X58525398Y15222275D01*
X58504933Y15247912D01*
X58502367Y15250514D01*
X58502323Y15250568D01*
X58502273Y15250609D01*
X58501447Y15251447D01*
X58355600Y15397294D01*
X58355600Y16211916D01*
X58792084Y16648400D01*
X59500000Y16648400D01*
X59528305Y16652422D01*
X59554369Y16664171D01*
X59576128Y16682716D01*
X59591859Y16706589D01*
X59600316Y16733898D01*
X59601600Y16750000D01*
X59601600Y17148400D01*
X59898400Y17148400D01*
X59898400Y16750000D01*
X59898400Y16750000D01*
G37*
X59898400Y16750000D02*
X59902422Y16721695D01*
X59914171Y16695631D01*
X59928158Y16678158D01*
X60148400Y16457916D01*
X60148400Y11042084D01*
X58457916Y9351600D01*
X28000000Y9351600D01*
X27971695Y9347578D01*
X27945631Y9335829D01*
X27928158Y9321842D01*
X23957916Y5351600D01*
X13542084Y5351600D01*
X13351600Y5542084D01*
X13351600Y7000000D01*
X13347578Y7028305D01*
X13335829Y7054369D01*
X13321842Y7071842D01*
X12351600Y8042084D01*
X12351600Y8348706D01*
X14251447Y10248552D01*
X14251452Y10248558D01*
X14397294Y10394400D01*
X21316542Y10394400D01*
X21386078Y10322393D01*
X21476065Y10259851D01*
X21576486Y10215978D01*
X21683516Y10192446D01*
X21793078Y10190151D01*
X21901000Y10209180D01*
X22003170Y10248809D01*
X22095696Y10307529D01*
X22175056Y10383102D01*
X22238225Y10472650D01*
X22282798Y10572762D01*
X22307076Y10679625D01*
X22308824Y10804793D01*
X22291082Y10894400D01*
X57500000Y10894400D01*
X57532772Y10897613D01*
X57565413Y10900469D01*
X57567203Y10900989D01*
X57569070Y10901172D01*
X57600564Y10910681D01*
X57632059Y10919830D01*
X57633719Y10920691D01*
X57635509Y10921231D01*
X57664519Y10936656D01*
X57693674Y10951769D01*
X57695134Y10952935D01*
X57696786Y10953813D01*
X57722248Y10974579D01*
X57747912Y10995067D01*
X57750514Y10997633D01*
X57750568Y10997677D01*
X57750609Y10997727D01*
X57751447Y10998553D01*
X58501447Y11748553D01*
X58522322Y11773966D01*
X58543410Y11799098D01*
X58544309Y11800734D01*
X58545498Y11802181D01*
X58561033Y11831153D01*
X58576845Y11859914D01*
X58577410Y11861696D01*
X58578294Y11863344D01*
X58587900Y11894764D01*
X58597829Y11926067D01*
X58598037Y11927925D01*
X58598584Y11929713D01*
X58601905Y11962409D01*
X58605565Y11995035D01*
X58605591Y11998688D01*
X58605598Y11998759D01*
X58605592Y11998825D01*
X58605600Y12000000D01*
X58605600Y15000000D01*
X58602387Y15032768D01*
X58599531Y15065413D01*
X58599011Y15067203D01*
X58598828Y15069070D01*
X58589319Y15100564D01*
X58580170Y15132059D01*
X58579309Y15133719D01*
X58578769Y15135509D01*
X58563323Y15164558D01*
X58548230Y15193674D01*
X58547067Y15195131D01*
X58546187Y15196786D01*
X58525398Y15222275D01*
X58504933Y15247912D01*
X58502367Y15250514D01*
X58502323Y15250568D01*
X58502273Y15250609D01*
X58501447Y15251447D01*
X58355600Y15397294D01*
X58355600Y16211916D01*
X58792084Y16648400D01*
X59500000Y16648400D01*
X59528305Y16652422D01*
X59554369Y16664171D01*
X59576128Y16682716D01*
X59591859Y16706589D01*
X59600316Y16733898D01*
X59601600Y16750000D01*
X59601600Y17148400D01*
X59898400Y17148400D01*
X59898400Y16750000D01*
M02*
