G04 #@! TF.FileFunction,Paste,Top*
%FSLAX46Y46*%
G04 Gerber Fmt 4.6, Leading zero omitted, Abs format (unit mm)*
G04 Created by KiCad (PCBNEW 4.0.7) date Thursday, January 18, 2018 'PMt' 01:36:02 PM*
%MOMM*%
%LPD*%
G01*
G04 APERTURE LIST*
%ADD10C,0.100000*%
%ADD11R,0.800000X0.750000*%
%ADD12R,0.797560X0.797560*%
%ADD13R,0.900000X0.500000*%
%ADD14R,0.500000X0.900000*%
%ADD15R,0.700000X0.250000*%
%ADD16R,0.250000X0.700000*%
%ADD17R,0.495000X0.795000*%
%ADD18R,0.700000X0.300000*%
G04 APERTURE END LIST*
D10*
D11*
X13750000Y13750000D03*
X12250000Y13750000D03*
D12*
X2999300Y15750000D03*
X1500700Y15750000D03*
X21750700Y15750000D03*
X23249300Y15750000D03*
X21750700Y19750000D03*
X23249300Y19750000D03*
D13*
X54250000Y14250000D03*
X54250000Y12750000D03*
X52250000Y12750000D03*
X52250000Y14250000D03*
X56250000Y14250000D03*
X56250000Y12750000D03*
D14*
X1500000Y13750000D03*
X3000000Y13750000D03*
X12250000Y19750000D03*
X13750000Y19750000D03*
X13750000Y17750000D03*
X12250000Y17750000D03*
X13750000Y15750000D03*
X12250000Y15750000D03*
X23250000Y13750000D03*
X21750000Y13750000D03*
X18500000Y13750000D03*
X17000000Y13750000D03*
X23250000Y17750000D03*
X21750000Y17750000D03*
D15*
X19150000Y16750000D03*
X19150000Y17250000D03*
X19150000Y17750000D03*
X19150000Y18250000D03*
X19150000Y18750000D03*
X19150000Y19250000D03*
D16*
X18500000Y19900000D03*
X18000000Y19900000D03*
X17500000Y19900000D03*
X17000000Y19900000D03*
D15*
X16350000Y19250000D03*
X16350000Y18750000D03*
X16350000Y18250000D03*
X16350000Y17750000D03*
X16350000Y17250000D03*
X16350000Y16750000D03*
D16*
X17000000Y16100000D03*
X17500000Y16100000D03*
X18000000Y16100000D03*
X18500000Y16100000D03*
D17*
X17337500Y18662500D03*
X17337500Y17337500D03*
X18162500Y18662500D03*
X18162500Y17337500D03*
D18*
X9270000Y9000000D03*
X9270000Y8500000D03*
X9270000Y8000000D03*
X9270000Y7500000D03*
X9270000Y7000000D03*
X9270000Y6500000D03*
X9270000Y6000000D03*
X9270000Y3500000D03*
X9270000Y4500000D03*
X9270000Y5000000D03*
X9270000Y5500000D03*
X9270000Y4000000D03*
M02*
