G04 #@! TF.FileFunction,Copper,L4,Bot,Signal*
%FSLAX46Y46*%
G04 Gerber Fmt 4.6, Leading zero omitted, Abs format (unit mm)*
G04 Created by KiCad (PCBNEW 4.0.7) date Thursday, January 18, 2018 'PMt' 01:36:02 PM*
%MOMM*%
%LPD*%
G01*
G04 APERTURE LIST*
%ADD10C,0.100000*%
%ADD11C,0.152400*%
%ADD12R,2.032000X2.032000*%
%ADD13O,2.032000X2.032000*%
%ADD14C,6.000000*%
%ADD15C,1.204800*%
%ADD16C,0.672800*%
%ADD17R,0.700000X3.000000*%
%ADD18C,0.609600*%
%ADD19C,0.500000*%
%ADD20C,0.203200*%
%ADD21C,0.609600*%
%ADD22C,0.236000*%
G04 APERTURE END LIST*
D10*
D11*
X71965467Y15749998D02*
X71265467Y15749998D01*
X71265467Y15483332D01*
X71298800Y15416665D01*
X71332133Y15383332D01*
X71398800Y15349998D01*
X71498800Y15349998D01*
X71565467Y15383332D01*
X71598800Y15416665D01*
X71632133Y15483332D01*
X71632133Y15749998D01*
X71898800Y14649998D02*
X71932133Y14683332D01*
X71965467Y14783332D01*
X71965467Y14849998D01*
X71932133Y14949998D01*
X71865467Y15016665D01*
X71798800Y15049998D01*
X71665467Y15083332D01*
X71565467Y15083332D01*
X71432133Y15049998D01*
X71365467Y15016665D01*
X71298800Y14949998D01*
X71265467Y14849998D01*
X71265467Y14783332D01*
X71298800Y14683332D01*
X71332133Y14649998D01*
X71965467Y14349998D02*
X71265467Y14349998D01*
X71932133Y13749999D02*
X71965467Y13816665D01*
X71965467Y13949999D01*
X71932133Y14016665D01*
X71865467Y14049999D01*
X71598800Y14049999D01*
X71532133Y14016665D01*
X71498800Y13949999D01*
X71498800Y13816665D01*
X71532133Y13749999D01*
X71598800Y13716665D01*
X71665467Y13716665D01*
X71732133Y14049999D01*
X71965467Y12883332D02*
X71265467Y12883332D01*
X71765467Y12649999D01*
X71265467Y12416666D01*
X71965467Y12416666D01*
X71965467Y12083332D02*
X71498800Y12083332D01*
X71265467Y12083332D02*
X71298800Y12116666D01*
X71332133Y12083332D01*
X71298800Y12049999D01*
X71265467Y12083332D01*
X71332133Y12083332D01*
X71498800Y11749999D02*
X71965467Y11749999D01*
X71565467Y11749999D02*
X71532133Y11716666D01*
X71498800Y11649999D01*
X71498800Y11549999D01*
X71532133Y11483333D01*
X71598800Y11449999D01*
X71965467Y11449999D01*
X71965467Y11116666D02*
X71498800Y11116666D01*
X71265467Y11116666D02*
X71298800Y11150000D01*
X71332133Y11116666D01*
X71298800Y11083333D01*
X71265467Y11116666D01*
X71332133Y11116666D01*
X71598800Y10016667D02*
X71632133Y9916667D01*
X71665467Y9883334D01*
X71732133Y9850000D01*
X71832133Y9850000D01*
X71898800Y9883334D01*
X71932133Y9916667D01*
X71965467Y9983334D01*
X71965467Y10250000D01*
X71265467Y10250000D01*
X71265467Y10016667D01*
X71298800Y9950000D01*
X71332133Y9916667D01*
X71398800Y9883334D01*
X71465467Y9883334D01*
X71532133Y9916667D01*
X71565467Y9950000D01*
X71598800Y10016667D01*
X71598800Y10250000D01*
X71965467Y9550000D02*
X71498800Y9550000D01*
X71632133Y9550000D02*
X71565467Y9516667D01*
X71532133Y9483334D01*
X71498800Y9416667D01*
X71498800Y9350000D01*
X71965467Y9116667D02*
X71498800Y9116667D01*
X71265467Y9116667D02*
X71298800Y9150001D01*
X71332133Y9116667D01*
X71298800Y9083334D01*
X71265467Y9116667D01*
X71332133Y9116667D01*
X71965467Y8483334D02*
X71265467Y8483334D01*
X71932133Y8483334D02*
X71965467Y8550001D01*
X71965467Y8683334D01*
X71932133Y8750001D01*
X71898800Y8783334D01*
X71832133Y8816668D01*
X71632133Y8816668D01*
X71565467Y8783334D01*
X71532133Y8750001D01*
X71498800Y8683334D01*
X71498800Y8550001D01*
X71532133Y8483334D01*
X71498800Y7850001D02*
X72065467Y7850001D01*
X72132133Y7883335D01*
X72165467Y7916668D01*
X72198800Y7983335D01*
X72198800Y8083335D01*
X72165467Y8150001D01*
X71932133Y7850001D02*
X71965467Y7916668D01*
X71965467Y8050001D01*
X71932133Y8116668D01*
X71898800Y8150001D01*
X71832133Y8183335D01*
X71632133Y8183335D01*
X71565467Y8150001D01*
X71532133Y8116668D01*
X71498800Y8050001D01*
X71498800Y7916668D01*
X71532133Y7850001D01*
X71932133Y7250002D02*
X71965467Y7316668D01*
X71965467Y7450002D01*
X71932133Y7516668D01*
X71865467Y7550002D01*
X71598800Y7550002D01*
X71532133Y7516668D01*
X71498800Y7450002D01*
X71498800Y7316668D01*
X71532133Y7250002D01*
X71598800Y7216668D01*
X71665467Y7216668D01*
X71732133Y7550002D01*
X73167867Y15483331D02*
X72834533Y15716665D01*
X73167867Y15883331D02*
X72467867Y15883331D01*
X72467867Y15616665D01*
X72501200Y15549998D01*
X72534533Y15516665D01*
X72601200Y15483331D01*
X72701200Y15483331D01*
X72767867Y15516665D01*
X72801200Y15549998D01*
X72834533Y15616665D01*
X72834533Y15883331D01*
X73134533Y14916665D02*
X73167867Y14983331D01*
X73167867Y15116665D01*
X73134533Y15183331D01*
X73067867Y15216665D01*
X72801200Y15216665D01*
X72734533Y15183331D01*
X72701200Y15116665D01*
X72701200Y14983331D01*
X72734533Y14916665D01*
X72801200Y14883331D01*
X72867867Y14883331D01*
X72934533Y15216665D01*
X72701200Y14649998D02*
X73167867Y14483331D01*
X72701200Y14316665D01*
X73167867Y13149999D02*
X73167867Y13549999D01*
X73167867Y13349999D02*
X72467867Y13349999D01*
X72567867Y13416665D01*
X72634533Y13483332D01*
X72667867Y13549999D01*
X72901200Y12316665D02*
X72901200Y11783332D01*
X73167867Y10916665D02*
X72701200Y10916665D01*
X72467867Y10916665D02*
X72501200Y10949999D01*
X72534533Y10916665D01*
X72501200Y10883332D01*
X72467867Y10916665D01*
X72534533Y10916665D01*
X73167867Y10583332D02*
X72467867Y10583332D01*
X73167867Y10283332D02*
X72801200Y10283332D01*
X72734533Y10316666D01*
X72701200Y10383332D01*
X72701200Y10483332D01*
X72734533Y10549999D01*
X72767867Y10583332D01*
X73167867Y9649999D02*
X72801200Y9649999D01*
X72734533Y9683333D01*
X72701200Y9749999D01*
X72701200Y9883333D01*
X72734533Y9949999D01*
X73134533Y9649999D02*
X73167867Y9716666D01*
X73167867Y9883333D01*
X73134533Y9949999D01*
X73067867Y9983333D01*
X73001200Y9983333D01*
X72934533Y9949999D01*
X72901200Y9883333D01*
X72901200Y9716666D01*
X72867867Y9649999D01*
X73167867Y9316666D02*
X72701200Y9316666D01*
X72834533Y9316666D02*
X72767867Y9283333D01*
X72734533Y9250000D01*
X72701200Y9183333D01*
X72701200Y9116666D01*
X72701200Y8983333D02*
X72701200Y8716667D01*
X72467867Y8883333D02*
X73067867Y8883333D01*
X73134533Y8850000D01*
X73167867Y8783333D01*
X73167867Y8716667D01*
X72701200Y8550000D02*
X73167867Y8416667D01*
X72834533Y8283333D01*
X73167867Y8150000D01*
X72701200Y8016667D01*
X73167867Y7750000D02*
X72701200Y7750000D01*
X72467867Y7750000D02*
X72501200Y7783334D01*
X72534533Y7750000D01*
X72501200Y7716667D01*
X72467867Y7750000D01*
X72534533Y7750000D01*
X72701200Y7116667D02*
X73267867Y7116667D01*
X73334533Y7150001D01*
X73367867Y7183334D01*
X73401200Y7250001D01*
X73401200Y7350001D01*
X73367867Y7416667D01*
X73134533Y7116667D02*
X73167867Y7183334D01*
X73167867Y7316667D01*
X73134533Y7383334D01*
X73101200Y7416667D01*
X73034533Y7450001D01*
X72834533Y7450001D01*
X72767867Y7416667D01*
X72734533Y7383334D01*
X72701200Y7316667D01*
X72701200Y7183334D01*
X72734533Y7116667D01*
D12*
X38490000Y19160000D03*
D13*
X38490000Y16620000D03*
D12*
X33410000Y19160000D03*
D13*
X33410000Y16620000D03*
D12*
X28330000Y19160000D03*
D13*
X28330000Y16620000D03*
D14*
X71900000Y20000000D03*
X7600000Y20000000D03*
D15*
X7360000Y10380000D03*
X7360000Y2120000D03*
X1410000Y1760000D03*
X1410000Y10740000D03*
D16*
X7950000Y3450000D03*
X7250000Y3850000D03*
X7250000Y4650000D03*
X7250000Y5450000D03*
X7950000Y5050000D03*
X7950000Y5850000D03*
X7950000Y6650000D03*
X7950000Y7450000D03*
X7250000Y7050000D03*
X7250000Y7850000D03*
X7250000Y8650000D03*
X7950000Y9050000D03*
D17*
X45750000Y18500000D03*
X47750000Y18500000D03*
X48750000Y18500000D03*
X49750000Y18500000D03*
X50750000Y18500000D03*
X51750000Y18500000D03*
X52750000Y18500000D03*
X53750000Y18500000D03*
X54750000Y18500000D03*
X55750000Y18500000D03*
X58750000Y18500000D03*
X59750000Y18500000D03*
X60750000Y18500000D03*
X61750000Y18500000D03*
X62750000Y18500000D03*
X63750000Y18500000D03*
X46750000Y18500000D03*
X64750000Y18500000D03*
D18*
X750000Y2750000D03*
X750000Y4750000D03*
X750000Y6750000D03*
X750000Y8750000D03*
X69750000Y22750000D03*
X67750000Y22750000D03*
X750000Y12750000D03*
X750000Y14750000D03*
X750000Y16750000D03*
X750000Y18750000D03*
X750000Y20750000D03*
X1250000Y22750000D03*
X3250000Y22750000D03*
X41250000Y22750000D03*
X39250000Y22750000D03*
X37250000Y22750000D03*
X35250000Y22750000D03*
X33250000Y22750000D03*
X31250000Y22750000D03*
X29250000Y22750000D03*
X27250000Y22750000D03*
X25250000Y22750000D03*
X23250000Y22750000D03*
X21250000Y22750000D03*
X19250000Y22750000D03*
X17250000Y22750000D03*
X15250000Y22750000D03*
X13250000Y22750000D03*
X11250000Y22750000D03*
X14500000Y10000000D03*
X21250000Y10000000D03*
X19000000Y10000000D03*
X16750000Y10000000D03*
X48750000Y16250000D03*
X51750000Y16250000D03*
X16250000Y13750000D03*
X15250000Y16500000D03*
X18250000Y17000000D03*
X18250000Y18000000D03*
X18250000Y19000000D03*
X17250000Y19000000D03*
X17250000Y18000000D03*
X17250000Y17000000D03*
X64750000Y10750000D03*
X74500000Y16750000D03*
X74500000Y14750000D03*
X74500000Y12750000D03*
X74500000Y10750000D03*
X74500000Y8750000D03*
X74500000Y6750000D03*
X73750000Y6000000D03*
X71750000Y6000000D03*
X69750000Y6000000D03*
X67750000Y6000000D03*
X65750000Y6000000D03*
X63750000Y6000000D03*
X61750000Y6000000D03*
X59750000Y6000000D03*
X57750000Y6000000D03*
X55750000Y6000000D03*
X53750000Y6000000D03*
X51750000Y6000000D03*
X49750000Y6000000D03*
X47750000Y6000000D03*
X45750000Y6000000D03*
X43750000Y6000000D03*
X41750000Y6000000D03*
X39750000Y6000000D03*
X37750000Y6000000D03*
X35750000Y6000000D03*
X33750000Y6000000D03*
X31750000Y6000000D03*
X29750000Y6000000D03*
X28500000Y4750000D03*
X27250000Y3500000D03*
X26000000Y2250000D03*
X24750000Y1000000D03*
X23250000Y1000000D03*
X21250000Y1000000D03*
X19250000Y1000000D03*
X17250000Y1000000D03*
X15250000Y1000000D03*
X13250000Y1000000D03*
X11250000Y1000000D03*
X9250000Y1000000D03*
X7250000Y1000000D03*
X5250000Y1000000D03*
X3250000Y1000000D03*
X64750000Y15250000D03*
X64750000Y16250000D03*
X58750000Y15250000D03*
X58750000Y16250000D03*
X53250000Y14250000D03*
X62250000Y15250000D03*
X62250000Y16250000D03*
X21750000Y10750000D03*
X21750000Y14750000D03*
X11250000Y5250000D03*
X10250000Y5250000D03*
X45750000Y15250000D03*
X46750000Y15250000D03*
X47750000Y15250000D03*
X45750000Y16250000D03*
X46750000Y16250000D03*
X47750000Y16250000D03*
X14500000Y20500000D03*
X14500000Y21500000D03*
X15500000Y21500000D03*
X15500000Y20500000D03*
X16500000Y21500000D03*
X16500000Y20500000D03*
X7500000Y12500000D03*
X56750000Y18000000D03*
X11750000Y9250000D03*
X15250000Y13000000D03*
X15250000Y17750000D03*
X16000000Y11750000D03*
X11000000Y8500000D03*
X56750000Y20000000D03*
X12500000Y6618300D03*
X12500000Y5881700D03*
X54750000Y15250000D03*
X53750000Y15250000D03*
X54750000Y16250000D03*
X53750000Y16250000D03*
X6000000Y12000000D03*
D19*
X48750000Y18500000D02*
X48750000Y16250000D01*
D20*
X48750000Y16250000D02*
X49750000Y16250000D01*
X64750000Y10750000D02*
X64750000Y7000000D01*
X64750000Y7000000D02*
X63750000Y6000000D01*
X64750000Y15250000D02*
X64750000Y10750000D01*
X74500000Y14750000D02*
X74500000Y16750000D01*
X74500000Y12750000D02*
X74500000Y14750000D01*
X74500000Y10750000D02*
X74500000Y12750000D01*
X74500000Y8750000D02*
X74500000Y10750000D01*
X74500000Y6750000D02*
X74500000Y8750000D01*
X73750000Y6000000D02*
X74500000Y6750000D01*
X71750000Y6000000D02*
X73750000Y6000000D01*
X69750000Y6000000D02*
X71750000Y6000000D01*
X67750000Y6000000D02*
X69750000Y6000000D01*
X65750000Y6000000D02*
X67750000Y6000000D01*
X63750000Y6000000D02*
X65750000Y6000000D01*
X61750000Y6000000D02*
X63750000Y6000000D01*
X59750000Y6000000D02*
X61750000Y6000000D01*
X57750000Y6000000D02*
X59750000Y6000000D01*
X55750000Y6000000D02*
X57750000Y6000000D01*
X53750000Y6000000D02*
X55750000Y6000000D01*
X51750000Y6000000D02*
X53750000Y6000000D01*
X49750000Y6000000D02*
X51750000Y6000000D01*
X47750000Y6000000D02*
X49750000Y6000000D01*
X45750000Y6000000D02*
X47750000Y6000000D01*
X43750000Y6000000D02*
X45750000Y6000000D01*
X41750000Y6000000D02*
X43750000Y6000000D01*
X39750000Y6000000D02*
X41750000Y6000000D01*
X37750000Y6000000D02*
X39750000Y6000000D01*
X35750000Y6000000D02*
X37750000Y6000000D01*
X33750000Y6000000D02*
X35750000Y6000000D01*
X31750000Y6000000D02*
X33750000Y6000000D01*
X29750000Y6000000D02*
X31750000Y6000000D01*
X24750000Y1000000D02*
X26000000Y2250000D01*
X28500000Y4750000D02*
X29750000Y6000000D01*
X27250000Y3500000D02*
X28500000Y4750000D01*
X26000000Y2250000D02*
X27250000Y3500000D01*
X23250000Y1000000D02*
X24750000Y1000000D01*
X21250000Y1000000D02*
X23250000Y1000000D01*
X19250000Y1000000D02*
X21250000Y1000000D01*
X17250000Y1000000D02*
X19250000Y1000000D01*
X15250000Y1000000D02*
X17250000Y1000000D01*
X13250000Y1000000D02*
X15250000Y1000000D01*
X11250000Y1000000D02*
X13250000Y1000000D01*
X9250000Y1000000D02*
X11250000Y1000000D01*
X7250000Y1000000D02*
X9250000Y1000000D01*
X5250000Y1000000D02*
X7250000Y1000000D01*
X3250000Y1000000D02*
X5250000Y1000000D01*
X1410000Y1760000D02*
X2490000Y1760000D01*
X2490000Y1760000D02*
X3250000Y1000000D01*
X64750000Y16250000D02*
X64750000Y15250000D01*
X64750000Y18500000D02*
X64750000Y16250000D01*
X58750000Y16250000D02*
X58750000Y15250000D01*
X58750000Y18500000D02*
X58750000Y16250000D01*
D21*
X62250000Y16250000D02*
X62250000Y15250000D01*
X61750000Y18500000D02*
X61750000Y16796800D01*
X61750000Y16796800D02*
X62250000Y16296800D01*
D20*
X62250000Y16296800D02*
X62250000Y16250000D01*
X47750000Y18500000D02*
X47750000Y16250000D01*
X46750000Y18500000D02*
X46750000Y16250000D01*
D22*
X7468501Y4431499D02*
X24424822Y4431500D01*
X24424822Y4431500D02*
X28424822Y8431500D01*
X7250000Y4650000D02*
X7468501Y4431499D01*
X28424822Y8431500D02*
X60924822Y8431500D01*
X60924822Y8431500D02*
X63068500Y10575178D01*
X63068500Y10575178D02*
X63068500Y17031500D01*
X63068500Y17031500D02*
X62750000Y17350000D01*
X62750000Y17350000D02*
X62750000Y18500000D01*
D20*
X55750000Y18500000D02*
X56250000Y18500000D01*
X56250000Y18500000D02*
X56750000Y18000000D01*
X46046800Y20500000D02*
X56250000Y20500000D01*
X56250000Y20500000D02*
X56750000Y20000000D01*
X45750000Y18500000D02*
X45750000Y20203200D01*
X45750000Y20203200D02*
X46046800Y20500000D01*
D22*
X12500000Y6618300D02*
X12686801Y6431499D01*
X12686801Y6431499D02*
X23424821Y6431499D01*
X60068500Y17031500D02*
X59750000Y17350000D01*
X59750000Y17350000D02*
X59750000Y18500000D01*
X23424821Y6431499D02*
X27424822Y10431500D01*
X27424822Y10431500D02*
X58924822Y10431500D01*
X58924822Y10431500D02*
X60068500Y11575178D01*
X60068500Y11575178D02*
X60068500Y17031500D01*
X12500000Y5881700D02*
X12686801Y6068501D01*
X12686801Y6068501D02*
X23575179Y6068501D01*
X60431500Y11424822D02*
X60431500Y17031500D01*
X60431500Y17031500D02*
X60750000Y17350000D01*
X23575179Y6068501D02*
X27575178Y10068500D01*
X27575178Y10068500D02*
X59075178Y10068500D01*
X59075178Y10068500D02*
X60431500Y11424822D01*
X60750000Y17350000D02*
X60750000Y18500000D01*
D20*
X54750000Y16250000D02*
X54750000Y15250000D01*
X53750000Y16250000D02*
X53750000Y15250000D01*
X54750000Y18500000D02*
X54750000Y16250000D01*
X53750000Y18500000D02*
X53750000Y16250000D01*
D22*
X7250000Y3850000D02*
X7468501Y4068501D01*
X24575178Y4068500D02*
X28575178Y8068500D01*
X28575178Y8068500D02*
X61075178Y8068500D01*
X61075178Y8068500D02*
X63431500Y10424822D01*
X63431500Y10424822D02*
X63431500Y17031500D01*
X7468501Y4068501D02*
X24575178Y4068500D01*
X63431500Y17031500D02*
X63750000Y17350000D01*
X63750000Y17350000D02*
X63750000Y18500000D01*
D20*
G36*
X53898400Y16750000D02*
X53902422Y16721695D01*
X53914171Y16695631D01*
X53932716Y16673872D01*
X53956589Y16658141D01*
X53983898Y16649684D01*
X54000000Y16648400D01*
X54500000Y16648400D01*
X54528305Y16652422D01*
X54554369Y16664171D01*
X54576128Y16682716D01*
X54591859Y16706589D01*
X54600316Y16733898D01*
X54601600Y16750000D01*
X54601600Y17148400D01*
X54898400Y17148400D01*
X54898400Y16750000D01*
X54902422Y16721695D01*
X54914171Y16695631D01*
X54928158Y16678158D01*
X55148400Y16457916D01*
X55148400Y15042084D01*
X54957916Y14851600D01*
X53542084Y14851600D01*
X53351600Y15042084D01*
X53351600Y16457916D01*
X53571842Y16678158D01*
X53589012Y16701017D01*
X53599135Y16727755D01*
X53601600Y16750000D01*
X53601600Y17148400D01*
X53898400Y17148400D01*
X53898400Y16750000D01*
X53898400Y16750000D01*
G37*
X53898400Y16750000D02*
X53902422Y16721695D01*
X53914171Y16695631D01*
X53932716Y16673872D01*
X53956589Y16658141D01*
X53983898Y16649684D01*
X54000000Y16648400D01*
X54500000Y16648400D01*
X54528305Y16652422D01*
X54554369Y16664171D01*
X54576128Y16682716D01*
X54591859Y16706589D01*
X54600316Y16733898D01*
X54601600Y16750000D01*
X54601600Y17148400D01*
X54898400Y17148400D01*
X54898400Y16750000D01*
X54902422Y16721695D01*
X54914171Y16695631D01*
X54928158Y16678158D01*
X55148400Y16457916D01*
X55148400Y15042084D01*
X54957916Y14851600D01*
X53542084Y14851600D01*
X53351600Y15042084D01*
X53351600Y16457916D01*
X53571842Y16678158D01*
X53589012Y16701017D01*
X53599135Y16727755D01*
X53601600Y16750000D01*
X53601600Y17148400D01*
X53898400Y17148400D01*
X53898400Y16750000D01*
G36*
X70385140Y22897660D02*
X69851165Y22548236D01*
X69395230Y22101752D01*
X69034701Y21575212D01*
X68783310Y20988672D01*
X68650632Y20364475D01*
X68641722Y19726395D01*
X68756919Y19098736D01*
X68991835Y18505406D01*
X69337522Y17969005D01*
X69780813Y17509964D01*
X70304823Y17145767D01*
X70889593Y16890288D01*
X71512849Y16753256D01*
X72150852Y16739892D01*
X72779299Y16850704D01*
X73374255Y17081472D01*
X73913056Y17423406D01*
X74375181Y17863481D01*
X74743027Y18384936D01*
X74916000Y18773440D01*
X74916000Y5700480D01*
X74699520Y5484000D01*
X30000000Y5484000D01*
X29955555Y5479642D01*
X29910968Y5475741D01*
X29908521Y5475030D01*
X29905991Y5474782D01*
X29863269Y5461883D01*
X29820258Y5449388D01*
X29817993Y5448214D01*
X29815562Y5447480D01*
X29776088Y5426492D01*
X29736395Y5405916D01*
X29734410Y5404331D01*
X29732158Y5403134D01*
X29697491Y5374860D01*
X29662572Y5346985D01*
X29659025Y5343488D01*
X29658957Y5343432D01*
X29658905Y5343369D01*
X29657760Y5342240D01*
X24799520Y484000D01*
X700480Y484000D01*
X484000Y700480D01*
X484000Y6398400D01*
X7414597Y6398400D01*
X7422348Y6378823D01*
X7485068Y6281500D01*
X7515054Y6250449D01*
X7495539Y6231338D01*
X7430125Y6135804D01*
X7384513Y6029383D01*
X7383646Y6025303D01*
X7312012Y6040007D01*
X7196232Y6040815D01*
X7082499Y6019120D01*
X6975146Y5975746D01*
X6878263Y5912348D01*
X6795539Y5831338D01*
X6730125Y5735804D01*
X6684513Y5629383D01*
X6660440Y5516130D01*
X6658824Y5400358D01*
X6679725Y5286476D01*
X6722348Y5178823D01*
X6785068Y5081500D01*
X6786418Y5080102D01*
X6678158Y4971842D01*
X6656405Y4939528D01*
X6648400Y4900000D01*
X6648400Y3600000D01*
X6655868Y3561769D01*
X6678158Y3528158D01*
X6928158Y3278158D01*
X6960472Y3256405D01*
X7000000Y3248400D01*
X7500000Y3248400D01*
X7538231Y3255868D01*
X7571842Y3278158D01*
X7821842Y3528158D01*
X7843595Y3560472D01*
X7851600Y3600000D01*
X7851600Y3648400D01*
X8207916Y3648400D01*
X8487506Y3368810D01*
X8403177Y3352723D01*
X8270623Y3299168D01*
X8150996Y3220886D01*
X8048852Y3120859D01*
X7968082Y3002898D01*
X7911762Y2871494D01*
X7882038Y2731654D01*
X7880042Y2588704D01*
X7905850Y2448088D01*
X7958478Y2315163D01*
X8035923Y2194992D01*
X8135235Y2092153D01*
X8252630Y2010561D01*
X8383637Y1953325D01*
X8523266Y1922626D01*
X8666199Y1919632D01*
X8806991Y1944457D01*
X8940280Y1996157D01*
X9060989Y2072761D01*
X9164519Y2171352D01*
X9246929Y2288174D01*
X9305077Y2418779D01*
X9336751Y2558190D01*
X9339031Y2721482D01*
X9311262Y2861724D01*
X9256783Y2993901D01*
X9177668Y3112979D01*
X9142493Y3148400D01*
X25250000Y3148400D01*
X25278305Y3152422D01*
X25304369Y3164171D01*
X25321842Y3178158D01*
X29292084Y7148400D01*
X61500000Y7148400D01*
X61528305Y7152422D01*
X61554369Y7164171D01*
X61571842Y7178158D01*
X64321842Y9928158D01*
X64339012Y9951017D01*
X64349135Y9977755D01*
X64351600Y10000000D01*
X64351600Y16303999D01*
X70828600Y16303999D01*
X70828600Y6696002D01*
X73741400Y6696002D01*
X73741400Y16303999D01*
X70828600Y16303999D01*
X64351600Y16303999D01*
X64351600Y16457916D01*
X64571842Y16678158D01*
X64589012Y16701017D01*
X64599135Y16727755D01*
X64601600Y16750000D01*
X64601600Y17148400D01*
X64898400Y17148400D01*
X64898400Y16750000D01*
X64902422Y16721695D01*
X64914171Y16695631D01*
X64932716Y16673872D01*
X64956589Y16658141D01*
X64983898Y16649684D01*
X65000000Y16648400D01*
X65750000Y16648400D01*
X65778305Y16652422D01*
X65804369Y16664171D01*
X65821842Y16678158D01*
X66071842Y16928158D01*
X66089012Y16951017D01*
X66099135Y16977755D01*
X66101600Y17000000D01*
X66101600Y18649862D01*
X66119653Y18644549D01*
X66162707Y18636336D01*
X66205718Y18627507D01*
X66212444Y18626848D01*
X66309626Y18618004D01*
X66353491Y18618310D01*
X66397356Y18618004D01*
X66404082Y18618663D01*
X66501130Y18628863D01*
X66544118Y18637687D01*
X66587192Y18645904D01*
X66593661Y18647857D01*
X66686880Y18676713D01*
X66727300Y18693704D01*
X66767995Y18710146D01*
X66773962Y18713319D01*
X66859800Y18759732D01*
X66896159Y18784257D01*
X66932873Y18808282D01*
X66938110Y18812553D01*
X67013299Y18874755D01*
X67044197Y18905870D01*
X67075548Y18936570D01*
X67079856Y18941778D01*
X67141532Y19017399D01*
X67165797Y19053921D01*
X67190595Y19090137D01*
X67193809Y19096082D01*
X67239621Y19182243D01*
X67256338Y19222802D01*
X67273617Y19263116D01*
X67275615Y19269572D01*
X67303820Y19362990D01*
X67312341Y19406022D01*
X67321462Y19448934D01*
X67322168Y19455655D01*
X67331690Y19552772D01*
X67331690Y19573068D01*
X67333953Y19593242D01*
X67334000Y19600000D01*
X67334000Y23016000D01*
X70678042Y23016000D01*
X70385140Y22897660D01*
X70385140Y22897660D01*
G37*
X70385140Y22897660D02*
X69851165Y22548236D01*
X69395230Y22101752D01*
X69034701Y21575212D01*
X68783310Y20988672D01*
X68650632Y20364475D01*
X68641722Y19726395D01*
X68756919Y19098736D01*
X68991835Y18505406D01*
X69337522Y17969005D01*
X69780813Y17509964D01*
X70304823Y17145767D01*
X70889593Y16890288D01*
X71512849Y16753256D01*
X72150852Y16739892D01*
X72779299Y16850704D01*
X73374255Y17081472D01*
X73913056Y17423406D01*
X74375181Y17863481D01*
X74743027Y18384936D01*
X74916000Y18773440D01*
X74916000Y5700480D01*
X74699520Y5484000D01*
X30000000Y5484000D01*
X29955555Y5479642D01*
X29910968Y5475741D01*
X29908521Y5475030D01*
X29905991Y5474782D01*
X29863269Y5461883D01*
X29820258Y5449388D01*
X29817993Y5448214D01*
X29815562Y5447480D01*
X29776088Y5426492D01*
X29736395Y5405916D01*
X29734410Y5404331D01*
X29732158Y5403134D01*
X29697491Y5374860D01*
X29662572Y5346985D01*
X29659025Y5343488D01*
X29658957Y5343432D01*
X29658905Y5343369D01*
X29657760Y5342240D01*
X24799520Y484000D01*
X700480Y484000D01*
X484000Y700480D01*
X484000Y6398400D01*
X7414597Y6398400D01*
X7422348Y6378823D01*
X7485068Y6281500D01*
X7515054Y6250449D01*
X7495539Y6231338D01*
X7430125Y6135804D01*
X7384513Y6029383D01*
X7383646Y6025303D01*
X7312012Y6040007D01*
X7196232Y6040815D01*
X7082499Y6019120D01*
X6975146Y5975746D01*
X6878263Y5912348D01*
X6795539Y5831338D01*
X6730125Y5735804D01*
X6684513Y5629383D01*
X6660440Y5516130D01*
X6658824Y5400358D01*
X6679725Y5286476D01*
X6722348Y5178823D01*
X6785068Y5081500D01*
X6786418Y5080102D01*
X6678158Y4971842D01*
X6656405Y4939528D01*
X6648400Y4900000D01*
X6648400Y3600000D01*
X6655868Y3561769D01*
X6678158Y3528158D01*
X6928158Y3278158D01*
X6960472Y3256405D01*
X7000000Y3248400D01*
X7500000Y3248400D01*
X7538231Y3255868D01*
X7571842Y3278158D01*
X7821842Y3528158D01*
X7843595Y3560472D01*
X7851600Y3600000D01*
X7851600Y3648400D01*
X8207916Y3648400D01*
X8487506Y3368810D01*
X8403177Y3352723D01*
X8270623Y3299168D01*
X8150996Y3220886D01*
X8048852Y3120859D01*
X7968082Y3002898D01*
X7911762Y2871494D01*
X7882038Y2731654D01*
X7880042Y2588704D01*
X7905850Y2448088D01*
X7958478Y2315163D01*
X8035923Y2194992D01*
X8135235Y2092153D01*
X8252630Y2010561D01*
X8383637Y1953325D01*
X8523266Y1922626D01*
X8666199Y1919632D01*
X8806991Y1944457D01*
X8940280Y1996157D01*
X9060989Y2072761D01*
X9164519Y2171352D01*
X9246929Y2288174D01*
X9305077Y2418779D01*
X9336751Y2558190D01*
X9339031Y2721482D01*
X9311262Y2861724D01*
X9256783Y2993901D01*
X9177668Y3112979D01*
X9142493Y3148400D01*
X25250000Y3148400D01*
X25278305Y3152422D01*
X25304369Y3164171D01*
X25321842Y3178158D01*
X29292084Y7148400D01*
X61500000Y7148400D01*
X61528305Y7152422D01*
X61554369Y7164171D01*
X61571842Y7178158D01*
X64321842Y9928158D01*
X64339012Y9951017D01*
X64349135Y9977755D01*
X64351600Y10000000D01*
X64351600Y16303999D01*
X70828600Y16303999D01*
X70828600Y6696002D01*
X73741400Y6696002D01*
X73741400Y16303999D01*
X70828600Y16303999D01*
X64351600Y16303999D01*
X64351600Y16457916D01*
X64571842Y16678158D01*
X64589012Y16701017D01*
X64599135Y16727755D01*
X64601600Y16750000D01*
X64601600Y17148400D01*
X64898400Y17148400D01*
X64898400Y16750000D01*
X64902422Y16721695D01*
X64914171Y16695631D01*
X64932716Y16673872D01*
X64956589Y16658141D01*
X64983898Y16649684D01*
X65000000Y16648400D01*
X65750000Y16648400D01*
X65778305Y16652422D01*
X65804369Y16664171D01*
X65821842Y16678158D01*
X66071842Y16928158D01*
X66089012Y16951017D01*
X66099135Y16977755D01*
X66101600Y17000000D01*
X66101600Y18649862D01*
X66119653Y18644549D01*
X66162707Y18636336D01*
X66205718Y18627507D01*
X66212444Y18626848D01*
X66309626Y18618004D01*
X66353491Y18618310D01*
X66397356Y18618004D01*
X66404082Y18618663D01*
X66501130Y18628863D01*
X66544118Y18637687D01*
X66587192Y18645904D01*
X66593661Y18647857D01*
X66686880Y18676713D01*
X66727300Y18693704D01*
X66767995Y18710146D01*
X66773962Y18713319D01*
X66859800Y18759732D01*
X66896159Y18784257D01*
X66932873Y18808282D01*
X66938110Y18812553D01*
X67013299Y18874755D01*
X67044197Y18905870D01*
X67075548Y18936570D01*
X67079856Y18941778D01*
X67141532Y19017399D01*
X67165797Y19053921D01*
X67190595Y19090137D01*
X67193809Y19096082D01*
X67239621Y19182243D01*
X67256338Y19222802D01*
X67273617Y19263116D01*
X67275615Y19269572D01*
X67303820Y19362990D01*
X67312341Y19406022D01*
X67321462Y19448934D01*
X67322168Y19455655D01*
X67331690Y19552772D01*
X67331690Y19573068D01*
X67333953Y19593242D01*
X67334000Y19600000D01*
X67334000Y23016000D01*
X70678042Y23016000D01*
X70385140Y22897660D01*
G36*
X6085140Y22897660D02*
X5551165Y22548236D01*
X5095230Y22101752D01*
X4734701Y21575212D01*
X4483310Y20988672D01*
X4350632Y20364475D01*
X4341722Y19726395D01*
X4456919Y19098736D01*
X4691835Y18505406D01*
X5037522Y17969005D01*
X5480813Y17509964D01*
X6004823Y17145767D01*
X6589593Y16890288D01*
X7212849Y16753256D01*
X7850852Y16739892D01*
X8479299Y16850704D01*
X9074255Y17081472D01*
X9613056Y17423406D01*
X9906674Y17703015D01*
X14690465Y17703015D01*
X14710248Y17595229D01*
X14750589Y17493338D01*
X14809953Y17401223D01*
X14886078Y17322393D01*
X14976065Y17259851D01*
X15076486Y17215978D01*
X15183516Y17192446D01*
X15293078Y17190151D01*
X15401000Y17209180D01*
X15503170Y17248809D01*
X15595696Y17307529D01*
X15675056Y17383102D01*
X15738225Y17472650D01*
X15782798Y17572762D01*
X15807076Y17679625D01*
X15808824Y17804793D01*
X15787539Y17912293D01*
X15745779Y18013610D01*
X15685134Y18104887D01*
X15607916Y18182646D01*
X15517065Y18243926D01*
X15416041Y18286393D01*
X15308693Y18308428D01*
X15199109Y18309193D01*
X15091464Y18288659D01*
X14989857Y18247607D01*
X14898159Y18187601D01*
X14819863Y18110928D01*
X14757950Y18020507D01*
X14714780Y17919782D01*
X14691995Y17812590D01*
X14690465Y17703015D01*
X9906674Y17703015D01*
X10075181Y17863481D01*
X10443027Y18384936D01*
X10702583Y18967908D01*
X10843962Y19590192D01*
X10854140Y20319071D01*
X10730191Y20945060D01*
X10520827Y21453015D01*
X13940465Y21453015D01*
X13960248Y21345229D01*
X14000589Y21243338D01*
X14059953Y21151223D01*
X14136078Y21072393D01*
X14226065Y21009851D01*
X14247252Y21000595D01*
X14239857Y20997607D01*
X14148159Y20937601D01*
X14069863Y20860928D01*
X14007950Y20770507D01*
X13964780Y20669782D01*
X13941995Y20562590D01*
X13940465Y20453015D01*
X13960248Y20345229D01*
X14000589Y20243338D01*
X14059953Y20151223D01*
X14136078Y20072393D01*
X14226065Y20009851D01*
X14326486Y19965978D01*
X14433516Y19942446D01*
X14543078Y19940151D01*
X14651000Y19959180D01*
X14753170Y19998809D01*
X14845696Y20057529D01*
X14925056Y20133102D01*
X14988225Y20222650D01*
X14999105Y20247086D01*
X15000589Y20243338D01*
X15059953Y20151223D01*
X15136078Y20072393D01*
X15226065Y20009851D01*
X15326486Y19965978D01*
X15433516Y19942446D01*
X15543078Y19940151D01*
X15651000Y19959180D01*
X15753170Y19998809D01*
X15845696Y20057529D01*
X15925056Y20133102D01*
X15988225Y20222650D01*
X15999105Y20247086D01*
X16000589Y20243338D01*
X16059953Y20151223D01*
X16136078Y20072393D01*
X16226065Y20009851D01*
X16326486Y19965978D01*
X16433516Y19942446D01*
X16543078Y19940151D01*
X16651000Y19959180D01*
X16753170Y19998809D01*
X16845696Y20057529D01*
X16925056Y20133102D01*
X16988225Y20222650D01*
X17032798Y20322762D01*
X17057076Y20429625D01*
X17058824Y20554793D01*
X17037539Y20662293D01*
X16995779Y20763610D01*
X16935134Y20854887D01*
X16857916Y20932646D01*
X16767065Y20993926D01*
X16754078Y20999385D01*
X16845696Y21057529D01*
X16925056Y21133102D01*
X16988225Y21222650D01*
X17032798Y21322762D01*
X17057076Y21429625D01*
X17058824Y21554793D01*
X17037539Y21662293D01*
X16995779Y21763610D01*
X16935134Y21854887D01*
X16857916Y21932646D01*
X16767065Y21993926D01*
X16666041Y22036393D01*
X16558693Y22058428D01*
X16449109Y22059193D01*
X16341464Y22038659D01*
X16239857Y21997607D01*
X16148159Y21937601D01*
X16069863Y21860928D01*
X16007950Y21770507D01*
X16000297Y21752650D01*
X15995779Y21763610D01*
X15935134Y21854887D01*
X15857916Y21932646D01*
X15767065Y21993926D01*
X15666041Y22036393D01*
X15558693Y22058428D01*
X15449109Y22059193D01*
X15341464Y22038659D01*
X15239857Y21997607D01*
X15148159Y21937601D01*
X15069863Y21860928D01*
X15007950Y21770507D01*
X15000297Y21752650D01*
X14995779Y21763610D01*
X14935134Y21854887D01*
X14857916Y21932646D01*
X14767065Y21993926D01*
X14666041Y22036393D01*
X14558693Y22058428D01*
X14449109Y22059193D01*
X14341464Y22038659D01*
X14239857Y21997607D01*
X14148159Y21937601D01*
X14069863Y21860928D01*
X14007950Y21770507D01*
X13964780Y21669782D01*
X13941995Y21562590D01*
X13940465Y21453015D01*
X10520827Y21453015D01*
X10487013Y21535052D01*
X10133871Y22066575D01*
X9684214Y22519382D01*
X9155170Y22876227D01*
X8822663Y23016000D01*
X43166000Y23016000D01*
X43166000Y19600000D01*
X43166012Y19599883D01*
X43166012Y19596603D01*
X43166061Y19589622D01*
X43168358Y19567773D01*
X43168358Y19545792D01*
X43169065Y19539070D01*
X43179942Y19442096D01*
X43189059Y19399201D01*
X43197583Y19356153D01*
X43199582Y19349697D01*
X43229088Y19256682D01*
X43246368Y19216366D01*
X43263085Y19175806D01*
X43266299Y19169861D01*
X43313310Y19084348D01*
X43338096Y19048150D01*
X43362371Y19011612D01*
X43366679Y19006405D01*
X43429404Y18931653D01*
X43460752Y18900955D01*
X43491654Y18869836D01*
X43496891Y18865565D01*
X43572941Y18804419D01*
X43609631Y18780410D01*
X43646016Y18755868D01*
X43651983Y18752695D01*
X43738463Y18707485D01*
X43779155Y18691044D01*
X43819572Y18674054D01*
X43826041Y18672101D01*
X43919653Y18644549D01*
X43962707Y18636336D01*
X44005718Y18627507D01*
X44012444Y18626848D01*
X44109626Y18618004D01*
X44153491Y18618310D01*
X44197356Y18618004D01*
X44204082Y18618663D01*
X44301130Y18628863D01*
X44344118Y18637687D01*
X44387192Y18645904D01*
X44393661Y18647857D01*
X44398400Y18649324D01*
X44398400Y18004000D01*
X36250000Y18004000D01*
X36154422Y17985331D01*
X36070395Y17929605D01*
X35820395Y17679605D01*
X35766012Y17598820D01*
X35746000Y17500000D01*
X35746000Y13855210D01*
X35644790Y13754000D01*
X25750000Y13754000D01*
X25654422Y13735331D01*
X25570395Y13679605D01*
X21394790Y9504000D01*
X13855210Y9504000D01*
X12656195Y10703015D01*
X21190465Y10703015D01*
X21210248Y10595229D01*
X21250589Y10493338D01*
X21309953Y10401223D01*
X21386078Y10322393D01*
X21476065Y10259851D01*
X21576486Y10215978D01*
X21683516Y10192446D01*
X21793078Y10190151D01*
X21901000Y10209180D01*
X22003170Y10248809D01*
X22095696Y10307529D01*
X22175056Y10383102D01*
X22238225Y10472650D01*
X22282798Y10572762D01*
X22307076Y10679625D01*
X22308824Y10804793D01*
X22287539Y10912293D01*
X22245779Y11013610D01*
X22185134Y11104887D01*
X22107916Y11182646D01*
X22017065Y11243926D01*
X21916041Y11286393D01*
X21808693Y11308428D01*
X21699109Y11309193D01*
X21591464Y11288659D01*
X21489857Y11247607D01*
X21398159Y11187601D01*
X21319863Y11110928D01*
X21257950Y11020507D01*
X21214780Y10919782D01*
X21191995Y10812590D01*
X21190465Y10703015D01*
X12656195Y10703015D01*
X11656195Y11703015D01*
X15440465Y11703015D01*
X15460248Y11595229D01*
X15500589Y11493338D01*
X15559953Y11401223D01*
X15636078Y11322393D01*
X15726065Y11259851D01*
X15826486Y11215978D01*
X15933516Y11192446D01*
X16043078Y11190151D01*
X16151000Y11209180D01*
X16253170Y11248809D01*
X16345696Y11307529D01*
X16425056Y11383102D01*
X16488225Y11472650D01*
X16532798Y11572762D01*
X16557076Y11679625D01*
X16558824Y11804793D01*
X16537539Y11912293D01*
X16495779Y12013610D01*
X16435134Y12104887D01*
X16357916Y12182646D01*
X16267065Y12243926D01*
X16166041Y12286393D01*
X16058693Y12308428D01*
X15949109Y12309193D01*
X15841464Y12288659D01*
X15739857Y12247607D01*
X15648159Y12187601D01*
X15569863Y12110928D01*
X15507950Y12020507D01*
X15464780Y11919782D01*
X15441995Y11812590D01*
X15440465Y11703015D01*
X11656195Y11703015D01*
X10929605Y12429605D01*
X10848820Y12483988D01*
X10750000Y12504000D01*
X8058115Y12504000D01*
X8058824Y12554793D01*
X8037539Y12662293D01*
X7995779Y12763610D01*
X7935134Y12854887D01*
X7857916Y12932646D01*
X7827718Y12953015D01*
X14690465Y12953015D01*
X14710248Y12845229D01*
X14750589Y12743338D01*
X14809953Y12651223D01*
X14886078Y12572393D01*
X14976065Y12509851D01*
X15076486Y12465978D01*
X15183516Y12442446D01*
X15293078Y12440151D01*
X15401000Y12459180D01*
X15503170Y12498809D01*
X15595696Y12557529D01*
X15675056Y12633102D01*
X15738225Y12722650D01*
X15782798Y12822762D01*
X15807076Y12929625D01*
X15808824Y13054793D01*
X15787539Y13162293D01*
X15745779Y13263610D01*
X15685134Y13354887D01*
X15607916Y13432646D01*
X15517065Y13493926D01*
X15416041Y13536393D01*
X15308693Y13558428D01*
X15199109Y13559193D01*
X15091464Y13538659D01*
X14989857Y13497607D01*
X14898159Y13437601D01*
X14819863Y13360928D01*
X14757950Y13270507D01*
X14714780Y13169782D01*
X14691995Y13062590D01*
X14690465Y12953015D01*
X7827718Y12953015D01*
X7767065Y12993926D01*
X7666041Y13036393D01*
X7558693Y13058428D01*
X7449109Y13059193D01*
X7341464Y13038659D01*
X7239857Y12997607D01*
X7148159Y12937601D01*
X7069863Y12860928D01*
X7007950Y12770507D01*
X6964780Y12669782D01*
X6941995Y12562590D01*
X6941177Y12504000D01*
X6243100Y12504000D01*
X6166041Y12536393D01*
X6058693Y12558428D01*
X5949109Y12559193D01*
X5841464Y12538659D01*
X5755680Y12504000D01*
X5000000Y12504000D01*
X4904422Y12485331D01*
X4820395Y12429605D01*
X4570395Y12179605D01*
X4516012Y12098820D01*
X4496000Y12000000D01*
X4496000Y7000000D01*
X4514669Y6904422D01*
X4570395Y6820395D01*
X4820395Y6570395D01*
X4901180Y6516012D01*
X5000000Y6496000D01*
X7043279Y6496000D01*
X7066674Y6485779D01*
X7179756Y6460916D01*
X7295514Y6458491D01*
X7384587Y6474197D01*
X7422348Y6378823D01*
X7485068Y6281500D01*
X7515054Y6250449D01*
X7495539Y6231338D01*
X7430125Y6135804D01*
X7415465Y6101600D01*
X484000Y6101600D01*
X484000Y14703015D01*
X21190465Y14703015D01*
X21210248Y14595229D01*
X21250589Y14493338D01*
X21309953Y14401223D01*
X21386078Y14322393D01*
X21476065Y14259851D01*
X21576486Y14215978D01*
X21683516Y14192446D01*
X21793078Y14190151D01*
X21901000Y14209180D01*
X22003170Y14248809D01*
X22095696Y14307529D01*
X22175056Y14383102D01*
X22238225Y14472650D01*
X22282798Y14572762D01*
X22307076Y14679625D01*
X22308824Y14804793D01*
X22287539Y14912293D01*
X22245779Y15013610D01*
X22185134Y15104887D01*
X22107916Y15182646D01*
X22017065Y15243926D01*
X21916041Y15286393D01*
X21808693Y15308428D01*
X21699109Y15309193D01*
X21591464Y15288659D01*
X21489857Y15247607D01*
X21398159Y15187601D01*
X21319863Y15110928D01*
X21257950Y15020507D01*
X21214780Y14919782D01*
X21191995Y14812590D01*
X21190465Y14703015D01*
X484000Y14703015D01*
X484000Y16628866D01*
X27053886Y16628866D01*
X27076350Y16382026D01*
X27146332Y16144250D01*
X27261164Y15924595D01*
X27416475Y15731428D01*
X27606347Y15572106D01*
X27823549Y15452698D01*
X28059807Y15377753D01*
X28306123Y15350124D01*
X28323855Y15350000D01*
X28336145Y15350000D01*
X28582823Y15374187D01*
X28820104Y15445827D01*
X29038952Y15562190D01*
X29231030Y15718845D01*
X29389023Y15909825D01*
X29506911Y16127855D01*
X29580206Y16364631D01*
X29606114Y16611134D01*
X29604501Y16628866D01*
X32133886Y16628866D01*
X32156350Y16382026D01*
X32226332Y16144250D01*
X32341164Y15924595D01*
X32496475Y15731428D01*
X32686347Y15572106D01*
X32903549Y15452698D01*
X33139807Y15377753D01*
X33386123Y15350124D01*
X33403855Y15350000D01*
X33416145Y15350000D01*
X33662823Y15374187D01*
X33900104Y15445827D01*
X34118952Y15562190D01*
X34311030Y15718845D01*
X34469023Y15909825D01*
X34586911Y16127855D01*
X34660206Y16364631D01*
X34686114Y16611134D01*
X34663650Y16857974D01*
X34593668Y17095750D01*
X34478836Y17315405D01*
X34323525Y17508572D01*
X34133653Y17667894D01*
X33916451Y17787302D01*
X33680193Y17862247D01*
X33433877Y17889876D01*
X33416145Y17890000D01*
X33403855Y17890000D01*
X33157177Y17865813D01*
X32919896Y17794173D01*
X32701048Y17677810D01*
X32508970Y17521155D01*
X32350977Y17330175D01*
X32233089Y17112145D01*
X32159794Y16875369D01*
X32133886Y16628866D01*
X29604501Y16628866D01*
X29583650Y16857974D01*
X29513668Y17095750D01*
X29398836Y17315405D01*
X29243525Y17508572D01*
X29053653Y17667894D01*
X28836451Y17787302D01*
X28600193Y17862247D01*
X28353877Y17889876D01*
X28336145Y17890000D01*
X28323855Y17890000D01*
X28077177Y17865813D01*
X27839896Y17794173D01*
X27621048Y17677810D01*
X27428970Y17521155D01*
X27270977Y17330175D01*
X27153089Y17112145D01*
X27079794Y16875369D01*
X27053886Y16628866D01*
X484000Y16628866D01*
X484000Y22799520D01*
X700480Y23016000D01*
X6378042Y23016000D01*
X6085140Y22897660D01*
X6085140Y22897660D01*
G37*
X6085140Y22897660D02*
X5551165Y22548236D01*
X5095230Y22101752D01*
X4734701Y21575212D01*
X4483310Y20988672D01*
X4350632Y20364475D01*
X4341722Y19726395D01*
X4456919Y19098736D01*
X4691835Y18505406D01*
X5037522Y17969005D01*
X5480813Y17509964D01*
X6004823Y17145767D01*
X6589593Y16890288D01*
X7212849Y16753256D01*
X7850852Y16739892D01*
X8479299Y16850704D01*
X9074255Y17081472D01*
X9613056Y17423406D01*
X9906674Y17703015D01*
X14690465Y17703015D01*
X14710248Y17595229D01*
X14750589Y17493338D01*
X14809953Y17401223D01*
X14886078Y17322393D01*
X14976065Y17259851D01*
X15076486Y17215978D01*
X15183516Y17192446D01*
X15293078Y17190151D01*
X15401000Y17209180D01*
X15503170Y17248809D01*
X15595696Y17307529D01*
X15675056Y17383102D01*
X15738225Y17472650D01*
X15782798Y17572762D01*
X15807076Y17679625D01*
X15808824Y17804793D01*
X15787539Y17912293D01*
X15745779Y18013610D01*
X15685134Y18104887D01*
X15607916Y18182646D01*
X15517065Y18243926D01*
X15416041Y18286393D01*
X15308693Y18308428D01*
X15199109Y18309193D01*
X15091464Y18288659D01*
X14989857Y18247607D01*
X14898159Y18187601D01*
X14819863Y18110928D01*
X14757950Y18020507D01*
X14714780Y17919782D01*
X14691995Y17812590D01*
X14690465Y17703015D01*
X9906674Y17703015D01*
X10075181Y17863481D01*
X10443027Y18384936D01*
X10702583Y18967908D01*
X10843962Y19590192D01*
X10854140Y20319071D01*
X10730191Y20945060D01*
X10520827Y21453015D01*
X13940465Y21453015D01*
X13960248Y21345229D01*
X14000589Y21243338D01*
X14059953Y21151223D01*
X14136078Y21072393D01*
X14226065Y21009851D01*
X14247252Y21000595D01*
X14239857Y20997607D01*
X14148159Y20937601D01*
X14069863Y20860928D01*
X14007950Y20770507D01*
X13964780Y20669782D01*
X13941995Y20562590D01*
X13940465Y20453015D01*
X13960248Y20345229D01*
X14000589Y20243338D01*
X14059953Y20151223D01*
X14136078Y20072393D01*
X14226065Y20009851D01*
X14326486Y19965978D01*
X14433516Y19942446D01*
X14543078Y19940151D01*
X14651000Y19959180D01*
X14753170Y19998809D01*
X14845696Y20057529D01*
X14925056Y20133102D01*
X14988225Y20222650D01*
X14999105Y20247086D01*
X15000589Y20243338D01*
X15059953Y20151223D01*
X15136078Y20072393D01*
X15226065Y20009851D01*
X15326486Y19965978D01*
X15433516Y19942446D01*
X15543078Y19940151D01*
X15651000Y19959180D01*
X15753170Y19998809D01*
X15845696Y20057529D01*
X15925056Y20133102D01*
X15988225Y20222650D01*
X15999105Y20247086D01*
X16000589Y20243338D01*
X16059953Y20151223D01*
X16136078Y20072393D01*
X16226065Y20009851D01*
X16326486Y19965978D01*
X16433516Y19942446D01*
X16543078Y19940151D01*
X16651000Y19959180D01*
X16753170Y19998809D01*
X16845696Y20057529D01*
X16925056Y20133102D01*
X16988225Y20222650D01*
X17032798Y20322762D01*
X17057076Y20429625D01*
X17058824Y20554793D01*
X17037539Y20662293D01*
X16995779Y20763610D01*
X16935134Y20854887D01*
X16857916Y20932646D01*
X16767065Y20993926D01*
X16754078Y20999385D01*
X16845696Y21057529D01*
X16925056Y21133102D01*
X16988225Y21222650D01*
X17032798Y21322762D01*
X17057076Y21429625D01*
X17058824Y21554793D01*
X17037539Y21662293D01*
X16995779Y21763610D01*
X16935134Y21854887D01*
X16857916Y21932646D01*
X16767065Y21993926D01*
X16666041Y22036393D01*
X16558693Y22058428D01*
X16449109Y22059193D01*
X16341464Y22038659D01*
X16239857Y21997607D01*
X16148159Y21937601D01*
X16069863Y21860928D01*
X16007950Y21770507D01*
X16000297Y21752650D01*
X15995779Y21763610D01*
X15935134Y21854887D01*
X15857916Y21932646D01*
X15767065Y21993926D01*
X15666041Y22036393D01*
X15558693Y22058428D01*
X15449109Y22059193D01*
X15341464Y22038659D01*
X15239857Y21997607D01*
X15148159Y21937601D01*
X15069863Y21860928D01*
X15007950Y21770507D01*
X15000297Y21752650D01*
X14995779Y21763610D01*
X14935134Y21854887D01*
X14857916Y21932646D01*
X14767065Y21993926D01*
X14666041Y22036393D01*
X14558693Y22058428D01*
X14449109Y22059193D01*
X14341464Y22038659D01*
X14239857Y21997607D01*
X14148159Y21937601D01*
X14069863Y21860928D01*
X14007950Y21770507D01*
X13964780Y21669782D01*
X13941995Y21562590D01*
X13940465Y21453015D01*
X10520827Y21453015D01*
X10487013Y21535052D01*
X10133871Y22066575D01*
X9684214Y22519382D01*
X9155170Y22876227D01*
X8822663Y23016000D01*
X43166000Y23016000D01*
X43166000Y19600000D01*
X43166012Y19599883D01*
X43166012Y19596603D01*
X43166061Y19589622D01*
X43168358Y19567773D01*
X43168358Y19545792D01*
X43169065Y19539070D01*
X43179942Y19442096D01*
X43189059Y19399201D01*
X43197583Y19356153D01*
X43199582Y19349697D01*
X43229088Y19256682D01*
X43246368Y19216366D01*
X43263085Y19175806D01*
X43266299Y19169861D01*
X43313310Y19084348D01*
X43338096Y19048150D01*
X43362371Y19011612D01*
X43366679Y19006405D01*
X43429404Y18931653D01*
X43460752Y18900955D01*
X43491654Y18869836D01*
X43496891Y18865565D01*
X43572941Y18804419D01*
X43609631Y18780410D01*
X43646016Y18755868D01*
X43651983Y18752695D01*
X43738463Y18707485D01*
X43779155Y18691044D01*
X43819572Y18674054D01*
X43826041Y18672101D01*
X43919653Y18644549D01*
X43962707Y18636336D01*
X44005718Y18627507D01*
X44012444Y18626848D01*
X44109626Y18618004D01*
X44153491Y18618310D01*
X44197356Y18618004D01*
X44204082Y18618663D01*
X44301130Y18628863D01*
X44344118Y18637687D01*
X44387192Y18645904D01*
X44393661Y18647857D01*
X44398400Y18649324D01*
X44398400Y18004000D01*
X36250000Y18004000D01*
X36154422Y17985331D01*
X36070395Y17929605D01*
X35820395Y17679605D01*
X35766012Y17598820D01*
X35746000Y17500000D01*
X35746000Y13855210D01*
X35644790Y13754000D01*
X25750000Y13754000D01*
X25654422Y13735331D01*
X25570395Y13679605D01*
X21394790Y9504000D01*
X13855210Y9504000D01*
X12656195Y10703015D01*
X21190465Y10703015D01*
X21210248Y10595229D01*
X21250589Y10493338D01*
X21309953Y10401223D01*
X21386078Y10322393D01*
X21476065Y10259851D01*
X21576486Y10215978D01*
X21683516Y10192446D01*
X21793078Y10190151D01*
X21901000Y10209180D01*
X22003170Y10248809D01*
X22095696Y10307529D01*
X22175056Y10383102D01*
X22238225Y10472650D01*
X22282798Y10572762D01*
X22307076Y10679625D01*
X22308824Y10804793D01*
X22287539Y10912293D01*
X22245779Y11013610D01*
X22185134Y11104887D01*
X22107916Y11182646D01*
X22017065Y11243926D01*
X21916041Y11286393D01*
X21808693Y11308428D01*
X21699109Y11309193D01*
X21591464Y11288659D01*
X21489857Y11247607D01*
X21398159Y11187601D01*
X21319863Y11110928D01*
X21257950Y11020507D01*
X21214780Y10919782D01*
X21191995Y10812590D01*
X21190465Y10703015D01*
X12656195Y10703015D01*
X11656195Y11703015D01*
X15440465Y11703015D01*
X15460248Y11595229D01*
X15500589Y11493338D01*
X15559953Y11401223D01*
X15636078Y11322393D01*
X15726065Y11259851D01*
X15826486Y11215978D01*
X15933516Y11192446D01*
X16043078Y11190151D01*
X16151000Y11209180D01*
X16253170Y11248809D01*
X16345696Y11307529D01*
X16425056Y11383102D01*
X16488225Y11472650D01*
X16532798Y11572762D01*
X16557076Y11679625D01*
X16558824Y11804793D01*
X16537539Y11912293D01*
X16495779Y12013610D01*
X16435134Y12104887D01*
X16357916Y12182646D01*
X16267065Y12243926D01*
X16166041Y12286393D01*
X16058693Y12308428D01*
X15949109Y12309193D01*
X15841464Y12288659D01*
X15739857Y12247607D01*
X15648159Y12187601D01*
X15569863Y12110928D01*
X15507950Y12020507D01*
X15464780Y11919782D01*
X15441995Y11812590D01*
X15440465Y11703015D01*
X11656195Y11703015D01*
X10929605Y12429605D01*
X10848820Y12483988D01*
X10750000Y12504000D01*
X8058115Y12504000D01*
X8058824Y12554793D01*
X8037539Y12662293D01*
X7995779Y12763610D01*
X7935134Y12854887D01*
X7857916Y12932646D01*
X7827718Y12953015D01*
X14690465Y12953015D01*
X14710248Y12845229D01*
X14750589Y12743338D01*
X14809953Y12651223D01*
X14886078Y12572393D01*
X14976065Y12509851D01*
X15076486Y12465978D01*
X15183516Y12442446D01*
X15293078Y12440151D01*
X15401000Y12459180D01*
X15503170Y12498809D01*
X15595696Y12557529D01*
X15675056Y12633102D01*
X15738225Y12722650D01*
X15782798Y12822762D01*
X15807076Y12929625D01*
X15808824Y13054793D01*
X15787539Y13162293D01*
X15745779Y13263610D01*
X15685134Y13354887D01*
X15607916Y13432646D01*
X15517065Y13493926D01*
X15416041Y13536393D01*
X15308693Y13558428D01*
X15199109Y13559193D01*
X15091464Y13538659D01*
X14989857Y13497607D01*
X14898159Y13437601D01*
X14819863Y13360928D01*
X14757950Y13270507D01*
X14714780Y13169782D01*
X14691995Y13062590D01*
X14690465Y12953015D01*
X7827718Y12953015D01*
X7767065Y12993926D01*
X7666041Y13036393D01*
X7558693Y13058428D01*
X7449109Y13059193D01*
X7341464Y13038659D01*
X7239857Y12997607D01*
X7148159Y12937601D01*
X7069863Y12860928D01*
X7007950Y12770507D01*
X6964780Y12669782D01*
X6941995Y12562590D01*
X6941177Y12504000D01*
X6243100Y12504000D01*
X6166041Y12536393D01*
X6058693Y12558428D01*
X5949109Y12559193D01*
X5841464Y12538659D01*
X5755680Y12504000D01*
X5000000Y12504000D01*
X4904422Y12485331D01*
X4820395Y12429605D01*
X4570395Y12179605D01*
X4516012Y12098820D01*
X4496000Y12000000D01*
X4496000Y7000000D01*
X4514669Y6904422D01*
X4570395Y6820395D01*
X4820395Y6570395D01*
X4901180Y6516012D01*
X5000000Y6496000D01*
X7043279Y6496000D01*
X7066674Y6485779D01*
X7179756Y6460916D01*
X7295514Y6458491D01*
X7384587Y6474197D01*
X7422348Y6378823D01*
X7485068Y6281500D01*
X7515054Y6250449D01*
X7495539Y6231338D01*
X7430125Y6135804D01*
X7415465Y6101600D01*
X484000Y6101600D01*
X484000Y14703015D01*
X21190465Y14703015D01*
X21210248Y14595229D01*
X21250589Y14493338D01*
X21309953Y14401223D01*
X21386078Y14322393D01*
X21476065Y14259851D01*
X21576486Y14215978D01*
X21683516Y14192446D01*
X21793078Y14190151D01*
X21901000Y14209180D01*
X22003170Y14248809D01*
X22095696Y14307529D01*
X22175056Y14383102D01*
X22238225Y14472650D01*
X22282798Y14572762D01*
X22307076Y14679625D01*
X22308824Y14804793D01*
X22287539Y14912293D01*
X22245779Y15013610D01*
X22185134Y15104887D01*
X22107916Y15182646D01*
X22017065Y15243926D01*
X21916041Y15286393D01*
X21808693Y15308428D01*
X21699109Y15309193D01*
X21591464Y15288659D01*
X21489857Y15247607D01*
X21398159Y15187601D01*
X21319863Y15110928D01*
X21257950Y15020507D01*
X21214780Y14919782D01*
X21191995Y14812590D01*
X21190465Y14703015D01*
X484000Y14703015D01*
X484000Y16628866D01*
X27053886Y16628866D01*
X27076350Y16382026D01*
X27146332Y16144250D01*
X27261164Y15924595D01*
X27416475Y15731428D01*
X27606347Y15572106D01*
X27823549Y15452698D01*
X28059807Y15377753D01*
X28306123Y15350124D01*
X28323855Y15350000D01*
X28336145Y15350000D01*
X28582823Y15374187D01*
X28820104Y15445827D01*
X29038952Y15562190D01*
X29231030Y15718845D01*
X29389023Y15909825D01*
X29506911Y16127855D01*
X29580206Y16364631D01*
X29606114Y16611134D01*
X29604501Y16628866D01*
X32133886Y16628866D01*
X32156350Y16382026D01*
X32226332Y16144250D01*
X32341164Y15924595D01*
X32496475Y15731428D01*
X32686347Y15572106D01*
X32903549Y15452698D01*
X33139807Y15377753D01*
X33386123Y15350124D01*
X33403855Y15350000D01*
X33416145Y15350000D01*
X33662823Y15374187D01*
X33900104Y15445827D01*
X34118952Y15562190D01*
X34311030Y15718845D01*
X34469023Y15909825D01*
X34586911Y16127855D01*
X34660206Y16364631D01*
X34686114Y16611134D01*
X34663650Y16857974D01*
X34593668Y17095750D01*
X34478836Y17315405D01*
X34323525Y17508572D01*
X34133653Y17667894D01*
X33916451Y17787302D01*
X33680193Y17862247D01*
X33433877Y17889876D01*
X33416145Y17890000D01*
X33403855Y17890000D01*
X33157177Y17865813D01*
X32919896Y17794173D01*
X32701048Y17677810D01*
X32508970Y17521155D01*
X32350977Y17330175D01*
X32233089Y17112145D01*
X32159794Y16875369D01*
X32133886Y16628866D01*
X29604501Y16628866D01*
X29583650Y16857974D01*
X29513668Y17095750D01*
X29398836Y17315405D01*
X29243525Y17508572D01*
X29053653Y17667894D01*
X28836451Y17787302D01*
X28600193Y17862247D01*
X28353877Y17889876D01*
X28336145Y17890000D01*
X28323855Y17890000D01*
X28077177Y17865813D01*
X27839896Y17794173D01*
X27621048Y17677810D01*
X27428970Y17521155D01*
X27270977Y17330175D01*
X27153089Y17112145D01*
X27079794Y16875369D01*
X27053886Y16628866D01*
X484000Y16628866D01*
X484000Y22799520D01*
X700480Y23016000D01*
X6378042Y23016000D01*
X6085140Y22897660D01*
G36*
X58898400Y16750000D02*
X58902422Y16721695D01*
X58914171Y16695631D01*
X58928158Y16678158D01*
X59148400Y16457916D01*
X59148400Y12292084D01*
X58207916Y11351600D01*
X48450612Y11351600D01*
X48483988Y11401180D01*
X48504000Y11500000D01*
X48504000Y16500000D01*
X48485331Y16595578D01*
X48450300Y16648400D01*
X53049388Y16648400D01*
X53016012Y16598820D01*
X52996000Y16500000D01*
X52996000Y15000000D01*
X53014669Y14904422D01*
X53070395Y14820395D01*
X53320395Y14570395D01*
X53401180Y14516012D01*
X53500000Y14496000D01*
X55000000Y14496000D01*
X55095578Y14514669D01*
X55179605Y14570395D01*
X55429605Y14820395D01*
X55483988Y14901180D01*
X55504000Y15000000D01*
X55504000Y16500000D01*
X55485331Y16595578D01*
X55450300Y16648400D01*
X58500000Y16648400D01*
X58528305Y16652422D01*
X58554369Y16664171D01*
X58576128Y16682716D01*
X58591859Y16706589D01*
X58600316Y16733898D01*
X58601600Y16750000D01*
X58601600Y17148400D01*
X58898400Y17148400D01*
X58898400Y16750000D01*
X58898400Y16750000D01*
G37*
X58898400Y16750000D02*
X58902422Y16721695D01*
X58914171Y16695631D01*
X58928158Y16678158D01*
X59148400Y16457916D01*
X59148400Y12292084D01*
X58207916Y11351600D01*
X48450612Y11351600D01*
X48483988Y11401180D01*
X48504000Y11500000D01*
X48504000Y16500000D01*
X48485331Y16595578D01*
X48450300Y16648400D01*
X53049388Y16648400D01*
X53016012Y16598820D01*
X52996000Y16500000D01*
X52996000Y15000000D01*
X53014669Y14904422D01*
X53070395Y14820395D01*
X53320395Y14570395D01*
X53401180Y14516012D01*
X53500000Y14496000D01*
X55000000Y14496000D01*
X55095578Y14514669D01*
X55179605Y14570395D01*
X55429605Y14820395D01*
X55483988Y14901180D01*
X55504000Y15000000D01*
X55504000Y16500000D01*
X55485331Y16595578D01*
X55450300Y16648400D01*
X58500000Y16648400D01*
X58528305Y16652422D01*
X58554369Y16664171D01*
X58576128Y16682716D01*
X58591859Y16706589D01*
X58600316Y16733898D01*
X58601600Y16750000D01*
X58601600Y17148400D01*
X58898400Y17148400D01*
X58898400Y16750000D01*
G36*
X44398400Y17000000D02*
X44402422Y16971695D01*
X44414171Y16945631D01*
X44428158Y16928158D01*
X44678158Y16678158D01*
X44701017Y16660988D01*
X44727755Y16650865D01*
X44750000Y16648400D01*
X46500000Y16648400D01*
X46528305Y16652422D01*
X46554369Y16664171D01*
X46576128Y16682716D01*
X46591859Y16706589D01*
X46600316Y16733898D01*
X46601600Y16750000D01*
X46601600Y17148400D01*
X46898400Y17148400D01*
X46898400Y16750000D01*
X46902422Y16721695D01*
X46914171Y16695631D01*
X46932716Y16673872D01*
X46956589Y16658141D01*
X46983898Y16649684D01*
X47000000Y16648400D01*
X47500000Y16648400D01*
X47528305Y16652422D01*
X47554369Y16664171D01*
X47576128Y16682716D01*
X47591859Y16706589D01*
X47600316Y16733898D01*
X47601600Y16750000D01*
X47601600Y17148400D01*
X47898400Y17148400D01*
X47898400Y16750000D01*
X47902422Y16721695D01*
X47914171Y16695631D01*
X47928158Y16678158D01*
X48148400Y16457916D01*
X48148400Y11542084D01*
X47957916Y11351600D01*
X26750000Y11351600D01*
X26721695Y11347578D01*
X26695631Y11335829D01*
X26678158Y11321842D01*
X22707916Y7351600D01*
X13042084Y7351600D01*
X12821842Y7571842D01*
X12798983Y7589012D01*
X12772245Y7599135D01*
X12750000Y7601600D01*
X12250000Y7601600D01*
X12221695Y7597578D01*
X12195631Y7585829D01*
X12178158Y7571842D01*
X11678158Y7071842D01*
X11660988Y7048983D01*
X11650865Y7022245D01*
X11648400Y7000000D01*
X11648400Y5292084D01*
X11457916Y5101600D01*
X8792084Y5101600D01*
X8601600Y5292084D01*
X8601600Y6500000D01*
X8597578Y6528305D01*
X8585829Y6554369D01*
X8571842Y6571842D01*
X8538985Y6604699D01*
X8540426Y6707892D01*
X8517936Y6821470D01*
X8473815Y6928517D01*
X8409741Y7024956D01*
X8385478Y7049389D01*
X8399093Y7062354D01*
X8465834Y7156966D01*
X8512927Y7262739D01*
X8538579Y7375645D01*
X8540426Y7507892D01*
X8517936Y7621470D01*
X8473815Y7728517D01*
X8409741Y7824956D01*
X8328156Y7907112D01*
X8232167Y7971858D01*
X8125431Y8016726D01*
X8012012Y8040007D01*
X7896232Y8040815D01*
X7816251Y8025558D01*
X7773815Y8128517D01*
X7709741Y8224956D01*
X7685478Y8249389D01*
X7699093Y8262354D01*
X7765834Y8356966D01*
X7808597Y8453015D01*
X10440465Y8453015D01*
X10460248Y8345229D01*
X10500589Y8243338D01*
X10559953Y8151223D01*
X10636078Y8072393D01*
X10726065Y8009851D01*
X10826486Y7965978D01*
X10933516Y7942446D01*
X11043078Y7940151D01*
X11151000Y7959180D01*
X11253170Y7998809D01*
X11345696Y8057529D01*
X11425056Y8133102D01*
X11488225Y8222650D01*
X11532798Y8322762D01*
X11557076Y8429625D01*
X11558824Y8554793D01*
X11537539Y8662293D01*
X11501998Y8748521D01*
X11576486Y8715978D01*
X11683516Y8692446D01*
X11793078Y8690151D01*
X11901000Y8709180D01*
X12003170Y8748809D01*
X12095696Y8807529D01*
X12175056Y8883102D01*
X12238225Y8972650D01*
X12282798Y9072762D01*
X12307076Y9179625D01*
X12308824Y9304793D01*
X12287539Y9412293D01*
X12245779Y9513610D01*
X12185134Y9604887D01*
X12107916Y9682646D01*
X12017065Y9743926D01*
X11916041Y9786393D01*
X11808693Y9808428D01*
X11699109Y9809193D01*
X11591464Y9788659D01*
X11489857Y9747607D01*
X11398159Y9687601D01*
X11319863Y9610928D01*
X11257950Y9520507D01*
X11214780Y9419782D01*
X11191995Y9312590D01*
X11190465Y9203015D01*
X11210248Y9095229D01*
X11247020Y9002352D01*
X11166041Y9036393D01*
X11058693Y9058428D01*
X10949109Y9059193D01*
X10841464Y9038659D01*
X10739857Y8997607D01*
X10648159Y8937601D01*
X10569863Y8860928D01*
X10507950Y8770507D01*
X10464780Y8669782D01*
X10441995Y8562590D01*
X10440465Y8453015D01*
X7808597Y8453015D01*
X7812927Y8462739D01*
X7815712Y8474997D01*
X7879756Y8460916D01*
X7995514Y8458491D01*
X8109539Y8478597D01*
X8217486Y8520467D01*
X8315245Y8582507D01*
X8399093Y8662354D01*
X8465834Y8756966D01*
X8512927Y8862739D01*
X8538579Y8975645D01*
X8540426Y9107892D01*
X8517936Y9221470D01*
X8492593Y9282958D01*
X8541112Y9272291D01*
X8654635Y9269913D01*
X8766458Y9289630D01*
X8872321Y9330692D01*
X8968193Y9391534D01*
X9050421Y9469839D01*
X9115874Y9562624D01*
X9162058Y9666355D01*
X9187214Y9777081D01*
X9189025Y9906774D01*
X9166970Y10018159D01*
X9123701Y10123139D01*
X9060864Y10217716D01*
X8980855Y10298286D01*
X8886719Y10361781D01*
X8782044Y10405783D01*
X8670815Y10428615D01*
X8557270Y10429408D01*
X8445733Y10408131D01*
X8340453Y10365595D01*
X8245441Y10303420D01*
X8213762Y10272397D01*
X8216437Y10463974D01*
X8183816Y10628725D01*
X8119815Y10784001D01*
X8026874Y10923889D01*
X7908531Y11043061D01*
X7769296Y11136976D01*
X7614470Y11202059D01*
X7449951Y11235830D01*
X7282007Y11237002D01*
X7117033Y11205532D01*
X6961313Y11142617D01*
X6820780Y11050655D01*
X6700785Y10933147D01*
X6605900Y10794570D01*
X6539737Y10640203D01*
X6504819Y10475924D01*
X6502474Y10307992D01*
X6532792Y10142802D01*
X6594618Y9986647D01*
X6685597Y9845475D01*
X6802264Y9724663D01*
X6940175Y9628812D01*
X7094077Y9561574D01*
X7258108Y9525509D01*
X7426020Y9521992D01*
X7591417Y9551156D01*
X7748000Y9611891D01*
X7889804Y9701882D01*
X8011428Y9817703D01*
X8030852Y9845238D01*
X8030238Y9801316D01*
X8050736Y9689634D01*
X8075549Y9626965D01*
X8012012Y9640007D01*
X7896232Y9640815D01*
X7782499Y9619120D01*
X7675146Y9575746D01*
X7578263Y9512348D01*
X7495539Y9431338D01*
X7430125Y9335804D01*
X7384513Y9229383D01*
X7383646Y9225303D01*
X7312012Y9240007D01*
X7196232Y9240815D01*
X7082499Y9219120D01*
X6975146Y9175746D01*
X6878263Y9112348D01*
X6795539Y9031338D01*
X6730125Y8935804D01*
X6684513Y8829383D01*
X6660440Y8716130D01*
X6658824Y8600358D01*
X6679725Y8486476D01*
X6722348Y8378823D01*
X6785068Y8281500D01*
X6815054Y8250449D01*
X6795539Y8231338D01*
X6730125Y8135804D01*
X6684513Y8029383D01*
X6660440Y7916130D01*
X6658824Y7800358D01*
X6679725Y7686476D01*
X6722348Y7578823D01*
X6785068Y7481500D01*
X6865498Y7398212D01*
X6960574Y7332133D01*
X7066674Y7285779D01*
X7179756Y7260916D01*
X7295514Y7258491D01*
X7384587Y7274197D01*
X7422348Y7178823D01*
X7485068Y7081500D01*
X7515054Y7050449D01*
X7495539Y7031338D01*
X7430125Y6935804D01*
X7394035Y6851600D01*
X5042084Y6851600D01*
X4851600Y7042084D01*
X4851600Y11957916D01*
X5042084Y12148400D01*
X5460235Y12148400D01*
X5441995Y12062590D01*
X5440465Y11953015D01*
X5460248Y11845229D01*
X5500589Y11743338D01*
X5559953Y11651223D01*
X5636078Y11572393D01*
X5726065Y11509851D01*
X5826486Y11465978D01*
X5933516Y11442446D01*
X6043078Y11440151D01*
X6151000Y11459180D01*
X6253170Y11498809D01*
X6345696Y11557529D01*
X6425056Y11633102D01*
X6488225Y11722650D01*
X6532798Y11822762D01*
X6557076Y11929625D01*
X6558824Y12054793D01*
X6540290Y12148400D01*
X7062679Y12148400D01*
X7136078Y12072393D01*
X7226065Y12009851D01*
X7326486Y11965978D01*
X7433516Y11942446D01*
X7543078Y11940151D01*
X7651000Y11959180D01*
X7753170Y11998809D01*
X7845696Y12057529D01*
X7925056Y12133102D01*
X7935848Y12148400D01*
X10707916Y12148400D01*
X13678158Y9178158D01*
X13701017Y9160988D01*
X13727755Y9150865D01*
X13750000Y9148400D01*
X21500000Y9148400D01*
X21528305Y9152422D01*
X21554369Y9164171D01*
X21571842Y9178158D01*
X25792084Y13398400D01*
X35750000Y13398400D01*
X35778305Y13402422D01*
X35804369Y13414171D01*
X35821842Y13428158D01*
X36071842Y13678158D01*
X36089012Y13701017D01*
X36099135Y13727755D01*
X36101600Y13750000D01*
X36101600Y17457916D01*
X36292084Y17648400D01*
X44398400Y17648400D01*
X44398400Y17000000D01*
X44398400Y17000000D01*
G37*
X44398400Y17000000D02*
X44402422Y16971695D01*
X44414171Y16945631D01*
X44428158Y16928158D01*
X44678158Y16678158D01*
X44701017Y16660988D01*
X44727755Y16650865D01*
X44750000Y16648400D01*
X46500000Y16648400D01*
X46528305Y16652422D01*
X46554369Y16664171D01*
X46576128Y16682716D01*
X46591859Y16706589D01*
X46600316Y16733898D01*
X46601600Y16750000D01*
X46601600Y17148400D01*
X46898400Y17148400D01*
X46898400Y16750000D01*
X46902422Y16721695D01*
X46914171Y16695631D01*
X46932716Y16673872D01*
X46956589Y16658141D01*
X46983898Y16649684D01*
X47000000Y16648400D01*
X47500000Y16648400D01*
X47528305Y16652422D01*
X47554369Y16664171D01*
X47576128Y16682716D01*
X47591859Y16706589D01*
X47600316Y16733898D01*
X47601600Y16750000D01*
X47601600Y17148400D01*
X47898400Y17148400D01*
X47898400Y16750000D01*
X47902422Y16721695D01*
X47914171Y16695631D01*
X47928158Y16678158D01*
X48148400Y16457916D01*
X48148400Y11542084D01*
X47957916Y11351600D01*
X26750000Y11351600D01*
X26721695Y11347578D01*
X26695631Y11335829D01*
X26678158Y11321842D01*
X22707916Y7351600D01*
X13042084Y7351600D01*
X12821842Y7571842D01*
X12798983Y7589012D01*
X12772245Y7599135D01*
X12750000Y7601600D01*
X12250000Y7601600D01*
X12221695Y7597578D01*
X12195631Y7585829D01*
X12178158Y7571842D01*
X11678158Y7071842D01*
X11660988Y7048983D01*
X11650865Y7022245D01*
X11648400Y7000000D01*
X11648400Y5292084D01*
X11457916Y5101600D01*
X8792084Y5101600D01*
X8601600Y5292084D01*
X8601600Y6500000D01*
X8597578Y6528305D01*
X8585829Y6554369D01*
X8571842Y6571842D01*
X8538985Y6604699D01*
X8540426Y6707892D01*
X8517936Y6821470D01*
X8473815Y6928517D01*
X8409741Y7024956D01*
X8385478Y7049389D01*
X8399093Y7062354D01*
X8465834Y7156966D01*
X8512927Y7262739D01*
X8538579Y7375645D01*
X8540426Y7507892D01*
X8517936Y7621470D01*
X8473815Y7728517D01*
X8409741Y7824956D01*
X8328156Y7907112D01*
X8232167Y7971858D01*
X8125431Y8016726D01*
X8012012Y8040007D01*
X7896232Y8040815D01*
X7816251Y8025558D01*
X7773815Y8128517D01*
X7709741Y8224956D01*
X7685478Y8249389D01*
X7699093Y8262354D01*
X7765834Y8356966D01*
X7808597Y8453015D01*
X10440465Y8453015D01*
X10460248Y8345229D01*
X10500589Y8243338D01*
X10559953Y8151223D01*
X10636078Y8072393D01*
X10726065Y8009851D01*
X10826486Y7965978D01*
X10933516Y7942446D01*
X11043078Y7940151D01*
X11151000Y7959180D01*
X11253170Y7998809D01*
X11345696Y8057529D01*
X11425056Y8133102D01*
X11488225Y8222650D01*
X11532798Y8322762D01*
X11557076Y8429625D01*
X11558824Y8554793D01*
X11537539Y8662293D01*
X11501998Y8748521D01*
X11576486Y8715978D01*
X11683516Y8692446D01*
X11793078Y8690151D01*
X11901000Y8709180D01*
X12003170Y8748809D01*
X12095696Y8807529D01*
X12175056Y8883102D01*
X12238225Y8972650D01*
X12282798Y9072762D01*
X12307076Y9179625D01*
X12308824Y9304793D01*
X12287539Y9412293D01*
X12245779Y9513610D01*
X12185134Y9604887D01*
X12107916Y9682646D01*
X12017065Y9743926D01*
X11916041Y9786393D01*
X11808693Y9808428D01*
X11699109Y9809193D01*
X11591464Y9788659D01*
X11489857Y9747607D01*
X11398159Y9687601D01*
X11319863Y9610928D01*
X11257950Y9520507D01*
X11214780Y9419782D01*
X11191995Y9312590D01*
X11190465Y9203015D01*
X11210248Y9095229D01*
X11247020Y9002352D01*
X11166041Y9036393D01*
X11058693Y9058428D01*
X10949109Y9059193D01*
X10841464Y9038659D01*
X10739857Y8997607D01*
X10648159Y8937601D01*
X10569863Y8860928D01*
X10507950Y8770507D01*
X10464780Y8669782D01*
X10441995Y8562590D01*
X10440465Y8453015D01*
X7808597Y8453015D01*
X7812927Y8462739D01*
X7815712Y8474997D01*
X7879756Y8460916D01*
X7995514Y8458491D01*
X8109539Y8478597D01*
X8217486Y8520467D01*
X8315245Y8582507D01*
X8399093Y8662354D01*
X8465834Y8756966D01*
X8512927Y8862739D01*
X8538579Y8975645D01*
X8540426Y9107892D01*
X8517936Y9221470D01*
X8492593Y9282958D01*
X8541112Y9272291D01*
X8654635Y9269913D01*
X8766458Y9289630D01*
X8872321Y9330692D01*
X8968193Y9391534D01*
X9050421Y9469839D01*
X9115874Y9562624D01*
X9162058Y9666355D01*
X9187214Y9777081D01*
X9189025Y9906774D01*
X9166970Y10018159D01*
X9123701Y10123139D01*
X9060864Y10217716D01*
X8980855Y10298286D01*
X8886719Y10361781D01*
X8782044Y10405783D01*
X8670815Y10428615D01*
X8557270Y10429408D01*
X8445733Y10408131D01*
X8340453Y10365595D01*
X8245441Y10303420D01*
X8213762Y10272397D01*
X8216437Y10463974D01*
X8183816Y10628725D01*
X8119815Y10784001D01*
X8026874Y10923889D01*
X7908531Y11043061D01*
X7769296Y11136976D01*
X7614470Y11202059D01*
X7449951Y11235830D01*
X7282007Y11237002D01*
X7117033Y11205532D01*
X6961313Y11142617D01*
X6820780Y11050655D01*
X6700785Y10933147D01*
X6605900Y10794570D01*
X6539737Y10640203D01*
X6504819Y10475924D01*
X6502474Y10307992D01*
X6532792Y10142802D01*
X6594618Y9986647D01*
X6685597Y9845475D01*
X6802264Y9724663D01*
X6940175Y9628812D01*
X7094077Y9561574D01*
X7258108Y9525509D01*
X7426020Y9521992D01*
X7591417Y9551156D01*
X7748000Y9611891D01*
X7889804Y9701882D01*
X8011428Y9817703D01*
X8030852Y9845238D01*
X8030238Y9801316D01*
X8050736Y9689634D01*
X8075549Y9626965D01*
X8012012Y9640007D01*
X7896232Y9640815D01*
X7782499Y9619120D01*
X7675146Y9575746D01*
X7578263Y9512348D01*
X7495539Y9431338D01*
X7430125Y9335804D01*
X7384513Y9229383D01*
X7383646Y9225303D01*
X7312012Y9240007D01*
X7196232Y9240815D01*
X7082499Y9219120D01*
X6975146Y9175746D01*
X6878263Y9112348D01*
X6795539Y9031338D01*
X6730125Y8935804D01*
X6684513Y8829383D01*
X6660440Y8716130D01*
X6658824Y8600358D01*
X6679725Y8486476D01*
X6722348Y8378823D01*
X6785068Y8281500D01*
X6815054Y8250449D01*
X6795539Y8231338D01*
X6730125Y8135804D01*
X6684513Y8029383D01*
X6660440Y7916130D01*
X6658824Y7800358D01*
X6679725Y7686476D01*
X6722348Y7578823D01*
X6785068Y7481500D01*
X6865498Y7398212D01*
X6960574Y7332133D01*
X7066674Y7285779D01*
X7179756Y7260916D01*
X7295514Y7258491D01*
X7384587Y7274197D01*
X7422348Y7178823D01*
X7485068Y7081500D01*
X7515054Y7050449D01*
X7495539Y7031338D01*
X7430125Y6935804D01*
X7394035Y6851600D01*
X5042084Y6851600D01*
X4851600Y7042084D01*
X4851600Y11957916D01*
X5042084Y12148400D01*
X5460235Y12148400D01*
X5441995Y12062590D01*
X5440465Y11953015D01*
X5460248Y11845229D01*
X5500589Y11743338D01*
X5559953Y11651223D01*
X5636078Y11572393D01*
X5726065Y11509851D01*
X5826486Y11465978D01*
X5933516Y11442446D01*
X6043078Y11440151D01*
X6151000Y11459180D01*
X6253170Y11498809D01*
X6345696Y11557529D01*
X6425056Y11633102D01*
X6488225Y11722650D01*
X6532798Y11822762D01*
X6557076Y11929625D01*
X6558824Y12054793D01*
X6540290Y12148400D01*
X7062679Y12148400D01*
X7136078Y12072393D01*
X7226065Y12009851D01*
X7326486Y11965978D01*
X7433516Y11942446D01*
X7543078Y11940151D01*
X7651000Y11959180D01*
X7753170Y11998809D01*
X7845696Y12057529D01*
X7925056Y12133102D01*
X7935848Y12148400D01*
X10707916Y12148400D01*
X13678158Y9178158D01*
X13701017Y9160988D01*
X13727755Y9150865D01*
X13750000Y9148400D01*
X21500000Y9148400D01*
X21528305Y9152422D01*
X21554369Y9164171D01*
X21571842Y9178158D01*
X25792084Y13398400D01*
X35750000Y13398400D01*
X35778305Y13402422D01*
X35804369Y13414171D01*
X35821842Y13428158D01*
X36071842Y13678158D01*
X36089012Y13701017D01*
X36099135Y13727755D01*
X36101600Y13750000D01*
X36101600Y17457916D01*
X36292084Y17648400D01*
X44398400Y17648400D01*
X44398400Y17000000D01*
M02*
